<?xml version="1.0" encoding="UTF-8"?>
<svg width="341px" height="258px" viewBox="0 0 341 258" version="1.1" xmlns="http://www.w3.org/2000/svg"
     xmlns:xlink="http://www.w3.org/1999/xlink">
    <!-- Generator: Sketch 43.2 (39069) - http://www.bohemiancoding.com/sketch -->
    <title>cloud</title>
    <desc>Created with Sketch.</desc>
    <defs></defs>
    <g id="Flow" stroke="none" stroke-width="1" fill="none" fill-rule="evenodd">
        <g id="Clouds" transform="translate(-24.000000, -111.000000)" stroke="#FFB5B5" stroke-width="4" fill="#CFFCF0"
           fill-rule="nonzero">
            <g id="cloud" transform="translate(26.000000, 113.000000)">
                <path d="M49.5336915,90.8447429 C49.5336915,110.666029 65.6048085,126.7331 85.4335,126.7331 C87.7590426,126.7331 90.0217979,126.506157 92.2193511,126.088486 C91.9343936,127.732614 91.7725957,129.415371 91.7725957,131.148829 C91.7725957,147.4694 105.006213,160.699686 121.338138,160.699686 C128.901585,160.699686 135.798521,157.855657 141.026766,153.188843 C148.735106,162.672157 160.483564,168.739257 173.659223,168.739257 C190.041862,168.739257 204.226947,159.359757 211.160106,145.690071 C214.857309,146.749943 218.771851,147.339029 222.814383,147.339029 C246.023926,147.339029 264.843191,128.531743 264.843191,105.332871 C264.843191,101.885271 264.415755,98.527 263.62367,95.316 C270.527851,89.9055857 274.971255,81.4966286 274.971255,72.0447 C274.971255,55.7265429 261.740053,42.4890143 245.415372,42.4890143 C245.35983,42.4890143 245.301872,42.4914286 245.239085,42.4914286 C245.239085,42.4914286 245.239085,42.4914286 245.239085,42.4890143 C245.239085,26.1660286 232.007883,12.9405714 215.683202,12.9405714 C206.726362,12.9405714 198.704085,16.9289714 193.289894,23.2206 C188.090628,9.78992857 175.062277,0.258328571 159.792904,0.258328571 C145.458096,0.258328571 133.09384,8.6528 127.341564,20.7821714 C122.156787,12.2814714 112.784585,6.59824286 102.084191,6.59824286 C85.7595106,6.59824286 72.5283085,19.8285286 72.5283085,36.1491 C72.5283085,43.5126714 75.2257447,50.2388714 79.6788085,55.4126857 C62.5837766,58.1649714 49.5336915,72.9790286 49.5336915,90.8447429 Z"
                      id="Shape"></path>
                <path d="M142,137.358998 C142,154.504793 155.901827,168.40312 173.054028,168.40312 C175.065667,168.40312 177.022994,168.20681 178.92392,167.845516 C178.677426,169.267719 178.537468,170.723337 178.537468,172.22281 C178.537468,186.34042 189.984802,197.784873 204.112233,197.784873 C210.654761,197.784873 216.620744,195.324733 221.143276,191.287848 C227.81114,199.491098 237.973782,204.739257 249.370982,204.739257 C263.542281,204.739257 275.812653,196.625808 281.80997,184.801266 C285.008122,185.718076 288.394277,186.227646 291.891145,186.227646 C311.967847,186.227646 328.246876,169.958981 328.246876,149.891509 C328.246876,146.909268 327.877135,144.004299 327.191966,141.226722 C333.164216,136.546609 337.007847,129.272698 337.007847,121.096598 C337.007847,106.981077 325.562601,95.5303588 311.441437,95.5303588 C311.288945,81.4106609 299.8437,69.970385 285.722536,69.970385 C277.974696,69.970385 271.035271,73.420428 266.351891,78.8628083 C261.854426,67.2450181 250.58465,59 237.376349,59 C224.976462,59 214.281143,66.2613799 209.305312,76.7535205 C204.82038,69.4002508 196.713245,64.4841483 187.457197,64.4841483 C173.336033,64.4841483 161.890788,75.928601 161.890788,90.0462105 C161.890788,96.415842 164.224122,102.234135 168.076108,106.709584 C153.288576,109.090364 142,121.90481 142,137.358998 Z"
                      id="Shape"></path>
                <path d="M0,186.358998 C0,203.504793 13.9018266,217.40312 31.0540277,217.40312 C33.0656669,217.40312 35.022994,217.20681 36.9239199,216.845516 C36.6774262,218.267719 36.537468,219.723337 36.537468,221.22281 C36.537468,235.34042 47.9848023,246.784873 62.1122333,246.784873 C68.6547608,246.784873 74.6207438,244.324733 79.1432765,240.287848 C85.8111398,248.491098 95.9737824,253.739257 107.370982,253.739257 C121.542281,253.739257 133.812653,245.625808 139.80997,233.801266 C143.008122,234.718076 146.394277,235.227646 149.891145,235.227646 C169.967847,235.227646 186.246876,218.958981 186.246876,198.891509 C186.246876,195.909268 185.877135,193.004299 185.191966,190.226722 C191.164216,185.546609 195.007847,178.272698 195.007847,170.096598 C195.007847,155.981077 183.562601,144.530359 169.441437,144.530359 C169.288945,130.410661 157.8437,118.970385 143.722536,118.970385 C135.974696,118.970385 129.035271,122.420428 124.351891,127.862808 C119.854426,116.245018 108.58465,108 95.3763485,108 C82.9764623,108 72.2811427,115.26138 67.3053123,125.75352 C62.8203804,118.400251 54.7132446,113.484148 45.4571974,113.484148 C31.3360332,113.484148 19.8907878,124.928601 19.8907878,139.04621 C19.8907878,145.415842 22.2241222,151.234135 26.0761084,155.709584 C11.2885757,158.090364 0,170.90481 0,186.358998 Z"
                      id="Shape-Copy"></path>
            </g>
        </g>
    </g>
</svg>