<?xml version="1.0" encoding="UTF-8"?>
<svg width="139px" height="160px" viewBox="0 0 139 160" version="1.1" xmlns="http://www.w3.org/2000/svg"
     xmlns:xlink="http://www.w3.org/1999/xlink">
    <!-- Generator: Sketch 43.2 (39069) - http://www.bohemiancoding.com/sketch -->
    <title>noun_7357_cc</title>
    <desc>Created with Sketch.</desc>
    <defs></defs>
    <g id="Flow" stroke="none" stroke-width="1" fill="none" fill-rule="evenodd">
        <g id="noun_7357_cc" fill-rule="nonzero" fill="#FFFFFF">
            <path d="M69.5193023,102.601061 C69.2913953,102.601061 69.0618605,102.544141 68.8567442,102.427051 L50.3572093,91.8140606 C49.9469767,91.5766263 49.6913953,91.1407879 49.6913953,90.6659192 L49.6409302,69.3521212 C49.6393023,68.8788788 49.8916279,68.4397879 50.3018605,68.2023535 L68.7509302,57.5031717 C69.1611628,57.2657374 69.6674419,57.2641111 70.0776744,57.4999192 L88.5788372,68.1129091 C88.9906977,68.3503434 89.2446512,68.7861818 89.2462791,69.2610505 L89.2951163,90.571596 C89.2967442,91.0464646 89.0460465,91.4855556 88.635814,91.7229899 L70.1834884,102.423798 C69.98,102.540889 69.7504651,102.601061 69.5193023,102.601061 Z M52.3465116,89.8934444 L69.5176744,99.7453434 L86.6416279,89.8137576 L86.5960465,70.0335253 L69.4232558,60.1816263 L52.2993023,70.1132121 L52.3465116,89.8934444 Z"
                  id="Shape"></path>
            <path d="M69.5030233,95.1267576 C69.2734884,95.1267576 69.0455814,95.0682121 68.842093,94.9511212 L56.8281395,88.0590202 C56.417907,87.8248384 56.1639535,87.3873737 56.1623256,86.9141313 L56.1297674,73.0746364 C56.1297674,72.5997677 56.382093,72.162303 56.7906977,71.9232424 L68.7704651,64.9758485 C69.1823256,64.7384141 69.6869767,64.7367879 70.0988372,64.972596 L82.1127907,71.864697 C82.5230233,72.1021313 82.7769767,72.5379697 82.7769767,73.0128384 L82.8111628,86.8507071 C82.8127907,87.3255758 82.5604651,87.7646667 82.1502326,88.0004747 L70.1704651,94.9478687 C69.962093,95.0665859 69.7325581,95.1267576 69.5030233,95.1267576 Z M58.815814,86.1400303 L69.4981395,92.2694141 L80.1527907,86.0896162 L80.1218605,73.7853131 L69.4395349,67.6559293 L58.7881395,73.834101 L58.815814,86.1400303 Z"
                  id="Shape"></path>
            <g id="Group">
                <path d="M68.0916279,57.8544444 C68.0916279,58.5878889 68.684186,59.1814747 69.4183721,59.1814747 C70.1509302,59.1814747 70.7451163,58.5878889 70.7451163,57.8544444 L70.7451163,54.5108485 L68.09,51.8584141 L68.09,57.8544444 L68.0916279,57.8544444 Z"
                      id="Shape"></path>
                <polygon id="Shape"
                         points="68.0916279 48.1066263 70.7467442 50.7590606 70.7467442 43.8978586 68.0916279 41.2454242"></polygon>
                <polygon id="Shape"
                         points="68.0916279 26.8822727 70.7467442 29.5347071 70.7467442 22.6751313 68.0916279 20.0210707"></polygon>
                <path d="M70.7467442,1.74350505 C70.7467442,1.01006061 70.1525581,0.416474747 69.42,0.416474747 C68.685814,0.416474747 68.0932558,1.01006061 68.0932558,1.74350505 L68.0932558,16.2692828 L70.7483721,18.9233434 L70.7483721,1.74350505 L70.7467442,1.74350505 Z"
                      id="Shape"></path>
                <polygon id="Shape"
                         points="68.0916279 37.4936364 70.7467442 40.147697 70.7467442 33.2864949 68.0916279 30.6340606"></polygon>
                <path d="M50.9302326,20.3495758 C50.4109302,19.8324242 49.5709302,19.8324242 49.0532558,20.3495758 C48.5339535,20.8683535 48.5339535,21.7075051 49.0532558,22.2246566 L68.0916279,41.243798 L68.0916279,37.4936364 L50.9302326,20.3495758 Z"
                      id="Shape"></path>
                <path d="M70.7467442,40.147697 L70.7467442,43.8978586" id="Shape"></path>
                <polygon id="Shape"
                         points="68.0916279 41.2454242 70.7467442 43.8978586 70.7467442 40.147697 68.0916279 37.4936364"></polygon>
                <path d="M70.7467442,29.5347071 L70.7467442,33.2864949" id="Shape"></path>
                <path d="M56.242093,15.0447071 C55.7244186,14.5259293 54.8827907,14.5259293 54.3634884,15.0447071 C53.845814,15.5618586 53.845814,16.4010101 54.3634884,16.9197879 L68.0916279,30.6340606 L68.0916279,26.8822727 L56.242093,15.0447071 Z"
                      id="Shape"></path>
                <polygon id="Shape"
                         points="68.0916279 30.6340606 70.7467442 33.2864949 70.7467442 29.5347071 68.0916279 26.8822727"></polygon>
                <path d="M70.7467442,50.7590606 L70.7467442,54.5108485" id="Shape"></path>
                <path d="M56.242093,36.2690606 C55.7244186,35.7502828 54.8827907,35.7502828 54.3634884,36.2690606 C53.845814,36.7878384 53.845814,37.6269899 54.3634884,38.1441414 L68.0916279,51.8584141 L68.0916279,48.1066263 L56.242093,36.2690606 Z"
                      id="Shape"></path>
                <polygon id="Shape"
                         points="68.0916279 51.8584141 70.7467442 54.5108485 70.7467442 50.7590606 68.0916279 48.1066263"></polygon>
                <path d="M70.7467442,18.9217172 L70.7467442,22.6751313" id="Shape"></path>
                <path d="M61.5539535,9.73821212 C61.037907,9.21943434 60.1962791,9.21943434 59.6769767,9.73821212 C59.1576744,10.2553636 59.1576744,11.0945152 59.6769767,11.6132929 L68.0932558,20.0194444 L68.0932558,16.2676566 L61.5539535,9.73821212 Z"
                      id="Shape"></path>
                <polygon id="Shape"
                         points="68.0916279 16.2692828 68.0916279 20.0210707 70.7467442 22.6751313 70.7467442 18.9217172"></polygon>
                <path d="M70.7467442,57.8544444 C70.7467442,58.5878889 70.1525581,59.1814747 69.42,59.1814747 C68.685814,59.1814747 68.0932558,58.5878889 68.0932558,57.8544444 L68.0932558,54.5108485 L70.7483721,51.8584141 L70.7483721,57.8544444 L70.7467442,57.8544444 Z"
                      id="Shape"></path>
                <polygon id="Shape"
                         points="70.7467442 48.1066263 68.0916279 50.7590606 68.0916279 43.8978586 70.7467442 41.2454242"></polygon>
                <polygon id="Shape"
                         points="70.7467442 26.8822727 68.0916279 29.5347071 68.0916279 22.6751313 70.7467442 20.0210707"></polygon>
                <path d="M68.0916279,1.74350505 C68.0916279,1.01006061 68.684186,0.416474747 69.4183721,0.416474747 C70.1509302,0.416474747 70.7451163,1.01006061 70.7451163,1.74350505 L70.7451163,16.2692828 L68.09,18.9233434 L68.09,1.74350505 L68.0916279,1.74350505 Z"
                      id="Shape"></path>
                <polygon id="Shape"
                         points="70.7467442 37.4936364 68.0916279 40.147697 68.0916279 33.2864949 70.7467442 30.6340606"></polygon>
                <path d="M87.9081395,20.3495758 C88.425814,19.8324242 89.2674419,19.8324242 89.7851163,20.3495758 C90.3027907,20.8683535 90.3027907,21.7075051 89.7851163,22.2246566 L70.7467442,41.2454242 L70.7467442,37.4936364 L87.9081395,20.3495758 Z"
                      id="Shape"></path>
                <path d="M68.0916279,40.147697 L68.0916279,43.8978586" id="Shape"></path>
                <polygon id="Shape"
                         points="70.7467442 41.2454242 68.0916279 43.8978586 68.0916279 40.147697 70.7467442 37.4936364"></polygon>
                <path d="M68.0916279,29.5347071 L68.0916279,33.2864949" id="Shape"></path>
                <path d="M82.597907,15.0447071 C83.1172093,14.5259293 83.9572093,14.5259293 84.4748837,15.0447071 C84.9925581,15.5618586 84.9925581,16.4010101 84.4748837,16.9197879 L70.7467442,30.6340606 L70.7467442,26.8822727 L82.597907,15.0447071 Z"
                      id="Shape"></path>
                <polygon id="Shape"
                         points="70.7467442 30.6340606 68.0916279 33.2864949 68.0916279 29.5347071 70.7467442 26.8822727"></polygon>
                <path d="M68.0916279,50.7590606 L68.0916279,54.5108485" id="Shape"></path>
                <path d="M82.597907,36.2690606 C83.1172093,35.7502828 83.9572093,35.7502828 84.4748837,36.2690606 C84.9925581,36.7878384 84.9925581,37.6269899 84.4748837,38.1441414 L70.7467442,51.8584141 L70.7467442,48.1066263 L82.597907,36.2690606 Z"
                      id="Shape"></path>
                <polygon id="Shape"
                         points="70.7467442 51.8584141 68.0916279 54.5108485 68.0916279 50.7590606 70.7467442 48.1066263"></polygon>
                <path d="M68.0916279,18.9217172 L68.0916279,22.6751313" id="Shape"></path>
                <path d="M77.2860465,9.73821212 C77.8037209,9.21943434 78.6437209,9.21943434 79.1630233,9.73821212 C79.6806977,10.2553636 79.6806977,11.0945152 79.1630233,11.6132929 L70.7467442,20.0194444 L70.7467442,16.2676566 L77.2860465,9.73821212 Z"
                      id="Shape"></path>
                <polygon id="Shape"
                         points="70.7467442 16.2692828 70.7467442 20.0210707 68.0916279 22.6751313 68.0916279 18.9217172"></polygon>
                <path d="M68.0916279,57.8544444 C68.0916279,58.5878889 68.684186,59.1814747 69.4183721,59.1814747 C70.1509302,59.1814747 70.7451163,58.5878889 70.7451163,57.8544444 L70.7451163,54.5108485 L68.09,51.8584141 L68.09,57.8544444 L68.0916279,57.8544444 Z"
                      id="Shape"></path>
                <polygon id="Shape"
                         points="68.0916279 48.1066263 70.7467442 50.7590606 70.7467442 43.8978586 68.0916279 41.2454242"></polygon>
                <polygon id="Shape"
                         points="68.0916279 26.8822727 70.7467442 29.5347071 70.7467442 22.6751313 68.0916279 20.0210707"></polygon>
                <path d="M70.7467442,1.74350505 C70.7467442,1.01006061 70.1525581,0.416474747 69.42,0.416474747 C68.685814,0.416474747 68.0932558,1.01006061 68.0932558,1.74350505 L68.0932558,16.2692828 L70.7483721,18.9233434 L70.7483721,1.74350505 L70.7467442,1.74350505 Z"
                      id="Shape"></path>
                <polygon id="Shape"
                         points="68.0916279 37.4936364 70.7467442 40.147697 70.7467442 33.2864949 68.0916279 30.6340606"></polygon>
                <path d="M50.9302326,20.3495758 C50.4109302,19.8324242 49.5709302,19.8324242 49.0532558,20.3495758 C48.5339535,20.8683535 48.5339535,21.7075051 49.0532558,22.2246566 L68.0916279,41.243798 L68.0916279,37.4936364 L50.9302326,20.3495758 Z"
                      id="Shape"></path>
                <path d="M70.7467442,40.147697 L70.7467442,43.8978586" id="Shape"></path>
                <polygon id="Shape"
                         points="68.0916279 41.2454242 70.7467442 43.8978586 70.7467442 40.147697 68.0916279 37.4936364"></polygon>
                <path d="M70.7467442,29.5347071 L70.7467442,33.2864949" id="Shape"></path>
                <path d="M56.242093,15.0447071 C55.7244186,14.5259293 54.8827907,14.5259293 54.3634884,15.0447071 C53.845814,15.5618586 53.845814,16.4010101 54.3634884,16.9197879 L68.0916279,30.6340606 L68.0916279,26.8822727 L56.242093,15.0447071 Z"
                      id="Shape"></path>
                <polygon id="Shape"
                         points="68.0916279 30.6340606 70.7467442 33.2864949 70.7467442 29.5347071 68.0916279 26.8822727"></polygon>
                <path d="M70.7467442,50.7590606 L70.7467442,54.5108485" id="Shape"></path>
                <path d="M56.242093,36.2690606 C55.7244186,35.7502828 54.8827907,35.7502828 54.3634884,36.2690606 C53.845814,36.7878384 53.845814,37.6269899 54.3634884,38.1441414 L68.0916279,51.8584141 L68.0916279,48.1066263 L56.242093,36.2690606 Z"
                      id="Shape"></path>
                <polygon id="Shape"
                         points="68.0916279 51.8584141 70.7467442 54.5108485 70.7467442 50.7590606 68.0916279 48.1066263"></polygon>
                <path d="M70.7467442,18.9217172 L70.7467442,22.6751313" id="Shape"></path>
                <path d="M61.5539535,9.73821212 C61.037907,9.21943434 60.1962791,9.21943434 59.6769767,9.73821212 C59.1576744,10.2553636 59.1576744,11.0945152 59.6769767,11.6132929 L68.0932558,20.0194444 L68.0932558,16.2676566 L61.5539535,9.73821212 Z"
                      id="Shape"></path>
                <polygon id="Shape"
                         points="68.0916279 16.2692828 68.0916279 20.0210707 70.7467442 22.6751313 70.7467442 18.9217172"></polygon>
                <path d="M70.7467442,57.8544444 C70.7467442,58.5878889 70.1525581,59.1814747 69.42,59.1814747 C68.685814,59.1814747 68.0932558,58.5878889 68.0932558,57.8544444 L68.0932558,54.5108485 L70.7483721,51.8584141 L70.7483721,57.8544444 L70.7467442,57.8544444 Z"
                      id="Shape"></path>
                <polygon id="Shape"
                         points="70.7467442 48.1066263 68.0916279 50.7590606 68.0916279 43.8978586 70.7467442 41.2454242"></polygon>
                <polygon id="Shape"
                         points="70.7467442 26.8822727 68.0916279 29.5347071 68.0916279 22.6751313 70.7467442 20.0210707"></polygon>
                <path d="M68.0916279,1.74350505 C68.0916279,1.01006061 68.684186,0.416474747 69.4183721,0.416474747 C70.1509302,0.416474747 70.7451163,1.01006061 70.7451163,1.74350505 L70.7451163,16.2692828 L68.09,18.9233434 L68.09,1.74350505 L68.0916279,1.74350505 Z"
                      id="Shape"></path>
                <polygon id="Shape"
                         points="70.7467442 37.4936364 68.0916279 40.147697 68.0916279 33.2864949 70.7467442 30.6340606"></polygon>
                <path d="M87.9081395,20.3495758 C88.425814,19.8324242 89.2674419,19.8324242 89.7851163,20.3495758 C90.3027907,20.8683535 90.3027907,21.7075051 89.7851163,22.2246566 L70.7467442,41.2454242 L70.7467442,37.4936364 L87.9081395,20.3495758 Z"
                      id="Shape"></path>
                <path d="M68.0916279,40.147697 L68.0916279,43.8978586" id="Shape"></path>
                <polygon id="Shape"
                         points="70.7467442 41.2454242 68.0916279 43.8978586 68.0916279 40.147697 70.7467442 37.4936364"></polygon>
                <path d="M68.0916279,29.5347071 L68.0916279,33.2864949" id="Shape"></path>
                <path d="M82.597907,15.0447071 C83.1172093,14.5259293 83.9572093,14.5259293 84.4748837,15.0447071 C84.9925581,15.5618586 84.9925581,16.4010101 84.4748837,16.9197879 L70.7467442,30.6340606 L70.7467442,26.8822727 L82.597907,15.0447071 Z"
                      id="Shape"></path>
                <polygon id="Shape"
                         points="70.7467442 30.6340606 68.0916279 33.2864949 68.0916279 29.5347071 70.7467442 26.8822727"></polygon>
                <path d="M68.0916279,50.7590606 L68.0916279,54.5108485" id="Shape"></path>
                <path d="M82.597907,36.2690606 C83.1172093,35.7502828 83.9572093,35.7502828 84.4748837,36.2690606 C84.9925581,36.7878384 84.9925581,37.6269899 84.4748837,38.1441414 L70.7467442,51.8584141 L70.7467442,48.1066263 L82.597907,36.2690606 Z"
                      id="Shape"></path>
                <polygon id="Shape"
                         points="70.7467442 51.8584141 68.0916279 54.5108485 68.0916279 50.7590606 70.7467442 48.1066263"></polygon>
                <path d="M68.0916279,18.9217172 L68.0916279,22.6751313" id="Shape"></path>
                <path d="M77.2860465,9.73821212 C77.8037209,9.21943434 78.6437209,9.21943434 79.1630233,9.73821212 C79.6806977,10.2553636 79.6806977,11.0945152 79.1630233,11.6132929 L70.7467442,20.0194444 L70.7467442,16.2676566 L77.2860465,9.73821212 Z"
                      id="Shape"></path>
                <polygon id="Shape"
                         points="70.7467442 16.2692828 70.7467442 20.0210707 68.0916279 22.6751313 68.0916279 18.9217172"></polygon>
                <path d="M70.7467442,102.56203 C70.7467442,101.830212 70.1525581,101.236626 69.42,101.236626 C68.685814,101.236626 68.0932558,101.830212 68.0932558,102.56203 L68.0932558,105.907253 L70.7483721,108.559687 L70.7483721,102.56203 L70.7467442,102.56203 Z"
                      id="Shape"></path>
                <polygon id="Shape"
                         points="70.7467442 112.309848 68.0916279 109.657414 68.0916279 116.51699 70.7467442 119.171051"></polygon>
                <polygon id="Shape"
                         points="70.7467442 133.535828 68.0916279 130.883394 68.0916279 137.74297 70.7467442 140.395404"></polygon>
                <path d="M68.0916279,158.674596 C68.0916279,159.406414 68.684186,160 69.4183721,160 C70.1509302,160 70.7451163,159.406414 70.7451163,158.674596 L70.7451163,144.147192 L68.09,141.494758 L68.09,158.674596 L68.0916279,158.674596 Z"
                      id="Shape"></path>
                <polygon id="Shape"
                         points="70.7467442 122.922838 68.0916279 120.268778 68.0916279 127.12998 70.7467442 129.78404"></polygon>
                <path d="M87.9081395,140.066899 C88.425814,140.584051 89.2674419,140.584051 89.7851163,140.066899 C90.3027907,139.548121 90.3027907,138.70897 89.7851163,138.190192 L70.7467442,119.171051 L70.7467442,122.924465 L87.9081395,140.066899 Z"
                      id="Shape"></path>
                <path d="M68.0916279,120.268778 L68.0916279,116.51699" id="Shape"></path>
                <polygon id="Shape"
                         points="70.7467442 119.171051 68.0916279 116.51699 68.0916279 120.268778 70.7467442 122.922838"></polygon>
                <path d="M68.0916279,130.883394 L68.0916279,127.12998" id="Shape"></path>
                <path d="M82.597907,145.373394 C83.1172093,145.890545 83.9572093,145.890545 84.4748837,145.373394 C84.9925581,144.854616 84.9925581,144.013838 84.4748837,143.498313 L70.7467442,129.78404 L70.7467442,133.535828 L82.597907,145.373394 Z"
                      id="Shape"></path>
                <polygon id="Shape"
                         points="70.7467442 129.78404 68.0916279 127.12998 68.0916279 130.883394 70.7467442 133.535828"></polygon>
                <path d="M68.0916279,109.657414 L68.0916279,105.905626" id="Shape"></path>
                <path d="M82.597907,124.147414 C83.1172093,124.664566 83.9572093,124.664566 84.4748837,124.147414 C84.9925581,123.630263 84.9925581,122.789485 84.4748837,122.270707 L70.7467442,108.558061 L70.7467442,112.309848 L82.597907,124.147414 Z"
                      id="Shape"></path>
                <polygon id="Shape"
                         points="70.7467442 108.558061 68.0916279 105.905626 68.0916279 109.657414 70.7467442 112.309848"></polygon>
                <path d="M68.0916279,141.494758 L68.0916279,137.74297" id="Shape"></path>
                <path d="M77.2860465,150.679889 C77.8037209,151.19704 78.6437209,151.19704 79.1630233,150.679889 C79.6806977,150.162737 79.6806977,149.32196 79.1630233,148.804808 L70.7467442,140.39703 L70.7467442,144.148818 L77.2860465,150.679889 Z"
                      id="Shape"></path>
                <polygon id="Shape"
                         points="70.7467442 144.147192 70.7467442 140.395404 68.0916279 137.74297 68.0916279 141.494758"></polygon>
                <path d="M68.0916279,102.56203 C68.0916279,101.830212 68.684186,101.236626 69.4183721,101.236626 C70.1509302,101.236626 70.7451163,101.830212 70.7451163,102.56203 L70.7451163,105.907253 L68.09,108.559687 L68.09,102.56203 L68.0916279,102.56203 Z"
                      id="Shape"></path>
                <polygon id="Shape"
                         points="68.0916279 112.309848 70.7467442 109.657414 70.7467442 116.51699 68.0916279 119.171051"></polygon>
                <polygon id="Shape"
                         points="68.0916279 133.535828 70.7467442 130.883394 70.7467442 137.74297 68.0916279 140.395404"></polygon>
                <path d="M70.7467442,158.674596 C70.7467442,159.406414 70.1525581,160 69.42,160 C68.685814,160 68.0932558,159.406414 68.0932558,158.674596 L68.0932558,144.147192 L70.7483721,141.494758 L70.7483721,158.674596 L70.7467442,158.674596 Z"
                      id="Shape"></path>
                <polygon id="Shape"
                         points="68.0916279 122.922838 70.7467442 120.268778 70.7467442 127.12998 68.0916279 129.78404"></polygon>
                <path d="M50.9302326,140.066899 C50.4109302,140.584051 49.5709302,140.584051 49.0532558,140.066899 C48.5339535,139.548121 48.5339535,138.70897 49.0532558,138.190192 L68.0916279,119.171051 L68.0916279,122.924465 L50.9302326,140.066899 Z"
                      id="Shape"></path>
                <path d="M70.7467442,120.268778 L70.7467442,116.51699" id="Shape"></path>
                <polygon id="Shape"
                         points="68.0916279 119.171051 70.7467442 116.51699 70.7467442 120.268778 68.0916279 122.922838"></polygon>
                <path d="M70.7467442,130.883394 L70.7467442,127.12998" id="Shape"></path>
                <path d="M56.242093,145.373394 C55.7244186,145.890545 54.8827907,145.890545 54.3634884,145.373394 C53.845814,144.854616 53.845814,144.013838 54.3634884,143.498313 L68.0916279,129.78404 L68.0916279,133.535828 L56.242093,145.373394 Z"
                      id="Shape"></path>
                <polygon id="Shape"
                         points="68.0916279 129.78404 70.7467442 127.12998 70.7467442 130.883394 68.0916279 133.535828"></polygon>
                <path d="M70.7467442,109.657414 L70.7467442,105.905626" id="Shape"></path>
                <path d="M56.242093,124.147414 C55.7244186,124.664566 54.8827907,124.664566 54.3634884,124.147414 C53.845814,123.630263 53.845814,122.789485 54.3634884,122.270707 L68.0916279,108.558061 L68.0916279,112.309848 L56.242093,124.147414 Z"
                      id="Shape"></path>
                <polygon id="Shape"
                         points="68.0916279 108.558061 70.7467442 105.905626 70.7467442 109.657414 68.0916279 112.309848"></polygon>
                <path d="M70.7467442,141.494758 L70.7467442,137.74297" id="Shape"></path>
                <path d="M61.5539535,150.679889 C61.037907,151.19704 60.1962791,151.19704 59.6769767,150.679889 C59.1576744,150.162737 59.1576744,149.32196 59.6769767,148.804808 L68.0932558,140.39703 L68.0932558,144.148818 L61.5539535,150.679889 Z"
                      id="Shape"></path>
                <polygon id="Shape"
                         points="68.0916279 144.147192 68.0916279 140.395404 70.7467442 137.74297 70.7467442 141.494758"></polygon>
                <path d="M49.3983721,70.1392323 C50.0332558,70.5067677 50.8455814,70.292101 51.2134884,69.6578586 C51.5813953,69.0236162 51.3648837,68.2121111 50.73,67.8445758 L47.8355814,66.167899 L44.2069767,67.1306465 L49.3983721,70.1392323 Z"
                      id="Shape"></path>
                <polygon id="Shape"
                         points="40.9576744 65.2474343 44.5862791 64.2846869 38.6460465 60.8402626 35.0174419 61.8046364"></polygon>
                <polygon id="Shape"
                         points="22.5786047 54.5970404 26.2088372 53.6326667 20.2686047 50.1898687 16.6383721 51.1542424"></polygon>
                <path d="M2.14674419,39.6874646 C1.51186047,39.318303 0.699534884,39.534596 0.331627907,40.1688384 C-0.0362790698,40.8030808 0.180232558,41.6145859 0.815116279,41.9804949 L13.3923256,49.269404 L17.0209302,48.3066566 L2.14674419,39.6874646 Z"
                      id="Shape"></path>
                <polygon id="Shape"
                         points="31.7681395 59.9214242 35.3983721 58.9586768 29.4581395 55.5158788 25.827907 56.4802525"></polygon>
                <path d="M8.31325581,66.1483838 C7.60348837,66.3370303 7.18186047,67.0623434 7.37069767,67.7713939 C7.55953488,68.4804444 8.2855814,68.9000202 8.99534884,68.713 L35.0174419,61.8046364 L31.7697674,59.9214242 L8.31325581,66.1483838 Z"
                      id="Shape"></path>
                <path d="M35.3983721,58.9586768 L38.6460465,60.8402626" id="Shape"></path>
                <polygon id="Shape"
                         points="35.0174419 61.8046364 38.6460465 60.8402626 35.3983721 58.9586768 31.7681395 59.9214242"></polygon>
                <path d="M26.2088372,53.6326667 L29.4581395,55.5158788" id="Shape"></path>
                <path d="M6.38418605,58.8952525 C5.6744186,59.083899 5.2527907,59.8092121 5.44162791,60.5198889 C5.63046512,61.2273131 6.35651163,61.6485152 7.06627907,61.4598687 L25.827907,56.4802525 L22.5786047,54.5970404 L6.38418605,58.8952525 Z"
                      id="Shape"></path>
                <polygon id="Shape"
                         points="25.827907 56.4802525 29.4581395 55.5158788 26.2088372 53.6326667 22.5786047 54.5970404"></polygon>
                <path d="M44.5862791,64.2846869 L47.8355814,66.1662727" id="Shape"></path>
                <path d="M24.7616279,69.5472727 C24.0518605,69.7342929 23.6302326,70.4612323 23.8190698,71.1702828 C24.0062791,71.8793333 24.7339535,72.2989091 25.4437209,72.1118889 L44.2053488,67.1306465 L40.9560465,65.2474343 L24.7616279,69.5472727 Z"
                      id="Shape"></path>
                <polygon id="Shape"
                         points="44.2069767 67.1306465 47.8355814 66.1662727 44.5862791 64.2846869 40.9576744 65.2474343"></polygon>
                <path d="M17.0209302,48.3082828 L20.2686047,50.1898687" id="Shape"></path>
                <path d="M4.45511628,51.6437475 C3.74534884,51.8323939 3.32372093,52.5577071 3.51255814,53.2667576 C3.69976744,53.9758081 4.42744186,54.3953838 5.1372093,54.2083636 L16.6383721,51.1558687 L13.3906977,49.2726566 L4.45511628,51.6437475 Z"
                      id="Shape"></path>
                <polygon id="Shape"
                         points="13.3906977 49.2710303 16.6383721 51.1542424 20.2686047 50.1898687 17.0209302 48.3082828"></polygon>
                <path d="M50.73,67.8445758 C51.3648837,68.2121111 51.5797674,69.0236162 51.2134884,69.6578586 C50.8439535,70.292101 50.0316279,70.5067677 49.3983721,70.1392323 L46.5039535,68.4609293 L45.5386047,64.8359899 L50.73,67.8445758 Z"
                      id="Shape"></path>
                <polygon id="Shape"
                         points="42.2909302 62.9527778 43.2546512 66.5777172 37.3144186 63.1365455 36.3490698 59.5099798"></polygon>
                <polygon id="Shape"
                         points="23.9134884 52.3007576 24.8772093 55.9289495 18.9369767 52.4845253 17.9716279 48.8595859"></polygon>
                <path d="M0.813488372,41.9821212 C0.178604651,41.6145859 -0.0362790698,40.8030808 0.33,40.1704646 C0.697906977,39.5362222 1.51186047,39.3199293 2.14511628,39.6890909 L14.7223256,46.978 L15.6876744,50.6029394 L0.813488372,41.9821212 Z"
                      id="Shape"></path>
                <polygon id="Shape"
                         points="33.1013953 57.6267677 34.0667442 61.2533333 28.1265116 57.8105354 27.1595349 54.1839697"></polygon>
                <path d="M26.8681395,34.1955758 C26.6793023,33.4865253 27.1025581,32.7612121 27.8106977,32.5725657 C28.5204651,32.3855455 29.2465116,32.8067475 29.4353488,33.5141717 L36.3506977,59.5099798 L33.1013953,57.6283939 L26.8681395,34.1955758 Z"
                      id="Shape"></path>
                <path d="M34.0667442,61.2533333 L37.3144186,63.1365455" id="Shape"></path>
                <polygon id="Shape"
                         points="36.3490698 59.5099798 37.3144186 63.1365455 34.0667442 61.2533333 33.1013953 57.6267677"></polygon>
                <path d="M24.8772093,55.9289495 L28.1265116,57.8105354" id="Shape"></path>
                <path d="M19.6093023,36.122697 C19.4204651,35.4136465 19.842093,34.6883333 20.5518605,34.4996869 C21.26,34.3110404 21.9876744,34.7338687 22.1765116,35.4412929 L27.1611628,54.1839697 L23.9134884,52.3007576 L19.6093023,36.122697 Z"
                      id="Shape"></path>
                <polygon id="Shape"
                         points="27.1595349 54.1839697 28.1265116 57.8105354 24.8772093 55.9289495 23.9134884 52.3007576"></polygon>
                <path d="M43.2546512,66.5777172 L46.5039535,68.4609293" id="Shape"></path>
                <path d="M37.9867442,46.7730909 C37.7995349,46.0640404 38.2211628,45.3387273 38.9293023,45.1500808 C39.6374419,44.9614343 40.3634884,45.3826364 40.5539535,46.0916869 L45.5386047,64.8343636 L42.2909302,62.9511515 L37.9867442,46.7730909 Z"
                      id="Shape"></path>
                <polygon id="Shape"
                         points="45.5386047 64.8343636 46.5039535 68.4609293 43.2546512 66.5777172 42.2909302 62.9527778"></polygon>
                <path d="M15.6876744,50.6013131 L18.9369767,52.4845253" id="Shape"></path>
                <path d="M12.3488372,38.0498182 C12.16,37.3407677 12.5816279,36.6154545 13.2913953,36.4268081 C13.9995349,36.2381616 14.7272093,36.6593636 14.9160465,37.3684141 L17.9716279,48.8595859 L14.7239535,46.9763737 L12.3488372,38.0498182 Z"
                      id="Shape"></path>
                <polygon id="Shape"
                         points="14.7239535 46.9763737 17.9716279 48.8595859 18.9369767 52.4845253 15.6876744 50.6013131"></polygon>
                <path d="M49.3983721,70.1392323 C50.0332558,70.5067677 50.8455814,70.292101 51.2134884,69.6578586 C51.5813953,69.0236162 51.3648837,68.2121111 50.73,67.8445758 L47.8355814,66.167899 L44.2069767,67.1306465 L49.3983721,70.1392323 Z"
                      id="Shape"></path>
                <polygon id="Shape"
                         points="40.9576744 65.2474343 44.5862791 64.2846869 38.6460465 60.8402626 35.0174419 61.8046364"></polygon>
                <polygon id="Shape"
                         points="22.5786047 54.5970404 26.2088372 53.6326667 20.2686047 50.1898687 16.6383721 51.1542424"></polygon>
                <path d="M2.14674419,39.6874646 C1.51186047,39.318303 0.699534884,39.534596 0.331627907,40.1688384 C-0.0362790698,40.8030808 0.180232558,41.6145859 0.815116279,41.9804949 L13.3923256,49.269404 L17.0209302,48.3066566 L2.14674419,39.6874646 Z"
                      id="Shape"></path>
                <polygon id="Shape"
                         points="31.7681395 59.9214242 35.3983721 58.9586768 29.4581395 55.5158788 25.827907 56.4802525"></polygon>
                <path d="M8.31325581,66.1483838 C7.60348837,66.3370303 7.18186047,67.0623434 7.37069767,67.7713939 C7.55953488,68.4804444 8.2855814,68.9000202 8.99534884,68.713 L35.0174419,61.8046364 L31.7697674,59.9214242 L8.31325581,66.1483838 Z"
                      id="Shape"></path>
                <path d="M35.3983721,58.9586768 L38.6460465,60.8402626" id="Shape"></path>
                <polygon id="Shape"
                         points="35.0174419 61.8046364 38.6460465 60.8402626 35.3983721 58.9586768 31.7681395 59.9214242"></polygon>
                <path d="M26.2088372,53.6326667 L29.4581395,55.5158788" id="Shape"></path>
                <path d="M6.38418605,58.8952525 C5.6744186,59.083899 5.2527907,59.8092121 5.44162791,60.5198889 C5.63046512,61.2273131 6.35651163,61.6485152 7.06627907,61.4598687 L25.827907,56.4802525 L22.5786047,54.5970404 L6.38418605,58.8952525 Z"
                      id="Shape"></path>
                <polygon id="Shape"
                         points="25.827907 56.4802525 29.4581395 55.5158788 26.2088372 53.6326667 22.5786047 54.5970404"></polygon>
                <path d="M44.5862791,64.2846869 L47.8355814,66.1662727" id="Shape"></path>
                <path d="M24.7616279,69.5472727 C24.0518605,69.7342929 23.6302326,70.4612323 23.8190698,71.1702828 C24.0062791,71.8793333 24.7339535,72.2989091 25.4437209,72.1118889 L44.2053488,67.1306465 L40.9560465,65.2474343 L24.7616279,69.5472727 Z"
                      id="Shape"></path>
                <polygon id="Shape"
                         points="44.2069767 67.1306465 47.8355814 66.1662727 44.5862791 64.2846869 40.9576744 65.2474343"></polygon>
                <path d="M17.0209302,48.3082828 L20.2686047,50.1898687" id="Shape"></path>
                <path d="M4.45511628,51.6437475 C3.74534884,51.8323939 3.32372093,52.5577071 3.51255814,53.2667576 C3.69976744,53.9758081 4.42744186,54.3953838 5.1372093,54.2083636 L16.6383721,51.1558687 L13.3906977,49.2726566 L4.45511628,51.6437475 Z"
                      id="Shape"></path>
                <polygon id="Shape"
                         points="13.3906977 49.2710303 16.6383721 51.1542424 20.2686047 50.1898687 17.0209302 48.3082828"></polygon>
                <path d="M50.73,67.8445758 C51.3648837,68.2121111 51.5797674,69.0236162 51.2134884,69.6578586 C50.8439535,70.292101 50.0316279,70.5067677 49.3983721,70.1392323 L46.5039535,68.4609293 L45.5386047,64.8359899 L50.73,67.8445758 Z"
                      id="Shape"></path>
                <polygon id="Shape"
                         points="42.2909302 62.9527778 43.2546512 66.5777172 37.3144186 63.1365455 36.3490698 59.5099798"></polygon>
                <polygon id="Shape"
                         points="23.9134884 52.3007576 24.8772093 55.9289495 18.9369767 52.4845253 17.9716279 48.8595859"></polygon>
                <path d="M0.813488372,41.9821212 C0.178604651,41.6145859 -0.0362790698,40.8030808 0.33,40.1704646 C0.697906977,39.5362222 1.51186047,39.3199293 2.14511628,39.6890909 L14.7223256,46.978 L15.6876744,50.6029394 L0.813488372,41.9821212 Z"
                      id="Shape"></path>
                <polygon id="Shape"
                         points="33.1013953 57.6267677 34.0667442 61.2533333 28.1265116 57.8105354 27.1595349 54.1839697"></polygon>
                <path d="M26.8681395,34.1955758 C26.6793023,33.4865253 27.1025581,32.7612121 27.8106977,32.5725657 C28.5204651,32.3855455 29.2465116,32.8067475 29.4353488,33.5141717 L36.3506977,59.5099798 L33.1013953,57.6283939 L26.8681395,34.1955758 Z"
                      id="Shape"></path>
                <path d="M34.0667442,61.2533333 L37.3144186,63.1365455" id="Shape"></path>
                <polygon id="Shape"
                         points="36.3490698 59.5099798 37.3144186 63.1365455 34.0667442 61.2533333 33.1013953 57.6267677"></polygon>
                <path d="M24.8772093,55.9289495 L28.1265116,57.8105354" id="Shape"></path>
                <path d="M19.6093023,36.122697 C19.4204651,35.4136465 19.842093,34.6883333 20.5518605,34.4996869 C21.26,34.3110404 21.9876744,34.7338687 22.1765116,35.4412929 L27.1611628,54.1839697 L23.9134884,52.3007576 L19.6093023,36.122697 Z"
                      id="Shape"></path>
                <polygon id="Shape"
                         points="27.1595349 54.1839697 28.1265116 57.8105354 24.8772093 55.9289495 23.9134884 52.3007576"></polygon>
                <path d="M43.2546512,66.5777172 L46.5039535,68.4609293" id="Shape"></path>
                <path d="M37.9867442,46.7730909 C37.7995349,46.0640404 38.2211628,45.3387273 38.9293023,45.1500808 C39.6374419,44.9614343 40.3634884,45.3826364 40.5539535,46.0916869 L45.5386047,64.8343636 L42.2909302,62.9511515 L37.9867442,46.7730909 Z"
                      id="Shape"></path>
                <polygon id="Shape"
                         points="45.5386047 64.8343636 46.5039535 68.4609293 43.2546512 66.5777172 42.2909302 62.9527778"></polygon>
                <path d="M15.6876744,50.6013131 L18.9369767,52.4845253" id="Shape"></path>
                <path d="M12.3488372,38.0498182 C12.16,37.3407677 12.5816279,36.6154545 13.2913953,36.4268081 C13.9995349,36.2381616 14.7272093,36.6593636 14.9160465,37.3684141 L17.9716279,48.8595859 L14.7239535,46.9763737 L12.3488372,38.0498182 Z"
                      id="Shape"></path>
                <polygon id="Shape"
                         points="14.7239535 46.9763737 17.9716279 48.8595859 18.9369767 52.4845253 15.6876744 50.6013131"></polygon>
                <path d="M89.4416279,90.2772424 C88.8067442,89.9097071 87.9944186,90.126 87.6265116,90.7602424 C87.2586047,91.3928586 87.4734884,92.2043636 88.11,92.5735253 L91.0027907,94.250202 L94.6330233,93.2874545 L89.4416279,90.2772424 Z"
                      id="Shape"></path>
                <polygon id="Shape"
                         points="97.8806977 95.1690404 94.2537209 96.1334141 100.192326 99.5762121 103.822558 98.6134646"></polygon>
                <polygon id="Shape"
                         points="116.259767 105.819434 112.629535 106.782182 118.569767 110.226606 122.2 109.263859"></polygon>
                <path d="M136.693256,120.72901 C137.326512,121.098172 138.140465,120.881879 138.508372,120.247636 C138.876279,119.613394 138.659767,118.801889 138.024884,118.434354 L125.446047,111.147071 L121.817442,112.111444 L136.693256,120.72901 Z"
                      id="Shape"></path>
                <polygon id="Shape"
                         points="107.07186 100.495051 103.44 101.457798 109.38186 104.900596 113.010465 103.937848"></polygon>
                <path d="M130.526744,94.2680909 C131.234884,94.0810707 131.656512,93.3541313 131.467674,92.6450808 C131.278837,91.9360303 130.552791,91.5180808 129.844651,91.7034747 L103.822558,98.6134646 L107.07186,100.495051 L130.526744,94.2680909 Z"
                      id="Shape"></path>
                <path d="M103.44,101.457798 L100.192326,99.5762121" id="Shape"></path>
                <polygon id="Shape"
                         points="103.822558 98.6134646 100.192326 99.5762121 103.44 101.457798 107.07186 100.495051"></polygon>
                <path d="M112.629535,106.782182 L109.38186,104.900596" id="Shape"></path>
                <path d="M132.454186,101.521222 C133.163953,101.332576 133.583953,100.607263 133.396744,99.8982121 C133.207907,99.1891616 132.480233,98.7695859 131.772093,98.9566061 L113.010465,103.937848 L116.259767,105.817808 L132.454186,101.521222 Z"
                      id="Shape"></path>
                <polygon id="Shape"
                         points="113.010465 103.937848 109.38186 104.900596 112.629535 106.782182 116.259767 105.819434"></polygon>
                <path d="M94.2537209,96.1334141 L91.0027907,94.250202" id="Shape"></path>
                <path d="M114.076744,90.8708283 C114.786512,90.6821818 115.206512,89.9568687 115.019302,89.2478182 C114.830465,88.5371414 114.104419,88.1191919 113.394651,88.3062121 L94.6330233,93.2874545 L97.8806977,95.1674141 L114.076744,90.8708283 Z"
                      id="Shape"></path>
                <polygon id="Shape"
                         points="94.6330233 93.2890808 91.0027907 94.250202 94.2537209 96.1334141 97.8806977 95.1690404"></polygon>
                <path d="M121.817442,112.109818 L118.569767,110.226606" id="Shape"></path>
                <path d="M134.384884,108.772727 C135.093023,108.585707 135.514651,107.858768 135.325814,107.151343 C135.138605,106.440667 134.41093,106.022717 133.701163,106.211364 L122.2,109.263859 L125.447674,111.145444 L134.384884,108.772727 Z"
                      id="Shape"></path>
                <polygon id="Shape"
                         points="125.447674 111.145444 122.2 109.263859 118.569767 110.226606 121.817442 112.109818"></polygon>
                <path d="M88.1083721,92.5735253 C87.4718605,92.2027374 87.2586047,91.3912323 87.6248837,90.7602424 C87.9944186,90.126 88.8067442,89.9113333 89.44,90.2772424 L92.3344186,91.9555455 L93.2997674,95.5804848 L88.1083721,92.5735253 Z"
                      id="Shape"></path>
                <polygon id="Shape"
                         points="96.5490698 97.4653232 95.5837209 93.8371313 101.523953 97.2815556 102.489302 100.906495"></polygon>
                <polygon id="Shape"
                         points="114.926512 108.115717 113.962791 104.489152 119.903023 107.930323 120.868372 111.558515"></polygon>
                <path d="M138.024884,118.432727 C138.659767,118.801889 138.874651,119.613394 138.508372,120.24601 C138.138837,120.880253 137.324884,121.094919 136.693256,120.727384 L124.114419,113.440101 L123.150698,109.815162 L138.024884,118.432727 Z"
                      id="Shape"></path>
                <polygon id="Shape"
                         points="105.736977 102.789707 104.774884 99.1647677 110.713488 102.605939 111.678837 106.232505"></polygon>
                <path d="M111.970233,126.220899 C112.157442,126.929949 111.735814,127.655263 111.029302,127.843909 C110.317907,128.030929 109.59186,127.608101 109.403023,126.902303 L102.489302,100.906495 L105.736977,102.789707 L111.970233,126.220899 Z"
                      id="Shape"></path>
                <path d="M104.774884,99.1647677 L101.523953,97.2815556" id="Shape"></path>
                <polygon id="Shape"
                         points="102.489302 100.906495 101.523953 97.2815556 104.774884 99.1647677 105.736977 102.789707"></polygon>
                <path d="M113.962791,104.489152 L110.713488,102.605939" id="Shape"></path>
                <path d="M119.22907,124.295404 C119.417907,125.002828 118.996279,125.729768 118.286512,125.916788 C117.576744,126.103808 116.850698,125.682606 116.663488,124.975182 L111.678837,106.232505 L114.926512,108.115717 L119.22907,124.295404 Z"
                      id="Shape"></path>
                <polygon id="Shape"
                         points="111.678837 106.232505 110.713488 102.605939 113.962791 104.489152 114.926512 108.115717"></polygon>
                <path d="M95.5837209,93.8371313 L92.3360465,91.9555455" id="Shape"></path>
                <path d="M100.853256,113.643384 C101.038837,114.352434 100.617209,115.077747 99.9090698,115.266394 C99.2009302,115.453414 98.4732558,115.030586 98.2860465,114.324788 L93.3013953,95.5821111 L96.5490698,97.4653232 L100.853256,113.643384 Z"
                      id="Shape"></path>
                <polygon id="Shape"
                         points="93.3013953 95.5821111 92.3360465 91.9555455 95.5837209 93.8371313 96.5490698 97.4653232"></polygon>
                <path d="M123.152326,109.815162 L119.903023,107.930323" id="Shape"></path>
                <path d="M126.489535,122.36503 C126.678372,123.075707 126.255116,123.80102 125.548605,123.98804 C124.837209,124.176687 124.111163,123.753859 123.923953,123.048061 L120.868372,111.558515 L124.114419,113.440101 L126.489535,122.36503 Z"
                      id="Shape"></path>
                <polygon id="Shape"
                         points="124.114419 113.440101 120.868372 111.558515 119.903023 107.930323 123.152326 109.815162"></polygon>
                <path d="M50.7886047,92.6597172 C51.4218605,92.2889293 51.6334884,91.475798 51.2639535,90.8448081 C50.8927907,90.2121919 50.0788372,89.9991515 49.4455814,90.3715657 L46.5593023,92.0628788 L45.6102326,95.692697 L50.7886047,92.6597172 Z"
                      id="Shape"></path>
                <polygon id="Shape"
                         points="42.3723256 97.5905455 43.3197674 93.9623535 37.394186 97.4295455 36.4467442 101.06099"></polygon>
                <polygon id="Shape"
                         points="24.0437209 108.327131 24.9895349 104.695687 19.0672093 108.166131 18.1197674 111.797576"></polygon>
                <path d="M0.99255814,118.754727 C0.360930233,119.125515 0.147674419,119.938646 0.518837209,120.569636 C0.89,121.200626 1.70395349,121.415293 2.3355814,121.042879 L14.8802326,113.695424 L15.8276744,110.06398 L0.99255814,118.754727 Z"
                      id="Shape"></path>
                <polygon id="Shape"
                         points="33.2072093 102.958838 34.1546512 99.3273939 28.2306977 102.797838 27.2832558 106.430909"></polygon>
                <path d="M27.0846512,126.419303 C26.8990698,127.12998 27.3239535,127.853667 28.0337209,128.039061 C28.7434884,128.222828 29.4695349,127.798374 29.6534884,127.087697 L36.4467442,101.06099 L33.2072093,102.958838 L27.0846512,126.419303 Z"
                      id="Shape"></path>
                <path d="M34.1546512,99.3273939 L37.394186,97.4295455" id="Shape"></path>
                <polygon id="Shape"
                         points="36.4467442 101.06099 37.394186 97.4295455 34.1546512 99.3273939 33.2072093 102.958838"></polygon>
                <path d="M24.9895349,104.695687 L28.2306977,102.797838" id="Shape"></path>
                <path d="M19.8144186,124.526333 C19.6304651,125.23701 20.0553488,125.960697 20.7651163,126.144465 C21.4748837,126.329859 22.1993023,125.905404 22.3848837,125.194727 L27.2832558,106.430909 L24.0437209,108.327131 L19.8144186,124.526333 Z"
                      id="Shape"></path>
                <polygon id="Shape"
                         points="27.2832558 106.430909 28.2306977 102.797838 24.9895349 104.695687 24.0437209 108.327131"></polygon>
                <path d="M43.3197674,93.9623535 L46.5593023,92.0628788" id="Shape"></path>
                <path d="M38.1430233,113.789747 C37.9574419,114.498798 38.3823256,115.222485 39.0937209,115.407879 C39.8034884,115.593273 40.527907,115.168818 40.7134884,114.459768 L45.6102326,95.692697 L42.3706977,97.5905455 L38.1430233,113.789747 Z"
                      id="Shape"></path>
                <polygon id="Shape"
                         points="45.6102326 95.692697 46.5593023 92.0628788 43.3197674 93.9623535 42.3723256 97.5905455"></polygon>
                <path d="M15.8260465,110.06398 L19.0672093,108.166131" id="Shape"></path>
                <path d="M12.545814,122.630111 C12.3618605,123.342414 12.7851163,124.066101 13.4948837,124.249869 C14.2062791,124.435263 14.9290698,124.010808 15.1146512,123.300131 L18.1181395,111.797576 L14.8786047,113.695424 L12.545814,122.630111 Z"
                      id="Shape"></path>
                <polygon id="Shape"
                         points="14.8802326 113.695424 18.1197674 111.797576 19.0672093 108.166131 15.8260465 110.06398"></polygon>
                <path d="M49.4455814,90.3715657 C50.0788372,89.9991515 50.8927907,90.2121919 51.2639535,90.8448081 C51.6351163,91.4774242 51.4218605,92.2905556 50.7886047,92.6597172 L47.9023256,94.3510303 L44.2672093,93.4029192 L49.4455814,90.3715657 Z"
                      id="Shape"></path>
                <polygon id="Shape"
                         points="41.0276744 95.3023939 44.6627907 96.2488788 38.7388372 99.7209495 35.1037209 98.7728384"></polygon>
                <polygon id="Shape"
                         points="22.7006977 106.037354 26.334186 106.985465 20.4102326 110.455909 16.7751163 109.507798"></polygon>
                <path d="M2.3355814,121.042879 C1.70395349,121.415293 0.89,121.202253 0.518837209,120.569636 C0.147674419,119.93702 0.359302326,119.123889 0.99255814,118.754727 L13.5372093,111.405646 L17.1723256,112.352131 L2.3355814,121.042879 Z"
                      id="Shape"></path>
                <polygon id="Shape"
                         points="31.864186 100.670687 35.4976744 101.618798 29.5737209 105.087616 25.9386047 104.139505"></polygon>
                <path d="M8.38,94.5526869 C7.67023256,94.3689192 7.24534884,93.6436061 7.43093023,92.9361818 C7.61651163,92.2255051 8.34093023,91.8026768 9.05069767,91.9864444 L35.1037209,98.7728384 L31.864186,100.670687 L8.38,94.5526869 Z"
                      id="Shape"></path>
                <path d="M35.4976744,101.618798 L38.7388372,99.7209495" id="Shape"></path>
                <polygon id="Shape"
                         points="35.1037209 98.7728384 38.7388372 99.7209495 35.4976744 101.618798 31.864186 100.670687"></polygon>
                <path d="M26.334186,106.985465 L29.5737209,105.087616" id="Shape"></path>
                <path d="M6.48348837,101.815576 C5.77372093,101.630182 5.34883721,100.904869 5.5344186,100.197444 C5.71837209,99.4867677 6.4444186,99.0623131 7.15418605,99.2477071 L25.9386047,104.141131 L22.6990698,106.03898 L6.48348837,101.815576 Z"
                      id="Shape"></path>
                <polygon id="Shape"
                         points="25.9386047 104.139505 29.5737209 105.087616 26.334186 106.985465 22.7006977 106.037354"></polygon>
                <path d="M44.6627907,96.2488788 L47.9023256,94.3510303" id="Shape"></path>
                <path d="M24.812093,91.0773636 C24.1023256,90.893596 23.6774419,90.1682828 23.8630233,89.4608586 C24.0486047,88.7501818 24.7730233,88.3273535 25.4827907,88.5111212 L44.2688372,93.4029192 L41.0293023,95.3023939 L24.812093,91.0773636 Z"
                      id="Shape"></path>
                <polygon id="Shape"
                         points="44.2672093 93.4029192 47.9023256 94.3510303 44.6627907 96.2488788 41.0276744 95.3023939"></polygon>
                <path d="M17.1706977,112.352131 L20.4102326,110.455909" id="Shape"></path>
                <path d="M4.58860465,109.076838 C3.87883721,108.891444 3.45395349,108.166131 3.63953488,107.458707 C3.82348837,106.749657 4.54953488,106.325202 5.25930233,106.510596 L16.7767442,109.509424 L13.5372093,111.407273 L4.58860465,109.076838 Z"
                      id="Shape"></path>
                <polygon id="Shape"
                         points="13.5355814 111.405646 16.7751163 109.507798 20.4102326 110.455909 17.1706977 112.352131"></polygon>
                <path d="M50.7886047,92.6597172 C51.4218605,92.2889293 51.6334884,91.475798 51.2639535,90.8448081 C50.8927907,90.2121919 50.0788372,89.9991515 49.4455814,90.3715657 L46.5593023,92.0628788 L45.6102326,95.692697 L50.7886047,92.6597172 Z"
                      id="Shape"></path>
                <polygon id="Shape"
                         points="42.3723256 97.5905455 43.3197674 93.9623535 37.394186 97.4295455 36.4467442 101.06099"></polygon>
                <polygon id="Shape"
                         points="24.0437209 108.327131 24.9895349 104.695687 19.0672093 108.166131 18.1197674 111.797576"></polygon>
                <path d="M0.99255814,118.754727 C0.360930233,119.125515 0.147674419,119.938646 0.518837209,120.569636 C0.89,121.200626 1.70395349,121.415293 2.3355814,121.042879 L14.8802326,113.695424 L15.8276744,110.06398 L0.99255814,118.754727 Z"
                      id="Shape"></path>
                <polygon id="Shape"
                         points="33.2072093 102.958838 34.1546512 99.3273939 28.2306977 102.797838 27.2832558 106.430909"></polygon>
                <path d="M27.0846512,126.419303 C26.8990698,127.12998 27.3239535,127.853667 28.0337209,128.039061 C28.7434884,128.222828 29.4695349,127.798374 29.6534884,127.087697 L36.4467442,101.06099 L33.2072093,102.958838 L27.0846512,126.419303 Z"
                      id="Shape"></path>
                <path d="M34.1546512,99.3273939 L37.394186,97.4295455" id="Shape"></path>
                <polygon id="Shape"
                         points="36.4467442 101.06099 37.394186 97.4295455 34.1546512 99.3273939 33.2072093 102.958838"></polygon>
                <path d="M24.9895349,104.695687 L28.2306977,102.797838" id="Shape"></path>
                <path d="M19.8144186,124.526333 C19.6304651,125.23701 20.0553488,125.960697 20.7651163,126.144465 C21.4748837,126.329859 22.1993023,125.905404 22.3848837,125.194727 L27.2832558,106.430909 L24.0437209,108.327131 L19.8144186,124.526333 Z"
                      id="Shape"></path>
                <polygon id="Shape"
                         points="27.2832558 106.430909 28.2306977 102.797838 24.9895349 104.695687 24.0437209 108.327131"></polygon>
                <path d="M43.3197674,93.9623535 L46.5593023,92.0628788" id="Shape"></path>
                <path d="M38.1430233,113.789747 C37.9574419,114.498798 38.3823256,115.222485 39.0937209,115.407879 C39.8034884,115.593273 40.527907,115.168818 40.7134884,114.459768 L45.6102326,95.692697 L42.3706977,97.5905455 L38.1430233,113.789747 Z"
                      id="Shape"></path>
                <polygon id="Shape"
                         points="45.6102326 95.692697 46.5593023 92.0628788 43.3197674 93.9623535 42.3723256 97.5905455"></polygon>
                <path d="M15.8260465,110.06398 L19.0672093,108.166131" id="Shape"></path>
                <path d="M12.545814,122.630111 C12.3618605,123.342414 12.7851163,124.066101 13.4948837,124.249869 C14.2062791,124.435263 14.9290698,124.010808 15.1146512,123.300131 L18.1181395,111.797576 L14.8786047,113.695424 L12.545814,122.630111 Z"
                      id="Shape"></path>
                <polygon id="Shape"
                         points="14.8802326 113.695424 18.1197674 111.797576 19.0672093 108.166131 15.8260465 110.06398"></polygon>
                <path d="M49.4455814,90.3715657 C50.0788372,89.9991515 50.8927907,90.2121919 51.2639535,90.8448081 C51.6351163,91.4774242 51.4218605,92.2905556 50.7886047,92.6597172 L47.9023256,94.3510303 L44.2672093,93.4029192 L49.4455814,90.3715657 Z"
                      id="Shape"></path>
                <polygon id="Shape"
                         points="41.0276744 95.3023939 44.6627907 96.2488788 38.7388372 99.7209495 35.1037209 98.7728384"></polygon>
                <polygon id="Shape"
                         points="22.7006977 106.037354 26.334186 106.985465 20.4102326 110.455909 16.7751163 109.507798"></polygon>
                <path d="M2.3355814,121.042879 C1.70395349,121.415293 0.89,121.202253 0.518837209,120.569636 C0.147674419,119.93702 0.359302326,119.123889 0.99255814,118.754727 L13.5372093,111.405646 L17.1723256,112.352131 L2.3355814,121.042879 Z"
                      id="Shape"></path>
                <polygon id="Shape"
                         points="31.864186 100.670687 35.4976744 101.618798 29.5737209 105.087616 25.9386047 104.139505"></polygon>
                <path d="M8.38,94.5526869 C7.67023256,94.3689192 7.24534884,93.6436061 7.43093023,92.9361818 C7.61651163,92.2255051 8.34093023,91.8026768 9.05069767,91.9864444 L35.1037209,98.7728384 L31.864186,100.670687 L8.38,94.5526869 Z"
                      id="Shape"></path>
                <path d="M35.4976744,101.618798 L38.7388372,99.7209495" id="Shape"></path>
                <polygon id="Shape"
                         points="35.1037209 98.7728384 38.7388372 99.7209495 35.4976744 101.618798 31.864186 100.670687"></polygon>
                <path d="M26.334186,106.985465 L29.5737209,105.087616" id="Shape"></path>
                <path d="M6.48348837,101.815576 C5.77372093,101.630182 5.34883721,100.904869 5.5344186,100.197444 C5.71837209,99.4867677 6.4444186,99.0623131 7.15418605,99.2477071 L25.9386047,104.141131 L22.6990698,106.03898 L6.48348837,101.815576 Z"
                      id="Shape"></path>
                <polygon id="Shape"
                         points="25.9386047 104.139505 29.5737209 105.087616 26.334186 106.985465 22.7006977 106.037354"></polygon>
                <path d="M44.6627907,96.2488788 L47.9023256,94.3510303" id="Shape"></path>
                <path d="M24.812093,91.0773636 C24.1023256,90.893596 23.6774419,90.1682828 23.8630233,89.4608586 C24.0486047,88.7501818 24.7730233,88.3273535 25.4827907,88.5111212 L44.2688372,93.4029192 L41.0293023,95.3023939 L24.812093,91.0773636 Z"
                      id="Shape"></path>
                <polygon id="Shape"
                         points="44.2672093 93.4029192 47.9023256 94.3510303 44.6627907 96.2488788 41.0276744 95.3023939"></polygon>
                <path d="M17.1706977,112.352131 L20.4102326,110.455909" id="Shape"></path>
                <path d="M4.58860465,109.076838 C3.87883721,108.891444 3.45395349,108.166131 3.63953488,107.458707 C3.82348837,106.749657 4.54953488,106.325202 5.25930233,106.510596 L16.7767442,109.509424 L13.5372093,111.407273 L4.58860465,109.076838 Z"
                      id="Shape"></path>
                <polygon id="Shape"
                         points="13.5355814 111.405646 16.7751163 109.507798 20.4102326 110.455909 17.1706977 112.352131"></polygon>
                <path d="M88.0497674,67.7567576 C87.4181395,68.1275455 87.2048837,68.9406768 87.5760465,69.5732929 C87.9488372,70.2042828 88.7611628,70.4173232 89.3927907,70.0465354 L92.2790698,68.3552222 L93.2265116,64.725404 L88.0497674,67.7567576 Z"
                      id="Shape"></path>
                <polygon id="Shape"
                         points="96.4676744 62.8259293 95.5186047 66.4557475 101.444186 62.985303 102.393256 59.3554848"></polygon>
                <polygon id="Shape"
                         points="114.796279 52.0893434 113.848837 55.7191616 119.772791 52.2503434 120.720233 48.618899"></polygon>
                <path d="M137.845814,41.6633737 C138.47907,41.2925859 138.692326,40.4794545 138.321163,39.8468384 C137.948372,39.2142222 137.134419,39.0028081 136.502791,39.373596 L123.959767,46.7210505 L123.012326,50.3508687 L137.845814,41.6633737 Z"
                      id="Shape"></path>
                <polygon id="Shape"
                         points="105.632791 57.4576364 104.683721 61.0874545 110.609302 57.6186364 111.556744 53.9871919"></polygon>
                <path d="M111.755349,33.9971717 C111.94093,33.2881212 111.516047,32.5644343 110.804651,32.3774141 C110.094884,32.1936465 109.370465,32.618101 109.186512,33.3271515 L102.393256,59.3554848 L105.632791,57.4576364 L111.755349,33.9971717 Z"
                      id="Shape"></path>
                <path d="M104.683721,61.0874545 L101.444186,62.985303" id="Shape"></path>
                <polygon id="Shape"
                         points="102.393256 59.3554848 101.444186 62.985303 104.683721 61.0874545 105.632791 57.4576364"></polygon>
                <path d="M113.848837,55.7191616 L110.609302,57.6186364" id="Shape"></path>
                <path d="M119.023953,35.8901414 C119.206279,35.1810909 118.784651,34.457404 118.073256,34.2720101 C117.363488,34.0882424 116.637442,34.512697 116.453488,35.2201212 L111.555116,53.9871919 L114.794651,52.0893434 L119.023953,35.8901414 Z"
                      id="Shape"></path>
                <polygon id="Shape"
                         points="111.556744 53.9871919 110.609302 57.6186364 113.848837 55.7191616 114.796279 52.0893434"></polygon>
                <path d="M95.5186047,66.4557475 L92.2806977,68.353596" id="Shape"></path>
                <path d="M100.695349,46.6267273 C100.88093,45.9176768 100.457674,45.1923636 99.7462791,45.008596 C99.0365116,44.823202 98.312093,45.2476566 98.1265116,45.9567071 L93.2281395,64.7237778 L96.4676744,62.8259293 L100.695349,46.6267273 Z"
                      id="Shape"></path>
                <polygon id="Shape"
                         points="93.2281395 64.7237778 92.2806977 68.353596 95.5186047 66.4557475 96.4676744 62.8259293"></polygon>
                <path d="M123.012326,50.3524949 L119.772791,52.2503434" id="Shape"></path>
                <path d="M126.292558,37.7831111 C126.476512,37.0740606 126.053256,36.3503737 125.34186,36.1649798 C124.630465,35.9812121 123.906047,36.4056667 123.723721,37.1147172 L120.718605,48.618899 L123.95814,46.7210505 L126.292558,37.7831111 Z"
                      id="Shape"></path>
                <polygon id="Shape"
                         points="123.959767 46.7210505 120.720233 48.618899 119.772791 52.2503434 123.012326 50.3524949"></polygon>
                <path d="M89.3927907,70.0465354 C88.7595349,70.4173232 87.9472093,70.2042828 87.5760465,69.5732929 C87.2048837,68.9406768 87.4181395,68.1275455 88.0497674,67.7567576 L90.9360465,66.0654444 L94.5695349,67.0119293 L89.3927907,70.0465354 Z"
                      id="Shape"></path>
                <polygon id="Shape"
                         points="97.8106977 65.1157071 94.1772093 64.167596 100.099535 60.6971515 103.736279 61.6436364"></polygon>
                <polygon id="Shape"
                         points="116.137674 54.3774949 112.505814 53.4310101 118.42814 49.9605657 122.063256 50.9070505"></polygon>
                <path d="M136.502791,39.373596 C137.136047,39.0028081 137.95,39.2142222 138.321163,39.8468384 C138.692326,40.4794545 138.47907,41.2925859 137.845814,41.6633737 L125.302791,49.0108283 L121.669302,48.0643434 L136.502791,39.373596 Z"
                      id="Shape"></path>
                <polygon id="Shape"
                         points="106.975814 59.7474141 103.340698 58.799303 109.264651 55.3304848 112.901395 56.2753434"></polygon>
                <path d="M130.46,65.8637879 C131.171395,66.0491818 131.593023,66.7728687 131.40907,67.4819192 C131.225116,68.192596 130.49907,68.6154242 129.789302,68.4316566 L103.736279,61.6436364 L106.975814,59.7457879 L130.46,65.8637879 Z"
                      id="Shape"></path>
                <path d="M103.340698,58.799303 L100.099535,60.6971515" id="Shape"></path>
                <polygon id="Shape"
                         points="103.736279 61.6436364 100.099535 60.6971515 103.340698 58.799303 106.975814 59.7474141"></polygon>
                <path d="M112.505814,53.4310101 L109.264651,55.3304848" id="Shape"></path>
                <path d="M132.354884,58.6025253 C133.066279,58.7862929 133.487907,59.5116061 133.305581,60.2206566 C133.12,60.9297071 132.393953,61.3541616 131.684186,61.1687677 L112.901395,56.2753434 L116.137674,54.3774949 L132.354884,58.6025253 Z"
                      id="Shape"></path>
                <polygon id="Shape"
                         points="112.901395 56.2753434 109.264651 55.3304848 112.505814 53.4310101 116.137674 54.3774949"></polygon>
                <path d="M94.1772093,64.167596 L90.9376744,66.0654444" id="Shape"></path>
                <path d="M114.027907,69.3374848 C114.737674,69.5228788 115.16093,70.2465657 114.976977,70.9556162 C114.791395,71.6646667 114.065349,72.0891212 113.357209,71.9037273 L94.5711628,67.010303 L97.8106977,65.1140808 L114.027907,69.3374848 Z"
                      id="Shape"></path>
                <polygon id="Shape"
                         points="94.5711628 67.0119293 90.9376744 66.0654444 94.1772093 64.167596 97.8106977 65.1157071"></polygon>
                <path d="M121.669302,48.0643434 L118.42814,49.9605657" id="Shape"></path>
                <path d="M134.249767,51.3412626 C134.961163,51.5266566 135.382791,52.2503434 135.200465,52.9593939 C135.014884,53.6684444 134.288837,54.092899 133.57907,53.9075051 L122.063256,50.9070505 L125.302791,49.009202 L134.249767,51.3412626 Z"
                      id="Shape"></path>
                <polygon id="Shape"
                         points="125.302791 49.0108283 122.063256 50.9070505 118.42814 49.9605657 121.669302 48.0643434"></polygon>
            </g>
        </g>
    </g>
</svg>