<svg xmlns="http://www.w3.org/2000/svg" viewBox="0 0 811.14 800"><defs><style>.cls-1{fill:#2036d3;stroke:#000;stroke-miterlimit:10;}.cls-2{fill:#f9f9f9;}.cls-3{fill:#f2f2f4;}.cls-4{fill:#fcfcfc;}.cls-5{fill:#5262ff;}.cls-6{fill:#5d6ff9;}.cls-7{fill:#2d59e8;}.cls-8{fill:#6376fc;}.cls-9{fill:#060403;}.cls-10{fill:#9e9c9b;}.cls-11{fill:#3f61ef;}.cls-12,.cls-13,.cls-14,.cls-15{fill:#16d880;}.cls-12{opacity:0.6;}.cls-13{opacity:0.4;}.cls-14{opacity:0.5;}.cls-15{opacity:0.7;}.cls-16{fill:#3bf296;opacity:0.53;}.cls-17{font-size:64px;fill:#fd7257;font-family:FuturaPT-Bold, Futura PT;font-weight:700;}</style></defs><title>Asset 19</title><g id="Layer_2" data-name="Layer 2"><g id="Layer_1-2" data-name="Layer 1"><rect class="cls-1" x="5.64" y="0.5" width="800" height="799"/><polygon class="cls-2" points="241.25 160 291.77 257.13 351.1 219.78 241.25 160"/><polygon class="cls-3" points="186.89 152.05 291.77 257.13 241.25 160 186.89 152.05"/><polygon class="cls-3" points="351.38 219.75 291.77 257.13 406.12 380.64 351.38 219.75"/><polygon class="cls-4" points="470.93 367.36 351.38 219.75 406.12 380.64 470.93 367.36"/><polygon class="cls-3" points="560.1 438.99 470.93 367.36 406.12 380.64 560.1 438.99"/><polygon class="cls-5" points="241.25 160 351.38 219.75 401.36 204.44 241.25 160"/><polygon class="cls-6" points="279.34 123.73 241.25 160 401.36 204.44 279.34 123.73"/><polygon class="cls-5" points="261.66 103.46 185 128.03 279.34 123.73 261.66 103.46"/><polygon class="cls-7" points="279.34 123.73 185 128.03 226.02 140.61 279.34 123.73"/><polygon class="cls-7" points="291.77 257.13 259.5 224.93 297.08 310.17 291.77 257.13"/><polygon class="cls-6" points="335.25 304.5 310.3 276.61 330.31 370.51 335.25 304.5"/><polygon class="cls-7" points="310.3 276.61 303.86 269.83 330.31 370.51 310.3 276.61"/><polygon class="cls-8" points="279.34 123.73 226.02 140.61 241.25 160 279.34 123.73"/><polygon class="cls-5" points="241.25 160 226.02 140.61 186.08 151.2 241.25 160"/><polygon class="cls-5" points="226.02 140.61 185 128.03 206.88 145.93 226.02 140.61"/><polygon class="cls-9" points="206.88 145.93 185 128.03 177.42 133.63 206.88 145.93"/><polygon class="cls-10" points="206.88 145.93 177.42 133.63 186.08 151.2 206.88 145.93"/><polygon class="cls-5" points="420.91 182.6 279.34 123.73 401.36 204.44 420.91 182.6"/><polygon class="cls-7" points="261.66 103.46 279.34 123.73 420.91 182.6 261.66 103.46"/><polygon class="cls-6" points="522.12 302.48 420.91 182.6 401.36 204.44 522.12 302.48"/><polygon class="cls-11" points="480.34 253.51 522.27 195.84 420.91 182.6 480.34 253.51"/><polygon class="cls-11" points="560.1 438.99 522.12 302.48 470.93 367.36 560.1 438.99"/><polygon class="cls-11" points="716.65 527.16 654.6 461.98 603.14 436.74 716.65 527.16"/><path class="cls-5" d="M717.46,528l-70-40.83a15.88,15.88,0,0,1-4.47-3.76l-39.09-45.83Z"/><polygon class="cls-6" points="630.58 463.87 522.12 302.48 560.1 438.99 630.58 463.87"/><polygon class="cls-11" points="488.15 305.78 522.12 302.48 401.36 204.44 488.15 305.78"/><polygon class="cls-5" points="488.15 305.78 522.12 302.48 470.93 367.36 488.15 305.78"/><polygon class="cls-6" points="470.93 367.36 488.15 305.78 401.36 204.44 470.93 367.36"/><polygon class="cls-8" points="351.38 219.75 470.93 367.36 401.36 204.44 351.38 219.75"/><polygon class="cls-12" points="811.14 337.7 559.95 436.5 801.14 681 811.14 337.7"/><polygon class="cls-13" points="811.14 337.7 367.38 259 559.95 436.5 811.14 337.7"/><polygon class="cls-13" points="300.4 295.84 131.27 294.17 251.84 403.01 300.4 295.84"/><polygon class="cls-14" points="560.38 436.01 1.14 795 580.14 795 801.14 681 560.38 436.01"/><polygon class="cls-12" points="297.14 722 498.14 722 801.14 681 297.14 722"/><polygon class="cls-15" points="801.14 681 498.14 722 801.14 795 801.14 681"/><polygon class="cls-12" points="801.14 795 498.14 722 580.14 795 801.14 795"/><polygon class="cls-16" points="0.48 372.55 498.14 722 297.14 722 0.48 372.55"/><polygon class="cls-16" points="0.48 372.55 1.14 795 93.82 473.59 0.48 372.55"/><polygon class="cls-12" points="2.14 634 1.14 795 0 372.1 2.14 634"/><polygon class="cls-12" points="297.14 722 252.02 402.46 301.06 296.23 367.38 259 560.38 436.01 297.14 722"/><polygon class="cls-14" points="297.14 722 0.48 372.55 0.48 372.55 131.88 293.85 251.84 403.01 297.14 722"/><polyline class="cls-12" points="93.82 473.59 297.14 722 1.14 795 93.82 473.59"/><text class="cls-17" transform="translate(266.13 723.43)">Aquarium</text></g></g></svg>