<svg xmlns="http://www.w3.org/2000/svg" viewBox="0 0 801 800"><defs><style>.cls-1{fill:#16d880;stroke:#000;stroke-miterlimit:10;}.cls-2{font-size:64px;fill:#a8fef0;font-family:FuturaPT-Bold, Futura PT;font-weight:700;}.cls-3{letter-spacing:-0.02em;}.cls-4{fill:#f96450;}.cls-5{fill:#ff7f6e;}.cls-6{fill:#e7e7ec;}.cls-7{fill:#fc7c6b;}.cls-8{fill:#fd7257;}.cls-9{fill:#f9604b;}.cls-10{fill:#1fbf73;}.cls-11{fill:#23b561;}.cls-12{fill:#16934e;}</style></defs><title>carrot2</title><g id="Layer_2" data-name="Layer 2"><g id="Layer_1-2" data-name="Layer 1"><rect class="cls-1" x="0.5" y="0.5" width="800" height="799"/><text class="cls-2" transform="translate(300.39 718.43)">Car<tspan class="cls-3" x="103.29" y="0">r</tspan><tspan x="128.19" y="0">ot</tspan></text><polygon class="cls-4" points="469.4 268.38 428.91 330.24 446.09 368 469.4 268.38"/><polygon class="cls-5" points="489.47 269.42 469.4 268.38 446.09 368 489.47 269.42"/><line class="cls-6" x1="423.89" y1="404.82" x2="442.02" y2="367.32"/><polygon class="cls-7" points="428.91 330.24 397.5 373.51 446.09 368 428.91 330.24"/><polygon class="cls-4" points="397.5 373.51 409.16 398.67 428.96 370.52 397.5 373.51"/><polygon class="cls-5" points="409.16 398.67 404.89 426.6 423.89 404.82 409.16 398.67"/><polygon class="cls-4" points="397.5 373.51 404.89 426.6 409.16 398.67 397.5 373.51"/><polygon class="cls-7" points="445.98 367.92 428.96 370.52 409.16 398.67 423.89 404.82 445.98 367.92"/><polygon class="cls-8" points="428.91 330.24 415.04 306.04 450.37 247.27 469.4 268.38 428.91 330.24"/><polygon class="cls-7" points="415.04 306.04 405.76 305.92 433.18 240.59 450.37 247.27 415.04 306.04"/><polygon class="cls-8" points="397.5 373.51 397.88 337.19 405.76 305.92 415.04 306.04 428.91 330.24 397.5 373.51"/><polygon class="cls-9" points="308.76 558.45 353.97 411.54 329.63 424.58 308.76 558.45"/><polygon class="cls-8" points="353.97 411.54 397.5 373.51 329.63 424.58 353.97 411.54"/><polygon class="cls-5" points="397.5 373.51 381.56 315.96 329.39 424.96 397.5 373.51"/><polygon class="cls-9" points="381.56 315.96 389.82 292.65 359.06 298.79 381.56 315.96"/><polygon class="cls-8" points="329.39 424.96 381.41 316.49 381.56 315.96 359.06 298.79 329.39 424.96"/><polygon class="cls-8" points="353.97 411.54 373.34 445.35 315.02 583.69 308.76 558.45 353.97 411.54"/><polygon class="cls-4" points="373.34 445.35 375.85 515.01 352.57 565.22 315.02 583.69 373.34 445.35"/><polygon class="cls-7" points="397.5 373.51 404.89 426.6 375.85 515.01 373.34 445.35 353.97 411.54 397.5 373.51"/><polygon class="cls-5" points="415.14 224.22 408.18 208.87 389.82 292.65 415.14 224.22"/><polygon class="cls-4" points="381.18 249.85 408.74 208.54 389.82 292.65 381.18 249.85"/><polygon class="cls-8" points="433.18 240.59 415.14 224.22 389.82 292.65 433.18 240.59"/><polygon class="cls-4" points="405.76 305.92 433.18 240.59 389.82 292.65 397.88 337.19 405.76 305.92"/><polygon class="cls-7" points="397.88 337.19 389.82 292.65 381.41 316.49 397.5 373.51 397.88 337.19"/><polygon class="cls-5" points="381.18 249.85 359.06 298.79 389.82 292.65 381.18 249.85"/><polygon class="cls-8" points="408.74 208.54 381.03 250.84 359.49 299.14 361.45 213.46 408.74 208.54"/><polygon class="cls-10" points="500.14 159.78 472.44 202.08 439.04 248.57 441 162.88 500.14 159.78"/><polygon class="cls-11" points="439.3 138.51 441.13 189.04 440.74 246.29 392.82 175.22 439.3 138.51"/><polygon class="cls-12" points="413.75 138.63 428.42 187.02 442.66 242.47 378.19 186 413.75 138.63"/></g></g></svg>