<svg xmlns="http://www.w3.org/2000/svg" viewBox="0 0 801 800"><defs><style>.cls-1{fill:#5262ff;stroke:#000;stroke-miterlimit:10;}.cls-2{font-size:64px;fill:#fdc9fb;font-family:FuturaPT-Bold, Futura PT;font-weight:700;}.cls-3{fill:#bebfc2;}.cls-4{fill:#cbcdd0;}.cls-5{fill:#e5e5e5;}.cls-6{fill:#f2f2f4;}.cls-7{fill:#e0e1e2;}.cls-8{fill:#edefef;}.cls-9{fill:#e7e7ec;}.cls-10{fill:#f5f4f2;}.cls-11{fill:#eaeaea;}.cls-12{fill:#ddd;}.cls-13{fill:#f4f4f4;}.cls-14{fill:#dadce0;}.cls-15{fill:#c6c8ce;}.cls-16{fill:#d9d9db;}.cls-17{fill:#afafb2;}.cls-18{fill:#e2e2e2;}.cls-19{fill:#ededed;}.cls-20{fill:#ccced1;}.cls-21{fill:#e3e3e5;}.cls-22{fill:#f2f2f2;}.cls-23{fill:#f5f5f7;}.cls-24{fill:#dce1e2;}.cls-25{fill:#efefef;}.cls-26{fill:#9a9ba1;}</style></defs><title>Asset 2</title><g id="Layer_2" data-name="Layer 2"><g id="Layer_1-2" data-name="Layer 1"><rect class="cls-1" x="0.5" y="0.5" width="800" height="799"/><text class="cls-2" transform="translate(307.72 717.43)">Clouds</text><polygon class="cls-3" points="610.88 326 681.26 321.15 591.47 306.59 610.88 326"/><polygon class="cls-4" points="681.26 321.15 741.93 292.02 591.47 306.59 681.26 321.15"/><polygon class="cls-5" points="406.12 268.67 406.12 291.25 360.95 279.09 354 244.34 406.12 268.67"/><polygon class="cls-6" points="472.14 103.62 532.95 138.37 579.86 93.19 472.14 103.62"/><polygon class="cls-7" points="515.57 82.77 472.14 103.62 579.86 93.19 515.57 82.77"/><polygon class="cls-8" points="565.96 79.3 515.57 82.77 579.86 93.19 565.96 79.3"/><polygon class="cls-9" points="579.86 93.19 565.96 79.3 633.71 114.04 579.86 93.19"/><polygon class="cls-10" points="532.95 138.37 597.23 180.06 579.86 93.19 532.95 138.37"/><polygon class="cls-11" points="597.23 180.06 628.5 154 586.8 127.94 597.23 180.06"/><polygon class="cls-8" points="628.5 154 666.72 154 633.71 114.04 628.5 154"/><polygon class="cls-12" points="597.23 180.06 666.72 154 628.5 154 597.23 180.06"/><polygon class="cls-13" points="579.86 93.19 586.8 127.94 628.5 154 633.71 114.04 579.86 93.19"/><polygon class="cls-14" points="532.95 138.37 503.41 167.9 451.29 143.58 472.14 103.62 532.95 138.37"/><polygon class="cls-15" points="503.41 167.9 505.15 183.54 428.71 167.9 451.29 143.58 503.41 167.9"/><polygon class="cls-16" points="597.23 180.06 548.58 188.75 505.15 183.54 503.41 167.9 532.95 138.37 597.23 180.06"/><polygon class="cls-9" points="741.93 292.02 656.99 243.49 591.47 306.59 741.93 292.02"/><polygon class="cls-17" points="591.47 306.59 610.88 326 505.15 284.3 591.47 306.59"/><polygon class="cls-18" points="656.99 243.49 597.23 180.06 591.47 306.59 656.99 243.49"/><polygon class="cls-19" points="597.23 180.06 523.52 221.65 592.02 306.89 597.23 180.06"/><polygon class="cls-3" points="523.52 221.65 501.68 211.34 505.15 284.3 523.52 221.65"/><polygon class="cls-20" points="592.02 306.89 524.26 221.76 523.52 221.65 505.15 284.3 592.02 306.89"/><polygon class="cls-21" points="656.99 243.49 698.24 202.23 771.05 236.21 741.93 292.02 656.99 243.49"/><polygon class="cls-22" points="698.24 202.23 697.55 168.23 761.34 187.67 771.05 236.21 698.24 202.23"/><polygon class="cls-23" points="597.23 180.06 666.72 154 697.55 168.23 698.24 202.23 656.99 243.49 597.23 180.06"/><polygon class="cls-9" points="374.85 204.38 435.66 239.13 501.68 211.34 374.85 204.38"/><polygon class="cls-4" points="393.96 188.75 374.85 204.38 501.68 211.34 393.96 188.75"/><polygon class="cls-8" points="428.71 167.9 393.96 188.75 501.68 211.34 428.71 167.9"/><polygon class="cls-9" points="505.15 183.54 428.71 167.9 501.68 211.34 548.58 188.75 505.15 183.54"/><polygon class="cls-24" points="548.58 188.75 501.68 211.34 524.26 221.76 597.23 180.06 548.58 188.75"/><polygon class="cls-4" points="435.66 239.13 505.15 284.3 501.68 211.34 435.66 239.13"/><polygon class="cls-25" points="435.66 239.13 406.12 268.67 354 244.34 374.85 204.38 435.66 239.13"/><polygon class="cls-18" points="505.15 284.3 449.55 296.46 406.12 291.25 406.12 268.67 435.66 239.13 505.15 284.3"/><polygon class="cls-9" points="209.54 268.94 254.4 294.58 289 261.25 209.54 268.94"/><polygon class="cls-4" points="241.58 253.56 209.54 268.94 289 261.25 241.58 253.56"/><polygon class="cls-24" points="278.75 251 241.58 253.56 289 261.25 278.75 251"/><polygon class="cls-9" points="289 261.25 278.75 251 328.73 276.63 289 261.25"/><polygon class="cls-24" points="254.4 294.58 301.82 325.34 289 261.25 254.4 294.58"/><polygon class="cls-16" points="301.82 325.34 324.89 306.11 294.13 286.89 301.82 325.34"/><polygon class="cls-4" points="301.82 325.34 353.08 306.11 324.89 306.11 301.82 325.34"/><polygon class="cls-18" points="232.61 316.37 233.89 327.9 177.49 316.37 194.16 298.42 232.61 316.37"/><polygon class="cls-4" points="301.82 325.34 265.93 331.75 233.89 327.9 232.61 316.37 254.4 294.58 301.82 325.34"/><polygon class="cls-9" points="408.56 407.94 345.9 372.13 297.57 418.68 408.56 407.94"/><polygon class="cls-4" points="363.81 429.42 408.56 407.94 297.57 418.68 363.81 429.42"/><polygon class="cls-3" points="311.89 433 363.81 429.42 297.57 418.68 311.89 433"/><polygon class="cls-26" points="297.57 418.68 311.89 433 233.89 402.24 297.57 418.68"/><polygon class="cls-18" points="345.9 372.13 301.82 325.34 297.57 418.68 345.9 372.13"/><polygon class="cls-16" points="301.82 325.34 247.44 356.02 297.97 418.9 301.82 325.34"/><polygon class="cls-24" points="345.9 372.13 376.34 341.69 430.05 366.76 408.56 407.94 345.9 372.13"/><polygon class="cls-19" points="376.34 341.69 375.83 316.61 422.89 330.95 430.05 366.76 376.34 341.69"/><polygon class="cls-9" points="301.82 325.34 353.08 306.11 375.83 316.61 376.34 341.69 345.9 372.13 301.82 325.34"/><polygon class="cls-9" points="137.76 343.28 182.62 368.92 231.32 348.41 137.76 343.28"/><polygon class="cls-4" points="151.86 331.75 137.76 343.28 231.32 348.41 151.86 331.75"/><polygon class="cls-24" points="177.49 316.37 151.86 331.75 231.32 348.41 177.49 316.37"/><polygon class="cls-24" points="265.93 331.75 231.32 348.41 247.99 356.1 301.82 325.34 265.93 331.75"/><polygon class="cls-4" points="182.62 368.92 233.89 402.24 231.32 348.41 182.62 368.92"/><polygon class="cls-12" points="182.62 368.92 160.83 390.7 122.38 372.76 137.76 343.28 182.62 368.92"/><polygon class="cls-18" points="160.83 390.7 160.83 407.37 127.51 398.39 122.38 372.76 160.83 390.7"/><polygon class="cls-3" points="233.89 402.24 192.87 411.21 160.83 407.37 160.83 390.7 182.62 368.92 233.89 402.24"/><polygon class="cls-9" points="233.89 327.9 177.49 316.37 231.32 348.41 265.93 331.75 233.89 327.9"/><polygon class="cls-16" points="324.89 306.11 353.08 306.11 328.73 276.63 324.89 306.11"/><polygon class="cls-9" points="289 261.25 294.13 286.89 324.89 306.11 328.73 276.63 289 261.25"/><polygon class="cls-14" points="254.4 294.58 232.61 316.37 194.16 298.42 209.54 268.94 254.4 294.58"/><polygon class="cls-3" points="247.44 356.02 231.32 348.41 233.89 402.24 247.44 356.02"/><polygon class="cls-20" points="297.97 418.9 247.99 356.1 247.44 356.02 233.89 402.24 297.97 418.9"/><polygon class="cls-9" points="516.44 392.62 543 407.8 563.49 388.07 516.44 392.62"/><polygon class="cls-4" points="535.41 383.52 516.44 392.62 563.49 388.07 535.41 383.52"/><polygon class="cls-24" points="557.42 382 535.41 383.52 563.49 388.07 557.42 382"/><polygon class="cls-9" points="563.49 388.07 557.42 382 587.01 397.18 563.49 388.07"/><polygon class="cls-24" points="543 407.8 571.08 426.01 563.49 388.07 543 407.8"/><polygon class="cls-16" points="571.08 426.01 584.74 414.63 566.52 403.25 571.08 426.01"/><polygon class="cls-4" points="571.08 426.01 601.43 414.63 584.74 414.63 571.08 426.01"/><polygon class="cls-18" points="530.1 420.7 530.86 427.53 497.46 420.7 507.33 410.08 530.1 420.7"/><polygon class="cls-4" points="571.08 426.01 549.83 429.81 530.86 427.53 530.1 420.7 543 407.8 571.08 426.01"/><polygon class="cls-9" points="634.28 474.92 597.18 453.72 568.56 481.28 634.28 474.92"/><polygon class="cls-4" points="607.78 487.64 634.28 474.92 568.56 481.28 607.78 487.64"/><polygon class="cls-3" points="577.04 489.76 607.78 487.64 568.56 481.28 577.04 489.76"/><polygon class="cls-26" points="568.56 481.28 577.04 489.76 530.86 471.55 568.56 481.28"/><polygon class="cls-18" points="597.18 453.72 571.08 426.01 568.56 481.28 597.18 453.72"/><polygon class="cls-16" points="571.08 426.01 538.88 444.18 568.8 481.41 571.08 426.01"/><polygon class="cls-24" points="597.18 453.72 615.2 435.7 647 450.54 634.28 474.92 597.18 453.72"/><polygon class="cls-19" points="615.2 435.7 614.9 420.85 642.76 429.34 647 450.54 615.2 435.7"/><polygon class="cls-9" points="571.08 426.01 601.43 414.63 614.9 420.85 615.2 435.7 597.18 453.72 571.08 426.01"/><polygon class="cls-9" points="473.94 436.64 500.5 451.82 529.34 439.68 473.94 436.64"/><polygon class="cls-4" points="482.29 429.81 473.94 436.64 529.34 439.68 482.29 429.81"/><polygon class="cls-24" points="497.46 420.7 482.29 429.81 529.34 439.68 497.46 420.7"/><polygon class="cls-24" points="549.83 429.81 529.34 439.68 539.2 444.23 571.08 426.01 549.83 429.81"/><polygon class="cls-4" points="500.5 451.82 530.86 471.55 529.34 439.68 500.5 451.82"/><polygon class="cls-12" points="500.5 451.82 487.6 464.72 464.83 454.09 473.94 436.64 500.5 451.82"/><polygon class="cls-18" points="487.6 464.72 487.6 474.58 467.87 469.27 464.83 454.09 487.6 464.72"/><polygon class="cls-3" points="530.86 471.55 506.57 476.86 487.6 474.58 487.6 464.72 500.5 451.82 530.86 471.55"/><polygon class="cls-9" points="530.86 427.53 497.46 420.7 529.34 439.68 549.83 429.81 530.86 427.53"/><polygon class="cls-16" points="584.74 414.63 601.43 414.63 587.01 397.18 584.74 414.63"/><polygon class="cls-9" points="563.49 388.07 566.52 403.25 584.74 414.63 587.01 397.18 563.49 388.07"/><polygon class="cls-14" points="543 407.8 530.1 420.7 507.33 410.08 516.44 392.62 543 407.8"/><polygon class="cls-3" points="538.88 444.18 529.34 439.68 530.86 471.55 538.88 444.18"/><polygon class="cls-20" points="568.8 481.41 539.2 444.23 538.88 444.18 530.86 471.55 568.8 481.41"/><polygon class="cls-9" points="128.61 62.97 173.19 88.44 207.57 55.33 128.61 62.97"/><polygon class="cls-4" points="160.45 47.69 128.61 62.97 207.57 55.33 160.45 47.69"/><polygon class="cls-24" points="197.39 45.14 160.45 47.69 207.57 55.33 197.39 45.14"/><polygon class="cls-9" points="207.57 55.33 197.39 45.14 247.06 70.61 207.57 55.33"/><polygon class="cls-24" points="173.19 88.44 220.31 119.01 207.57 55.33 173.19 88.44"/><polygon class="cls-16" points="220.31 119.01 243.24 99.91 212.67 80.8 220.31 119.01"/><polygon class="cls-4" points="220.31 119.01 271.26 99.91 243.24 99.91 220.31 119.01"/><polygon class="cls-18" points="151.53 110.1 152.81 121.56 96.77 110.1 113.33 92.27 151.53 110.1"/><polygon class="cls-4" points="220.31 119.01 184.65 125.38 152.81 121.56 151.53 110.1 173.19 88.44 220.31 119.01"/><polygon class="cls-9" points="326.39 201.09 264.12 165.51 216.09 211.77 326.39 201.09"/><polygon class="cls-4" points="281.91 222.44 326.39 201.09 216.09 211.77 281.91 222.44"/><polygon class="cls-3" points="230.32 226 281.91 222.44 216.09 211.77 230.32 226"/><polygon class="cls-26" points="216.09 211.77 230.32 226 152.81 195.43 216.09 211.77"/><polygon class="cls-18" points="264.12 165.51 220.31 119.01 216.09 211.77 264.12 165.51"/><polyline class="cls-16" points="218.68 158.73 220.31 119.01 166.27 149.5 216.49 211.99 218.68 158.73"/><polygon class="cls-24" points="264.12 165.51 294.37 135.27 347.74 160.17 326.39 201.09 264.12 165.51"/><polygon class="cls-19" points="294.37 135.27 293.86 110.34 340.62 124.59 347.74 160.17 294.37 135.27"/><polygon class="cls-9" points="220.31 119.01 271.26 99.91 293.86 110.34 294.37 135.27 264.12 165.51 220.31 119.01"/><polygon class="cls-9" points="57.28 136.84 101.86 162.32 150.26 141.94 57.28 136.84"/><polygon class="cls-4" points="71.29 125.38 57.28 136.84 150.26 141.94 71.29 125.38"/><polygon class="cls-24" points="96.77 110.1 71.29 125.38 150.26 141.94 96.77 110.1"/><polygon class="cls-24" points="184.65 125.38 150.26 141.94 166.82 149.58 220.31 119.01 184.65 125.38"/><polygon class="cls-4" points="101.86 162.32 152.81 195.43 150.26 141.94 101.86 162.32"/><polygon class="cls-12" points="101.86 162.32 80.21 183.97 42 166.14 57.28 136.84 101.86 162.32"/><polygon class="cls-18" points="80.21 183.97 80.21 200.53 47.09 191.61 42 166.14 80.21 183.97"/><polygon class="cls-3" points="152.81 195.43 112.05 204.35 80.21 200.53 80.21 183.97 101.86 162.32 152.81 195.43"/><polygon class="cls-9" points="152.81 121.56 96.77 110.1 150.26 141.94 184.65 125.38 152.81 121.56"/><polygon class="cls-16" points="243.24 99.91 271.26 99.91 247.06 70.61 243.24 99.91"/><polygon class="cls-9" points="207.57 55.33 212.67 80.8 243.24 99.91 247.06 70.61 207.57 55.33"/><polygon class="cls-14" points="173.19 88.44 151.53 110.1 113.33 92.27 128.61 62.97 173.19 88.44"/><polygon class="cls-3" points="166.27 149.5 150.26 141.94 152.81 195.43 166.27 149.5"/><polygon class="cls-20" points="216.49 211.99 166.82 149.58 166.27 149.5 152.81 195.43 216.49 211.99"/></g></g></svg>