<svg xmlns="http://www.w3.org/2000/svg" viewBox="0 0 801 800"><defs><style>.cls-1{fill:#fdc9fb;stroke:#000;stroke-miterlimit:10;}.cls-2{fill:#f9f9f9;}.cls-3{fill:#f2f2f4;}.cls-4{fill:#fcfcfc;}.cls-5{fill:#5262ff;}.cls-6{fill:#5d6ff9;}.cls-7{fill:#2d59e8;}.cls-8{fill:#6376fc;}.cls-9{fill:#060403;}.cls-10{fill:#9e9c9b;}.cls-11{fill:#3f61ef;}.cls-12{font-size:64px;fill:#fc586e;font-family:FuturaPT-Bold, Futura PT;font-weight:700;}.cls-13{letter-spacing:-0.01em;}</style></defs><title>Asset 8</title><g id="Layer_2" data-name="Layer 2"><g id="Layer_1-2" data-name="Layer 1"><rect class="cls-1" x="0.5" y="0.5" width="800" height="799"/><polygon class="cls-2" points="148.11 417.82 253.3 448.2 267.15 379.48 148.11 417.82"/><polygon class="cls-3" points="104.87 451.71 253.3 448.2 148.11 417.82 104.87 451.71"/><polygon class="cls-3" points="267.32 379.25 253.3 448.2 421.6 450.54 267.32 379.25"/><polygon class="cls-4" points="456.66 394.44 267.32 379.25 421.6 450.54 456.66 394.44"/><polygon class="cls-3" points="570.03 379.25 456.66 394.44 421.6 450.54 570.03 379.25"/><polygon class="cls-5" points="148.11 417.82 267.32 379.25 290.7 332.5 148.11 417.82"/><polygon class="cls-6" points="148.11 365.22 148.11 417.82 290.7 332.5 148.11 365.22"/><polygon class="cls-5" points="121.23 364.06 86.17 436.52 148.11 365.22 121.23 364.06"/><polygon class="cls-7" points="148.11 365.22 86.17 436.52 123.57 415.48 148.11 365.22"/><polygon class="cls-7" points="253.3 448.2 207.72 449.37 295.37 480.93 253.3 448.2"/><polygon class="cls-6" points="317.58 449.37 280.18 448.2 361.99 498.46 317.58 449.37"/><polygon class="cls-7" points="280.18 448.2 270.83 448.2 361.99 498.46 280.18 448.2"/><polygon class="cls-8" points="148.11 365.22 123.57 415.48 148.11 417.82 148.11 365.22"/><polygon class="cls-5" points="148.11 417.82 123.57 415.48 103.7 451.71 148.11 417.82"/><polygon class="cls-5" points="123.57 415.48 86.17 436.52 114.22 433.01 123.57 415.48"/><polygon class="cls-9" points="114.22 433.01 86.17 436.52 85 445.87 114.22 433.01"/><polygon class="cls-10" points="114.22 433.01 85 445.87 103.7 451.71 114.22 433.01"/><polygon class="cls-5" points="288.36 303.28 148.11 365.22 290.7 332.5 288.36 303.28"/><polygon class="cls-7" points="121.23 364.06 148.11 365.22 288.36 303.28 121.23 364.06"/><polygon class="cls-6" points="444.97 312.63 288.36 303.28 290.7 332.5 444.97 312.63"/><polygon class="cls-11" points="380.69 309.12 367.83 239 288.36 303.28 380.69 309.12"/><polygon class="cls-11" points="570.03 379.25 444.97 312.63 456.66 394.44 570.03 379.25"/><polygon class="cls-11" points="741.83 326.65 651.84 326.65 598.08 346.52 741.83 326.65"/><path class="cls-5" d="M743,326.66l-77.8,22.51a15.88,15.88,0,0,1-5.8.64l-60.15-3.29Z"/><polygon class="cls-6" points="636.64 345.36 444.97 312.63 570.03 379.25 636.64 345.36"/><polygon class="cls-11" points="423.93 339.51 444.97 312.63 290.7 332.5 423.93 339.51"/><polygon class="cls-5" points="423.93 339.51 444.97 312.63 456.66 394.44 423.93 339.51"/><polygon class="cls-6" points="456.66 394.44 423.93 339.51 290.7 332.5 456.66 394.44"/><polygon class="cls-8" points="267.32 379.25 456.66 394.44 290.7 332.5 267.32 379.25"/><text class="cls-12" transform="translate(343.8 717.43)"><tspan class="cls-13">F</tspan><tspan x="30.4" y="0">ish</tspan></text></g></g></svg>