<svg xmlns="http://www.w3.org/2000/svg" viewBox="0 0 801 800"><defs><style>.cls-1,.cls-8{font-size:64px;font-family:FuturaPT-Bold, Futura PT;font-weight:700;}.cls-2{fill:#f5f4f2;stroke:#000;stroke-miterlimit:10;}.cls-3{fill:#5a70f2;}.cls-4{fill:#5262ff;}.cls-5{fill:#7786fc;}.cls-6{fill:#fc4273;}.cls-7{fill:#e52557;}.cls-8{fill:#fd7257;}.cls-9{letter-spacing:-0.02em;}</style></defs><title>flash</title><g id="Layer_2" data-name="Layer 2"><g id="Layer_1-2" data-name="Layer 1"><text class="cls-1" transform="translate(428.53 747.43)">Flash</text><rect class="cls-2" x="0.5" y="0.5" width="800" height="799"/><polygon class="cls-3" points="248.33 665.2 391 573 305.89 573 248.33 665.2"/><polygon class="cls-4" points="405 438.81 261.52 531.04 305.89 573 347.25 531.04 347.07 530.9 405 438.81"/><polygon class="cls-5" points="305.89 573 404.79 438.73 347.25 531.04 305.89 573"/><polygon class="cls-4" points="347.25 531.04 305.89 573 391 573 347.25 531.04"/><polygon class="cls-6" points="559.81 356.84 499.52 418 623.6 418 559.81 356.84"/><polygon class="cls-7" points="415.63 552.4 623.6 418 499.52 418 415.63 552.4"/><polygon class="cls-6" points="644 222.4 434.85 356.84 499.52 418 559.81 356.84 559.56 356.63 644 222.4"/><polygon class="cls-7" points="499.52 418 643.69 222.28 559.81 356.84 499.52 418"/><polygon class="cls-6" points="343.09 230.81 260.11 315 430.89 315 343.09 230.81"/><polygon class="cls-7" points="144.63 500 430.89 315 260.11 315 144.63 500"/><polygon class="cls-6" points="458.97 45.76 171.09 230.81 260.11 315 343.09 230.81 342.75 230.53 458.97 45.76"/><polygon class="cls-7" points="260.11 315 458.55 45.6 343.09 230.81 260.11 315"/><text class="cls-8" transform="translate(297.08 717.43)">Flas<tspan class="cls-9" x="116.09" y="0">h</tspan><tspan x="152.25" y="0">es</tspan></text></g></g></svg>