<svg xmlns="http://www.w3.org/2000/svg" viewBox="0 0 801 800"><defs><style>.cls-1{fill:#a8fef0;stroke:#000;stroke-miterlimit:10;}.cls-2,.cls-29{opacity:0.7;}.cls-3{fill:#e5e5e5;}.cls-4{fill:#f2f2f4;}.cls-5{fill:#e0e1e2;}.cls-6{fill:#edefef;}.cls-7{fill:#e7e7ec;}.cls-8{fill:#f5f4f2;}.cls-9{fill:#eaeaea;}.cls-10{fill:#ddd;}.cls-11{fill:#f4f4f4;}.cls-12{fill:#dadce0;}.cls-13{fill:#c6c8ce;}.cls-14{fill:#d9d9db;}.cls-15{fill:#afafb2;}.cls-16{fill:#e2e2e2;}.cls-17{fill:#ededed;}.cls-18{fill:#bebfc2;}.cls-19{fill:#ccced1;}.cls-20{fill:#e3e3e5;}.cls-21{fill:#f2f2f2;}.cls-22{fill:#f5f5f7;}.cls-23{fill:#cbcdd0;}.cls-24{fill:#dce1e2;}.cls-25{fill:#efefef;}.cls-26,.cls-27,.cls-28,.cls-29{fill:#16d880;}.cls-26{opacity:0.6;}.cls-27{opacity:0.4;}.cls-28{opacity:0.5;}.cls-30{fill:#3bf296;opacity:0.53;}.cls-31{font-size:64px;fill:#fd7257;font-family:FuturaPT-Bold, Futura PT;font-weight:700;}</style></defs><title>Asset 7</title><g id="Layer_2" data-name="Layer 2"><g id="Layer_1-2" data-name="Layer 1"><rect class="cls-1" x="0.5" y="0.5" width="800" height="799"/><g class="cls-2"><polygon class="cls-3" points="381.23 85.63 357.52 85.63 370.29 32.22 406.76 24 381.23 85.63"/><polygon class="cls-4" points="554.47 163.7 518 235.61 565.41 291.08 554.47 163.7"/><polygon class="cls-5" points="576.35 215.07 554.47 163.7 565.41 291.08 576.35 215.07"/><polygon class="cls-6" points="580 274.65 576.35 215.07 565.41 291.08 580 274.65"/><polygon class="cls-7" points="565.41 291.08 580 274.65 543.53 354.77 565.41 291.08"/><polygon class="cls-8" points="518 235.61 474.23 311.63 565.41 291.08 518 235.61"/><polygon class="cls-9" points="474.23 311.63 501.58 348.61 528.94 299.3 474.23 311.63"/><polygon class="cls-6" points="501.58 348.61 501.58 393.81 543.53 354.77 501.58 348.61"/><polygon class="cls-10" points="474.23 311.63 501.58 393.81 501.58 348.61 474.23 311.63"/><polygon class="cls-11" points="565.41 291.08 528.94 299.3 501.58 348.61 543.53 354.77 565.41 291.08"/><polygon class="cls-12" points="518 235.61 487 200.69 512.53 139.05 554.47 163.7 518 235.61"/><polygon class="cls-13" points="487 200.69 470.58 202.74 487 112.34 512.53 139.05 487 200.69"/><polygon class="cls-14" points="474.23 311.63 465.11 254.1 470.58 202.74 487 200.69 518 235.61 474.23 311.63"/><polygon class="cls-7" points="356.71 482.74 407.65 382.29 341.43 304.81 356.71 482.74"/><polygon class="cls-15" points="341.43 304.81 321.05 327.77 364.81 202.74 341.43 304.81"/><polygon class="cls-16" points="407.65 382.29 474.23 311.63 341.43 304.81 407.65 382.29"/><polygon class="cls-17" points="474.23 311.63 430.58 224.46 341.11 305.46 474.23 311.63"/><polygon class="cls-18" points="430.58 224.46 441.41 198.63 364.81 202.74 430.58 224.46"/><polygon class="cls-19" points="341.11 305.46 430.46 225.34 430.58 224.46 364.81 202.74 341.11 305.46"/><polygon class="cls-20" points="407.65 382.29 450.96 431.08 415.3 517.17 356.71 482.74 407.65 382.29"/><polygon class="cls-21" points="450.96 431.08 486.65 430.26 466.24 505.69 415.3 517.17 450.96 431.08"/><polygon class="cls-22" points="474.23 311.63 501.58 393.81 486.65 430.26 450.96 431.08 407.65 382.29 474.23 311.63"/><polygon class="cls-7" points="448.7 48.65 412.23 120.56 441.41 198.63 448.7 48.65"/><polygon class="cls-23" points="465.11 71.25 448.7 48.65 441.41 198.63 465.11 71.25"/><polygon class="cls-6" points="487 112.34 465.11 71.25 441.41 198.63 487 112.34"/><polygon class="cls-7" points="470.58 202.74 487 112.34 441.41 198.63 465.11 254.1 470.58 202.74"/><polygon class="cls-24" points="465.11 254.1 441.41 198.63 430.46 225.34 474.23 311.63 465.11 254.1"/><polygon class="cls-23" points="412.23 120.56 364.81 202.74 441.41 198.63 412.23 120.56"/><polygon class="cls-25" points="412.23 120.56 381.23 85.63 406.76 24 448.7 48.65 412.23 120.56"/><polygon class="cls-16" points="364.81 202.74 352.05 137 357.52 85.63 381.23 85.63 412.23 120.56 364.81 202.74"/></g><g class="cls-2"><polygon class="cls-3" points="268.71 157.52 255.43 157.52 262.58 124.14 283.01 119 268.71 157.52"/><polygon class="cls-4" points="365.75 206.32 345.32 251.26 371.88 285.93 365.75 206.32"/><polygon class="cls-5" points="378 238.42 365.75 206.32 371.88 285.93 378 238.42"/><polygon class="cls-6" points="380.05 275.66 378 238.42 371.88 285.93 380.05 275.66"/><polygon class="cls-7" points="371.88 285.93 380.05 275.66 359.62 325.74 371.88 285.93"/><polygon class="cls-8" points="345.32 251.26 320.8 298.77 371.88 285.93 345.32 251.26"/><polygon class="cls-9" points="320.8 298.77 336.13 321.89 351.45 291.07 320.8 298.77"/><polygon class="cls-6" points="336.13 321.89 336.13 350.14 359.62 325.74 336.13 321.89"/><polygon class="cls-10" points="320.8 298.77 336.13 350.14 336.13 321.89 320.8 298.77"/><polygon class="cls-11" points="371.88 285.93 351.45 291.07 336.13 321.89 359.62 325.74 371.88 285.93"/><polygon class="cls-12" points="345.32 251.26 327.95 229.43 342.25 190.91 365.75 206.32 345.32 251.26"/><polygon class="cls-13" points="327.95 229.43 318.76 230.72 327.95 174.22 342.25 190.91 327.95 229.43"/><polygon class="cls-14" points="320.8 298.77 315.69 262.82 318.76 230.72 327.95 229.43 345.32 251.26 320.8 298.77"/><polygon class="cls-7" points="254.97 405.72 283.51 342.94 246.41 294.51 254.97 405.72"/><polygon class="cls-16" points="283.51 342.94 320.8 298.77 246.41 294.51 283.51 342.94"/><polygon class="cls-17" points="320.8 298.77 296.35 244.29 246.24 294.92 320.8 298.77"/><polygon class="cls-18" points="296.35 244.29 302.42 228.15 259.51 230.72 296.35 244.29"/><polygon class="cls-19" points="246.24 294.92 296.29 244.84 296.35 244.29 259.51 230.72 246.24 294.92"/><polygon class="cls-20" points="283.51 342.94 307.77 373.44 287.79 427.25 254.97 405.72 283.51 342.94"/><polygon class="cls-21" points="307.77 373.44 327.76 372.93 316.33 420.07 287.79 427.25 307.77 373.44"/><polygon class="cls-22" points="320.8 298.77 336.13 350.14 327.76 372.93 307.77 373.44 283.51 342.94 320.8 298.77"/><polygon class="cls-7" points="306.5 134.41 286.07 179.35 302.42 228.15 306.5 134.41"/><polygon class="cls-23" points="315.69 148.53 306.5 134.41 302.42 228.15 315.69 148.53"/><polygon class="cls-6" points="327.95 174.22 315.69 148.53 302.42 228.15 327.95 174.22"/><polygon class="cls-7" points="318.76 230.72 327.95 174.22 302.42 228.15 315.69 262.82 318.76 230.72"/><polygon class="cls-24" points="315.69 262.82 302.42 228.15 296.29 244.84 320.8 298.77 315.69 262.82"/><polygon class="cls-23" points="286.07 179.35 259.51 230.72 302.42 228.15 286.07 179.35"/><polygon class="cls-25" points="286.07 179.35 268.71 157.52 283.01 119 306.5 134.41 286.07 179.35"/><polygon class="cls-16" points="259.51 230.72 252.37 189.63 255.43 157.52 268.71 157.52 286.07 179.35 259.51 230.72"/></g><polygon class="cls-26" points="162 620 312 561 181 428 162 620"/><polygon class="cls-27" points="162 620 427 667 312 561 162 620"/><polygon class="cls-27" points="467 645 568 646 496 581 467 645"/><polygon class="cls-28" points="311.74 561.29 442.26 438.32 181 428 311.74 561.29"/><polygon class="cls-26" points="442.26 438.32 356.69 286.64 181 428 442.26 438.32"/><polygon class="cls-29" points="181 428 357 287 162 342 181 428"/><polygon class="cls-26" points="162 342 357 287 218 286 162 342"/><polygon class="cls-30" points="575 524 357 287 442 438 575 524"/><polygon class="cls-30" points="628 492 618 317 575 524 628 492"/><polygon class="cls-26" points="653 362 618 317 628 492 653 362"/><polygon class="cls-26" points="442.26 438.32 495.89 581.33 466.61 644.77 427 667 311.74 561.29 442.26 438.32"/><polygon class="cls-28" points="442 438 575 524 628 492 567.64 646.19 496 581 442 438"/><polyline class="cls-26" points="575 524 357 287 618 317 575 524"/><text class="cls-31" transform="translate(361.53 717.43)">Ice</text></g></g></svg>