<svg xmlns="http://www.w3.org/2000/svg" viewBox="0 0 801 800"><defs><style>.cls-1{fill:#5262ff;stroke:#000;stroke-miterlimit:10;}.cls-2{fill:#bebfc2;}.cls-3{fill:#cbcdd0;}.cls-4{fill:#e5e5e5;}.cls-5{fill:#f2f2f4;}.cls-6{fill:#e0e1e2;}.cls-7{fill:#edefef;}.cls-8{fill:#e7e7ec;}.cls-9{fill:#f5f4f2;}.cls-10{fill:#eaeaea;}.cls-11{fill:#ddd;}.cls-12{fill:#f4f4f4;}.cls-13{fill:#dadce0;}.cls-14{fill:#c6c8ce;}.cls-15{fill:#d9d9db;}.cls-16{fill:#afafb2;}.cls-17{fill:#e2e2e2;}.cls-18{fill:#ededed;}.cls-19{fill:#ccced1;}.cls-20{fill:#e3e3e5;}.cls-21{fill:#f2f2f2;}.cls-22{fill:#f5f5f7;}.cls-23{fill:#dce1e2;}.cls-24{fill:#efefef;}.cls-25{fill:#9a9ba1;}.cls-26{font-size:64px;fill:#a8fef0;font-family:FuturaPT-Bold, Futura PT;font-weight:700;}.cls-27{fill:#fff;}</style></defs><title>Asset 6</title><g id="Layer_2" data-name="Layer 2"><g id="Layer_1-2" data-name="Layer 1"><rect class="cls-1" x="0.5" y="0.5" width="800" height="799"/><polygon class="cls-2" points="568.88 321 639.26 316.15 549.47 301.59 568.88 321"/><polygon class="cls-3" points="639.26 316.15 699.93 287.02 549.47 301.59 639.26 316.15"/><polygon class="cls-4" points="364.12 263.67 364.12 286.25 318.95 274.09 312 239.34 364.12 263.67"/><polygon class="cls-5" points="430.14 98.62 490.95 133.37 537.86 88.19 430.14 98.62"/><polygon class="cls-6" points="473.57 77.77 430.14 98.62 537.86 88.19 473.57 77.77"/><polygon class="cls-7" points="523.96 74.3 473.57 77.77 537.86 88.19 523.96 74.3"/><polygon class="cls-8" points="537.86 88.19 523.96 74.3 591.71 109.04 537.86 88.19"/><polygon class="cls-9" points="490.95 133.37 555.23 175.06 537.86 88.19 490.95 133.37"/><polygon class="cls-10" points="555.23 175.06 586.5 149 544.8 122.94 555.23 175.06"/><polygon class="cls-7" points="586.5 149 624.72 149 591.71 109.04 586.5 149"/><polygon class="cls-11" points="555.23 175.06 624.72 149 586.5 149 555.23 175.06"/><polygon class="cls-12" points="537.86 88.19 544.8 122.94 586.5 149 591.71 109.04 537.86 88.19"/><polygon class="cls-13" points="490.95 133.37 461.41 162.9 409.29 138.58 430.14 98.62 490.95 133.37"/><polygon class="cls-14" points="461.41 162.9 463.15 178.54 386.71 162.9 409.29 138.58 461.41 162.9"/><polygon class="cls-15" points="555.23 175.06 506.58 183.75 463.15 178.54 461.41 162.9 490.95 133.37 555.23 175.06"/><polygon class="cls-8" points="699.93 287.02 614.99 238.49 549.47 301.59 699.93 287.02"/><polygon class="cls-16" points="549.47 301.59 568.88 321 463.15 279.3 549.47 301.59"/><polygon class="cls-17" points="614.99 238.49 555.23 175.06 549.47 301.59 614.99 238.49"/><polygon class="cls-18" points="555.23 175.06 481.52 216.65 550.02 301.89 555.23 175.06"/><polygon class="cls-2" points="481.52 216.65 459.68 206.34 463.15 279.3 481.52 216.65"/><polygon class="cls-19" points="550.02 301.89 482.26 216.76 481.52 216.65 463.15 279.3 550.02 301.89"/><polygon class="cls-20" points="614.99 238.49 656.24 197.23 729.05 231.21 699.93 287.02 614.99 238.49"/><polygon class="cls-21" points="656.24 197.23 655.55 163.23 719.34 182.67 729.05 231.21 656.24 197.23"/><polygon class="cls-22" points="555.23 175.06 624.72 149 655.55 163.23 656.24 197.23 614.99 238.49 555.23 175.06"/><polygon class="cls-8" points="332.85 199.38 393.66 234.13 459.68 206.34 332.85 199.38"/><polygon class="cls-3" points="351.96 183.75 332.85 199.38 459.68 206.34 351.96 183.75"/><polygon class="cls-7" points="386.71 162.9 351.96 183.75 459.68 206.34 386.71 162.9"/><polygon class="cls-8" points="463.15 178.54 386.71 162.9 459.68 206.34 506.58 183.75 463.15 178.54"/><polygon class="cls-23" points="506.58 183.75 459.68 206.34 482.26 216.76 555.23 175.06 506.58 183.75"/><polygon class="cls-3" points="393.66 234.13 463.15 279.3 459.68 206.34 393.66 234.13"/><polygon class="cls-24" points="393.66 234.13 364.12 263.67 312 239.34 332.85 199.38 393.66 234.13"/><polygon class="cls-17" points="463.15 279.3 407.55 291.46 364.12 286.25 364.12 263.67 393.66 234.13 463.15 279.3"/><polygon class="cls-8" points="145.54 238.94 190.4 264.58 225 231.25 145.54 238.94"/><polygon class="cls-3" points="177.58 223.56 145.54 238.94 225 231.25 177.58 223.56"/><polygon class="cls-23" points="214.75 221 177.58 223.56 225 231.25 214.75 221"/><polygon class="cls-8" points="225 231.25 214.75 221 264.73 246.63 225 231.25"/><polygon class="cls-23" points="190.4 264.58 237.82 295.34 225 231.25 190.4 264.58"/><polygon class="cls-15" points="237.82 295.34 260.89 276.11 230.13 256.89 237.82 295.34"/><polygon class="cls-3" points="237.82 295.34 289.08 276.11 260.89 276.11 237.82 295.34"/><polygon class="cls-17" points="168.61 286.37 169.89 297.9 113.49 286.37 130.16 268.42 168.61 286.37"/><polygon class="cls-3" points="237.82 295.34 201.93 301.75 169.89 297.9 168.61 286.37 190.4 264.58 237.82 295.34"/><polygon class="cls-8" points="344.56 377.94 281.9 342.13 233.57 388.68 344.56 377.94"/><polygon class="cls-3" points="299.81 399.42 344.56 377.94 233.57 388.68 299.81 399.42"/><polygon class="cls-2" points="247.89 403 299.81 399.42 233.57 388.68 247.89 403"/><polygon class="cls-25" points="233.57 388.68 247.89 403 169.89 372.24 233.57 388.68"/><polygon class="cls-17" points="281.9 342.13 237.82 295.34 233.57 388.68 281.9 342.13"/><polygon class="cls-15" points="237.82 295.34 183.44 326.02 233.97 388.9 237.82 295.34"/><polygon class="cls-23" points="281.9 342.13 312.34 311.69 366.05 336.76 344.56 377.94 281.9 342.13"/><polygon class="cls-18" points="312.34 311.69 311.83 286.61 358.89 300.95 366.05 336.76 312.34 311.69"/><polygon class="cls-8" points="237.82 295.34 289.08 276.11 311.83 286.61 312.34 311.69 281.9 342.13 237.82 295.34"/><polygon class="cls-8" points="73.76 313.28 118.62 338.92 167.32 318.41 73.76 313.28"/><polygon class="cls-3" points="87.86 301.75 73.76 313.28 167.32 318.41 87.86 301.75"/><polygon class="cls-23" points="113.49 286.37 87.86 301.75 167.32 318.41 113.49 286.37"/><polygon class="cls-23" points="201.93 301.75 167.32 318.41 183.99 326.1 237.82 295.34 201.93 301.75"/><polygon class="cls-3" points="118.62 338.92 169.89 372.24 167.32 318.41 118.62 338.92"/><polygon class="cls-11" points="118.62 338.92 96.83 360.7 58.38 342.76 73.76 313.28 118.62 338.92"/><polygon class="cls-17" points="96.83 360.7 96.83 377.37 63.51 368.39 58.38 342.76 96.83 360.7"/><polygon class="cls-2" points="169.89 372.24 128.87 381.21 96.83 377.37 96.83 360.7 118.62 338.92 169.89 372.24"/><polygon class="cls-8" points="169.89 297.9 113.49 286.37 167.32 318.41 201.93 301.75 169.89 297.9"/><polygon class="cls-15" points="260.89 276.11 289.08 276.11 264.73 246.63 260.89 276.11"/><polygon class="cls-8" points="225 231.25 230.13 256.89 260.89 276.11 264.73 246.63 225 231.25"/><polygon class="cls-13" points="190.4 264.58 168.61 286.37 130.16 268.42 145.54 238.94 190.4 264.58"/><polygon class="cls-2" points="183.44 326.02 167.32 318.41 169.89 372.24 183.44 326.02"/><polygon class="cls-19" points="233.97 388.9 183.99 326.1 183.44 326.02 169.89 372.24 233.97 388.9"/><text class="cls-26" transform="translate(333.53 717.43)">Rain</text><polygon class="cls-27" points="139.98 636.62 206.6 593.79 166.88 593.86 139.98 636.62"/><polygon class="cls-27" points="448.98 475.82 515.6 433 475.88 433.07 448.98 475.82"/><polygon class="cls-27" points="627.33 512.61 666.74 487.28 643.24 487.32 627.33 512.61"/><polygon class="cls-27" points="253.4 663.94 330.7 614.26 284.61 614.33 253.4 663.94"/><polygon class="cls-27" points="243.4 524.69 320.7 475 274.61 475.08 243.4 524.69"/><polygon class="cls-27" points="400.4 595.69 477.7 546 431.61 546.08 400.4 595.69"/><polygon class="cls-27" points="536.4 639.69 613.7 590 567.61 590.08 536.4 639.69"/><polygon class="cls-27" points="120.34 761.87 188.74 717.91 147.96 717.98 120.34 761.87"/><polygon class="cls-27" points="178.98 319.82 245.6 277 205.88 277.07 178.98 319.82"/></g></g></svg>