<svg xmlns="http://www.w3.org/2000/svg" viewBox="0 0 801 800"><defs><style>.cls-1{fill:#fc586e;stroke:#000;stroke-miterlimit:10;}.cls-2{fill:#cbcdd0;}.cls-3{fill:#bebfc2;}.cls-4{fill:#9a9ba1;}.cls-5{fill:#e5e5e5;}.cls-6{fill:#f2f2f4;}.cls-7{fill:#e0e1e2;}.cls-8{fill:#edefef;}.cls-9{fill:#e7e7ec;}.cls-10{fill:#f5f4f2;}.cls-11{fill:#eaeaea;}.cls-12{fill:#ddd;}.cls-13{fill:#f4f4f4;}.cls-14{fill:#dadce0;}.cls-15{fill:#c6c8ce;}.cls-16{fill:#d9d9db;}.cls-17{fill:#afafb2;}.cls-18{fill:#e2e2e2;}.cls-19{fill:#ededed;}.cls-20{fill:#ccced1;}.cls-21{fill:#e3e3e5;}.cls-22{fill:#f2f2f2;}.cls-23{fill:#f5f5f7;}.cls-24{fill:#dce1e2;}.cls-25{fill:#efefef;}.cls-26{font-size:64px;fill:#a8fef0;font-family:FuturaPT-Bold, Futura PT;font-weight:700;}.cls-27{fill:#fff;}.cls-28{opacity:0.7;}</style></defs><title>Asset 4</title><g id="Layer_2" data-name="Layer 2"><g id="Layer_1-2" data-name="Layer 1"><rect class="cls-1" x="0.5" y="0.5" width="800" height="799"/><polygon class="cls-2" points="329.81 397.42 374.56 375.94 263.57 386.68 329.81 397.42"/><polygon class="cls-3" points="277.89 401 329.81 397.42 263.57 386.68 277.89 401"/><polygon class="cls-4" points="263.57 386.68 277.89 401 199.89 370.24 263.57 386.68"/><polygon class="cls-2" points="626.26 261.15 686.93 232.03 536.47 246.59 626.26 261.15"/><polygon class="cls-3" points="555.88 266 626.26 261.15 536.47 246.59 555.88 266"/><polygon class="cls-5" points="351.12 208.67 351.12 231.25 305.95 219.09 299 184.34 351.12 208.67"/><polygon class="cls-6" points="417.14 43.62 477.95 78.37 524.86 33.2 417.14 43.62"/><polygon class="cls-7" points="460.57 22.77 417.14 43.62 524.86 33.2 460.57 22.77"/><polygon class="cls-8" points="510.96 19.3 460.57 22.77 524.86 33.2 510.96 19.3"/><polygon class="cls-9" points="524.86 33.2 510.96 19.3 578.71 54.04 524.86 33.2"/><polygon class="cls-10" points="477.95 78.37 542.23 120.06 524.86 33.2 477.95 78.37"/><polygon class="cls-11" points="542.23 120.06 573.5 94 531.8 67.94 542.23 120.06"/><polygon class="cls-8" points="573.5 94 611.72 94 578.71 54.04 573.5 94"/><polygon class="cls-12" points="542.23 120.06 611.72 94 573.5 94 542.23 120.06"/><polygon class="cls-13" points="524.86 33.2 531.8 67.94 573.5 94 578.71 54.04 524.86 33.2"/><polygon class="cls-14" points="477.95 78.37 448.41 107.9 396.29 83.58 417.14 43.62 477.95 78.37"/><polygon class="cls-15" points="448.41 107.9 450.15 123.54 373.71 107.9 396.29 83.58 448.41 107.9"/><polygon class="cls-16" points="542.23 120.06 493.58 128.75 450.15 123.54 448.41 107.9 477.95 78.37 542.23 120.06"/><polygon class="cls-9" points="686.93 232.03 601.99 183.49 536.47 246.59 686.93 232.03"/><polygon class="cls-17" points="536.47 246.59 555.88 266 450.15 224.3 536.47 246.59"/><polygon class="cls-18" points="601.99 183.49 542.23 120.06 536.47 246.59 601.99 183.49"/><polygon class="cls-19" points="542.23 120.06 468.52 161.65 537.02 246.89 542.23 120.06"/><polygon class="cls-3" points="468.52 161.65 446.68 151.34 450.15 224.3 468.52 161.65"/><polygon class="cls-20" points="537.02 246.89 469.26 161.76 468.52 161.65 450.15 224.3 537.02 246.89"/><polygon class="cls-21" points="601.99 183.49 643.24 142.23 716.05 176.21 686.93 232.03 601.99 183.49"/><polygon class="cls-22" points="643.24 142.23 642.55 108.23 706.34 127.67 716.05 176.21 643.24 142.23"/><polygon class="cls-23" points="542.23 120.06 611.72 94 642.55 108.23 643.24 142.23 601.99 183.49 542.23 120.06"/><polygon class="cls-9" points="319.85 144.38 380.66 179.13 446.68 151.34 319.85 144.38"/><polygon class="cls-2" points="338.96 128.75 319.85 144.38 446.68 151.34 338.96 128.75"/><polygon class="cls-8" points="373.71 107.9 338.96 128.75 446.68 151.34 373.71 107.9"/><polygon class="cls-9" points="450.15 123.54 373.71 107.9 446.68 151.34 493.58 128.75 450.15 123.54"/><polygon class="cls-24" points="493.58 128.75 446.68 151.34 469.26 161.76 542.23 120.06 493.58 128.75"/><polygon class="cls-2" points="380.66 179.13 450.15 224.3 446.68 151.34 380.66 179.13"/><polygon class="cls-25" points="380.66 179.13 351.12 208.67 299 184.34 319.85 144.38 380.66 179.13"/><polygon class="cls-18" points="450.15 224.3 394.55 236.47 351.12 231.25 351.12 208.67 380.66 179.13 450.15 224.3"/><polygon class="cls-9" points="175.54 236.94 220.4 262.58 255 229.25 175.54 236.94"/><polygon class="cls-2" points="207.58 221.56 175.54 236.94 255 229.25 207.58 221.56"/><polygon class="cls-24" points="244.75 219 207.58 221.56 255 229.25 244.75 219"/><polygon class="cls-9" points="255 229.25 244.75 219 294.73 244.63 255 229.25"/><polygon class="cls-24" points="220.4 262.58 267.82 293.34 255 229.25 220.4 262.58"/><polygon class="cls-16" points="267.82 293.34 290.89 274.11 260.13 254.89 267.82 293.34"/><polygon class="cls-2" points="267.82 293.34 319.08 274.11 290.89 274.11 267.82 293.34"/><polygon class="cls-18" points="198.61 284.37 199.89 295.9 143.49 284.37 160.16 266.42 198.61 284.37"/><polygon class="cls-2" points="267.82 293.34 231.93 299.75 199.89 295.9 198.61 284.37 220.4 262.58 267.82 293.34"/><polygon class="cls-9" points="374.56 375.94 311.9 340.13 263.57 386.68 374.56 375.94"/><polygon class="cls-18" points="311.9 340.13 267.82 293.34 263.57 386.68 311.9 340.13"/><polygon class="cls-16" points="267.82 293.34 213.44 324.02 263.97 386.9 267.82 293.34"/><polygon class="cls-24" points="311.9 340.13 342.34 309.69 396.05 334.76 374.56 375.94 311.9 340.13"/><polygon class="cls-19" points="342.34 309.69 341.83 284.61 388.89 298.95 396.05 334.76 342.34 309.69"/><polygon class="cls-9" points="267.82 293.34 319.08 274.11 341.83 284.61 342.34 309.69 311.9 340.13 267.82 293.34"/><polygon class="cls-9" points="103.76 311.28 148.62 336.92 197.32 316.41 103.76 311.28"/><polygon class="cls-2" points="117.86 299.75 103.76 311.28 197.32 316.41 117.86 299.75"/><polygon class="cls-24" points="143.49 284.37 117.86 299.75 197.32 316.41 143.49 284.37"/><polygon class="cls-24" points="231.93 299.75 197.32 316.41 213.99 324.1 267.82 293.34 231.93 299.75"/><polygon class="cls-2" points="148.62 336.92 199.89 370.24 197.32 316.41 148.62 336.92"/><polygon class="cls-12" points="148.62 336.92 126.83 358.7 88.38 340.76 103.76 311.28 148.62 336.92"/><polygon class="cls-18" points="126.83 358.7 126.83 375.37 93.51 366.39 88.38 340.76 126.83 358.7"/><polygon class="cls-3" points="199.89 370.24 158.87 379.21 126.83 375.37 126.83 358.7 148.62 336.92 199.89 370.24"/><polygon class="cls-9" points="199.89 295.9 143.49 284.37 197.32 316.41 231.93 299.75 199.89 295.9"/><polygon class="cls-16" points="290.89 274.11 319.08 274.11 294.73 244.63 290.89 274.11"/><polygon class="cls-9" points="255 229.25 260.13 254.89 290.89 274.11 294.73 244.63 255 229.25"/><polygon class="cls-14" points="220.4 262.58 198.61 284.37 160.16 266.42 175.54 236.94 220.4 262.58"/><polygon class="cls-3" points="213.44 324.02 197.32 316.41 199.89 370.24 213.44 324.02"/><polygon class="cls-20" points="263.97 386.9 213.99 324.1 213.44 324.02 199.89 370.24 263.97 386.9"/><text class="cls-26" transform="translate(332.22 717.43)">Snow</text><path class="cls-27" d="M124,667.8,120.91,666a.34.34,0,0,0-.34,0l-3.07,1.78a.34.34,0,0,0-.17.3v3.55a.34.34,0,0,0,.17.29l3.08,1.77a.34.34,0,0,0,.17,0,.34.34,0,0,0,.17,0l3.07-1.78a.34.34,0,0,0,.17-.29v-3.55A.34.34,0,0,0,124,667.8ZM120.75,673,118,671.46V668.3l2.73-1.58,2.73,1.57v3.15Z"/><path class="cls-27" d="M109.47,667.86l4.8-1.28-.83-.48-4.15,1.1a.34.34,0,1,0,.17.66Z"/><path class="cls-27" d="M104.28,663.27l2.94-.78-.83-.48-2.29.61a.34.34,0,1,0,.17.66Z"/><path class="cls-27" d="M108.64,658.46a.34.34,0,1,0-.66.17l1.1,4.15.83.48Z"/><path class="cls-27" d="M112.93,661a.34.34,0,0,0-.24.42l1.1,4.15.83.48-1.28-4.8A.34.34,0,0,0,112.93,661Z"/><path class="cls-27" d="M138.41,679.85a.33.33,0,0,0-.12-.12l-3.22-1.87h0l2.29-.61a.34.34,0,1,0-.18-.66l-2.94.78-.59-.34-.79-.46-.14-.08-.37-.22-.22-.13-.07,0,.66.38,4.15-1.1a.34.34,0,1,0-.17-.66l-4.8,1.28-.59-.34-.21-.12-.72-.42,6-1.6a.34.34,0,0,0-.17-.66l-6.66,1.77-.23-.13-1.26-.73-.45-.26.42.24,4.15-1.1A.34.34,0,1,0,132,672l-4.8,1.28-.59-.34h0l-.74-.43h0v-5.16h0l.74-.43h0l.15-.09.43-.25h0l4.81,1.25a.34.34,0,0,0,.17-.66L128,666.07l1.52-.89,6.67,1.74a.34.34,0,0,0,.17-.66l-6-1.57.83-.49.1-.06.14-.08.44-.26,4.81,1.25a.34.34,0,1,0,.17-.66l-4.15-1.08.93-.55.59-.34,2.95.77a.34.34,0,1,0,.17-.66l-2.29-.6,3.21-1.88a.34.34,0,0,0-.22-.63l-.13,0-3.21,1.88-.83.49-.22.13-.37.21-1.52.89-.32.19-1,.59-.43.25,1.57-6a.34.34,0,1,0-.66-.17l-1.74,6.67-.59.34-.93.55,1.08-4.15a.34.34,0,1,0-.66-.17L126.83,666l-.59.34h0l-.74.43h0l-4.42-2.54h0v-1.54h0l3.51-3.51a.34.34,0,1,0-.48-.48l-3,3V660l4.87-4.87a.34.34,0,1,0-.48-.48L121.07,659v-1.76l3.51-3.51a.34.34,0,0,0-.48-.48l-3,3v-1.76h0l2.15-2.15a.34.34,0,0,0-.48-.48l-1.67,1.67v-3.72h0a.34.34,0,0,0-.34-.34h0a.34.34,0,0,0-.34.34h0v3.72l-1.67-1.67a.34.34,0,0,0-.48.48l2.15,2.15h0v1.76l-3-3a.34.34,0,1,0-.48.48l3.51,3.51V659L116,654.6a.34.34,0,1,0-.48.48l4.87,4.87h0v1.76l-3-3a.34.34,0,0,0-.48.48l3.51,3.51h0v1.54h0L116,666.78l0,0-.74-.43h0l-.47-.27-.12-.07h0l-.83-.48-.56-.32-.38-.22-.83-.48h0l-.05,0,.31.18L110.5,658a.34.34,0,1,0-.66.17l1.6,6-1.05-.61-.6-.35-.7-.4-.92-.53h0l-.59-.34-.78-2.94a.34.34,0,1,0-.66.17l.61,2.29-3.22-1.87a.33.33,0,0,0-.41.06l-.06.06a.34.34,0,0,0,.12.46l3.81,2.21h0l.24.14,1.52.88-4.15,1.1a.34.34,0,1,0,.17.66l4.8-1.28,1.52.88h0l-6,1.6a.34.34,0,0,0,.17.66l6.66-1.77.1.06.49.29.55.32.38.22.83.48,1.33.77.06,0v5.14l-.06,0-1.33.78-4.81-1.25a.34.34,0,0,0-.17.66l4.15,1.08h0L113,674l-.51.3-.59.34L105.28,673a.34.34,0,0,0-.17.66l6,1.57-.87.51-.65.38h0l-4.81-1.25a.34.34,0,0,0-.17.66l4.15,1.08-.33.19-1.19.7h0l-2.95-.77a.34.34,0,0,0-.17.66l2.29.6-3.21,1.88a.34.34,0,0,0,.34.59l3.21-1.88-.6,2.29a.34.34,0,1,0,.66.17l.77-2.95h0l.52-.31.06,0,.93-.55L108,681.29a.34.34,0,1,0,.66.17l1.25-4.81,1-.57.55-.32-1.57,6a.34.34,0,1,0,.66.17l1.74-6.67.59-.34.93-.55-1.08,4.15a.34.34,0,0,0,.66.17l1.25-4.81.59-.34.74-.43a.34.34,0,0,0,.1-.09l4.35,2.5a.34.34,0,0,0,0,.13h0v1.54l-3.51,3.51a.34.34,0,0,0,.48.48l3-3v1.76l-4.87,4.87a.34.34,0,0,0,.48.48l4.39-4.39v1.76l-3.51,3.51a.34.34,0,0,0,.48.48l3-3v1.76h0l-2.15,2.15a.34.34,0,0,0,.48.48l1.67-1.67V690h0a.34.34,0,0,0,.34.34h0a.34.34,0,0,0,.34-.34h0v-3.72l1.67,1.67a.34.34,0,0,0,.48-.48l-2.15-2.15h0V683.6l3,3a.34.34,0,0,0,.48-.48l-3.51-3.51v-1.76l4.39,4.39a.34.34,0,0,0,.48-.48l-4.87-4.87v-1.76l3,3a.34.34,0,1,0,.48-.48l-3.51-3.51v-1.54h0a.33.33,0,0,0,0-.11l4.37-2.54a.34.34,0,0,0,.1.08l.63.36.12.07.59.34h0l1.28,4.8a.34.34,0,0,0,.66-.17l-1.1-4.15.76.44.17.1.59.34L131,681.9a.34.34,0,1,0,.66-.17l-1.6-6,1.52.88,1.28,4.8a.34.34,0,0,0,.66-.17l-1.1-4.15,1,.58.52.3.78,2.94a.34.34,0,1,0,.66-.18l-.61-2.29,3.22,1.87a.34.34,0,0,0,.46-.12A.34.34,0,0,0,138.41,679.85Zm-11.71-13.42h0Zm-19.85-4.55h0Zm13.88-8h0Zm0,9.12h0Zm0,23h0Zm0-11-4.4-2.52v-5.07l4.38-2.55,4.4,2.52v5.07Zm6-1.53h0Z"/><path class="cls-27" d="M132.35,662.73l1.08-4.15a.34.34,0,0,0-.66-.17l-1.25,4.81Z"/><path class="cls-27" d="M135.29,659.06a.34.34,0,1,0-.66-.17l-.77,2.95.83-.49Z"/><g class="cls-28"><path class="cls-27" d="M505.76,415l-5.71-3.28a.63.63,0,0,0-.63,0l-5.69,3.3a.63.63,0,0,0-.31.55l0,6.58a.63.63,0,0,0,.32.54l5.71,3.28a.63.63,0,0,0,.31.08.64.64,0,0,0,.32-.09l5.69-3.3a.63.63,0,0,0,.31-.55l0-6.58A.63.63,0,0,0,505.76,415Zm-6,9.7-5.07-2.91v-5.85l5.06-2.94,5.07,2.91v5.85Z"/><path class="cls-27" d="M478.85,415.09l8.91-2.37-1.54-.9-7.69,2a.63.63,0,1,0,.32,1.22Z"/><path class="cls-27" d="M469.2,406.57l5.46-1.45-1.54-.9-4.24,1.13a.63.63,0,1,0,.32,1.22Z"/><path class="cls-27" d="M477.3,397.65a.63.63,0,1,0-1.22.32l2,7.69,1.54.9Z"/><path class="cls-27" d="M485.25,402.27a.63.63,0,0,0-.45.77l2,7.69,1.54.9L486,402.72A.63.63,0,0,0,485.25,402.27Z"/><path class="cls-27" d="M532.53,437.33a.62.62,0,0,0-.21-.22l-6-3.46h0l4.24-1.13a.63.63,0,1,0-.32-1.22l-5.46,1.45-1.09-.63-1.47-.85-.26-.15-.69-.4-.4-.23-.13-.08,1.23.71,7.69-2a.63.63,0,1,0-.32-1.22l-8.91,2.37-1.09-.63-.39-.23-1.34-.78,11.14-3a.63.63,0,0,0-.32-1.22l-12.36,3.29-.42-.24-2.34-1.36-.84-.49.77.45,7.69-2a.63.63,0,1,0-.32-1.22l-8.91,2.37-1.09-.63h0l-1.37-.8-.07,0,0-9.57.07,0,1.37-.8h0l.28-.17.81-.47h0L520.6,415a.63.63,0,0,0,.32-1.22l-7.7-2,2.81-1.65,12.37,3.23a.63.63,0,0,0,.32-1.22l-11.15-2.91,1.54-.9.18-.11.26-.15.83-.48,8.92,2.33a.63.63,0,1,0,.32-1.22l-7.7-2,1.73-1,1.09-.64,5.47,1.43a.63.63,0,1,0,.32-1.22l-4.25-1.11,6-3.49a.63.63,0,1,0-.64-1.09l-6,3.49-1.54.9-.41.24-.68.4-2.81,1.65-.59.35-1.87,1.1-.8.47L519.84,397a.63.63,0,1,0-1.22-.32L515.39,409l-1.09.64-1.72,1,2-7.7a.63.63,0,1,0-1.22-.32L511,411.57l-1.09.64h0l-1.37.8,0,0-8.2-4.71h0v-2.85h0l6.52-6.52A.63.63,0,1,0,506,398l-5.63,5.63v-3.26l9-9a.63.63,0,0,0-.89-.89l-8.15,8.15v-3.26l6.52-6.52A.63.63,0,0,0,506,388l-5.63,5.63v-3.26h0l4-4a.63.63,0,1,0-.89-.89l-3.11,3.1v-6.9h0a.63.63,0,0,0-.63-.63h0a.63.63,0,0,0-.63.63h0v6.9l-3.1-3.1a.63.63,0,1,0-.89.89l4,4h0v3.26L493.48,388a.63.63,0,0,0-.89.89l6.52,6.52v3.26L491,390.48a.63.63,0,0,0-.89.89l9,9h0v3.26L493.48,398a.63.63,0,1,0-.89.89l6.52,6.52h0v2.85h0l-8.21,4.77,0,0-1.37-.8h0l-.87-.51-.22-.13h0l-1.54-.89-1-.6-.7-.4-1.54-.89h0l-.09-.05.57.33-3.28-12.36a.63.63,0,1,0-1.22.32l3,11.14-1.95-1.13-1.12-.65-1.29-.75-1.71-1h0L475.3,404l-1.45-5.46a.63.63,0,1,0-1.22.32l1.13,4.24-6-3.46a.62.62,0,0,0-.76.11.61.61,0,0,0-.11.12.63.63,0,0,0,.23.86l7.06,4.1h0l.45.26,2.82,1.64-7.69,2a.63.63,0,1,0,.32,1.22l8.91-2.37,2.82,1.64h0l-11.14,3a.63.63,0,0,0,.32,1.22l12.36-3.28.18.1.91.53,1,.59.71.41,1.54.9,2.47,1.43.12,0,0,9.54-.12,0-2.46,1.44-8.92-2.33a.63.63,0,0,0-.32,1.22l7.7,2h0l-.78.46-.95.56-1.09.64-12.37-3.23a.63.63,0,0,0-.32,1.22l11.15,2.91-1.61.94-1.21.71h0L470.16,428a.63.63,0,0,0-.32,1.22l7.7,2-.61.36-2.2,1.29h0l-5.47-1.43a.63.63,0,0,0-.32,1.22l4.25,1.11-6,3.49a.63.63,0,1,0,.64,1.09l6-3.49-1.11,4.25a.63.63,0,1,0,1.22.32l1.43-5.47h0l1-.57.12-.07,1.73-1-2,7.7a.63.63,0,1,0,1.22.32l2.33-8.92,1.79-1.05,1-.6-2.91,11.15a.63.63,0,1,0,1.22.32l3.23-12.37,1.09-.64,1.72-1-2,7.7a.63.63,0,0,0,1.22.32l2.33-8.92,1.09-.64,1.37-.8a.63.63,0,0,0,.19-.17l8.08,4.64a.63.63,0,0,0,0,.24h0v2.85l-6.52,6.52a.63.63,0,0,0,.89.89l5.63-5.63v3.26l-9,9a.63.63,0,0,0,.89.89l8.15-8.15v3.26L492.58,449a.63.63,0,0,0,.89.89l5.63-5.63v3.26h0l-4,4a.63.63,0,0,0,.89.89l3.1-3.1v6.9h0a.63.63,0,0,0,.63.63h0a.63.63,0,0,0,.63-.63h0v-6.91l3.11,3.1a.63.63,0,0,0,.89-.89l-4-4h0v-3.26l5.63,5.63a.63.63,0,0,0,.89-.89l-6.52-6.52v-3.26l8.15,8.15a.63.63,0,0,0,.89-.89l-9-9V434.2l5.63,5.63a.63.63,0,0,0,.89-.89l-6.52-6.52v-2.85h0a.61.61,0,0,0,0-.2l8.11-4.71a.63.63,0,0,0,.18.16l1.16.67.22.12,1.09.63h0l2.37,8.91a.63.63,0,0,0,1.22-.32l-2-7.69L514,428l.32.18,1.09.63,3.28,12.36a.63.63,0,1,0,1.22-.32l-3-11.14,2.82,1.64,2.37,8.91a.63.63,0,0,0,1.22-.32l-2-7.69,1.87,1.08,1,.55,1.45,5.46a.63.63,0,1,0,1.22-.32l-1.13-4.24,6,3.46a.63.63,0,0,0,.86-.23A.62.62,0,0,0,532.53,437.33Zm-21.72-24.89h0ZM474,404h0Zm25.75-14.83h0Zm0,16.92h0Zm0,42.62h0Zm0-20.48-8.16-4.68,0-9.4,8.13-4.72,8.16,4.68,0,9.4Zm11.07-2.84h0Z"/><path class="cls-27" d="M521.28,405.57l2-7.7a.63.63,0,0,0-1.22-.32l-2.33,8.92Z"/><path class="cls-27" d="M526.75,398.77a.63.63,0,1,0-1.22-.32l-1.43,5.47,1.54-.9Z"/></g><path class="cls-27" d="M636.4,589.58l-9.15-5.25a1,1,0,0,0-1,0l-9.12,5.29a1,1,0,0,0-.5.88l0,10.55a1,1,0,0,0,.51.87l9.15,5.25a1,1,0,0,0,.5.13,1,1,0,0,0,.51-.14l9.12-5.29a1,1,0,0,0,.5-.88l0-10.55A1,1,0,0,0,636.4,589.58Zm-9.6,15.55-8.13-4.67,0-9.38,8.11-4.71,8.13,4.67,0,9.38Z"/><path class="cls-27" d="M593.26,589.77l14.28-3.8-2.47-1.44-12.33,3.28a1,1,0,1,0,.52,2Z"/><path class="cls-27" d="M577.8,576.12l8.76-2.33-2.47-1.44-6.8,1.81a1,1,0,1,0,.52,2Z"/><path class="cls-27" d="M590.77,561.82a1,1,0,1,0-2,.52l3.28,12.33,2.47,1.44Z"/><path class="cls-27" d="M603.52,569.22a1,1,0,0,0-.72,1.24l3.28,12.33,2.47,1.44-3.79-14.28A1,1,0,0,0,603.52,569.22Z"/><path class="cls-27" d="M679.31,625.42a1,1,0,0,0-.34-.36l-9.58-5.55h0l6.8-1.81a1,1,0,1,0-.52-2l-8.76,2.33-1.75-1-2.35-1.36-.42-.25-1.11-.64-.64-.37-.22-.12,2,1.14,12.33-3.27a1,1,0,1,0-.52-2L659.92,614l-1.75-1-.63-.36-2.15-1.25,17.86-4.75a1,1,0,0,0-.52-2L652.93,610l-.68-.39-3.74-2.17-1.34-.78,1.24.72,12.33-3.27a1,1,0,1,0-.52-2l-14.28,3.8-1.75-1h0l-2.2-1.28-.11,0,0-15.34.11,0,2.2-1.29h0l.45-.27,1.29-.76h0l14.3,3.73a1,1,0,0,0,.51-2l-12.35-3.22,4.51-2.65L672.7,587a1,1,0,0,0,.51-2l-17.88-4.66,2.47-1.45.29-.17.42-.25,1.32-.78,14.3,3.73a1,1,0,1,0,.51-2l-12.35-3.22,2.77-1.62,1.75-1,8.77,2.29a1,1,0,1,0,.51-2l-6.81-1.78,9.55-5.6a1,1,0,1,0-1-1.75l-9.55,5.6-2.47,1.45-.66.39-1.09.64-4.51,2.64-1,.56-3,1.76-1.28.75L659,560.72a1,1,0,1,0-2-.51L651.84,580l-1.75,1-2.76,1.62,3.22-12.34a1,1,0,1,0-2-.51l-3.73,14.3-1.74,1h0l-2.2,1.29,0,0-13.15-7.55v0h0v-4.57h0l10.45-10.45a1,1,0,1,0-1.43-1.43l-9,9v-5.23l14.49-14.5a1,1,0,1,0-1.43-1.43l-13.07,13.07v-5.23L638.2,547.7a1,1,0,1,0-1.43-1.43l-9,9v-5.23h0l6.41-6.41a1,1,0,0,0-1.43-1.43l-5,5V536.14h0a1,1,0,0,0-1-1h0a1,1,0,0,0-1,1h0V547.2l-5-5a1,1,0,0,0-1.43,1.43l6.41,6.4h0v5.23l-9-9a1,1,0,1,0-1.43,1.43l10.45,10.45v5.23l-13.07-13.07a1,1,0,0,0-1.43,1.43l14.49,14.49h0v5.23l-9-9a1,1,0,1,0-1.43,1.43l10.45,10.45h0v4.57h0v0l-13.16,7.64-.06-.05-2.2-1.28h0l-1.4-.81-.35-.2h0l-2.47-1.43-1.66-1-1.12-.65-2.47-1.43,0,0-.15-.09.91.53-5.26-19.81a1,1,0,1,0-2,.52l4.74,17.86L596,576.91l-1.8-1-2.07-1.2-2.74-1.59,0,0-1.75-1-2.33-8.76a1,1,0,1,0-2,.52l1.81,6.8-9.58-5.55a1,1,0,0,0-1.21.18,1,1,0,0,0-.17.19,1,1,0,0,0,.37,1.38l11.32,6.57h0l.72.42,4.52,2.62-12.33,3.28a1,1,0,1,0,.52,2l14.28-3.79,4.52,2.62h0l-17.86,4.75a1,1,0,0,0,.52,2l19.81-5.26.29.17,1.46.85,1.64,1,1.13.66,2.47,1.44,4,2.29a1,1,0,0,0,.19.06l0,15.29a1,1,0,0,0-.19.06L607.59,606l-14.3-3.73a1,1,0,0,0-.51,2l12.35,3.22h0l-1.25.73-1.52.89-1.74,1-19.83-5.17a1,1,0,0,0-.51,2l17.88,4.66L595.57,613l-1.94,1.13h0l-14.3-3.73a1,1,0,0,0-.51,2l12.34,3.22-1,.57-3.53,2.07h0L577.89,616a1,1,0,0,0-.51,2l6.81,1.78-9.55,5.6a1,1,0,0,0,1,1.74l9.55-5.6-1.78,6.81a1,1,0,1,0,2,.51l2.29-8.77h0l1.56-.91.18-.11,2.77-1.62L589,629.71a1,1,0,1,0,2,.51l3.73-14.3,2.87-1.68,1.64-1-4.66,17.88a1,1,0,1,0,2,.51l5.17-19.83,1.75-1,2.76-1.62-3.22,12.34a1,1,0,0,0,2,.51l3.73-14.3,1.75-1,2.2-1.29a1,1,0,0,0,.31-.28l12.95,7.43a1,1,0,0,0-.08.39h0v4.57L615.27,628a1,1,0,1,0,1.43,1.43l9-9v5.23l-14.49,14.49a1,1,0,0,0,1.43,1.43l13.07-13.06v5.23l-10.45,10.45a1,1,0,1,0,1.43,1.43l9-9v5.23h0l-6.41,6.41a1,1,0,0,0,1.43,1.43l5-5v11.07h0a1,1,0,0,0,1,1h0a1,1,0,0,0,1-1h0V644.66l5,5a1,1,0,0,0,1.43-1.43l-6.41-6.41h0v-5.23l9,9a1,1,0,1,0,1.43-1.43l-10.45-10.45v-5.23l13.07,13.06a1,1,0,1,0,1.43-1.43l-14.49-14.49V620.4l9,9A1,1,0,1,0,638.2,628l-10.45-10.45V613h0a1,1,0,0,0-.06-.32l13-7.55a1,1,0,0,0,.28.25l1.86,1.08.34.2,1.75,1h0l3.79,14.28a1,1,0,0,0,2-.52l-3.28-12.33,2.27,1.32.51.29,1.75,1,5.26,19.81a1,1,0,1,0,2-.52l-4.75-17.86,4.52,2.62,3.79,14.28a1,1,0,0,0,2-.52l-3.28-12.33,3,1.74,1.53.89,2.33,8.76a1,1,0,1,0,2-.52l-1.81-6.8,9.58,5.55a1,1,0,0,0,1.38-.37A1,1,0,0,0,679.31,625.42Zm-34.81-39.9h0Zm-59-13.53h0Zm41.27-23.77h0Zm0,27.12h0Zm0,68.31h0Zm.07-32.83-13.07-7.51,0-15.07,13-7.57,13.07,7.51,0,15.07Zm17.74-4.55h0Z"/><path class="cls-27" d="M661.28,574.51l3.22-12.35a1,1,0,0,0-2-.51L658.81,576Z"/><path class="cls-27" d="M670,563.6a1,1,0,1,0-2-.51l-2.29,8.77,2.47-1.45Z"/><path class="cls-27" d="M210,465.11,206,462.79a.45.45,0,0,0-.45,0l-4,2.35a.45.45,0,0,0-.22.39l0,4.67a.45.45,0,0,0,.23.39l4.06,2.32a.45.45,0,0,0,.22.06.45.45,0,0,0,.22-.06l4-2.35a.45.45,0,0,0,.22-.39l0-4.67A.45.45,0,0,0,210,465.11Zm-4.24,6.9-3.61-2.06,0-4.15,3.59-2.09,3.61,2.06,0,4.15Z"/><path class="cls-27" d="M190.9,465.23l6.32-1.69-1.1-.63-5.46,1.46a.45.45,0,1,0,.23.87Z"/><path class="cls-27" d="M184,459.2l3.88-1-1.1-.63-3,.81a.45.45,0,1,0,.23.87Z"/><path class="cls-27" d="M189.77,452.85a.45.45,0,1,0-.87.23l1.46,5.46,1.1.63Z"/><path class="cls-27" d="M195.43,456.12a.45.45,0,0,0-.32.55l1.46,5.46,1.1.63L196,456.44A.45.45,0,0,0,195.43,456.12Z"/><path class="cls-27" d="M229,481a.44.44,0,0,0-.15-.16l-4.25-2.45h0l3-.81a.45.45,0,1,0-.23-.86l-3.88,1-.78-.45-1-.6-.19-.11-.49-.28-.28-.16-.1-.06.87.5,5.46-1.46a.45.45,0,1,0-.23-.87l-6.32,1.69-.78-.45-.28-.16-1-.55,7.91-2.12a.45.45,0,0,0-.23-.87l-8.77,2.35L217,474l-1.66-1-.6-.34.55.32,5.46-1.46a.45.45,0,1,0-.23-.87l-6.32,1.69-.78-.45h0l-1-.56,0,0,0-6.8,0,0,1-.57h0l.2-.12.57-.34h0l6.34,1.64a.45.45,0,0,0,.22-.87l-5.47-1.41,2-1.18,8.79,2.27a.45.45,0,0,0,.22-.87l-7.92-2,1.09-.64.13-.08.19-.11.59-.34,6.34,1.64a.45.45,0,1,0,.22-.87l-5.47-1.42,1.22-.72.77-.45,3.88,1a.45.45,0,1,0,.22-.87l-3-.78,4.22-2.49a.45.45,0,1,0-.45-.77l-4.23,2.49-1.09.64-.29.17-.48.28-2,1.18-.42.25-1.33.78-.57.33,2-7.92a.45.45,0,1,0-.87-.22l-2.27,8.79-.77.45-1.22.72,1.42-5.47a.45.45,0,1,0-.87-.22l-1.64,6.34-.77.45h0l-1,.57h0l-5.83-3.33h0v-2h0l4.62-4.64a.45.45,0,0,0-.63-.63l-4,4v-2.32l6.41-6.43a.45.45,0,1,0-.63-.63l-5.78,5.8V451.2l4.62-4.64a.45.45,0,0,0-.63-.63l-4,4v-2.32h0l2.83-2.84a.45.45,0,1,0-.63-.63l-2.2,2.21v-4.9h0a.45.45,0,0,0-.45-.45h0a.45.45,0,0,0-.45.45h0v4.9l-2.21-2.2a.45.45,0,1,0-.63.63l2.84,2.83h0v2.32l-4-4a.45.45,0,1,0-.63.63l4.64,4.62v2.32l-5.8-5.78a.45.45,0,1,0-.63.63l6.43,6.41h0v2.32l-4-4a.45.45,0,1,0-.63.63l4.64,4.62h0v2h0l-5.82,3.4,0,0-1-.56h0l-.62-.36-.15-.09h0l-1.1-.63-.74-.42-.49-.29-1.1-.63h0l-.07,0,.4.23-2.35-8.77a.45.45,0,1,0-.87.23l2.12,7.91-1.39-.8-.8-.46-.92-.53-1.22-.7h0l-.78-.45-1-3.88a.45.45,0,1,0-.87.23l.81,3L183,454.3a.44.44,0,0,0-.54.08.43.43,0,0,0-.08.09.45.45,0,0,0,.16.61l5,2.9h0l.32.19,2,1.16-5.46,1.46a.45.45,0,1,0,.23.87L191,460l2,1.16h0l-7.91,2.12a.45.45,0,0,0,.23.87l8.77-2.35.13.07.65.37.73.42.5.29,1.1.63,1.75,1,.08,0,0,6.77-.08,0-1.74,1-6.34-1.64a.45.45,0,0,0-.22.87l5.47,1.42h0l-.55.32-.67.4-.77.45L185.38,472a.45.45,0,0,0-.22.87l7.92,2-1.14.67-.86.5h0l-6.34-1.64a.45.45,0,0,0-.22.87l5.47,1.42-.43.25-1.56.92h0l-3.89-1a.45.45,0,0,0-.22.87l3,.78L182.68,481a.45.45,0,1,0,.45.77l4.23-2.49-.78,3a.45.45,0,1,0,.87.22l1-3.88h0l.69-.41.08,0,1.22-.72L189,482.93a.45.45,0,1,0,.87.22l1.64-6.34,1.27-.75.72-.43-2,7.92a.45.45,0,1,0,.87.22l2.27-8.79.77-.45,1.22-.72-1.41,5.47a.45.45,0,0,0,.87.22l1.64-6.34.77-.45,1-.57a.44.44,0,0,0,.14-.12l5.74,3.28a.45.45,0,0,0,0,.17h0v2l-4.62,4.64a.45.45,0,1,0,.63.63l4-4v2.32l-6.41,6.43a.45.45,0,1,0,.63.63l5.78-5.8v2.32l-4.62,4.64a.45.45,0,0,0,.63.63l4-4v2.32h0l-2.83,2.84a.45.45,0,0,0,.63.63l2.2-2.21v4.9h0a.45.45,0,0,0,.45.45h0a.45.45,0,0,0,.45-.45h0v-4.9l2.21,2.2a.45.45,0,1,0,.63-.63l-2.84-2.83h0v-2.32l4,4a.45.45,0,1,0,.63-.63l-4.64-4.62v-2.32l5.8,5.78a.45.45,0,1,0,.63-.63l-6.43-6.41v-2.32l4,4a.45.45,0,1,0,.63-.63l-4.64-4.62v-2h0a.43.43,0,0,0,0-.14l5.75-3.35a.45.45,0,0,0,.13.11l.82.48.15.09.78.45h0l1.69,6.32a.45.45,0,0,0,.87-.23l-1.46-5.46,1,.58.22.13.78.45,2.35,8.77a.45.45,0,1,0,.87-.23L218,475.53l2,1.16,1.69,6.32a.45.45,0,0,0,.86-.23l-1.46-5.46,1.33.77.68.39,1,3.88a.45.45,0,1,0,.86-.23l-.81-3,4.25,2.45a.45.45,0,0,0,.61-.16A.44.44,0,0,0,229,481Zm-15.45-17.65h0Zm-26.16-5.94h0Zm18.26-10.57h0Zm0,12h0Zm.06,30.26h0Zm0-14.54-5.8-3.31,0-6.68,5.77-3.36,5.8,3.31,0,6.68Zm7.85-2h0Z"/><path class="cls-27" d="M221,458.41l1.42-5.47a.45.45,0,0,0-.87-.22l-1.64,6.34Z"/><path class="cls-27" d="M224.88,453.58a.45.45,0,1,0-.87-.22l-1,3.89,1.09-.64Z"/><path class="cls-27" d="M381.24,578.66l-6.16-3.54a.68.68,0,0,0-.68,0l-6.14,3.56a.68.68,0,0,0-.34.59l0,7.1a.68.68,0,0,0,.34.59l6.16,3.54a.68.68,0,0,0,.34.09.69.69,0,0,0,.34-.09l6.14-3.56a.68.68,0,0,0,.34-.59l0-7.1A.68.68,0,0,0,381.24,578.66Zm-6.47,10.47L369.3,586v-6.31l5.46-3.17,5.47,3.14,0,6.31Z"/><path class="cls-27" d="M352.2,578.78l9.62-2.56-1.67-1-8.3,2.21a.68.68,0,1,0,.35,1.32Z"/><path class="cls-27" d="M341.79,569.6l5.89-1.57-1.66-1-4.58,1.22a.68.68,0,1,0,.35,1.32Z"/><path class="cls-27" d="M350.52,560a.68.68,0,1,0-1.32.35l2.21,8.3,1.66,1Z"/><path class="cls-27" d="M359.11,564.95a.68.68,0,0,0-.48.83l2.21,8.3,1.66,1-2.55-9.62A.68.68,0,0,0,359.11,564.95Z"/><path class="cls-27" d="M410.13,602.79a.67.67,0,0,0-.23-.24l-6.45-3.74h0l4.58-1.22a.68.68,0,1,0-.35-1.31l-5.89,1.57-1.18-.68-1.58-.92-.29-.17-.75-.43-.43-.25-.14-.08,1.32.77,8.3-2.2a.68.68,0,1,0-.35-1.32l-9.62,2.56-1.18-.68-.42-.24-1.44-.84,12-3.19a.68.68,0,0,0-.35-1.32l-13.34,3.54-.46-.26-2.52-1.46-.9-.52.83.48,8.3-2.2a.68.68,0,1,0-.35-1.32l-9.61,2.56-1.18-.68h0L385,588.1l-.08,0,0-10.33.07,0,1.48-.87h0l.31-.18.87-.51h0l9.63,2.51a.68.68,0,0,0,.34-1.32l-8.31-2.17,3-1.78,13.35,3.48a.68.68,0,0,0,.34-1.32l-12-3.14,1.66-1,.2-.12.28-.17.89-.52,9.63,2.51a.68.68,0,1,0,.34-1.32l-8.31-2.17,1.86-1.09,1.17-.69,5.9,1.54a.68.68,0,1,0,.34-1.32l-4.58-1.2,6.43-3.77a.68.68,0,1,0-.69-1.17l-6.43,3.77-1.66,1-.44.26-.73.43-3,1.78-.64.38-2,1.19-.86.5,3.14-12a.68.68,0,1,0-1.32-.34l-3.48,13.35-1.18.69L388.6,574l2.17-8.31a.68.68,0,1,0-1.32-.34L386.94,575l-1.17.69h0l-1.48.87,0,0-8.85-5.08h0v-3.08h0l7-7a.68.68,0,0,0-1-1l-6.07,6.07v-3.52l9.76-9.76a.68.68,0,0,0-1-1l-8.8,8.8V557.5l7-7a.68.68,0,1,0-1-1l-6.07,6.07v-3.52h0l4.31-4.31a.68.68,0,1,0-1-1l-3.35,3.35v-7.45h0a.68.68,0,0,0-.68-.68h0a.68.68,0,0,0-.68.68h0v7.45l-3.35-3.35a.68.68,0,1,0-1,1l4.31,4.31h0v3.52L368,549.5a.68.68,0,1,0-1,1l7,7V561l-8.8-8.8a.68.68,0,0,0-1,1l9.76,9.76h0v3.52L368,560.39a.68.68,0,1,0-1,1l7,7h0v3.08h0l-8.86,5.14,0,0-1.48-.86h0l-.94-.55-.24-.14h0l-1.66-1-1.12-.65L359,573l-1.66-1h0l-.1-.06.61.35L354.24,559a.68.68,0,1,0-1.32.35l3.19,12-2.1-1.22-1.21-.7-1.4-.81-1.85-1.07h0l-1.18-.68L346.8,561a.68.68,0,1,0-1.32.35l1.22,4.58-6.45-3.74a.67.67,0,0,0-.82.12.66.66,0,0,0-.11.13.68.68,0,0,0,.25.93l7.62,4.42h0l.49.28,3,1.77-8.3,2.21a.68.68,0,1,0,.35,1.32l9.62-2.55,3,1.77h0l-12,3.19a.68.68,0,0,0,.35,1.32l13.34-3.54.19.11,1,.57,1.11.64.76.44,1.67,1,2.66,1.54.13,0,0,10.29-.13,0-2.65,1.56-9.63-2.51a.68.68,0,0,0-.34,1.32l8.31,2.17h0l-.84.49-1,.6-1.17.69L343.79,589a.68.68,0,0,0-.34,1.32l12,3.14-1.73,1-1.3.76h0l-9.63-2.51a.68.68,0,0,0-.34,1.32l8.31,2.17-.66.39L347.75,598h0l-5.9-1.54a.68.68,0,0,0-.34,1.32l4.59,1.2-6.43,3.77a.68.68,0,1,0,.69,1.17l6.43-3.77-1.2,4.58a.68.68,0,1,0,1.32.34l1.54-5.9h0l1-.62.12-.07,1.86-1.09-2.17,8.31a.68.68,0,1,0,1.32.34l2.51-9.63,1.93-1.13,1.1-.65-3.14,12a.68.68,0,1,0,1.32.34l3.48-13.35,1.18-.69,1.86-1.09-2.17,8.31a.68.68,0,0,0,1.32.34l2.51-9.63,1.17-.69,1.48-.87a.67.67,0,0,0,.21-.19l8.72,5a.68.68,0,0,0-.05.26h0v3.08l-7,7a.68.68,0,1,0,1,1l6.07-6.07v3.52l-9.76,9.76a.68.68,0,0,0,1,1l8.8-8.79v3.52l-7,7a.68.68,0,1,0,1,1l6.07-6.07v3.52h0l-4.31,4.31a.68.68,0,1,0,1,1l3.35-3.35v7.45h0a.68.68,0,0,0,.68.68h0a.68.68,0,0,0,.68-.68h0v-7.45l3.35,3.35a.68.68,0,1,0,1-1l-4.31-4.31h0v-3.52l6.07,6.07a.68.68,0,0,0,1-1l-7-7v-3.52l8.8,8.79a.68.68,0,0,0,1-1l-9.76-9.76V599.4l6.07,6.07a.68.68,0,1,0,1-1l-7-7V594.4h0a.66.66,0,0,0,0-.21l8.75-5.08a.68.68,0,0,0,.19.17l1.25.73.23.13,1.18.68h0l2.55,9.62a.68.68,0,0,0,1.32-.35l-2.21-8.3,1.53.89.34.2,1.18.68,3.54,13.34a.68.68,0,1,0,1.32-.35l-3.19-12,3,1.77,2.55,9.62a.68.68,0,0,0,1.31-.35l-2.21-8.3,2,1.17,1,.6,1.57,5.89a.68.68,0,1,0,1.31-.35L402.77,600l6.45,3.74a.68.68,0,0,0,.93-.25A.67.67,0,0,0,410.13,602.79Zm-23.43-26.86h0Zm-39.74-9.11h0Zm27.79-16h0Zm0,18.26h0Zm0,46h0Zm.05-22.1L366,587.9l0-10.15,8.78-5.1,8.8,5.05,0,10.15Zm11.94-3.07h0Z"/><path class="cls-27" d="M398,568.51l2.17-8.31a.68.68,0,0,0-1.32-.34l-2.51,9.63Z"/><path class="cls-27" d="M403.88,561.17a.68.68,0,1,0-1.32-.34l-1.54,5.9,1.66-1Z"/><path class="cls-27" d="M116.24,395.66l-6.16-3.54a.68.68,0,0,0-.68,0l-6.14,3.56a.68.68,0,0,0-.34.59l0,7.1a.68.68,0,0,0,.34.59l6.16,3.54a.68.68,0,0,0,.34.09.69.69,0,0,0,.34-.09l6.14-3.56a.68.68,0,0,0,.34-.59l0-7.1A.68.68,0,0,0,116.24,395.66Zm-6.47,10.47L104.3,403v-6.31l5.46-3.17,5.47,3.14,0,6.31Z"/><path class="cls-27" d="M87.2,395.78l9.62-2.56-1.67-1-8.3,2.21a.68.68,0,1,0,.35,1.32Z"/><path class="cls-27" d="M76.79,386.6,82.68,385l-1.66-1-4.58,1.22a.68.68,0,1,0,.35,1.32Z"/><path class="cls-27" d="M85.52,377a.68.68,0,1,0-1.32.35l2.21,8.3,1.66,1Z"/><path class="cls-27" d="M94.11,381.95a.68.68,0,0,0-.48.83l2.21,8.3,1.66,1-2.55-9.62A.68.68,0,0,0,94.11,381.95Z"/><path class="cls-27" d="M145.13,419.79a.67.67,0,0,0-.23-.24l-6.45-3.74h0l4.58-1.22a.68.68,0,1,0-.35-1.31l-5.89,1.57-1.18-.68-1.58-.92-.29-.17-.75-.43-.43-.25-.14-.08,1.32.77,8.3-2.2a.68.68,0,1,0-.35-1.32l-9.62,2.56-1.18-.68-.42-.24-1.44-.84,12-3.19a.68.68,0,0,0-.35-1.32l-13.34,3.54-.46-.26-2.52-1.46-.9-.52.83.48,8.3-2.2a.68.68,0,1,0-.35-1.32l-9.61,2.56-1.18-.68h0L120,405.1l-.08,0,0-10.33.07,0,1.48-.87h0l.31-.18.87-.51h0l9.63,2.51a.68.68,0,0,0,.34-1.32l-8.31-2.17,3-1.78,13.35,3.48a.68.68,0,0,0,.34-1.32l-12-3.14,1.66-1,.2-.12.28-.17.89-.52,9.63,2.51a.68.68,0,1,0,.34-1.32l-8.31-2.17,1.86-1.09,1.17-.69,5.9,1.54a.68.68,0,1,0,.34-1.32l-4.58-1.2,6.43-3.77a.68.68,0,1,0-.69-1.17l-6.43,3.77-1.66,1-.44.26-.73.43-3,1.78-.64.38-2,1.19-.86.5,3.14-12a.68.68,0,1,0-1.32-.34l-3.48,13.35-1.18.69L123.6,391l2.17-8.31a.68.68,0,1,0-1.32-.34L121.94,392l-1.17.69h0l-1.48.87,0,0-8.85-5.08h0v-3.08h0l7-7a.68.68,0,0,0-1-1l-6.07,6.07v-3.52l9.76-9.76a.68.68,0,1,0-1-1l-8.8,8.8V374.5l7-7a.68.68,0,1,0-1-1l-6.07,6.07v-3.52h0l4.31-4.31a.68.68,0,0,0-1-1l-3.35,3.35v-7.45h0a.68.68,0,0,0-.68-.68h0a.68.68,0,0,0-.68.68h0v7.45l-3.35-3.35a.68.68,0,1,0-1,1l4.31,4.31h0v3.52L103,366.5a.68.68,0,1,0-1,1l7,7V378l-8.8-8.8a.68.68,0,1,0-1,1l9.76,9.76h0v3.52L103,377.39a.68.68,0,0,0-1,1l7,7h0v3.08h0l-8.86,5.14,0,0-1.48-.86h0l-.94-.55-.24-.14h0l-1.66-1-1.12-.65L94,390l-1.66-1h0l-.1-.06.61.35L89.24,376a.68.68,0,1,0-1.32.35l3.19,12L89,387.13l-1.21-.7-1.4-.81-1.85-1.07h0l-1.18-.68L81.8,378a.68.68,0,1,0-1.32.35l1.22,4.58-6.45-3.74a.67.67,0,0,0-.82.12.66.66,0,0,0-.11.13.68.68,0,0,0,.25.93l7.62,4.42h0l.49.28,3,1.77L77.43,389a.68.68,0,1,0,.35,1.32l9.62-2.55,3,1.77h0l-12,3.19a.68.68,0,0,0,.35,1.32l13.34-3.54.19.11,1,.57,1.11.64.76.44,1.67,1,2.66,1.54.13,0,0,10.29-.13,0-2.65,1.56-9.63-2.51a.68.68,0,0,0-.34,1.32l8.31,2.17h0l-.84.49-1,.6-1.17.69L78.79,406a.68.68,0,0,0-.34,1.32l12,3.14-1.73,1-1.3.76h0l-9.63-2.51a.68.68,0,0,0-.34,1.32l8.31,2.17-.66.39L82.75,415h0l-5.9-1.54a.68.68,0,0,0-.34,1.32l4.59,1.2-6.43,3.77a.68.68,0,1,0,.69,1.17l6.43-3.77-1.2,4.58a.68.68,0,1,0,1.32.34l1.54-5.9h0l1-.62.12-.07,1.86-1.09-2.17,8.31a.68.68,0,1,0,1.32.34l2.51-9.63,1.93-1.13,1.1-.65-3.14,12a.68.68,0,1,0,1.32.34l3.48-13.35,1.18-.69,1.86-1.09-2.17,8.31a.68.68,0,0,0,1.32.34l2.51-9.63,1.17-.69,1.48-.87a.67.67,0,0,0,.21-.19l8.72,5a.68.68,0,0,0-.05.26h0v3.08l-7,7a.68.68,0,0,0,1,1l6.07-6.07v3.52l-9.76,9.76a.68.68,0,1,0,1,1l8.8-8.79v3.52l-7,7a.68.68,0,0,0,1,1l6.07-6.07v3.52h0l-4.31,4.31a.68.68,0,0,0,1,1l3.35-3.35v7.45h0a.68.68,0,0,0,.68.68h0a.68.68,0,0,0,.68-.68h0v-7.45l3.35,3.35a.68.68,0,0,0,1-1l-4.31-4.31h0v-3.52l6.07,6.07a.68.68,0,1,0,1-1l-7-7v-3.52l8.8,8.79a.68.68,0,1,0,1-1l-9.76-9.76V416.4l6.07,6.07a.68.68,0,0,0,1-1l-7-7V411.4h0a.66.66,0,0,0,0-.21l8.75-5.08a.68.68,0,0,0,.19.17l1.25.73.23.13,1.18.68h0l2.55,9.62a.68.68,0,0,0,1.32-.35l-2.21-8.3,1.53.89.34.2,1.18.68,3.54,13.34a.68.68,0,1,0,1.32-.35l-3.19-12,3,1.77,2.55,9.62a.68.68,0,0,0,1.31-.35l-2.21-8.3,2,1.17,1,.6,1.57,5.89a.68.68,0,1,0,1.31-.35L137.77,417l6.45,3.74a.68.68,0,0,0,.93-.25A.67.67,0,0,0,145.13,419.79Zm-23.43-26.86h0Zm-39.74-9.11h0Zm27.79-16h0Zm0,18.26h0Zm0,46h0Zm.05-22.1L101,404.9l0-10.15,8.78-5.1,8.8,5.05,0,10.15Zm11.94-3.07h0Z"/><path class="cls-27" d="M133,385.51l2.17-8.31a.68.68,0,0,0-1.32-.34l-2.51,9.63Z"/><path class="cls-27" d="M138.88,378.17a.68.68,0,1,0-1.32-.34l-1.54,5.9,1.66-1Z"/><g class="cls-28"><path class="cls-27" d="M198.24,147.66l-6.16-3.54a.68.68,0,0,0-.68,0l-6.14,3.56a.68.68,0,0,0-.34.59l0,7.1a.68.68,0,0,0,.34.59l6.16,3.54a.68.68,0,0,0,.34.09.69.69,0,0,0,.34-.09l6.14-3.56a.68.68,0,0,0,.34-.59l0-7.1A.68.68,0,0,0,198.24,147.66Zm-6.47,10.47L186.3,155v-6.31l5.46-3.17,5.47,3.14,0,6.31Z"/><path class="cls-27" d="M169.2,147.78l9.62-2.56-1.67-1-8.3,2.21a.68.68,0,1,0,.35,1.32Z"/><path class="cls-27" d="M158.79,138.6l5.89-1.57-1.66-1-4.58,1.22a.68.68,0,1,0,.35,1.32Z"/><path class="cls-27" d="M167.52,129a.68.68,0,1,0-1.32.35l2.21,8.3,1.66,1Z"/><path class="cls-27" d="M176.11,133.95a.68.68,0,0,0-.48.83l2.21,8.3,1.66,1-2.55-9.62A.68.68,0,0,0,176.11,133.95Z"/><path class="cls-27" d="M227.13,171.79a.67.67,0,0,0-.23-.24l-6.45-3.74h0l4.58-1.22a.68.68,0,1,0-.35-1.31l-5.89,1.57-1.18-.68-1.58-.92-.29-.17-.75-.43-.43-.25-.14-.08,1.32.77,8.3-2.2a.68.68,0,1,0-.35-1.32l-9.62,2.56-1.18-.68-.42-.24-1.44-.84,12-3.19a.68.68,0,0,0-.35-1.32l-13.34,3.54-.46-.26-2.52-1.46-.9-.52.83.48,8.3-2.2a.68.68,0,1,0-.35-1.32l-9.61,2.56-1.18-.68h0L202,157.1l-.08,0,0-10.33.07,0,1.48-.87h0l.31-.18.87-.51h0l9.63,2.51a.68.68,0,0,0,.34-1.32l-8.31-2.17,3-1.78,13.35,3.48a.68.68,0,0,0,.34-1.32l-12-3.14,1.66-1,.2-.12.28-.17.89-.52,9.63,2.51a.68.68,0,1,0,.34-1.32l-8.31-2.17,1.86-1.09,1.17-.69,5.9,1.54a.68.68,0,1,0,.34-1.32l-4.58-1.2,6.43-3.77a.68.68,0,1,0-.69-1.17l-6.43,3.77-1.66,1-.44.26-.73.43-3,1.78-.64.38-2,1.19-.86.5,3.14-12a.68.68,0,1,0-1.32-.34l-3.48,13.35-1.18.69L205.6,143l2.17-8.31a.68.68,0,1,0-1.32-.34L203.94,144l-1.17.69h0l-1.48.87,0,0-8.85-5.08h0v-3.08h0l7-7a.68.68,0,1,0-1-1l-6.07,6.07v-3.52l9.76-9.76a.68.68,0,1,0-1-1l-8.8,8.8V126.5l7-7a.68.68,0,1,0-1-1l-6.07,6.07v-3.52h0l4.31-4.31a.68.68,0,1,0-1-1l-3.35,3.35v-7.45h0a.68.68,0,0,0-.68-.68h0a.68.68,0,0,0-.68.68h0v7.45l-3.35-3.35a.68.68,0,1,0-1,1l4.31,4.31h0v3.52L185,118.5a.68.68,0,1,0-1,1l7,7V130l-8.8-8.8a.68.68,0,1,0-1,1l9.76,9.76h0v3.52L185,129.39a.68.68,0,1,0-1,1l7,7h0v3.08h0l-8.86,5.14,0,0-1.48-.86h0l-.94-.55-.24-.14h0l-1.66-1-1.12-.65L176,142l-1.66-1h0l-.1-.06.61.35L171.24,128a.68.68,0,1,0-1.32.35l3.19,12-2.1-1.22-1.21-.7-1.4-.81-1.85-1.07h0l-1.18-.68L163.8,130a.68.68,0,1,0-1.32.35l1.22,4.58-6.45-3.74a.67.67,0,0,0-.82.12.66.66,0,0,0-.11.13.68.68,0,0,0,.25.93l7.62,4.42h0l.49.28,3,1.77-8.3,2.21a.68.68,0,1,0,.35,1.32l9.62-2.55,3,1.77h0l-12,3.19a.68.68,0,0,0,.35,1.32l13.34-3.54.19.11,1,.57,1.11.64.76.44,1.67,1,2.66,1.54.13,0,0,10.29-.13,0-2.65,1.56-9.63-2.51a.68.68,0,0,0-.34,1.32l8.31,2.17h0l-.84.49-1,.6-1.17.69L160.79,158a.68.68,0,0,0-.34,1.32l12,3.14-1.73,1-1.3.76h0l-9.63-2.51a.68.68,0,0,0-.34,1.32l8.31,2.17-.66.39L164.75,167h0l-5.9-1.54a.68.68,0,0,0-.34,1.32l4.59,1.2-6.43,3.77a.68.68,0,1,0,.69,1.17l6.43-3.77-1.2,4.58a.68.68,0,1,0,1.32.34l1.54-5.9h0l1-.62.12-.07,1.86-1.09-2.17,8.31a.68.68,0,1,0,1.32.34l2.51-9.63,1.93-1.13,1.1-.65-3.14,12a.68.68,0,1,0,1.32.34l3.48-13.35,1.18-.69,1.86-1.09-2.17,8.31a.68.68,0,0,0,1.32.34l2.51-9.63,1.17-.69,1.48-.87a.67.67,0,0,0,.21-.19l8.72,5a.68.68,0,0,0-.05.26h0v3.08l-7,7a.68.68,0,1,0,1,1l6.07-6.07v3.52l-9.76,9.76a.68.68,0,0,0,1,1l8.8-8.79v3.52l-7,7a.68.68,0,1,0,1,1l6.07-6.07v3.52h0l-4.31,4.31a.68.68,0,1,0,1,1l3.35-3.35v7.45h0a.68.68,0,0,0,.68.68h0a.68.68,0,0,0,.68-.68h0v-7.45l3.35,3.35a.68.68,0,1,0,1-1l-4.31-4.31h0v-3.52l6.07,6.07a.68.68,0,1,0,1-1l-7-7v-3.52l8.8,8.79a.68.68,0,1,0,1-1l-9.76-9.76V168.4l6.07,6.07a.68.68,0,1,0,1-1l-7-7V163.4h0a.66.66,0,0,0,0-.21l8.75-5.08a.68.68,0,0,0,.19.17l1.25.73.23.13,1.18.68h0l2.55,9.62a.68.68,0,0,0,1.32-.35l-2.21-8.3,1.53.89.34.2,1.18.68,3.54,13.34a.68.68,0,1,0,1.32-.35l-3.19-12,3,1.77,2.55,9.62a.68.68,0,0,0,1.31-.35l-2.21-8.3,2,1.17,1,.6,1.57,5.89a.68.68,0,1,0,1.31-.35L219.77,169l6.45,3.74a.68.68,0,0,0,.93-.25A.67.67,0,0,0,227.13,171.79Zm-23.43-26.86h0Zm-39.74-9.11h0Zm27.79-16h0Zm0,18.26h0Zm0,46h0Zm.05-22.1L183,156.9l0-10.15,8.78-5.1,8.8,5.05,0,10.15Zm11.94-3.07h0Z"/><path class="cls-27" d="M215,137.51l2.17-8.31a.68.68,0,0,0-1.32-.34l-2.51,9.63Z"/><path class="cls-27" d="M220.88,130.17a.68.68,0,1,0-1.32-.34l-1.54,5.9,1.66-1Z"/></g><path class="cls-27" d="M351.24,451.66l-6.16-3.54a.68.68,0,0,0-.68,0l-6.14,3.56a.68.68,0,0,0-.34.59l0,7.1a.68.68,0,0,0,.34.59l6.16,3.54a.68.68,0,0,0,.34.09.69.69,0,0,0,.34-.09l6.14-3.56a.68.68,0,0,0,.34-.59l0-7.1A.68.68,0,0,0,351.24,451.66Zm-6.47,10.47L339.3,459v-6.31l5.46-3.17,5.47,3.14,0,6.31Z"/><path class="cls-27" d="M322.2,451.78l9.62-2.56-1.67-1-8.3,2.21a.68.68,0,1,0,.35,1.32Z"/><path class="cls-27" d="M311.79,442.6l5.89-1.57-1.66-1-4.58,1.22a.68.68,0,1,0,.35,1.32Z"/><path class="cls-27" d="M320.52,433a.68.68,0,1,0-1.32.35l2.21,8.3,1.66,1Z"/><path class="cls-27" d="M329.11,437.95a.68.68,0,0,0-.48.83l2.21,8.3,1.66,1-2.55-9.62A.68.68,0,0,0,329.11,437.95Z"/><path class="cls-27" d="M380.13,475.79a.67.67,0,0,0-.23-.24l-6.45-3.74h0l4.58-1.22a.68.68,0,1,0-.35-1.31l-5.89,1.57-1.18-.68-1.58-.92-.29-.17-.75-.43-.43-.25-.14-.08,1.32.77,8.3-2.2a.68.68,0,1,0-.35-1.32l-9.62,2.56-1.18-.68-.42-.24-1.44-.84,12-3.19a.68.68,0,0,0-.35-1.32l-13.34,3.54-.46-.26-2.52-1.46-.9-.52.83.48,8.3-2.2a.68.68,0,1,0-.35-1.32l-9.61,2.56-1.18-.68h0L355,461.1l-.08,0,0-10.33.07,0,1.48-.87h0l.31-.18.87-.51h0l9.63,2.51a.68.68,0,0,0,.34-1.32l-8.31-2.17,3-1.78,13.35,3.48a.68.68,0,0,0,.34-1.32l-12-3.14,1.66-1,.2-.12.28-.17.89-.52,9.63,2.51a.68.68,0,1,0,.34-1.32l-8.31-2.17,1.86-1.09,1.17-.69,5.9,1.54a.68.68,0,1,0,.34-1.32l-4.58-1.2,6.43-3.77a.68.68,0,1,0-.69-1.17l-6.43,3.77-1.66,1-.44.26-.73.43-3,1.78-.64.38-2,1.19-.86.5,3.14-12a.68.68,0,1,0-1.32-.34l-3.48,13.35-1.18.69L358.6,447l2.17-8.31a.68.68,0,1,0-1.32-.34L356.94,448l-1.17.69h0l-1.48.87,0,0-8.85-5.08h0v-3.08h0l7-7a.68.68,0,0,0-1-1l-6.07,6.07v-3.52l9.76-9.76a.68.68,0,1,0-1-1l-8.8,8.8V430.5l7-7a.68.68,0,1,0-1-1l-6.07,6.07v-3.52h0l4.31-4.31a.68.68,0,1,0-1-1l-3.35,3.35v-7.45h0a.68.68,0,0,0-.68-.68h0a.68.68,0,0,0-.68.68h0v7.45l-3.35-3.35a.68.68,0,1,0-1,1l4.31,4.31h0v3.52L338,422.5a.68.68,0,1,0-1,1l7,7V434l-8.8-8.8a.68.68,0,0,0-1,1l9.76,9.76h0v3.52L338,433.39a.68.68,0,1,0-1,1l7,7h0v3.08h0l-8.86,5.14,0,0-1.48-.86h0l-.94-.55-.24-.14h0l-1.66-1-1.12-.65L329,446l-1.66-1h0l-.1-.06.61.35L324.24,432a.68.68,0,1,0-1.32.35l3.19,12-2.1-1.22-1.21-.7-1.4-.81-1.85-1.07h0l-1.18-.68L316.8,434a.68.68,0,1,0-1.32.35l1.22,4.58-6.45-3.74a.67.67,0,0,0-.82.12.66.66,0,0,0-.11.13.68.68,0,0,0,.25.93l7.62,4.42h0l.49.28,3,1.77-8.3,2.21a.68.68,0,1,0,.35,1.32l9.62-2.55,3,1.77h0l-12,3.19a.68.68,0,0,0,.35,1.32l13.34-3.54.19.11,1,.57,1.11.64.76.44,1.67,1,2.66,1.54.13,0,0,10.29-.13,0-2.65,1.56-9.63-2.51a.68.68,0,0,0-.34,1.32l8.31,2.17h0l-.84.49-1,.6-1.17.69L313.79,462a.68.68,0,0,0-.34,1.32l12,3.14-1.73,1-1.3.76h0l-9.63-2.51a.68.68,0,0,0-.34,1.32l8.31,2.17-.66.39L317.75,471h0l-5.9-1.54a.68.68,0,0,0-.34,1.32l4.59,1.2-6.43,3.77a.68.68,0,0,0,.69,1.17l6.43-3.77-1.2,4.58a.68.68,0,1,0,1.32.34l1.54-5.9h0l1-.62.12-.07,1.86-1.09-2.17,8.31a.68.68,0,1,0,1.32.34l2.51-9.63,1.93-1.13,1.1-.65-3.14,12a.68.68,0,1,0,1.32.34l3.48-13.35,1.18-.69,1.86-1.09-2.17,8.31a.68.68,0,0,0,1.32.34l2.51-9.63,1.17-.69,1.48-.87a.67.67,0,0,0,.21-.19l8.72,5a.68.68,0,0,0-.05.26h0v3.08l-7,7a.68.68,0,0,0,1,1l6.07-6.07v3.52l-9.76,9.76a.68.68,0,0,0,1,1l8.8-8.79v3.52l-7,7a.68.68,0,1,0,1,1l6.07-6.07v3.52h0l-4.31,4.31a.68.68,0,0,0,1,1l3.35-3.35v7.45h0a.68.68,0,0,0,.68.68h0a.68.68,0,0,0,.68-.68h0v-7.45l3.35,3.35a.68.68,0,1,0,1-1l-4.31-4.31h0v-3.52l6.07,6.07a.68.68,0,0,0,1-1l-7-7v-3.52l8.8,8.79a.68.68,0,1,0,1-1l-9.76-9.76V472.4l6.07,6.07a.68.68,0,0,0,1-1l-7-7V467.4h0a.66.66,0,0,0,0-.21l8.75-5.08a.68.68,0,0,0,.19.17l1.25.73.23.13,1.18.68h0l2.55,9.62a.68.68,0,0,0,1.32-.35l-2.21-8.3,1.53.89.34.2,1.18.68,3.54,13.34a.68.68,0,1,0,1.32-.35l-3.19-12,3,1.77,2.55,9.62a.68.68,0,0,0,1.31-.35l-2.21-8.3,2,1.17,1,.6,1.57,5.89a.68.68,0,1,0,1.31-.35L372.77,473l6.45,3.74a.68.68,0,0,0,.93-.25A.67.67,0,0,0,380.13,475.79Zm-23.43-26.86h0Zm-39.74-9.11h0Zm27.79-16h0Zm0,18.26h0Zm0,46h0Zm.05-22.1L336,460.9l0-10.15,8.78-5.1,8.8,5.05,0,10.15Zm11.94-3.07h0Z"/><path class="cls-27" d="M368,441.51l2.17-8.31a.68.68,0,0,0-1.32-.34l-2.51,9.63Z"/><path class="cls-27" d="M373.88,434.17a.68.68,0,1,0-1.32-.34l-1.54,5.9,1.66-1Z"/><path class="cls-27" d="M124.24,565.66l-6.16-3.54a.68.68,0,0,0-.68,0l-6.14,3.56a.68.68,0,0,0-.34.59l0,7.1a.68.68,0,0,0,.34.59l6.16,3.54a.68.68,0,0,0,.34.09.69.69,0,0,0,.34-.09l6.14-3.56a.68.68,0,0,0,.34-.59l0-7.1A.68.68,0,0,0,124.24,565.66Zm-6.47,10.47L112.3,573v-6.31l5.46-3.17,5.47,3.14,0,6.31Z"/><path class="cls-27" d="M95.2,565.78l9.62-2.56-1.67-1-8.3,2.21a.68.68,0,1,0,.35,1.32Z"/><path class="cls-27" d="M84.79,556.6,90.68,555l-1.66-1-4.58,1.22a.68.68,0,1,0,.35,1.32Z"/><path class="cls-27" d="M93.52,547a.68.68,0,1,0-1.32.35l2.21,8.3,1.66,1Z"/><path class="cls-27" d="M102.11,551.95a.68.68,0,0,0-.48.83l2.21,8.3,1.66,1-2.55-9.62A.68.68,0,0,0,102.11,551.95Z"/><path class="cls-27" d="M153.13,589.79a.67.67,0,0,0-.23-.24l-6.45-3.74h0l4.58-1.22a.68.68,0,1,0-.35-1.31l-5.89,1.57-1.18-.68-1.58-.92-.29-.17-.75-.43-.43-.25-.14-.08,1.32.77,8.3-2.2a.68.68,0,1,0-.35-1.32l-9.62,2.56-1.18-.68-.42-.24-1.44-.84,12-3.19a.68.68,0,0,0-.35-1.32l-13.34,3.54-.46-.26-2.52-1.46-.9-.52.83.48,8.3-2.2a.68.68,0,1,0-.35-1.32l-9.61,2.56-1.18-.68h0L128,575.1l-.08,0,0-10.33.07,0,1.48-.87h0l.31-.18.87-.51h0l9.63,2.51a.68.68,0,0,0,.34-1.32l-8.31-2.17,3-1.78,13.35,3.48a.68.68,0,0,0,.34-1.32l-12-3.14,1.66-1,.2-.12.28-.17.89-.52,9.63,2.51a.68.68,0,1,0,.34-1.32l-8.31-2.17,1.86-1.09,1.17-.69,5.9,1.54a.68.68,0,1,0,.34-1.32l-4.58-1.2,6.43-3.77a.68.68,0,1,0-.69-1.17l-6.43,3.77-1.66,1-.44.26-.73.43-3,1.78-.64.38-2,1.19-.86.5,3.14-12a.68.68,0,1,0-1.32-.34l-3.48,13.35-1.18.69L131.6,561l2.17-8.31a.68.68,0,1,0-1.32-.34L129.94,562l-1.17.69h0l-1.48.87,0,0-8.85-5.08h0v-3.08h0l7-7a.68.68,0,0,0-1-1l-6.07,6.07v-3.52l9.76-9.76a.68.68,0,0,0-1-1l-8.8,8.8V544.5l7-7a.68.68,0,1,0-1-1l-6.07,6.07v-3.52h0l4.31-4.31a.68.68,0,1,0-1-1l-3.35,3.35v-7.45h0a.68.68,0,0,0-.68-.68h0a.68.68,0,0,0-.68.68h0v7.45l-3.35-3.35a.68.68,0,1,0-1,1l4.31,4.31h0v3.52L111,536.5a.68.68,0,1,0-1,1l7,7V548l-8.8-8.8a.68.68,0,0,0-1,1l9.76,9.76h0v3.52L111,547.39a.68.68,0,0,0-1,1l7,7h0v3.08h0l-8.86,5.14,0,0-1.48-.86h0l-.94-.55-.24-.14h0l-1.66-1-1.12-.65L102,560l-1.66-1h0l-.1-.06.61.35L97.24,546a.68.68,0,1,0-1.32.35l3.19,12L97,557.13l-1.21-.7-1.4-.81-1.85-1.07h0l-1.18-.68L89.8,548a.68.68,0,1,0-1.32.35l1.22,4.58-6.45-3.74a.67.67,0,0,0-.82.12.66.66,0,0,0-.11.13.68.68,0,0,0,.25.93l7.62,4.42h0l.49.28,3,1.77L85.43,559a.68.68,0,1,0,.35,1.32l9.62-2.55,3,1.77h0l-12,3.19a.68.68,0,0,0,.35,1.32l13.34-3.54.19.11,1,.57,1.11.64.76.44,1.67,1,2.66,1.54.13,0,0,10.29-.13,0-2.65,1.56-9.63-2.51a.68.68,0,0,0-.34,1.32l8.31,2.17h0l-.84.49-1,.6-1.17.69L86.79,576a.68.68,0,0,0-.34,1.32l12,3.14-1.73,1-1.3.76h0l-9.63-2.51a.68.68,0,0,0-.34,1.32l8.31,2.17-.66.39L90.75,585h0l-5.9-1.54a.68.68,0,0,0-.34,1.32l4.59,1.2-6.43,3.77a.68.68,0,1,0,.69,1.17l6.43-3.77-1.2,4.58a.68.68,0,1,0,1.32.34l1.54-5.9h0l1-.62.12-.07,1.86-1.09-2.17,8.31a.68.68,0,1,0,1.32.34l2.51-9.63,1.93-1.13,1.1-.65-3.14,12a.68.68,0,1,0,1.32.34l3.48-13.35,1.18-.69,1.86-1.09-2.17,8.31a.68.68,0,0,0,1.32.34l2.51-9.63,1.17-.69,1.48-.87a.67.67,0,0,0,.21-.19l8.72,5a.68.68,0,0,0-.05.26h0v3.08l-7,7a.68.68,0,0,0,1,1l6.07-6.07v3.52l-9.76,9.76a.68.68,0,0,0,1,1l8.8-8.79v3.52l-7,7a.68.68,0,0,0,1,1l6.07-6.07v3.52h0l-4.31,4.31a.68.68,0,1,0,1,1l3.35-3.35v7.45h0a.68.68,0,0,0,.68.68h0a.68.68,0,0,0,.68-.68h0v-7.45l3.35,3.35a.68.68,0,1,0,1-1l-4.31-4.31h0v-3.52l6.07,6.07a.68.68,0,1,0,1-1l-7-7v-3.52l8.8,8.79a.68.68,0,0,0,1-1l-9.76-9.76V586.4l6.07,6.07a.68.68,0,1,0,1-1l-7-7V581.4h0a.66.66,0,0,0,0-.21l8.75-5.08a.68.68,0,0,0,.19.17l1.25.73.23.13,1.18.68h0l2.55,9.62a.68.68,0,0,0,1.32-.35l-2.21-8.3,1.53.89.34.2,1.18.68,3.54,13.34a.68.68,0,1,0,1.32-.35l-3.19-12,3,1.77,2.55,9.62a.68.68,0,0,0,1.31-.35l-2.21-8.3,2,1.17,1,.6,1.57,5.89a.68.68,0,1,0,1.31-.35L145.77,587l6.45,3.74a.68.68,0,0,0,.93-.25A.67.67,0,0,0,153.13,589.79Zm-23.43-26.86h0Zm-39.74-9.11h0Zm27.79-16h0Zm0,18.26h0Zm0,46h0Zm.05-22.1L109,574.9l0-10.15,8.78-5.1,8.8,5.05,0,10.15Zm11.94-3.07h0Z"/><path class="cls-27" d="M141,555.51l2.17-8.31a.68.68,0,0,0-1.32-.34l-2.51,9.63Z"/><path class="cls-27" d="M146.88,548.17a.68.68,0,1,0-1.32-.34l-1.54,5.9,1.66-1Z"/><path class="cls-27" d="M85,99.8l-5.94-3.41a.66.66,0,0,0-.66,0l-5.93,3.44a.66.66,0,0,0-.33.57l0,6.85a.66.66,0,0,0,.33.57l5.94,3.41a.65.65,0,0,0,.33.09.67.67,0,0,0,.33-.09L85,107.79a.65.65,0,0,0,.33-.57l0-6.85A.66.66,0,0,0,85,99.8Zm-6.24,10.11-5.29-3v-6.09l5.27-3.06,5.29,3,0,6.09Z"/><path class="cls-27" d="M57,99.93l9.28-2.47-1.61-.93-8,2.13A.66.66,0,1,0,57,99.93Z"/><path class="cls-27" d="M46.93,91.06l5.69-1.51L51,88.61l-4.42,1.17a.66.66,0,1,0,.34,1.27Z"/><path class="cls-27" d="M55.36,81.76a.66.66,0,1,0-1.27.34l2.13,8,1.61.93Z"/><path class="cls-27" d="M63.65,86.57a.66.66,0,0,0-.47.8l2.13,8,1.61.93L64.45,87A.66.66,0,0,0,63.65,86.57Z"/><path class="cls-27" d="M112.9,123.1a.64.64,0,0,0-.22-.23l-6.22-3.61h0l4.42-1.18a.66.66,0,1,0-.34-1.27l-5.69,1.51-1.14-.66-1.53-.89-.28-.16-.72-.42-.42-.24-.14-.08,1.28.74,8-2.13a.66.66,0,1,0-.34-1.27l-9.28,2.47L99.16,115l-.41-.24L97.36,114,109,110.9a.66.66,0,0,0-.34-1.27l-12.87,3.42-.44-.26-2.43-1.41-.87-.51.8.47,8-2.13a.66.66,0,1,0-.34-1.27l-9.28,2.47-1.14-.66h0l-1.43-.83-.07,0,0-10,.07,0L90,98.07h0l.29-.17.84-.49h0l9.29,2.42a.66.66,0,0,0,.33-1.27l-8-2.09,2.93-1.72L108.6,98.1a.66.66,0,0,0,.33-1.27l-11.62-3,1.61-.94.19-.11.27-.16.86-.5,9.29,2.42a.66.66,0,1,0,.33-1.27l-8-2.09,1.8-1.05,1.13-.67,5.7,1.49a.66.66,0,1,0,.33-1.27l-4.43-1.15,6.2-3.64a.66.66,0,1,0-.66-1.13l-6.21,3.64-1.6.94-.43.25L103,89l-2.93,1.72-.62.36-2,1.14-.83.49,3-11.62a.66.66,0,1,0-1.27-.33L95,93.61l-1.13.67-1.8,1.05,2.09-8A.66.66,0,1,0,92.94,87l-2.42,9.29-1.13.66h0L88,97.77l0,0-8.55-4.91h0v-3h0l6.79-6.79a.66.66,0,0,0-.93-.93L79.39,88v-3.4l9.42-9.42a.66.66,0,0,0-.93-.93l-8.49,8.49v-3.4l6.79-6.79a.66.66,0,0,0-.93-.93l-5.86,5.86v-3.4h0L83.55,70a.66.66,0,0,0-.93-.93l-3.23,3.23V65.08h0a.66.66,0,0,0-.66-.66h0a.66.66,0,0,0-.66.66h0v7.19L74.84,69a.66.66,0,1,0-.93.93l4.16,4.16h0v3.4l-5.86-5.86a.66.66,0,1,0-.93.93l6.79,6.79v3.4l-8.49-8.49a.66.66,0,0,0-.93.93l9.42,9.42h0V88l-5.86-5.86a.66.66,0,0,0-.93.93l6.79,6.79h0v3h0l-8.56,5,0,0L68.05,97h0l-.91-.53-.23-.13h0l-1.61-.93-1.08-.63-.72-.42-1.61-.93h0l-.1-.06.59.34L59,80.81a.66.66,0,1,0-1.27.34l3.08,11.6-2-1.18-1.17-.68-1.35-.78-1.78-1h0l-1.14-.66-1.51-5.69a.66.66,0,1,0-1.27.34l1.18,4.42-6.22-3.61a.65.65,0,0,0-.79.11.63.63,0,0,0-.11.13.66.66,0,0,0,.24.9l7.36,4.27h0l.47.27,2.94,1.71-8,2.13a.66.66,0,1,0,.34,1.27l9.28-2.47,2.94,1.7h0L48.5,97a.66.66,0,0,0,.34,1.27l12.87-3.42.19.11,1,.55,1.07.62.74.43,1.61.93,2.57,1.49.12,0,0,9.94-.12,0-2.56,1.5L57,108a.66.66,0,0,0-.33,1.27l8,2.09h0l-.81.48-1,.58-1.13.67-12.89-3.36a.66.66,0,0,0-.33,1.27l11.62,3-1.67,1-1.26.74h0l-9.29-2.42a.66.66,0,0,0-.33,1.27l8,2.09-.63.37-2.3,1.35h0L47,117a.66.66,0,0,0-.33,1.27l4.43,1.15L44.88,123a.66.66,0,0,0,.66,1.13l6.21-3.64-1.15,4.42a.66.66,0,1,0,1.27.33l1.49-5.7h0l1-.59.12-.07,1.8-1.05-2.09,8a.66.66,0,1,0,1.27.33l2.42-9.29,1.87-1.09,1.06-.62-3,11.62a.66.66,0,1,0,1.27.33l3.36-12.89,1.13-.66,1.8-1.05-2.09,8a.66.66,0,0,0,1.27.33L67,111.6l1.13-.67,1.43-.84a.65.65,0,0,0,.2-.18l8.41,4.83a.65.65,0,0,0-.05.25h0v3l-6.79,6.79a.66.66,0,0,0,.93.93l5.86-5.86v3.4l-9.42,9.42a.66.66,0,0,0,.93.93l8.49-8.49v3.4l-6.79,6.79a.66.66,0,0,0,.93.93l5.86-5.86v3.4h0l-4.16,4.16a.66.66,0,1,0,.93.93l3.23-3.23v7.19h0a.66.66,0,0,0,.66.66h0a.66.66,0,0,0,.66-.66h0V135.6l3.23,3.23a.66.66,0,1,0,.93-.93l-4.16-4.16h0v-3.4l5.86,5.86a.66.66,0,1,0,.93-.93l-6.79-6.79v-3.4l8.49,8.49a.66.66,0,0,0,.93-.93l-9.42-9.42v-3.4l5.86,5.86a.66.66,0,0,0,.93-.93L79.39,118v-3h0a.64.64,0,0,0,0-.21l8.45-4.9a.65.65,0,0,0,.18.16l1.21.7.22.13,1.14.66h0L93,120.83a.66.66,0,0,0,1.27-.34l-2.13-8,1.47.85.33.19,1.14.66,3.42,12.87a.66.66,0,1,0,1.27-.34l-3.08-11.6,2.94,1.71,2.47,9.28a.66.66,0,0,0,1.27-.34l-2.13-8,1.94,1.13,1,.58,1.51,5.69a.66.66,0,1,0,1.27-.34l-1.17-4.42L112,124a.66.66,0,0,0,.9-.24A.65.65,0,0,0,112.9,123.1ZM90.28,97.17h0ZM51.91,88.38h0ZM78.73,72.93h0Zm0,17.63h0Zm0,44.39h0Zm0-21.33-8.5-4.88,0-9.8L78.74,94l8.5,4.88,0,9.8Zm11.53-3h0Z"/><path class="cls-27" d="M101.18,90l2.09-8a.66.66,0,0,0-1.27-.33l-2.42,9.29Z"/><path class="cls-27" d="M106.87,82.92a.66.66,0,1,0-1.27-.33l-1.49,5.7,1.6-.94Z"/><path class="cls-27" d="M711,365.82l-8.8-5.05a1,1,0,0,0-1,0l-8.77,5.09a1,1,0,0,0-.48.84l0,10.15a1,1,0,0,0,.49.84l8.8,5.05a1,1,0,0,0,.48.13,1,1,0,0,0,.49-.13l8.77-5.09a1,1,0,0,0,.48-.84l0-10.15A1,1,0,0,0,711,365.82Zm-9.24,15L694,376.28l0-9,7.8-4.53,7.82,4.49,0,9Z"/><path class="cls-27" d="M669.53,366l13.74-3.65L680.89,361,669,364.12a1,1,0,1,0,.5,1.88Z"/><path class="cls-27" d="M654.65,352.87l8.42-2.24-2.38-1.38L654.15,351a1,1,0,1,0,.5,1.88Z"/><path class="cls-27" d="M667.13,339.11a1,1,0,1,0-1.88.5l3.15,11.86,2.38,1.38Z"/><path class="cls-27" d="M679.4,346.23a1,1,0,0,0-.69,1.19l3.15,11.86,2.38,1.38-3.65-13.74A1,1,0,0,0,679.4,346.23Z"/><path class="cls-27" d="M752.32,400.3A1,1,0,0,0,752,400l-9.21-5.34h0l6.55-1.74a1,1,0,1,0-.5-1.88l-8.42,2.24-1.68-1L736.45,391l-.41-.24L735,390.1l-.62-.36-.21-.12,1.89,1.09,11.86-3.15a1,1,0,1,0-.5-1.88l-13.74,3.65-1.68-1-.6-.35-2.06-1.2,17.18-4.57a1,1,0,0,0-.5-1.88l-19.06,5.07-.65-.38-3.6-2.09-1.29-.75,1.19.69,11.86-3.15a1,1,0,1,0-.5-1.88l-13.74,3.65-1.68-1h0l-2.12-1.23-.11,0,0-14.76.11,0,2.11-1.24h0l.44-.26,1.24-.73h0l13.76,3.59a1,1,0,0,0,.49-1.88l-11.88-3.1,4.34-2.54,19.08,5a1,1,0,0,0,.49-1.88l-17.2-4.49,2.38-1.4.28-.16.41-.24,1.27-.75L747.34,358a1,1,0,1,0,.49-1.88L736,353l2.66-1.56,1.68-1,8.43,2.2a1,1,0,1,0,.49-1.88l-6.55-1.71,9.19-5.39a1,1,0,1,0-1-1.68l-9.19,5.39-2.37,1.39-.63.37-1,.61-4.34,2.54-.92.54-2.89,1.69-1.23.72,4.48-17.2a1,1,0,1,0-1.88-.49l-5,19.08-1.68,1-2.66,1.56,3.1-11.88a1,1,0,1,0-1.88-.49l-3.59,13.76-1.68,1h0l-2.11,1.24,0,0-12.65-7.26v0h0v-4.4h0l10.05-10.06a1,1,0,1,0-1.37-1.37l-8.68,8.68v-5l13.94-13.95a1,1,0,1,0-1.37-1.37l-12.57,12.57v-5l10.05-10.06a1,1,0,1,0-1.37-1.37l-8.68,8.68v-5h0l6.16-6.16a1,1,0,0,0-1.37-1.37l-4.79,4.79V314.41h0a1,1,0,0,0-1-1h0a1,1,0,0,0-1,1h0v10.65L696,320.27a1,1,0,0,0-1.37,1.37l6.16,6.16h0v5l-8.68-8.68a1,1,0,0,0-1.38,1.37l10.05,10.06v5L688.19,328a1,1,0,0,0-1.37,1.37l13.94,13.94h0v5l-8.68-8.68a1,1,0,0,0-1.38,1.37l10.05,10.06h0v4.4h0v0l-12.67,7.35-.06,0-2.12-1.23h0l-1.35-.78-.34-.19h0l-2.38-1.38-1.6-.93-1.07-.62-2.38-1.38,0,0-.14-.08.87.51-5.07-19.06a1,1,0,1,0-1.88.5l4.57,17.18-3-1.74-1.73-1-2-1.16-2.64-1.53,0,0-1.68-1-2.24-8.42a1,1,0,1,0-1.88.5l1.74,6.54-9.21-5.34a1,1,0,0,0-1.17.17.94.94,0,0,0-.16.19,1,1,0,0,0,.35,1.33l10.89,6.32h0l.7.4,4.35,2.52-11.86,3.15a1,1,0,1,0,.5,1.88l13.74-3.65,4.35,2.52h0L657,361.63a1,1,0,0,0,.5,1.88l19.06-5.07.27.16,1.41.82,1.58.92,1.09.63,2.38,1.38,3.8,2.21a.93.93,0,0,0,.18.06l0,14.71a.92.92,0,0,0-.18.06l-3.79,2.22L669.55,378a1,1,0,0,0-.49,1.88l11.88,3.1h0l-1.2.7-1.46.86-1.68,1-19.08-5a1,1,0,0,0-.49,1.88l17.2,4.49-2.48,1.45-1.86,1.09h0l-13.76-3.59a1,1,0,0,0-.49,1.88l11.88,3.1-.94.55-3.4,2h0l-8.43-2.2a1,1,0,0,0-.49,1.88l6.55,1.71-9.19,5.39a1,1,0,1,0,1,1.68l9.19-5.39L660.08,403a1,1,0,1,0,1.88.49l2.2-8.43h0l1.5-.88.18-.1,2.66-1.56-3.1,11.88a1,1,0,1,0,1.88.49l3.59-13.76,2.76-1.62,1.58-.92-4.48,17.2a1,1,0,1,0,1.88.49l5-19.08,1.68-1,2.66-1.56-3.1,11.88a1,1,0,0,0,1.88.49l3.59-13.76,1.68-1,2.11-1.24a1,1,0,0,0,.29-.27l12.46,7.15a1,1,0,0,0-.08.38h0v4.4l-10.05,10.05a1,1,0,0,0,1.38,1.38l8.68-8.68v5l-13.94,13.94a1,1,0,0,0,1.37,1.38l12.57-12.57v5l-10.05,10.06a1,1,0,0,0,1.38,1.37l8.68-8.68v5h0l-6.16,6.16A1,1,0,0,0,696,423.6l4.79-4.79v10.65h0a1,1,0,0,0,1,1h0a1,1,0,0,0,1-1h0V418.82l4.79,4.79a1,1,0,0,0,1.37-1.37l-6.16-6.16h0v-5l8.68,8.68a1,1,0,1,0,1.37-1.37l-10.05-10.06v-5l12.57,12.57a1,1,0,0,0,1.37-1.38L702.71,400.5v-5l8.68,8.68a1,1,0,1,0,1.37-1.38l-10.05-10.05v-4.4h0a.94.94,0,0,0-.06-.3l12.51-7.26a1,1,0,0,0,.27.24l1.79,1,.33.19,1.68,1h0l3.65,13.74a1,1,0,0,0,1.88-.5l-3.15-11.86,2.18,1.27.49.28,1.68,1L731,406.17a1,1,0,1,0,1.88-.5l-4.57-17.18,4.35,2.52,3.65,13.74a1,1,0,0,0,1.88-.5l-3.15-11.86,2.88,1.67,1.47.86,2.24,8.42a1,1,0,1,0,1.88-.5l-1.74-6.54,9.21,5.34a1,1,0,0,0,1.33-.35A1,1,0,0,0,752.32,400.3Zm-33.49-38.39h0Zm-56.8-13h0ZM701.73,326h0Zm0,26.09h0Zm0,65.72h0Zm.07-31.58L689.23,379l0-14.5,12.54-7.28,12.58,7.22,0,14.5Zm17.07-4.38h0Z"/><path class="cls-27" d="M735,351.32l3.1-11.88a1,1,0,0,0-1.88-.49l-3.59,13.76Z"/><path class="cls-27" d="M743.39,340.83a1,1,0,1,0-1.88-.49l-2.2,8.43,2.37-1.39Z"/><path class="cls-27" d="M487,273.11,483,270.79a.45.45,0,0,0-.45,0l-4,2.35a.45.45,0,0,0-.22.39l0,4.67a.45.45,0,0,0,.23.39l4.06,2.32a.45.45,0,0,0,.22.06.45.45,0,0,0,.22-.06l4-2.35a.45.45,0,0,0,.22-.39l0-4.67A.45.45,0,0,0,487,273.11Zm-4.24,6.9-3.61-2.06,0-4.15,3.59-2.09,3.61,2.06,0,4.15Z"/><path class="cls-27" d="M467.9,273.23l6.32-1.69-1.1-.63-5.46,1.46a.45.45,0,1,0,.23.87Z"/><path class="cls-27" d="M461,267.2l3.88-1-1.1-.63-3,.81a.45.45,0,1,0,.23.87Z"/><path class="cls-27" d="M466.77,260.85a.45.45,0,1,0-.87.23l1.46,5.46,1.1.63Z"/><path class="cls-27" d="M472.43,264.12a.45.45,0,0,0-.32.55l1.46,5.46,1.1.63L473,264.44A.45.45,0,0,0,472.43,264.12Z"/><path class="cls-27" d="M506,289a.44.44,0,0,0-.15-.16l-4.25-2.45h0l3-.81a.45.45,0,1,0-.23-.86l-3.88,1-.78-.45-1-.6-.19-.11-.49-.28-.28-.16-.1-.06.87.5,5.46-1.46a.45.45,0,1,0-.23-.87l-6.32,1.69-.78-.45-.28-.16-1-.55,7.91-2.12a.45.45,0,0,0-.23-.87l-8.77,2.35L494,282l-1.66-1-.6-.34.55.32,5.46-1.46a.45.45,0,1,0-.23-.87l-6.32,1.69-.78-.45h0l-1-.56,0,0,0-6.8,0,0,1-.57h0l.2-.12.57-.34h0l6.34,1.64a.45.45,0,0,0,.22-.87l-5.47-1.41,2-1.18,8.79,2.27a.45.45,0,0,0,.22-.87l-7.92-2,1.09-.64.13-.08.19-.11.59-.34,6.34,1.64a.45.45,0,1,0,.22-.87l-5.47-1.42,1.22-.72.77-.45,3.88,1a.45.45,0,1,0,.22-.87l-3-.78,4.22-2.49a.45.45,0,1,0-.45-.77l-4.23,2.49-1.09.64-.29.17-.48.28-2,1.18-.42.25-1.33.78-.57.33,2-7.92a.45.45,0,1,0-.87-.22l-2.27,8.79-.77.45-1.22.72,1.42-5.47a.45.45,0,1,0-.87-.22l-1.64,6.34-.77.45h0l-1,.57h0l-5.83-3.33h0v-2h0l4.62-4.64a.45.45,0,0,0-.63-.63l-4,4v-2.32l6.41-6.43a.45.45,0,1,0-.63-.63l-5.78,5.8V259.2l4.62-4.64a.45.45,0,0,0-.63-.63l-4,4v-2.32h0l2.83-2.84a.45.45,0,1,0-.63-.63l-2.2,2.21v-4.9h0a.45.45,0,0,0-.45-.45h0a.45.45,0,0,0-.45.45h0v4.9l-2.21-2.2a.45.45,0,1,0-.63.63l2.84,2.83h0v2.32l-4-4a.45.45,0,1,0-.63.63l4.64,4.62v2.32l-5.8-5.78a.45.45,0,1,0-.63.63l6.43,6.41h0v2.32l-4-4a.45.45,0,1,0-.63.63l4.64,4.62h0v2h0l-5.82,3.4,0,0-1-.56h0l-.62-.36-.15-.09h0l-1.1-.63-.74-.42-.49-.29-1.1-.63h0l-.07,0,.4.23-2.35-8.77a.45.45,0,1,0-.87.23l2.12,7.91-1.39-.8-.8-.46-.92-.53-1.22-.7h0l-.78-.45-1-3.88a.45.45,0,1,0-.87.23l.81,3L460,262.3a.44.44,0,0,0-.54.08.43.43,0,0,0-.08.09.45.45,0,0,0,.16.61l5,2.9h0l.32.19,2,1.16-5.46,1.46a.45.45,0,1,0,.23.87L468,268l2,1.16h0l-7.91,2.12a.45.45,0,0,0,.23.87l8.77-2.35.13.07.65.37.73.42.5.29,1.1.63,1.75,1,.08,0,0,6.77-.08,0-1.74,1-6.34-1.64a.45.45,0,0,0-.22.87l5.47,1.42h0l-.55.32-.67.4-.77.45L462.38,280a.45.45,0,0,0-.22.87l7.92,2-1.14.67-.86.5h0l-6.34-1.64a.45.45,0,0,0-.22.87l5.47,1.42-.43.25-1.56.92h0l-3.89-1a.45.45,0,0,0-.22.87l3,.78L459.68,289a.45.45,0,0,0,.45.77l4.23-2.49-.78,3a.45.45,0,1,0,.87.22l1-3.88h0l.69-.41.08,0,1.22-.72L466,290.93a.45.45,0,1,0,.87.22l1.64-6.34,1.27-.75.72-.43-2,7.92a.45.45,0,1,0,.87.22l2.27-8.79.77-.45,1.22-.72-1.41,5.47a.45.45,0,0,0,.87.22l1.64-6.34.77-.45,1-.57a.44.44,0,0,0,.14-.12l5.74,3.28a.45.45,0,0,0,0,.17h0v2l-4.62,4.64a.45.45,0,1,0,.63.63l4-4v2.32l-6.41,6.43a.45.45,0,1,0,.63.63l5.78-5.8v2.32l-4.62,4.64a.45.45,0,0,0,.63.63l4-4v2.32h0l-2.83,2.84a.45.45,0,0,0,.63.63l2.2-2.21v4.9h0a.45.45,0,0,0,.45.45h0a.45.45,0,0,0,.45-.45h0v-4.9l2.21,2.2a.45.45,0,1,0,.63-.63l-2.84-2.83h0v-2.32l4,4a.45.45,0,1,0,.63-.63l-4.64-4.62v-2.32l5.8,5.78a.45.45,0,1,0,.63-.63l-6.43-6.41v-2.32l4,4a.45.45,0,1,0,.63-.63l-4.64-4.62v-2h0a.43.43,0,0,0,0-.14l5.75-3.35a.45.45,0,0,0,.13.11l.82.48.15.09.78.45h0l1.69,6.32a.45.45,0,0,0,.87-.23l-1.46-5.46,1,.58.22.13.78.45,2.35,8.77a.45.45,0,1,0,.87-.23L495,283.53l2,1.16,1.69,6.32a.45.45,0,0,0,.86-.23l-1.46-5.46,1.33.77.68.39,1,3.88a.45.45,0,1,0,.86-.23l-.81-3,4.25,2.45a.45.45,0,0,0,.61-.16A.44.44,0,0,0,506,289Zm-15.45-17.65h0Zm-26.16-5.94h0Zm18.26-10.57h0Zm0,12h0Zm.06,30.26h0Zm0-14.54-5.8-3.31,0-6.68,5.77-3.36,5.8,3.31,0,6.68Zm7.85-2h0Z"/><path class="cls-27" d="M498,266.41l1.42-5.47a.45.45,0,0,0-.87-.22l-1.64,6.34Z"/><path class="cls-27" d="M501.88,261.58a.45.45,0,1,0-.87-.22l-1,3.89,1.09-.64Z"/><path class="cls-27" d="M748,241.11,744,238.79a.45.45,0,0,0-.45,0l-4,2.35a.45.45,0,0,0-.22.39l0,4.67a.45.45,0,0,0,.23.39l4.06,2.32a.45.45,0,0,0,.22.06.45.45,0,0,0,.22-.06l4-2.35a.45.45,0,0,0,.22-.39l0-4.67A.45.45,0,0,0,748,241.11Zm-4.24,6.9-3.61-2.06,0-4.15,3.59-2.09,3.61,2.06,0,4.15Z"/><path class="cls-27" d="M728.9,241.23l6.32-1.69-1.1-.63-5.46,1.46a.45.45,0,1,0,.23.87Z"/><path class="cls-27" d="M722,235.2l3.88-1-1.1-.63-3,.81a.45.45,0,1,0,.23.87Z"/><path class="cls-27" d="M727.77,228.85a.45.45,0,1,0-.87.23l1.46,5.46,1.1.63Z"/><path class="cls-27" d="M733.43,232.12a.45.45,0,0,0-.32.55l1.46,5.46,1.1.63L734,232.44A.45.45,0,0,0,733.43,232.12Z"/><path class="cls-27" d="M767,257a.44.44,0,0,0-.15-.16l-4.25-2.45h0l3-.81a.45.45,0,1,0-.23-.86l-3.88,1-.78-.45-1-.6-.19-.11-.49-.28-.28-.16-.1-.06.87.5,5.46-1.46a.45.45,0,1,0-.23-.87l-6.32,1.69-.78-.45-.28-.16-1-.55,7.91-2.12a.45.45,0,0,0-.23-.87l-8.77,2.35L755,250l-1.66-1-.6-.34.55.32,5.46-1.46a.45.45,0,1,0-.23-.87l-6.32,1.69-.78-.45h0l-1-.56,0,0,0-6.8,0,0,1-.57h0l.2-.12.57-.34h0l6.34,1.64a.45.45,0,0,0,.22-.87l-5.47-1.41,2-1.18,8.79,2.27a.45.45,0,0,0,.22-.87l-7.92-2,1.09-.64.13-.08.19-.11.59-.34,6.34,1.64a.45.45,0,1,0,.22-.87l-5.47-1.42,1.22-.72.77-.45,3.88,1a.45.45,0,1,0,.22-.87l-3-.78,4.22-2.49a.45.45,0,1,0-.45-.77l-4.23,2.49-1.09.64-.29.17-.48.28-2,1.18-.42.25-1.33.78-.57.33,2-7.92a.45.45,0,1,0-.87-.22l-2.27,8.79-.77.45-1.22.72,1.42-5.47a.45.45,0,1,0-.87-.22l-1.64,6.34-.77.45h0l-1,.57h0l-5.83-3.33h0v-2h0l4.62-4.64a.45.45,0,0,0-.63-.63l-4,4v-2.32l6.41-6.43a.45.45,0,1,0-.63-.63l-5.78,5.8V227.2l4.62-4.64a.45.45,0,0,0-.63-.63l-4,4v-2.32h0l2.83-2.84a.45.45,0,1,0-.63-.63l-2.2,2.21v-4.9h0a.45.45,0,0,0-.45-.45h0a.45.45,0,0,0-.45.45h0v4.9l-2.21-2.2a.45.45,0,1,0-.63.63l2.84,2.83h0v2.32l-4-4a.45.45,0,1,0-.63.63l4.64,4.62v2.32l-5.8-5.78a.45.45,0,1,0-.63.63l6.43,6.41h0v2.32l-4-4a.45.45,0,1,0-.63.63l4.64,4.62h0v2h0l-5.82,3.4,0,0-1-.56h0l-.62-.36-.15-.09h0l-1.1-.63-.74-.42-.49-.29-1.1-.63h0l-.07,0,.4.23-2.35-8.77a.45.45,0,1,0-.87.23l2.12,7.91-1.39-.8-.8-.46-.92-.53-1.22-.7h0l-.78-.45-1-3.88a.45.45,0,1,0-.87.23l.81,3L721,230.3a.44.44,0,0,0-.54.08.43.43,0,0,0-.08.09.45.45,0,0,0,.16.61l5,2.9h0l.32.19,2,1.16-5.46,1.46a.45.45,0,1,0,.23.87L729,236l2,1.16h0l-7.91,2.12a.45.45,0,0,0,.23.87l8.77-2.35.13.07.65.37.73.42.5.29,1.1.63,1.75,1,.08,0,0,6.77-.08,0-1.74,1-6.34-1.64a.45.45,0,0,0-.22.87l5.47,1.42h0l-.55.32-.67.4-.77.45L723.38,248a.45.45,0,0,0-.22.87l7.92,2-1.14.67-.86.5h0l-6.34-1.64a.45.45,0,0,0-.22.87l5.47,1.42-.43.25-1.56.92h0l-3.89-1a.45.45,0,0,0-.22.87l3,.78L720.68,257a.45.45,0,1,0,.45.77l4.23-2.49-.78,3a.45.45,0,1,0,.87.22l1-3.88h0l.69-.41.08,0,1.22-.72L727,258.93a.45.45,0,1,0,.87.22l1.64-6.34,1.27-.75.72-.43-2,7.92a.45.45,0,1,0,.87.22l2.27-8.79.77-.45,1.22-.72-1.41,5.47a.45.45,0,0,0,.87.22l1.64-6.34.77-.45,1-.57a.44.44,0,0,0,.14-.12l5.74,3.28a.45.45,0,0,0,0,.17h0v2l-4.62,4.64a.45.45,0,1,0,.63.63l4-4v2.32l-6.41,6.43a.45.45,0,1,0,.63.63l5.78-5.8v2.32l-4.62,4.64a.45.45,0,0,0,.63.63l4-4v2.32h0l-2.83,2.84a.45.45,0,0,0,.63.63l2.2-2.21v4.9h0a.45.45,0,0,0,.45.45h0a.45.45,0,0,0,.45-.45h0v-4.9l2.21,2.2a.45.45,0,1,0,.63-.63l-2.84-2.83h0v-2.32l4,4a.45.45,0,1,0,.63-.63l-4.64-4.62v-2.32l5.8,5.78a.45.45,0,1,0,.63-.63l-6.43-6.41v-2.32l4,4a.45.45,0,1,0,.63-.63l-4.64-4.62v-2h0a.43.43,0,0,0,0-.14l5.75-3.35a.45.45,0,0,0,.13.11l.82.48.15.09.78.45h0l1.69,6.32a.45.45,0,0,0,.87-.23l-1.46-5.46,1,.58.22.13.78.45,2.35,8.77a.45.45,0,1,0,.87-.23L756,251.53l2,1.16,1.69,6.32a.45.45,0,0,0,.86-.23l-1.46-5.46,1.33.77.68.39,1,3.88a.45.45,0,1,0,.86-.23l-.81-3,4.25,2.45a.45.45,0,0,0,.61-.16A.44.44,0,0,0,767,257Zm-15.45-17.65h0Zm-26.16-5.94h0Zm18.26-10.57h0Zm0,12h0Zm.06,30.26h0Zm0-14.54-5.8-3.31,0-6.68,5.77-3.36,5.8,3.31,0,6.68Zm7.85-2h0Z"/><path class="cls-27" d="M759,234.41l1.42-5.47a.45.45,0,0,0-.87-.22l-1.64,6.34Z"/><path class="cls-27" d="M762.88,229.58a.45.45,0,1,0-.87-.22l-1,3.89,1.09-.64Z"/></g></g></svg>