<svg xmlns="http://www.w3.org/2000/svg" viewBox="0 0 801 800"><defs><style>.cls-1{fill:#fc586e;stroke:#000;stroke-miterlimit:10;}.cls-2{font-size:64px;fill:#16d880;font-family:FuturaPT-Bold, Futura PT;font-weight:700;}.cls-3{fill:#bebfc2;}.cls-4{fill:#cbcdd0;}.cls-5{fill:#e5e5e5;}.cls-6{fill:#f2f2f4;}.cls-7{fill:#e0e1e2;}.cls-8{fill:#edefef;}.cls-9{fill:#e7e7ec;}.cls-10{fill:#f5f4f2;}.cls-11{fill:#eaeaea;}.cls-12{fill:#ddd;}.cls-13{fill:#f4f4f4;}.cls-14{fill:#dadce0;}.cls-15{fill:#c6c8ce;}.cls-16{fill:#d9d9db;}.cls-17{fill:#afafb2;}.cls-18{fill:#e2e2e2;}.cls-19{fill:#ededed;}.cls-20{fill:#ccced1;}.cls-21{fill:#e3e3e5;}.cls-22{fill:#f2f2f2;}.cls-23{fill:#f5f5f7;}.cls-24{fill:#dce1e2;}.cls-25{fill:#efefef;}.cls-26{fill:#f9604b;}.cls-27{fill:#fd7257;}.cls-28{fill:#ff7f6e;}.cls-29{fill:#f96450;}.cls-30{fill:#fc7c6b;}.cls-31{fill:#060403;}</style></defs><title>Asset 18</title><g id="Layer_2" data-name="Layer 2"><g id="Layer_1-2" data-name="Layer 1"><rect class="cls-1" x="0.5" y="0.5" width="800" height="799"/><text class="cls-2" transform="translate(255.85 726.43)">Snowman</text><polygon class="cls-3" points="521.1 263.43 504.6 194.84 505.19 285.8 521.1 263.43"/><polygon class="cls-4" points="504.6 194.84 436 107 505.19 285.8 504.6 194.84"/><polygon class="cls-5" points="498.67 474.87 571.94 515.11 567.47 561.68 445.36 598.32 498.67 474.87"/><polygon class="cls-6" points="234 558 307.06 371.52 252.71 341.79 234 558"/><polygon class="cls-7" points="255.14 397.9 234 558 252.71 341.79 255.14 397.9"/><polygon class="cls-8" points="241.32 357.8 255.14 397.9 252.71 341.79 241.32 357.8"/><polygon class="cls-9" points="252.71 341.79 241.32 357.8 266.3 276.21 252.71 341.79"/><polygon class="cls-10" points="307.06 371.52 337.47 301.19 291 323 252.71 341.79 307.06 371.52"/><polygon class="cls-11" points="337.47 301.19 306.57 274.69 291 323 337.47 301.19"/><polygon class="cls-8" points="306.57 274.69 300.2 237 266.3 276.21 306.57 274.69"/><polygon class="cls-12" points="337.47 301.19 300.2 237 306.57 274.69 337.47 301.19"/><polygon class="cls-13" points="252.71 341.79 291 323 306.57 274.69 266.3 276.21 252.71 341.79"/><polygon class="cls-14" points="307.06 371.52 341.11 395.72 328.8 601.16 234 558 307.06 371.52"/><polygon class="cls-15" points="341.11 395.72 356.23 391.4 356.55 601.38 328.8 601.16 341.11 395.72"/><polygon class="cls-16" points="337.47 301.19 354.14 347.71 356.23 391.4 341.11 395.72 307.06 371.52 337.47 301.19"/><polygon class="cls-9" points="436 107 390.06 231.7 505.19 285.8 436 107"/><polygon class="cls-17" points="505.19 285.8 521.1 263.43 497.59 374.62 505.19 285.8"/><polygon class="cls-18" points="390.06 231.7 337.47 301.19 505.19 285.8 390.06 231.7"/><polygon class="cls-19" points="337.47 301.19 390.75 366.95 505.4 285.21 337.47 301.19"/><polygon class="cls-3" points="390.75 366.95 384.22 390.2 497.59 374.62 390.75 366.95"/><polygon class="cls-20" points="505.4 285.21 390.74 366.19 390.75 366.95 497.59 374.62 505.4 285.21"/><polygon class="cls-21" points="390.06 231.7 342.51 197.89 363.89 120.45 436 107 390.06 231.7"/><polygon class="cls-22" points="342.51 197.89 309.1 204.23 317.65 138.1 363.89 120.45 342.51 197.89"/><polygon class="cls-23" points="337.47 301.19 300.2 237 309.1 204.23 342.51 197.89 390.06 231.7 337.47 301.19"/><polygon class="cls-9" points="407.49 593.41 422.63 450.67 384.22 390.2 407.49 593.41"/><polygon class="cls-4" points="382.89 601.17 407.49 593.41 384.22 390.2 382.89 601.17"/><polygon class="cls-8" points="356.55 601.38 382.89 601.17 384.22 390.2 356.55 601.38"/><polygon class="cls-9" points="356.23 391.4 356.55 601.38 384.22 390.2 354.14 347.71 356.23 391.4"/><polygon class="cls-24" points="354.14 347.71 384.22 390.2 390.74 366.19 337.47 301.19 354.14 347.71"/><polygon class="cls-4" points="422.63 450.67 497.59 374.62 384.22 390.2 422.63 450.67"/><polygon class="cls-25" points="422.63 450.67 498.67 474.87 445.36 598.32 407.49 593.41 422.63 450.67"/><polygon class="cls-18" points="497.59 374.62 569.84 471.42 571.94 515.11 498.67 474.87 422.63 450.67 497.59 374.62"/><line class="cls-9" x1="506.98" y1="222.72" x2="485.8" y2="208.45"/><polygon class="cls-26" points="590.14 306 504.95 265.74 510.74 281.65 590.14 306"/><polygon class="cls-27" points="504.95 265.74 485.67 236 510.74 281.65 504.95 265.74"/><polygon class="cls-28" points="485.67 236 449.36 240.65 510.94 281.82 485.67 236"/><polygon class="cls-26" points="449.36 240.65 435.94 233.6 436.98 252.8 449.36 240.65"/><polygon class="cls-27" points="510.94 281.82 449.67 240.78 449.36 240.65 436.98 252.8 510.94 281.82"/><polygon class="cls-27" points="504.95 265.74 527.15 256.93 606 304.4 590.14 306 504.95 265.74"/><polygon class="cls-29" points="527.15 256.93 569.64 261.5 598.07 280.01 606 304.4 527.15 256.93"/><polygon class="cls-30" points="485.67 236 518.53 236.15 569.64 261.5 527.15 256.93 504.95 265.74 485.67 236"/><polygon class="cls-30" points="463.67 232.6 435.94 233.6 449.67 240.78 485.67 236 463.67 232.6"/><circle class="cls-31" cx="377.5" cy="213.5" r="9.5"/><circle class="cls-31" cx="480.5" cy="203.5" r="9.5"/></g></g></svg>