<svg xmlns="http://www.w3.org/2000/svg" viewBox="0 0 801 800"><defs><style>.cls-1{fill:#a8fef0;stroke:#000;stroke-miterlimit:10;}.cls-2{font-size:64px;fill:#fba998;font-family:FuturaPT-Bold, Futura PT;font-weight:700;}.cls-3{letter-spacing:-0.04em;}.cls-4,.cls-5,.cls-6,.cls-7{fill:#16d880;}.cls-4{opacity:0.6;}.cls-5{opacity:0.4;}.cls-6{opacity:0.5;}.cls-7{opacity:0.7;}.cls-8{fill:#3bf296;opacity:0.53;}</style></defs><title>Asset 16</title><g id="Layer_2" data-name="Layer 2"><g id="Layer_1-2" data-name="Layer 1"><rect class="cls-1" x="0.5" y="0.5" width="800" height="799"/><text class="cls-2" transform="translate(279.89 726.43)"><tspan class="cls-3">W</tspan><tspan x="62.46" y="0">ater</tspan></text><polygon class="cls-4" points="542 312 444 312 568 417 542 312"/><polygon class="cls-5" points="542 312 348.22 66.95 444 312 542 312"/><polygon class="cls-6" points="444 312 360.28 390.78 568 417 444 312"/><polygon class="cls-4" points="360.28 390.78 330 571 568 417 360.28 390.78"/><polygon class="cls-7" points="568 417 330 571 534 495 568 417"/><polygon class="cls-6" points="534 495 330 571 475.43 533.83 534 495"/><polygon class="cls-8" points="222 391 330 571 360.56 391.12 222 391"/><polygon class="cls-4" points="360.28 390.78 304 290 330 213 348 67 444 312 360.28 390.78"/><polygon class="cls-6" points="360.56 391.12 222 391 222 391 256 341 304 290 360.56 391.12"/><polyline class="cls-4" points="222 391 330 571 271.65 528.11 222 391"/><polygon class="cls-5" points="330 213 444 312 361 391 330 213"/></g></g></svg>