<svg xmlns="http://www.w3.org/2000/svg" viewBox="0 0 801.14 692.54"><defs><style>.cls-1{fill:#f9f9f9;}.cls-2{fill:#f2f2f4;}.cls-3{fill:#fcfcfc;}.cls-4{fill:#5262ff;}.cls-5{fill:#5d6ff9;}.cls-6{fill:#2d59e8;}.cls-7{fill:#6376fc;}.cls-8{fill:#060403;}.cls-9{fill:#9e9c9b;}.cls-10{fill:#3f61ef;}.cls-11,.cls-12,.cls-13,.cls-14{fill:#16d880;}.cls-11{opacity:0.6;}.cls-12{opacity:0.4;}.cls-13{opacity:0.5;}.cls-14{opacity:0.7;}.cls-15{fill:#3bf296;opacity:0.53;}</style></defs><title>Asset 19</title><g id="Layer_2" data-name="Layer 2"><g id="Layer_1-2" data-name="Layer 1"><polygon class="cls-1" points="237.25 56.54 287.77 153.68 347.1 116.32 237.25 56.54"/><polygon class="cls-2" points="182.89 48.59 287.77 153.68 237.25 56.54 182.89 48.59"/><polygon class="cls-2" points="347.38 116.29 287.77 153.68 402.12 277.18 347.38 116.29"/><polygon class="cls-3" points="466.93 263.9 347.38 116.29 402.12 277.18 466.93 263.9"/><polygon class="cls-2" points="556.1 335.53 466.93 263.9 402.12 277.18 556.1 335.53"/><polygon class="cls-4" points="237.25 56.54 347.38 116.29 397.36 100.98 237.25 56.54"/><polygon class="cls-5" points="275.34 20.27 237.25 56.54 397.36 100.98 275.34 20.27"/><polygon class="cls-4" points="257.66 0 181 24.57 275.34 20.27 257.66 0"/><polygon class="cls-6" points="275.34 20.27 181 24.57 222.02 37.15 275.34 20.27"/><polygon class="cls-6" points="287.77 153.68 255.5 121.47 293.08 206.71 287.77 153.68"/><polygon class="cls-5" points="331.25 201.04 306.3 173.14 326.31 267.05 331.25 201.04"/><polygon class="cls-6" points="306.3 173.14 299.86 166.37 326.31 267.05 306.3 173.14"/><polygon class="cls-7" points="275.34 20.27 222.02 37.15 237.25 56.54 275.34 20.27"/><polygon class="cls-4" points="237.25 56.54 222.02 37.15 182.08 47.74 237.25 56.54"/><polygon class="cls-4" points="222.02 37.15 181 24.57 202.88 42.47 222.02 37.15"/><polygon class="cls-8" points="202.88 42.47 181 24.57 173.42 30.17 202.88 42.47"/><polygon class="cls-9" points="202.88 42.47 173.42 30.17 182.08 47.74 202.88 42.47"/><polygon class="cls-4" points="416.91 79.14 275.34 20.27 397.36 100.98 416.91 79.14"/><polygon class="cls-6" points="257.66 0 275.34 20.27 416.91 79.14 257.66 0"/><polygon class="cls-5" points="518.12 199.02 416.91 79.14 397.36 100.98 518.12 199.02"/><polygon class="cls-10" points="476.34 150.05 518.27 92.38 416.91 79.14 476.34 150.05"/><polygon class="cls-10" points="556.1 335.53 518.12 199.02 466.93 263.9 556.1 335.53"/><polygon class="cls-10" points="712.65 423.7 650.6 358.52 599.14 333.28 712.65 423.7"/><path class="cls-4" d="M713.46,424.55l-70-40.83A15.88,15.88,0,0,1,639,380l-39.09-45.83Z"/><polygon class="cls-5" points="626.58 360.41 518.12 199.02 556.1 335.53 626.58 360.41"/><polygon class="cls-10" points="484.15 202.32 518.12 199.02 397.36 100.98 484.15 202.32"/><polygon class="cls-4" points="484.15 202.32 518.12 199.02 466.93 263.9 484.15 202.32"/><polygon class="cls-5" points="466.93 263.9 484.15 202.32 397.36 100.98 466.93 263.9"/><polygon class="cls-7" points="347.38 116.29 466.93 263.9 397.36 100.98 347.38 116.29"/><polygon class="cls-11" points="801.14 279.54 559.95 334.04 801.14 578.54 801.14 279.54"/><polygon class="cls-12" points="801.14 279.54 367.38 156.54 559.95 334.04 801.14 279.54"/><polygon class="cls-12" points="300.4 193.38 131.27 191.71 251.84 300.55 300.4 193.38"/><polygon class="cls-13" points="560.38 333.55 1.14 692.54 580.14 692.54 801.14 578.54 560.38 333.55"/><polygon class="cls-11" points="297.14 619.54 498.14 619.54 801.14 578.54 297.14 619.54"/><polygon class="cls-14" points="801.14 578.54 498.14 619.54 801.14 692.54 801.14 578.54"/><polygon class="cls-11" points="801.14 692.54 498.14 619.54 580.14 692.54 801.14 692.54"/><polygon class="cls-15" points="0.48 270.09 498.14 619.54 297.14 619.54 0.48 270.09"/><polygon class="cls-15" points="0.48 270.09 1.14 692.54 93.82 371.13 0.48 270.09"/><polygon class="cls-11" points="2.14 531.54 1.14 692.54 0 269.64 2.14 531.54"/><polygon class="cls-11" points="297.14 619.54 252.02 300 301.06 193.77 367.38 156.54 560.38 333.55 297.14 619.54"/><polygon class="cls-13" points="297.14 619.54 0.48 270.09 0.48 270.09 131.88 191.39 251.84 300.55 297.14 619.54"/><polyline class="cls-11" points="93.82 371.13 297.14 619.54 1.14 692.54 93.82 371.13"/></g></g></svg>