<svg xmlns="http://www.w3.org/2000/svg" viewBox="0 0 191.39 445.18"><defs><style>.cls-1{fill:#f96450;}.cls-2{fill:#ff7f6e;}.cls-3{fill:#e7e7ec;}.cls-4{fill:#fc7c6b;}.cls-5{fill:#fd7257;}.cls-6{fill:#f9604b;}.cls-7{fill:#1fbf73;}.cls-8{fill:#23b561;}.cls-9{fill:#16934e;}</style></defs><title>carrot</title><g id="Layer_2" data-name="Layer 2"><g id="Layer_1-2" data-name="Layer 1"><polygon class="cls-1" points="160.64 129.87 120.15 191.73 137.33 229.5 160.64 129.87"/><polygon class="cls-2" points="180.71 130.91 160.64 129.87 137.33 229.5 180.71 130.91"/><line class="cls-3" x1="115.13" y1="266.31" x2="133.26" y2="228.81"/><polygon class="cls-4" points="120.15 191.73 88.74 235 137.33 229.5 120.15 191.73"/><polygon class="cls-1" points="88.74 235 100.4 260.16 120.2 232.01 88.74 235"/><polygon class="cls-2" points="100.4 260.16 96.14 288.09 115.13 266.31 100.4 260.16"/><polygon class="cls-1" points="88.74 235 96.14 288.09 100.4 260.16 88.74 235"/><polygon class="cls-4" points="137.22 229.41 120.2 232.01 100.4 260.16 115.13 266.31 137.22 229.41"/><polygon class="cls-5" points="120.15 191.73 106.28 167.53 141.61 108.76 160.64 129.87 120.15 191.73"/><polygon class="cls-4" points="106.28 167.53 97 167.41 124.42 102.09 141.61 108.76 106.28 167.53"/><polygon class="cls-5" points="88.74 235 89.12 198.69 97 167.41 106.28 167.53 120.15 191.73 88.74 235"/><polygon class="cls-6" points="0 419.94 45.21 273.03 20.86 286.08 0 419.94"/><polygon class="cls-5" points="45.21 273.03 88.74 235 20.86 286.08 45.21 273.03"/><polygon class="cls-2" points="88.74 235 72.8 177.45 20.63 286.45 88.74 235"/><polygon class="cls-6" points="72.8 177.45 81.06 154.14 50.3 160.28 72.8 177.45"/><polygon class="cls-5" points="20.63 286.45 72.65 177.98 72.8 177.45 50.3 160.28 20.63 286.45"/><polygon class="cls-5" points="45.21 273.03 64.58 306.84 6.26 445.18 0 419.94 45.21 273.03"/><polygon class="cls-1" points="64.58 306.84 67.09 376.5 43.81 426.71 6.26 445.18 64.58 306.84"/><polygon class="cls-4" points="88.74 235 96.14 288.09 67.09 376.5 64.58 306.84 45.21 273.03 88.74 235"/><polygon class="cls-2" points="106.38 85.71 99.42 70.36 81.06 154.14 106.38 85.71"/><polygon class="cls-1" points="72.42 111.34 99.98 70.03 81.06 154.14 72.42 111.34"/><polygon class="cls-5" points="124.42 102.09 106.38 85.71 81.06 154.14 124.42 102.09"/><polygon class="cls-1" points="97 167.41 124.42 102.09 81.06 154.14 89.12 198.69 97 167.41"/><polygon class="cls-4" points="89.12 198.69 81.06 154.14 72.65 177.98 88.74 235 89.12 198.69"/><polygon class="cls-2" points="72.42 111.34 50.3 160.28 81.06 154.14 72.42 111.34"/><polygon class="cls-5" points="99.98 70.03 72.27 112.33 50.73 160.63 52.69 74.95 99.98 70.03"/><polygon class="cls-7" points="191.39 21.27 163.68 63.57 130.28 110.06 132.24 24.38 191.39 21.27"/><polygon class="cls-8" points="130.54 0 132.38 50.53 131.98 107.78 84.06 36.71 130.54 0"/><polygon class="cls-9" points="104.99 0.12 119.67 48.51 133.9 103.96 69.43 47.49 104.99 0.12"/></g></g></svg>