<svg xmlns="http://www.w3.org/2000/svg" viewBox="0 0 729.05 444.62"><defs><style>.cls-1{fill:#bebfc2;}.cls-2{fill:#cbcdd0;}.cls-3{fill:#e5e5e5;}.cls-4{fill:#f2f2f4;}.cls-5{fill:#e0e1e2;}.cls-6{fill:#edefef;}.cls-7{fill:#e7e7ec;}.cls-8{fill:#f5f4f2;}.cls-9{fill:#eaeaea;}.cls-10{fill:#ddd;}.cls-11{fill:#f4f4f4;}.cls-12{fill:#dadce0;}.cls-13{fill:#c6c8ce;}.cls-14{fill:#d9d9db;}.cls-15{fill:#afafb2;}.cls-16{fill:#e2e2e2;}.cls-17{fill:#ededed;}.cls-18{fill:#ccced1;}.cls-19{fill:#e3e3e5;}.cls-20{fill:#f2f2f2;}.cls-21{fill:#f5f5f7;}.cls-22{fill:#dce1e2;}.cls-23{fill:#efefef;}.cls-24{fill:#9a9ba1;}</style></defs><title>cloud</title><g id="Layer_2" data-name="Layer 2"><g id="Layer_1-2" data-name="Layer 1"><polygon class="cls-1" points="568.88 280.86 639.26 276.01 549.47 261.44 568.88 280.86"/><polygon class="cls-2" points="639.26 276.01 699.93 246.88 549.47 261.44 639.26 276.01"/><polygon class="cls-3" points="364.12 223.53 364.12 246.11 318.95 233.95 312 199.2 364.12 223.53"/><polygon class="cls-4" points="430.14 58.48 490.95 93.22 537.86 48.05 430.14 58.48"/><polygon class="cls-5" points="473.57 37.63 430.14 58.48 537.86 48.05 473.57 37.63"/><polygon class="cls-6" points="523.96 34.16 473.57 37.63 537.86 48.05 523.96 34.16"/><polygon class="cls-7" points="537.86 48.05 523.96 34.16 591.71 68.9 537.86 48.05"/><polygon class="cls-8" points="490.95 93.22 555.23 134.92 537.86 48.05 490.95 93.22"/><polygon class="cls-9" points="555.23 134.92 586.5 108.86 544.8 82.8 555.23 134.92"/><polygon class="cls-6" points="586.5 108.86 624.72 108.86 591.71 68.9 586.5 108.86"/><polygon class="cls-10" points="555.23 134.92 624.72 108.86 586.5 108.86 555.23 134.92"/><polygon class="cls-11" points="537.86 48.05 544.8 82.8 586.5 108.86 591.71 68.9 537.86 48.05"/><polygon class="cls-12" points="490.95 93.22 461.41 122.76 409.29 98.44 430.14 58.48 490.95 93.22"/><polygon class="cls-13" points="461.41 122.76 463.15 138.4 386.71 122.76 409.29 98.44 461.41 122.76"/><polygon class="cls-14" points="555.23 134.92 506.58 143.61 463.15 138.4 461.41 122.76 490.95 93.22 555.23 134.92"/><polygon class="cls-7" points="699.93 246.88 614.99 198.35 549.47 261.44 699.93 246.88"/><polygon class="cls-15" points="549.47 261.44 568.88 280.86 463.15 239.16 549.47 261.44"/><polygon class="cls-16" points="614.99 198.35 555.23 134.92 549.47 261.44 614.99 198.35"/><polygon class="cls-17" points="555.23 134.92 481.52 176.51 550.02 261.75 555.23 134.92"/><polygon class="cls-1" points="481.52 176.51 459.68 166.19 463.15 239.16 481.52 176.51"/><polygon class="cls-18" points="550.02 261.75 482.26 176.62 481.52 176.51 463.15 239.16 550.02 261.75"/><polygon class="cls-19" points="614.99 198.35 656.24 157.09 729.05 191.07 699.93 246.88 614.99 198.35"/><polygon class="cls-20" points="656.24 157.09 655.55 123.09 719.34 142.53 729.05 191.07 656.24 157.09"/><polygon class="cls-21" points="555.23 134.92 624.72 108.86 655.55 123.09 656.24 157.09 614.99 198.35 555.23 134.92"/><polygon class="cls-7" points="332.85 159.24 393.66 193.99 459.68 166.19 332.85 159.24"/><polygon class="cls-2" points="351.96 143.61 332.85 159.24 459.68 166.19 351.96 143.61"/><polygon class="cls-6" points="386.71 122.76 351.96 143.61 459.68 166.19 386.71 122.76"/><polygon class="cls-7" points="463.15 138.4 386.71 122.76 459.68 166.19 506.58 143.61 463.15 138.4"/><polygon class="cls-22" points="506.58 143.61 459.68 166.19 482.26 176.62 555.23 134.92 506.58 143.61"/><polygon class="cls-2" points="393.66 193.99 463.15 239.16 459.68 166.19 393.66 193.99"/><polygon class="cls-23" points="393.66 193.99 364.12 223.53 312 199.2 332.85 159.24 393.66 193.99"/><polygon class="cls-16" points="463.15 239.16 407.55 251.32 364.12 246.11 364.12 223.53 393.66 193.99 463.15 239.16"/><polygon class="cls-7" points="167.54 223.8 212.4 249.44 247 216.11 167.54 223.8"/><polygon class="cls-2" points="199.58 208.42 167.54 223.8 247 216.11 199.58 208.42"/><polygon class="cls-22" points="236.75 205.86 199.58 208.42 247 216.11 236.75 205.86"/><polygon class="cls-7" points="247 216.11 236.75 205.86 286.73 231.49 247 216.11"/><polygon class="cls-22" points="212.4 249.44 259.82 280.2 247 216.11 212.4 249.44"/><polygon class="cls-14" points="259.82 280.2 282.89 260.97 252.13 241.75 259.82 280.2"/><polygon class="cls-2" points="259.82 280.2 311.08 260.97 282.89 260.97 259.82 280.2"/><polygon class="cls-16" points="190.61 271.23 191.89 282.76 135.49 271.23 152.16 253.28 190.61 271.23"/><polygon class="cls-2" points="259.82 280.2 223.93 286.61 191.89 282.76 190.61 271.23 212.4 249.44 259.82 280.2"/><polygon class="cls-7" points="366.56 362.8 303.9 326.99 255.57 373.54 366.56 362.8"/><polygon class="cls-2" points="321.81 384.28 366.56 362.8 255.57 373.54 321.81 384.28"/><polygon class="cls-1" points="269.89 387.86 321.81 384.28 255.57 373.54 269.89 387.86"/><polygon class="cls-24" points="255.57 373.54 269.89 387.86 191.89 357.1 255.57 373.54"/><polygon class="cls-16" points="303.9 326.99 259.82 280.2 255.57 373.54 303.9 326.99"/><polygon class="cls-14" points="259.82 280.2 205.44 310.88 255.97 373.76 259.82 280.2"/><polygon class="cls-22" points="303.9 326.99 334.34 296.55 388.05 321.62 366.56 362.8 303.9 326.99"/><polygon class="cls-17" points="334.34 296.55 333.83 271.47 380.89 285.81 388.05 321.62 334.34 296.55"/><polygon class="cls-7" points="259.82 280.2 311.08 260.97 333.83 271.47 334.34 296.55 303.9 326.99 259.82 280.2"/><polygon class="cls-7" points="95.76 298.14 140.62 323.77 189.32 303.27 95.76 298.14"/><polygon class="cls-2" points="109.86 286.61 95.76 298.14 189.32 303.27 109.86 286.61"/><polygon class="cls-22" points="135.49 271.23 109.86 286.61 189.32 303.27 135.49 271.23"/><polygon class="cls-22" points="223.93 286.61 189.32 303.27 205.99 310.96 259.82 280.2 223.93 286.61"/><polygon class="cls-2" points="140.62 323.77 191.89 357.1 189.32 303.27 140.62 323.77"/><polygon class="cls-10" points="140.62 323.77 118.83 345.56 80.38 327.62 95.76 298.14 140.62 323.77"/><polygon class="cls-16" points="118.83 345.56 118.83 362.23 85.51 353.25 80.38 327.62 118.83 345.56"/><polygon class="cls-1" points="191.89 357.1 150.87 366.07 118.83 362.23 118.83 345.56 140.62 323.77 191.89 357.1"/><polygon class="cls-7" points="191.89 282.76 135.49 271.23 189.32 303.27 223.93 286.61 191.89 282.76"/><polygon class="cls-14" points="282.89 260.97 311.08 260.97 286.73 231.49 282.89 260.97"/><polygon class="cls-7" points="247 216.11 252.13 241.75 282.89 260.97 286.73 231.49 247 216.11"/><polygon class="cls-12" points="212.4 249.44 190.61 271.23 152.16 253.28 167.54 223.8 212.4 249.44"/><polygon class="cls-1" points="205.44 310.88 189.32 303.27 191.89 357.1 205.44 310.88"/><polygon class="cls-18" points="255.97 373.76 205.99 310.96 205.44 310.88 191.89 357.1 255.97 373.76"/><polygon class="cls-7" points="474.44 347.48 501 362.66 521.49 342.93 474.44 347.48"/><polygon class="cls-2" points="493.41 338.38 474.44 347.48 521.49 342.93 493.41 338.38"/><polygon class="cls-22" points="515.42 336.86 493.41 338.38 521.49 342.93 515.42 336.86"/><polygon class="cls-7" points="521.49 342.93 515.42 336.86 545.01 352.04 521.49 342.93"/><polygon class="cls-22" points="501 362.66 529.08 380.87 521.49 342.93 501 362.66"/><polygon class="cls-14" points="529.08 380.87 542.74 369.49 524.52 358.11 529.08 380.87"/><polygon class="cls-2" points="529.08 380.87 559.43 369.49 542.74 369.49 529.08 380.87"/><polygon class="cls-16" points="488.1 375.56 488.86 382.39 455.46 375.56 465.33 364.94 488.1 375.56"/><polygon class="cls-2" points="529.08 380.87 507.83 384.67 488.86 382.39 488.1 375.56 501 362.66 529.08 380.87"/><polygon class="cls-7" points="592.28 429.78 555.18 408.58 526.56 436.14 592.28 429.78"/><polygon class="cls-2" points="565.78 442.5 592.28 429.78 526.56 436.14 565.78 442.5"/><polygon class="cls-1" points="535.04 444.62 565.78 442.5 526.56 436.14 535.04 444.62"/><polygon class="cls-24" points="526.56 436.14 535.04 444.62 488.86 426.41 526.56 436.14"/><polygon class="cls-16" points="555.18 408.58 529.08 380.87 526.56 436.14 555.18 408.58"/><polygon class="cls-14" points="529.08 380.87 496.88 399.04 526.8 436.27 529.08 380.87"/><polygon class="cls-22" points="555.18 408.58 573.2 390.56 605 405.4 592.28 429.78 555.18 408.58"/><polygon class="cls-17" points="573.2 390.56 572.9 375.71 600.76 384.2 605 405.4 573.2 390.56"/><polygon class="cls-7" points="529.08 380.87 559.43 369.49 572.9 375.71 573.2 390.56 555.18 408.58 529.08 380.87"/><polygon class="cls-7" points="431.94 391.5 458.5 406.68 487.34 394.53 431.94 391.5"/><polygon class="cls-2" points="440.29 384.67 431.94 391.5 487.34 394.53 440.29 384.67"/><polygon class="cls-22" points="455.46 375.56 440.29 384.67 487.34 394.53 455.46 375.56"/><polygon class="cls-22" points="507.83 384.67 487.34 394.53 497.2 399.09 529.08 380.87 507.83 384.67"/><polygon class="cls-2" points="458.5 406.68 488.86 426.41 487.34 394.53 458.5 406.68"/><polygon class="cls-10" points="458.5 406.68 445.6 419.58 422.83 408.95 431.94 391.5 458.5 406.68"/><polygon class="cls-16" points="445.6 419.58 445.6 429.44 425.87 424.13 422.83 408.95 445.6 419.58"/><polygon class="cls-1" points="488.86 426.41 464.57 431.72 445.6 429.44 445.6 419.58 458.5 406.68 488.86 426.41"/><polygon class="cls-7" points="488.86 382.39 455.46 375.56 487.34 394.53 507.83 384.67 488.86 382.39"/><polygon class="cls-14" points="542.74 369.49 559.43 369.49 545.01 352.04 542.74 369.49"/><polygon class="cls-7" points="521.49 342.93 524.52 358.11 542.74 369.49 545.01 352.04 521.49 342.93"/><polygon class="cls-12" points="501 362.66 488.1 375.56 465.33 364.94 474.44 347.48 501 362.66"/><polygon class="cls-1" points="496.88 399.04 487.34 394.53 488.86 426.41 496.88 399.04"/><polygon class="cls-18" points="526.8 436.27 497.2 399.09 496.88 399.04 488.86 426.41 526.8 436.27"/><polygon class="cls-7" points="86.61 17.83 131.19 43.3 165.57 10.19 86.61 17.83"/><polygon class="cls-2" points="118.45 2.55 86.61 17.83 165.57 10.19 118.45 2.55"/><polygon class="cls-22" points="155.39 0 118.45 2.55 165.57 10.19 155.39 0"/><polygon class="cls-7" points="165.57 10.19 155.39 0 205.06 25.47 165.57 10.19"/><polygon class="cls-22" points="131.19 43.3 178.31 73.87 165.57 10.19 131.19 43.3"/><polygon class="cls-14" points="178.31 73.87 201.24 54.77 170.67 35.66 178.31 73.87"/><polygon class="cls-2" points="178.31 73.87 229.26 54.77 201.24 54.77 178.31 73.87"/><polygon class="cls-16" points="109.53 64.96 110.81 76.42 54.77 64.96 71.33 47.13 109.53 64.96"/><polygon class="cls-2" points="178.31 73.87 142.65 80.24 110.81 76.42 109.53 64.96 131.19 43.3 178.31 73.87"/><polygon class="cls-7" points="284.39 155.95 222.12 120.37 174.09 166.63 284.39 155.95"/><polygon class="cls-2" points="239.91 177.3 284.39 155.95 174.09 166.63 239.91 177.3"/><polygon class="cls-1" points="188.32 180.86 239.91 177.3 174.09 166.63 188.32 180.86"/><polygon class="cls-24" points="174.09 166.63 188.32 180.86 110.81 150.29 174.09 166.63"/><polygon class="cls-16" points="222.12 120.37 178.31 73.87 174.09 166.63 222.12 120.37"/><polyline class="cls-14" points="176.68 113.59 178.31 73.87 124.27 104.36 174.49 166.85 176.68 113.59"/><polygon class="cls-22" points="222.12 120.37 252.37 90.13 305.74 115.03 284.39 155.95 222.12 120.37"/><polygon class="cls-17" points="252.37 90.13 251.86 65.2 298.62 79.45 305.74 115.03 252.37 90.13"/><polygon class="cls-7" points="178.31 73.87 229.26 54.77 251.86 65.2 252.37 90.13 222.12 120.37 178.31 73.87"/><polygon class="cls-7" points="15.28 91.7 59.86 117.18 108.26 96.8 15.28 91.7"/><polygon class="cls-2" points="29.29 80.24 15.28 91.7 108.26 96.8 29.29 80.24"/><polygon class="cls-22" points="54.77 64.96 29.29 80.24 108.26 96.8 54.77 64.96"/><polygon class="cls-22" points="142.65 80.24 108.26 96.8 124.82 104.44 178.31 73.87 142.65 80.24"/><polygon class="cls-2" points="59.86 117.18 110.81 150.29 108.26 96.8 59.86 117.18"/><polygon class="cls-10" points="59.86 117.18 38.21 138.83 0 121 15.28 91.7 59.86 117.18"/><polygon class="cls-16" points="38.21 138.83 38.21 155.39 5.09 146.47 0 121 38.21 138.83"/><polygon class="cls-1" points="110.81 150.29 70.05 159.21 38.21 155.39 38.21 138.83 59.86 117.18 110.81 150.29"/><polygon class="cls-7" points="110.81 76.42 54.77 64.96 108.26 96.8 142.65 80.24 110.81 76.42"/><polygon class="cls-14" points="201.24 54.77 229.26 54.77 205.06 25.47 201.24 54.77"/><polygon class="cls-7" points="165.57 10.19 170.67 35.66 201.24 54.77 205.06 25.47 165.57 10.19"/><polygon class="cls-12" points="131.19 43.3 109.53 64.96 71.33 47.13 86.61 17.83 131.19 43.3"/><polygon class="cls-1" points="124.27 104.36 108.26 96.8 110.81 150.29 124.27 104.36"/><polygon class="cls-18" points="174.49 166.85 124.82 104.44 124.27 104.36 110.81 150.29 174.49 166.85"/></g></g></svg>