<svg xmlns="http://www.w3.org/2000/svg" viewBox="0 0 658 259.46"><defs><style>.cls-1{fill:#f9f9f9;}.cls-2{fill:#f2f2f4;}.cls-3{fill:#fcfcfc;}.cls-4{fill:#5262ff;}.cls-5{fill:#5d6ff9;}.cls-6{fill:#2d59e8;}.cls-7{fill:#6376fc;}.cls-8{fill:#060403;}.cls-9{fill:#9e9c9b;}.cls-10{fill:#3f61ef;}</style></defs><title>Asset 10</title><g id="Layer_2" data-name="Layer 2"><g id="Layer_1-2" data-name="Layer 1"><polygon class="cls-1" points="63.11 178.82 168.3 209.2 182.16 140.48 63.11 178.82"/><polygon class="cls-2" points="19.87 212.71 168.3 209.2 63.11 178.82 19.87 212.71"/><polygon class="cls-2" points="182.32 140.25 168.3 209.2 336.6 211.54 182.32 140.25"/><polygon class="cls-3" points="371.66 155.44 182.32 140.25 336.6 211.54 371.66 155.44"/><polygon class="cls-2" points="485.03 140.25 371.66 155.44 336.6 211.54 485.03 140.25"/><polygon class="cls-4" points="63.11 178.82 182.32 140.25 205.7 93.5 63.11 178.82"/><polygon class="cls-5" points="63.11 126.22 63.11 178.82 205.7 93.5 63.11 126.22"/><polygon class="cls-4" points="36.23 125.06 1.17 197.52 63.11 126.22 36.23 125.06"/><polygon class="cls-6" points="63.11 126.22 1.17 197.52 38.57 176.48 63.11 126.22"/><polygon class="cls-6" points="168.3 209.2 122.72 210.37 210.37 241.93 168.3 209.2"/><polygon class="cls-5" points="232.58 210.37 195.18 209.2 276.99 259.46 232.58 210.37"/><polygon class="cls-6" points="195.18 209.2 185.83 209.2 276.99 259.46 195.18 209.2"/><polygon class="cls-7" points="63.11 126.22 38.57 176.48 63.11 178.82 63.11 126.22"/><polygon class="cls-4" points="63.11 178.82 38.57 176.48 18.7 212.71 63.11 178.82"/><polygon class="cls-4" points="38.57 176.48 1.17 197.52 29.22 194.01 38.57 176.48"/><polygon class="cls-8" points="29.22 194.01 1.17 197.52 0 206.87 29.22 194.01"/><polygon class="cls-9" points="29.22 194.01 0 206.87 18.7 212.71 29.22 194.01"/><polygon class="cls-4" points="203.36 64.28 63.11 126.22 205.7 93.5 203.36 64.28"/><polygon class="cls-6" points="36.23 125.06 63.11 126.22 203.36 64.28 36.23 125.06"/><polygon class="cls-5" points="359.97 73.63 203.36 64.28 205.7 93.5 359.97 73.63"/><polygon class="cls-10" points="295.69 70.12 282.83 0 203.36 64.28 295.69 70.12"/><polygon class="cls-10" points="485.03 140.25 359.97 73.63 371.66 155.44 485.03 140.25"/><polygon class="cls-10" points="656.83 87.66 566.84 87.66 513.08 107.52 656.83 87.66"/><path class="cls-4" d="M658,87.66l-77.8,22.51a15.88,15.88,0,0,1-5.8.64l-60.15-3.29Z"/><polygon class="cls-5" points="551.64 106.36 359.97 73.63 485.03 140.25 551.64 106.36"/><polygon class="cls-10" points="338.93 100.51 359.97 73.63 205.7 93.5 338.93 100.51"/><polygon class="cls-4" points="338.93 100.51 359.97 73.63 371.66 155.44 338.93 100.51"/><polygon class="cls-5" points="371.66 155.44 338.93 100.51 205.7 93.5 371.66 155.44"/><polygon class="cls-7" points="182.32 140.25 371.66 155.44 205.7 93.5 182.32 140.25"/></g></g></svg>