<svg xmlns="http://www.w3.org/2000/svg" viewBox="0 0 499.37 619.61"><defs><style>.cls-1{fill:#5a70f2;}.cls-2{fill:#5262ff;}.cls-3{fill:#7786fc;}.cls-4{fill:#fc4273;}.cls-5{fill:#e52557;}</style></defs><title>flash</title><g id="Layer_2" data-name="Layer 2"><g id="Layer_1-2" data-name="Layer 1"><polygon class="cls-1" points="103.7 619.61 246.38 527.4 161.26 527.4 103.7 619.61"/><polygon class="cls-2" points="260.37 393.21 116.89 485.44 161.26 527.4 202.62 485.44 202.45 485.3 260.37 393.21"/><polygon class="cls-3" points="161.26 527.4 260.16 393.13 202.62 485.44 161.26 527.4"/><polygon class="cls-2" points="202.62 485.44 161.26 527.4 246.38 527.4 202.62 485.44"/><polygon class="cls-4" points="415.19 311.24 354.9 372.4 478.97 372.4 415.19 311.24"/><polygon class="cls-5" points="271 506.81 478.97 372.4 354.9 372.4 271 506.81"/><polygon class="cls-4" points="499.37 176.8 290.22 311.24 354.9 372.4 415.19 311.24 414.93 311.03 499.37 176.8"/><polygon class="cls-5" points="354.9 372.4 499.07 176.68 415.19 311.24 354.9 372.4"/><polygon class="cls-4" points="198.47 185.21 115.48 269.4 286.26 269.4 198.47 185.21"/><polygon class="cls-5" points="0 454.4 286.26 269.4 115.48 269.4 0 454.4"/><polygon class="cls-4" points="314.35 0.16 26.46 185.21 115.48 269.4 198.47 185.21 198.12 184.93 314.35 0.16"/><polygon class="cls-5" points="115.48 269.4 313.92 0 198.47 185.21 115.48 269.4"/></g></g></svg>