<svg xmlns="http://www.w3.org/2000/svg" viewBox="0 0 491 643"><defs><style>.cls-1,.cls-28{opacity:0.7;}.cls-2{fill:#e5e5e5;}.cls-3{fill:#f2f2f4;}.cls-4{fill:#e0e1e2;}.cls-5{fill:#edefef;}.cls-6{fill:#e7e7ec;}.cls-7{fill:#f5f4f2;}.cls-8{fill:#eaeaea;}.cls-9{fill:#ddd;}.cls-10{fill:#f4f4f4;}.cls-11{fill:#dadce0;}.cls-12{fill:#c6c8ce;}.cls-13{fill:#d9d9db;}.cls-14{fill:#afafb2;}.cls-15{fill:#e2e2e2;}.cls-16{fill:#ededed;}.cls-17{fill:#bebfc2;}.cls-18{fill:#ccced1;}.cls-19{fill:#e3e3e5;}.cls-20{fill:#f2f2f2;}.cls-21{fill:#f5f5f7;}.cls-22{fill:#cbcdd0;}.cls-23{fill:#dce1e2;}.cls-24{fill:#efefef;}.cls-25,.cls-26,.cls-27,.cls-28{fill:#16d880;}.cls-25{opacity:0.6;}.cls-26{opacity:0.4;}.cls-27{opacity:0.5;}.cls-29{fill:#3bf296;opacity:0.53;}</style></defs><title>ice</title><g id="Layer_2" data-name="Layer 2"><g id="Layer_1-2" data-name="Layer 1"><g class="cls-1"><polygon class="cls-2" points="219.23 61.63 195.52 61.63 208.28 8.22 244.76 0 219.23 61.63"/><polygon class="cls-3" points="392.47 139.7 356 211.61 403.41 267.08 392.47 139.7"/><polygon class="cls-4" points="414.35 191.07 392.47 139.7 403.41 267.08 414.35 191.07"/><polygon class="cls-5" points="418 250.65 414.35 191.07 403.41 267.08 418 250.65"/><polygon class="cls-6" points="403.41 267.08 418 250.65 381.53 330.77 403.41 267.08"/><polygon class="cls-7" points="356 211.61 312.23 287.63 403.41 267.08 356 211.61"/><polygon class="cls-8" points="312.23 287.63 339.58 324.61 366.94 275.3 312.23 287.63"/><polygon class="cls-5" points="339.58 324.61 339.58 369.81 381.53 330.77 339.58 324.61"/><polygon class="cls-9" points="312.23 287.63 339.58 369.81 339.58 324.61 312.23 287.63"/><polygon class="cls-10" points="403.41 267.08 366.94 275.3 339.58 324.61 381.53 330.77 403.41 267.08"/><polygon class="cls-11" points="356 211.61 325 176.69 350.53 115.05 392.47 139.7 356 211.61"/><polygon class="cls-12" points="325 176.69 308.58 178.74 325 88.34 350.53 115.05 325 176.69"/><polygon class="cls-13" points="312.23 287.63 303.11 230.1 308.58 178.74 325 176.69 356 211.61 312.23 287.63"/><polygon class="cls-6" points="194.71 458.74 245.65 358.29 179.43 280.81 194.71 458.74"/><polygon class="cls-14" points="179.43 280.81 159.05 303.77 202.81 178.74 179.43 280.81"/><polygon class="cls-15" points="245.65 358.29 312.23 287.63 179.43 280.81 245.65 358.29"/><polygon class="cls-16" points="312.23 287.63 268.58 200.46 179.11 281.46 312.23 287.63"/><polygon class="cls-17" points="268.58 200.46 279.41 174.63 202.81 178.74 268.58 200.46"/><polygon class="cls-18" points="179.11 281.46 268.46 201.34 268.58 200.46 202.81 178.74 179.11 281.46"/><polygon class="cls-19" points="245.65 358.29 288.96 407.08 253.3 493.17 194.71 458.74 245.65 358.29"/><polygon class="cls-20" points="288.96 407.08 324.65 406.26 304.24 481.69 253.3 493.17 288.96 407.08"/><polygon class="cls-21" points="312.23 287.63 339.58 369.81 324.65 406.26 288.96 407.08 245.65 358.29 312.23 287.63"/><polygon class="cls-6" points="286.7 24.65 250.23 96.56 279.41 174.63 286.7 24.65"/><polygon class="cls-22" points="303.11 47.25 286.7 24.65 279.41 174.63 303.11 47.25"/><polygon class="cls-5" points="325 88.34 303.11 47.25 279.41 174.63 325 88.34"/><polygon class="cls-6" points="308.58 178.74 325 88.34 279.41 174.63 303.11 230.1 308.58 178.74"/><polygon class="cls-23" points="303.11 230.1 279.41 174.63 268.46 201.34 312.23 287.63 303.11 230.1"/><polygon class="cls-22" points="250.23 96.56 202.81 178.74 279.41 174.63 250.23 96.56"/><polygon class="cls-24" points="250.23 96.56 219.23 61.63 244.76 0 286.7 24.65 250.23 96.56"/><polygon class="cls-15" points="202.81 178.74 190.05 113 195.52 61.63 219.23 61.63 250.23 96.56 202.81 178.74"/></g><g class="cls-1"><polygon class="cls-2" points="106.71 133.52 93.43 133.52 100.58 100.14 121.01 95 106.71 133.52"/><polygon class="cls-3" points="203.75 182.32 183.32 227.26 209.88 261.93 203.75 182.32"/><polygon class="cls-4" points="216 214.42 203.75 182.32 209.88 261.93 216 214.42"/><polygon class="cls-5" points="218.05 251.66 216 214.42 209.88 261.93 218.05 251.66"/><polygon class="cls-6" points="209.88 261.93 218.05 251.66 197.62 301.74 209.88 261.93"/><polygon class="cls-7" points="183.32 227.26 158.8 274.77 209.88 261.93 183.32 227.26"/><polygon class="cls-8" points="158.8 274.77 174.13 297.89 189.45 267.07 158.8 274.77"/><polygon class="cls-5" points="174.13 297.89 174.13 326.14 197.62 301.74 174.13 297.89"/><polygon class="cls-9" points="158.8 274.77 174.13 326.14 174.13 297.89 158.8 274.77"/><polygon class="cls-10" points="209.88 261.93 189.45 267.07 174.13 297.89 197.62 301.74 209.88 261.93"/><polygon class="cls-11" points="183.32 227.26 165.95 205.43 180.25 166.91 203.75 182.32 183.32 227.26"/><polygon class="cls-12" points="165.95 205.43 156.76 206.72 165.95 150.22 180.25 166.91 165.95 205.43"/><polygon class="cls-13" points="158.8 274.77 153.69 238.82 156.76 206.72 165.95 205.43 183.32 227.26 158.8 274.77"/><polygon class="cls-6" points="92.97 381.72 121.51 318.94 84.41 270.51 92.97 381.72"/><polygon class="cls-15" points="121.51 318.94 158.8 274.77 84.41 270.51 121.51 318.94"/><polygon class="cls-16" points="158.8 274.77 134.35 220.29 84.24 270.92 158.8 274.77"/><polygon class="cls-17" points="134.35 220.29 140.42 204.15 97.52 206.72 134.35 220.29"/><polygon class="cls-18" points="84.24 270.92 134.29 220.84 134.35 220.29 97.52 206.72 84.24 270.92"/><polygon class="cls-19" points="121.51 318.94 145.77 349.44 125.79 403.25 92.97 381.72 121.51 318.94"/><polygon class="cls-20" points="145.77 349.44 165.76 348.93 154.33 396.07 125.79 403.25 145.77 349.44"/><polygon class="cls-21" points="158.8 274.77 174.13 326.14 165.76 348.93 145.77 349.44 121.51 318.94 158.8 274.77"/><polygon class="cls-6" points="144.5 110.41 124.07 155.35 140.42 204.15 144.5 110.41"/><polygon class="cls-22" points="153.69 124.53 144.5 110.41 140.42 204.15 153.69 124.53"/><polygon class="cls-5" points="165.95 150.22 153.69 124.53 140.42 204.15 165.95 150.22"/><polygon class="cls-6" points="156.76 206.72 165.95 150.22 140.42 204.15 153.69 238.82 156.76 206.72"/><polygon class="cls-23" points="153.69 238.82 140.42 204.15 134.29 220.84 158.8 274.77 153.69 238.82"/><polygon class="cls-22" points="124.07 155.35 97.52 206.72 140.42 204.15 124.07 155.35"/><polygon class="cls-24" points="124.07 155.35 106.71 133.52 121.01 95 144.5 110.41 124.07 155.35"/><polygon class="cls-15" points="97.52 206.72 90.36 165.63 93.43 133.52 106.71 133.52 124.07 155.35 97.52 206.72"/></g><polygon class="cls-25" points="0 596 150 537 19 404 0 596"/><polygon class="cls-26" points="0 596 265 643 150 537 0 596"/><polygon class="cls-26" points="305 621 406 622 334 557 305 621"/><polygon class="cls-27" points="149.74 537.29 280.26 414.32 19 404 149.74 537.29"/><polygon class="cls-25" points="280.26 414.32 194.69 262.64 19 404 280.26 414.32"/><polygon class="cls-28" points="19 404 195 263 0 318 19 404"/><polygon class="cls-25" points="0 318 195 263 56 262 0 318"/><polygon class="cls-29" points="413 500 195 263 280 414 413 500"/><polygon class="cls-29" points="466 468 456 293 413 500 466 468"/><polygon class="cls-25" points="491 338 456 293 466 468 491 338"/><polygon class="cls-25" points="280.26 414.32 333.89 557.33 304.61 620.77 265 643 149.74 537.29 280.26 414.32"/><polygon class="cls-27" points="280 414 413 500 466 468 405.64 622.19 334 557 280 414"/><polyline class="cls-25" points="413 500 195 263 456 293 413 500"/></g></g></svg>