<svg xmlns="http://www.w3.org/2000/svg" viewBox="0 0 670.67 687.58"><defs><style>.cls-1{fill:#bebfc2;}.cls-2{fill:#cbcdd0;}.cls-3{fill:#e5e5e5;}.cls-4{fill:#f2f2f4;}.cls-5{fill:#e0e1e2;}.cls-6{fill:#edefef;}.cls-7{fill:#e7e7ec;}.cls-8{fill:#f5f4f2;}.cls-9{fill:#eaeaea;}.cls-10{fill:#ddd;}.cls-11{fill:#f4f4f4;}.cls-12{fill:#dadce0;}.cls-13{fill:#c6c8ce;}.cls-14{fill:#d9d9db;}.cls-15{fill:#afafb2;}.cls-16{fill:#e2e2e2;}.cls-17{fill:#ededed;}.cls-18{fill:#ccced1;}.cls-19{fill:#e3e3e5;}.cls-20{fill:#f2f2f2;}.cls-21{fill:#f5f5f7;}.cls-22{fill:#dce1e2;}.cls-23{fill:#efefef;}.cls-24{fill:#9a9ba1;}.cls-25{fill:#fff;}</style></defs><title>Asset 13</title><g id="Layer_2" data-name="Layer 2"><g id="Layer_1-2" data-name="Layer 1"><polygon class="cls-1" points="510.5 246.7 580.88 241.85 491.08 227.29 510.5 246.7"/><polygon class="cls-2" points="580.88 241.85 641.54 212.73 491.08 227.29 580.88 241.85"/><polygon class="cls-3" points="305.74 189.37 305.74 211.96 260.57 199.8 253.62 165.05 305.74 189.37"/><polygon class="cls-4" points="371.76 24.32 432.57 59.07 479.48 13.9 371.76 24.32"/><polygon class="cls-5" points="415.19 3.48 371.76 24.32 479.48 13.9 415.19 3.48"/><polygon class="cls-6" points="465.58 0 415.19 3.48 479.48 13.9 465.58 0"/><polygon class="cls-7" points="479.48 13.9 465.58 0 533.33 34.75 479.48 13.9"/><polygon class="cls-8" points="432.57 59.07 496.85 100.77 479.48 13.9 432.57 59.07"/><polygon class="cls-9" points="496.85 100.77 528.12 74.71 486.42 48.65 496.85 100.77"/><polygon class="cls-6" points="528.12 74.71 566.34 74.71 533.33 34.75 528.12 74.71"/><polygon class="cls-10" points="496.85 100.77 566.34 74.71 528.12 74.71 496.85 100.77"/><polygon class="cls-11" points="479.48 13.9 486.42 48.65 528.12 74.71 533.33 34.75 479.48 13.9"/><polygon class="cls-12" points="432.57 59.07 403.03 88.61 350.91 64.28 371.76 24.32 432.57 59.07"/><polygon class="cls-13" points="403.03 88.61 404.77 104.24 328.32 88.61 350.91 64.28 403.03 88.61"/><polygon class="cls-14" points="496.85 100.77 448.2 109.45 404.77 104.24 403.03 88.61 432.57 59.07 496.85 100.77"/><polygon class="cls-7" points="641.54 212.73 556.61 164.19 491.08 227.29 641.54 212.73"/><polygon class="cls-15" points="491.08 227.29 510.5 246.7 404.77 205.01 491.08 227.29"/><polygon class="cls-16" points="556.61 164.19 496.85 100.77 491.08 227.29 556.61 164.19"/><polygon class="cls-17" points="496.85 100.77 423.13 142.35 491.64 227.59 496.85 100.77"/><polygon class="cls-1" points="423.13 142.35 401.29 132.04 404.77 205.01 423.13 142.35"/><polygon class="cls-18" points="491.64 227.59 423.88 142.46 423.13 142.35 404.77 205.01 491.64 227.59"/><polygon class="cls-19" points="556.61 164.19 597.86 122.94 670.67 156.91 641.54 212.73 556.61 164.19"/><polygon class="cls-20" points="597.86 122.94 597.17 88.94 660.96 108.38 670.67 156.91 597.86 122.94"/><polygon class="cls-21" points="496.85 100.77 566.34 74.71 597.17 88.94 597.86 122.94 556.61 164.19 496.85 100.77"/><polygon class="cls-7" points="274.47 125.09 335.27 159.84 401.29 132.04 274.47 125.09"/><polygon class="cls-2" points="293.58 109.45 274.47 125.09 401.29 132.04 293.58 109.45"/><polygon class="cls-6" points="328.32 88.61 293.58 109.45 401.29 132.04 328.32 88.61"/><polygon class="cls-7" points="404.77 104.24 328.32 88.61 401.29 132.04 448.2 109.45 404.77 104.24"/><polygon class="cls-22" points="448.2 109.45 401.29 132.04 423.88 142.46 496.85 100.77 448.2 109.45"/><polygon class="cls-2" points="335.27 159.84 404.77 205.01 401.29 132.04 335.27 159.84"/><polygon class="cls-23" points="335.27 159.84 305.74 189.37 253.62 165.05 274.47 125.09 335.27 159.84"/><polygon class="cls-16" points="404.77 205.01 349.17 217.17 305.74 211.96 305.74 189.37 335.27 159.84 404.77 205.01"/><polygon class="cls-7" points="87.16 164.65 132.01 190.28 166.62 156.96 87.16 164.65"/><polygon class="cls-2" points="119.2 149.27 87.16 164.65 166.62 156.96 119.2 149.27"/><polygon class="cls-22" points="156.37 146.7 119.2 149.27 166.62 156.96 156.37 146.7"/><polygon class="cls-7" points="166.62 156.96 156.37 146.7 206.35 172.34 166.62 156.96"/><polygon class="cls-22" points="132.01 190.28 179.44 221.04 166.62 156.96 132.01 190.28"/><polygon class="cls-14" points="179.44 221.04 202.51 201.82 171.75 182.59 179.44 221.04"/><polygon class="cls-2" points="179.44 221.04 230.7 201.82 202.51 201.82 179.44 221.04"/><polygon class="cls-16" points="110.22 212.07 111.51 223.61 55.11 212.07 71.78 194.13 110.22 212.07"/><polygon class="cls-2" points="179.44 221.04 143.55 227.45 111.51 223.61 110.22 212.07 132.01 190.28 179.44 221.04"/><polygon class="cls-7" points="286.18 303.64 223.52 267.83 175.19 314.38 286.18 303.64"/><polygon class="cls-2" points="241.43 325.12 286.18 303.64 175.19 314.38 241.43 325.12"/><polygon class="cls-1" points="189.51 328.7 241.43 325.12 175.19 314.38 189.51 328.7"/><polygon class="cls-24" points="175.19 314.38 189.51 328.7 111.51 297.94 175.19 314.38"/><polygon class="cls-16" points="223.52 267.83 179.44 221.04 175.19 314.38 223.52 267.83"/><polygon class="cls-14" points="179.44 221.04 125.06 251.72 175.59 314.61 179.44 221.04"/><polygon class="cls-22" points="223.52 267.83 253.96 237.4 307.67 262.46 286.18 303.64 223.52 267.83"/><polygon class="cls-17" points="253.96 237.4 253.45 212.31 300.5 226.66 307.67 262.46 253.96 237.4"/><polygon class="cls-7" points="179.44 221.04 230.7 201.82 253.45 212.31 253.96 237.4 223.52 267.83 179.44 221.04"/><polygon class="cls-7" points="15.38 238.99 60.24 264.62 108.94 244.11 15.38 238.99"/><polygon class="cls-2" points="29.48 227.45 15.38 238.99 108.94 244.11 29.48 227.45"/><polygon class="cls-22" points="55.11 212.07 29.48 227.45 108.94 244.11 55.11 212.07"/><polygon class="cls-22" points="143.55 227.45 108.94 244.11 125.61 251.8 179.44 221.04 143.55 227.45"/><polygon class="cls-2" points="60.24 264.62 111.51 297.94 108.94 244.11 60.24 264.62"/><polygon class="cls-10" points="60.24 264.62 38.45 286.41 0 268.46 15.38 238.99 60.24 264.62"/><polygon class="cls-16" points="38.45 286.41 38.45 303.07 5.13 294.1 0 268.46 38.45 286.41"/><polygon class="cls-1" points="111.51 297.94 70.49 306.92 38.45 303.07 38.45 286.41 60.24 264.62 111.51 297.94"/><polygon class="cls-7" points="111.51 223.61 55.11 212.07 108.94 244.11 143.55 227.45 111.51 223.61"/><polygon class="cls-14" points="202.51 201.82 230.7 201.82 206.35 172.34 202.51 201.82"/><polygon class="cls-7" points="166.62 156.96 171.75 182.59 202.51 201.82 206.35 172.34 166.62 156.96"/><polygon class="cls-12" points="132.01 190.28 110.22 212.07 71.78 194.13 87.16 164.65 132.01 190.28"/><polygon class="cls-1" points="125.06 251.72 108.94 244.11 111.51 297.94 125.06 251.72"/><polygon class="cls-18" points="175.59 314.61 125.61 251.8 125.06 251.72 111.51 297.94 175.59 314.61"/><polygon class="cls-25" points="81.6 562.32 148.22 519.5 108.5 519.57 81.6 562.32"/><polygon class="cls-25" points="390.6 401.53 457.22 358.7 417.5 358.77 390.6 401.53"/><polygon class="cls-25" points="568.95 438.31 608.36 412.99 584.86 413.02 568.95 438.31"/><polygon class="cls-25" points="195.02 589.65 272.32 539.96 226.22 540.04 195.02 589.65"/><polygon class="cls-25" points="185.02 450.39 262.32 400.7 216.22 400.78 185.02 450.39"/><polygon class="cls-25" points="342.02 521.39 419.32 471.7 373.22 471.78 342.02 521.39"/><polygon class="cls-25" points="478.02 565.39 555.32 515.7 509.22 515.78 478.02 565.39"/><polygon class="cls-25" points="61.96 687.58 130.36 643.61 89.58 643.68 61.96 687.58"/><polygon class="cls-25" points="120.6 245.53 187.22 202.7 147.5 202.77 120.6 245.53"/></g></g></svg>