<svg xmlns="http://www.w3.org/2000/svg" viewBox="0 0 722.65 671.09"><defs><style>.cls-1{fill:#cbcdd0;}.cls-2{fill:#bebfc2;}.cls-3{fill:#9a9ba1;}.cls-4{fill:#e5e5e5;}.cls-5{fill:#f2f2f4;}.cls-6{fill:#e0e1e2;}.cls-7{fill:#edefef;}.cls-8{fill:#e7e7ec;}.cls-9{fill:#f5f4f2;}.cls-10{fill:#eaeaea;}.cls-11{fill:#ddd;}.cls-12{fill:#f4f4f4;}.cls-13{fill:#dadce0;}.cls-14{fill:#c6c8ce;}.cls-15{fill:#d9d9db;}.cls-16{fill:#afafb2;}.cls-17{fill:#e2e2e2;}.cls-18{fill:#ededed;}.cls-19{fill:#ccced1;}.cls-20{fill:#e3e3e5;}.cls-21{fill:#f2f2f2;}.cls-22{fill:#f5f5f7;}.cls-23{fill:#dce1e2;}.cls-24{fill:#efefef;}.cls-25{fill:#fff;}.cls-26{opacity:0.7;}</style></defs><title>Asset 14</title><g id="Layer_2" data-name="Layer 2"><g id="Layer_1-2" data-name="Layer 1"><polygon class="cls-1" points="285.34 378.12 330.1 356.64 219.1 367.38 285.34 378.12"/><polygon class="cls-2" points="233.42 381.7 285.34 378.12 219.1 367.38 233.42 381.7"/><polygon class="cls-3" points="219.1 367.38 233.42 381.7 155.42 350.94 219.1 367.38"/><polygon class="cls-1" points="581.79 241.85 642.46 212.73 492 227.29 581.79 241.85"/><polygon class="cls-2" points="511.42 246.7 581.79 241.85 492 227.29 511.42 246.7"/><polygon class="cls-4" points="306.66 189.37 306.66 211.96 261.49 199.8 254.54 165.05 306.66 189.37"/><polygon class="cls-5" points="372.68 24.32 433.48 59.07 480.39 13.9 372.68 24.32"/><polygon class="cls-6" points="416.11 3.48 372.68 24.32 480.39 13.9 416.11 3.48"/><polygon class="cls-7" points="466.49 0 416.11 3.48 480.39 13.9 466.49 0"/><polygon class="cls-8" points="480.39 13.9 466.49 0 534.25 34.75 480.39 13.9"/><polygon class="cls-9" points="433.48 59.07 497.77 100.77 480.39 13.9 433.48 59.07"/><polygon class="cls-10" points="497.77 100.77 529.04 74.71 487.34 48.65 497.77 100.77"/><polygon class="cls-7" points="529.04 74.71 567.26 74.71 534.25 34.75 529.04 74.71"/><polygon class="cls-11" points="497.77 100.77 567.26 74.71 529.04 74.71 497.77 100.77"/><polygon class="cls-12" points="480.39 13.9 487.34 48.65 529.04 74.71 534.25 34.75 480.39 13.9"/><polygon class="cls-13" points="433.48 59.07 403.95 88.61 351.83 64.28 372.68 24.32 433.48 59.07"/><polygon class="cls-14" points="403.95 88.61 405.69 104.24 329.24 88.61 351.83 64.28 403.95 88.61"/><polygon class="cls-15" points="497.77 100.77 449.12 109.45 405.69 104.24 403.95 88.61 433.48 59.07 497.77 100.77"/><polygon class="cls-8" points="642.46 212.73 557.52 164.19 492 227.29 642.46 212.73"/><polygon class="cls-16" points="492 227.29 511.42 246.7 405.69 205.01 492 227.29"/><polygon class="cls-17" points="557.52 164.19 497.77 100.77 492 227.29 557.52 164.19"/><polygon class="cls-18" points="497.77 100.77 424.05 142.35 492.55 227.59 497.77 100.77"/><polygon class="cls-2" points="424.05 142.35 402.21 132.04 405.69 205.01 424.05 142.35"/><polygon class="cls-19" points="492.55 227.59 424.8 142.46 424.05 142.35 405.69 205.01 492.55 227.59"/><polygon class="cls-20" points="557.52 164.19 598.78 122.94 671.58 156.91 642.46 212.73 557.52 164.19"/><polygon class="cls-21" points="598.78 122.94 598.09 88.94 661.88 108.38 671.58 156.91 598.78 122.94"/><polygon class="cls-22" points="497.77 100.77 567.26 74.71 598.09 88.94 598.78 122.94 557.52 164.19 497.77 100.77"/><polygon class="cls-8" points="275.38 125.09 336.19 159.84 402.21 132.04 275.38 125.09"/><polygon class="cls-1" points="294.5 109.45 275.38 125.09 402.21 132.04 294.5 109.45"/><polygon class="cls-7" points="329.24 88.61 294.5 109.45 402.21 132.04 329.24 88.61"/><polygon class="cls-8" points="405.69 104.24 329.24 88.61 402.21 132.04 449.12 109.45 405.69 104.24"/><polygon class="cls-23" points="449.12 109.45 402.21 132.04 424.8 142.46 497.77 100.77 449.12 109.45"/><polygon class="cls-1" points="336.19 159.84 405.69 205.01 402.21 132.04 336.19 159.84"/><polygon class="cls-24" points="336.19 159.84 306.66 189.37 254.54 165.05 275.38 125.09 336.19 159.84"/><polygon class="cls-17" points="405.69 205.01 350.09 217.17 306.66 211.96 306.66 189.37 336.19 159.84 405.69 205.01"/><polygon class="cls-8" points="131.07 217.65 175.93 243.28 210.54 209.96 131.07 217.65"/><polygon class="cls-1" points="163.12 202.27 131.07 217.65 210.54 209.96 163.12 202.27"/><polygon class="cls-23" points="200.28 199.7 163.12 202.27 210.54 209.96 200.28 199.7"/><polygon class="cls-8" points="210.54 209.96 200.28 199.7 250.27 225.34 210.54 209.96"/><polygon class="cls-23" points="175.93 243.28 223.35 274.04 210.54 209.96 175.93 243.28"/><polygon class="cls-15" points="223.35 274.04 246.42 254.82 215.66 235.59 223.35 274.04"/><polygon class="cls-1" points="223.35 274.04 274.62 254.82 246.42 254.82 223.35 274.04"/><polygon class="cls-17" points="154.14 265.07 155.42 276.61 99.03 265.07 115.69 247.13 154.14 265.07"/><polygon class="cls-1" points="223.35 274.04 187.47 280.45 155.42 276.61 154.14 265.07 175.93 243.28 223.35 274.04"/><polygon class="cls-8" points="330.1 356.64 267.44 320.83 219.1 367.38 330.1 356.64"/><polygon class="cls-17" points="267.44 320.83 223.35 274.04 219.1 367.38 267.44 320.83"/><polygon class="cls-15" points="223.35 274.04 168.97 304.72 219.51 367.61 223.35 274.04"/><polygon class="cls-23" points="267.44 320.83 297.88 290.4 351.58 315.46 330.1 356.64 267.44 320.83"/><polygon class="cls-18" points="297.88 290.4 297.37 265.31 344.42 279.66 351.58 315.46 297.88 290.4"/><polygon class="cls-8" points="223.35 274.04 274.62 254.82 297.37 265.31 297.88 290.4 267.44 320.83 223.35 274.04"/><polygon class="cls-8" points="59.3 291.99 104.16 317.62 152.86 297.11 59.3 291.99"/><polygon class="cls-1" points="73.4 280.45 59.3 291.99 152.86 297.11 73.4 280.45"/><polygon class="cls-23" points="99.03 265.07 73.4 280.45 152.86 297.11 99.03 265.07"/><polygon class="cls-23" points="187.47 280.45 152.86 297.11 169.52 304.8 223.35 274.04 187.47 280.45"/><polygon class="cls-1" points="104.16 317.62 155.42 350.94 152.86 297.11 104.16 317.62"/><polygon class="cls-11" points="104.16 317.62 82.37 339.41 43.92 321.46 59.3 291.99 104.16 317.62"/><polygon class="cls-17" points="82.37 339.41 82.37 356.07 49.04 347.1 43.92 321.46 82.37 339.41"/><polygon class="cls-2" points="155.42 350.94 114.41 359.92 82.37 356.07 82.37 339.41 104.16 317.62 155.42 350.94"/><polygon class="cls-8" points="155.42 276.61 99.03 265.07 152.86 297.11 187.47 280.45 155.42 276.61"/><polygon class="cls-15" points="246.42 254.82 274.62 254.82 250.27 225.34 246.42 254.82"/><polygon class="cls-8" points="210.54 209.96 215.66 235.59 246.42 254.82 250.27 225.34 210.54 209.96"/><polygon class="cls-13" points="175.93 243.28 154.14 265.07 115.69 247.13 131.07 217.65 175.93 243.28"/><polygon class="cls-2" points="168.97 304.72 152.86 297.11 155.42 350.94 168.97 304.72"/><polygon class="cls-19" points="219.51 367.61 169.52 304.8 168.97 304.72 155.42 350.94 219.51 367.61"/><path class="cls-25" d="M79.52,648.5l-3.08-1.77a.34.34,0,0,0-.34,0L73,648.52a.34.34,0,0,0-.17.3v3.55a.34.34,0,0,0,.17.29l3.08,1.77a.34.34,0,0,0,.17,0,.34.34,0,0,0,.17,0l3.07-1.78a.34.34,0,0,0,.17-.29V648.8A.34.34,0,0,0,79.52,648.5Zm-3.23,5.23-2.73-1.57V649l2.73-1.58L79,649v3.15Z"/><path class="cls-25" d="M65,648.56l4.8-1.28-.83-.48-4.15,1.1a.34.34,0,1,0,.17.66Z"/><path class="cls-25" d="M59.81,644l2.94-.78-.83-.48-2.29.61a.34.34,0,1,0,.17.66Z"/><path class="cls-25" d="M64.17,639.17a.34.34,0,1,0-.66.17l1.1,4.15.83.48Z"/><path class="cls-25" d="M68.46,641.66a.34.34,0,0,0-.24.42l1.1,4.15.83.48-1.28-4.8A.34.34,0,0,0,68.46,641.66Z"/><path class="cls-25" d="M93.95,660.56a.33.33,0,0,0-.12-.12l-3.22-1.87h0L92.9,658a.34.34,0,1,0-.18-.66l-2.94.78-.59-.34-.79-.46-.14-.08-.37-.22-.22-.13-.07,0,.66.38,4.15-1.1a.34.34,0,1,0-.17-.66l-4.8,1.28-.59-.34-.21-.12-.72-.42,6-1.6a.34.34,0,0,0-.17-.66l-6.66,1.77-.23-.13-1.26-.73-.45-.26.42.24,4.15-1.1a.34.34,0,1,0-.17-.66L82.72,654l-.59-.34h0l-.74-.43h0V648h0l.74-.43h0l.15-.09.43-.25h0l4.81,1.25a.34.34,0,0,0,.17-.66l-4.15-1.08,1.52-.89,6.67,1.74a.34.34,0,0,0,.17-.66l-6-1.57.83-.49.1-.06.14-.08.44-.26,4.81,1.25a.34.34,0,1,0,.17-.66L88.23,644l.93-.55.59-.34,2.95.77a.34.34,0,1,0,.17-.66l-2.29-.6,3.21-1.88a.34.34,0,0,0-.22-.63l-.13,0-3.21,1.88-.83.49-.22.13-.37.21-1.52.89L87,644l-1,.59-.43.25,1.57-6a.34.34,0,1,0-.66-.17l-1.74,6.67-.59.34-.93.55L84.28,642a.34.34,0,1,0-.66-.17l-1.25,4.81-.59.34h0l-.74.43h0l-4.42-2.54h0v-1.54h0l3.51-3.51a.34.34,0,0,0-.48-.48l-3,3v-1.76l4.87-4.87a.34.34,0,0,0-.48-.48l-4.39,4.39v-1.76l3.51-3.51a.34.34,0,0,0-.48-.48l-3,3v-1.76h0l2.15-2.15a.34.34,0,0,0-.48-.48l-1.67,1.67v-3.72h0a.34.34,0,0,0-.34-.34h0a.34.34,0,0,0-.34.34h0v3.72l-1.67-1.67a.34.34,0,0,0-.48.48l2.15,2.15h0V637l-3-3a.34.34,0,0,0-.48.48l3.51,3.51v1.76l-4.39-4.39a.34.34,0,0,0-.48.48l4.87,4.87h0v1.76l-3-3a.34.34,0,0,0-.48.48l3.51,3.51h0v1.54h0l-4.43,2.57,0,0-.74-.43h0l-.47-.27-.12-.07h0l-.83-.48-.56-.32-.38-.22-.83-.48h0l-.05,0,.31.18L66,638.67a.34.34,0,1,0-.66.17l1.6,6-1.05-.61-.6-.35-.7-.4L63.7,643h0l-.59-.34-.78-2.94a.34.34,0,1,0-.66.17l.61,2.29L59,640.26a.33.33,0,0,0-.41.06l-.06.06a.34.34,0,0,0,.12.46l3.81,2.21h0l.24.14,1.52.88-4.15,1.1a.34.34,0,1,0,.17.66l4.8-1.28,1.52.88h0l-6,1.6a.34.34,0,0,0,.17.66l6.66-1.77.1.06.49.29.55.32.38.22.83.48,1.33.77.06,0v5.14l-.06,0-1.33.78L65,652.77a.34.34,0,0,0-.17.66L69,654.51h0l-.42.25-.51.3-.59.34-6.67-1.74a.34.34,0,0,0-.17.66l6,1.57-.87.51-.65.38h0l-4.81-1.25a.34.34,0,0,0-.17.66l4.15,1.08-.33.19-1.19.7h0l-2.95-.77a.34.34,0,0,0-.17.66l2.29.6-3.21,1.88a.34.34,0,1,0,.34.59l3.21-1.88-.6,2.29a.34.34,0,1,0,.66.17l.77-2.95h0l.52-.31.06,0,.93-.55L63.57,662a.34.34,0,1,0,.66.17l1.25-4.81,1-.57.55-.32-1.57,6a.34.34,0,1,0,.66.17L67.83,656l.59-.34.93-.55-1.08,4.15a.34.34,0,0,0,.66.17l1.25-4.81.59-.34.74-.43a.34.34,0,0,0,.1-.09l4.35,2.5a.34.34,0,0,0,0,.13h0v1.54l-3.51,3.51a.34.34,0,1,0,.48.48l3-3v1.76l-4.87,4.87a.34.34,0,0,0,.48.48l4.39-4.39v1.76l-3.51,3.51a.34.34,0,1,0,.48.48l3-3v1.76h0l-2.15,2.15a.34.34,0,0,0,.48.48L75.93,667v3.72h0a.34.34,0,0,0,.34.34h0a.34.34,0,0,0,.34-.34h0V667l1.67,1.67a.34.34,0,0,0,.48-.48l-2.15-2.15h0v-1.76l3,3a.34.34,0,0,0,.48-.48l-3.51-3.51v-1.76L81,666a.34.34,0,1,0,.48-.48l-4.87-4.87v-1.76l3,3a.34.34,0,0,0,.48-.48l-3.51-3.51v-1.54h0a.33.33,0,0,0,0-.11L81,653.72a.34.34,0,0,0,.1.08l.63.36.12.07.59.34h0l1.28,4.8a.34.34,0,0,0,.66-.17l-1.1-4.15.76.44.17.1.59.34,1.77,6.66a.34.34,0,1,0,.66-.17l-1.6-6,1.52.88,1.28,4.8a.34.34,0,0,0,.66-.17l-1.1-4.15,1,.58.52.3.78,2.94a.34.34,0,1,0,.66-.18l-.61-2.29L93.49,661a.34.34,0,0,0,.46-.12A.34.34,0,0,0,93.95,660.56ZM82.24,647.14h0Zm-19.85-4.55h0Zm13.88-8h0Zm0,9.12h0Zm0,23h0Zm0-11-4.4-2.52v-5.07l4.38-2.55,4.4,2.52v5.07Zm6-1.53h0Z"/><path class="cls-25" d="M87.89,643.43,89,639.28a.34.34,0,0,0-.66-.17l-1.25,4.81Z"/><path class="cls-25" d="M90.83,639.77a.34.34,0,1,0-.66-.17l-.77,2.95.83-.49Z"/><g class="cls-26"><path class="cls-25" d="M461.3,395.67l-5.71-3.28a.63.63,0,0,0-.63,0l-5.69,3.3a.63.63,0,0,0-.31.55l0,6.58a.63.63,0,0,0,.32.54l5.71,3.28a.63.63,0,0,0,.31.08.64.64,0,0,0,.32-.09l5.69-3.3a.63.63,0,0,0,.31-.55l0-6.58A.63.63,0,0,0,461.3,395.67Zm-6,9.7-5.07-2.91v-5.85l5.06-2.94,5.07,2.91v5.85Z"/><path class="cls-25" d="M434.38,395.79l8.91-2.37-1.54-.9-7.69,2a.63.63,0,1,0,.32,1.22Z"/><path class="cls-25" d="M424.74,387.28l5.46-1.45-1.54-.9-4.24,1.13a.63.63,0,1,0,.32,1.22Z"/><path class="cls-25" d="M432.83,378.36a.63.63,0,1,0-1.22.32l2,7.69,1.54.9Z"/><path class="cls-25" d="M440.79,383a.63.63,0,0,0-.45.77l2,7.69,1.54.9-2.37-8.91A.63.63,0,0,0,440.79,383Z"/><path class="cls-25" d="M488.07,418a.62.62,0,0,0-.21-.22l-6-3.46h0l4.24-1.13a.63.63,0,1,0-.32-1.22l-5.46,1.45-1.09-.63-1.47-.85-.26-.15-.69-.4-.4-.23-.13-.08,1.23.71,7.69-2a.63.63,0,1,0-.32-1.22L476,410.92l-1.09-.63-.39-.23-1.34-.78,11.14-3a.63.63,0,0,0-.32-1.22l-12.36,3.29-.42-.24-2.34-1.36-.84-.49.77.45,7.69-2a.63.63,0,1,0-.32-1.22l-8.91,2.37-1.09-.63h0l-1.37-.8-.07,0,0-9.57.07,0,1.37-.8h0l.28-.17.81-.47h0l8.92,2.33a.63.63,0,0,0,.32-1.22l-7.7-2,2.81-1.65L483.94,394a.63.63,0,0,0,.32-1.22l-11.15-2.91,1.54-.9.18-.11.26-.15.83-.48,8.92,2.33a.63.63,0,1,0,.32-1.22l-7.7-2,1.73-1,1.09-.64,5.47,1.43a.63.63,0,1,0,.32-1.22l-4.25-1.11,6-3.49a.63.63,0,1,0-.64-1.09l-6,3.49-1.54.9-.41.24-.68.4-2.81,1.65-.59.35-1.87,1.1-.8.47,2.91-11.15a.63.63,0,1,0-1.22-.32l-3.23,12.37-1.09.64-1.72,1,2-7.7a.63.63,0,1,0-1.22-.32l-2.33,8.92-1.09.64h0l-1.37.8,0,0L455.9,389h0v-2.85h0l6.52-6.52a.63.63,0,1,0-.89-.89l-5.63,5.63v-3.26l9-9a.63.63,0,0,0-.89-.89l-8.15,8.15v-3.26l6.52-6.52a.63.63,0,0,0-.89-.89l-5.63,5.63V371h0l4-4a.63.63,0,1,0-.89-.89l-3.11,3.1v-6.9h0a.63.63,0,0,0-.63-.63h0a.63.63,0,0,0-.63.63h0v6.9l-3.1-3.1a.63.63,0,0,0-.89.89l4,4h0v3.26L449,368.66a.63.63,0,0,0-.89.89l6.52,6.52v3.26l-8.15-8.15a.63.63,0,1,0-.89.89l9,9h0v3.26L449,378.75a.63.63,0,0,0-.89.89l6.52,6.52h0V389h0l-8.21,4.77,0,0L445,393h0l-.87-.51-.22-.13h0l-1.54-.89-1-.6-.7-.4-1.54-.89h0l-.09-.05.57.33-3.28-12.36a.63.63,0,1,0-1.22.32l3,11.14-1.95-1.13-1.12-.65-1.29-.75-1.71-1h0l-1.09-.63-1.45-5.46a.63.63,0,1,0-1.22.32l1.13,4.24-6-3.46a.62.62,0,0,0-.76.11.61.61,0,0,0-.11.12.63.63,0,0,0,.23.86l7.06,4.1h0l.45.26,2.82,1.64-7.69,2a.63.63,0,1,0,.32,1.22l8.91-2.37,2.82,1.64h0l-11.14,3a.63.63,0,0,0,.32,1.22l12.36-3.28.18.1.91.53,1,.59.71.41,1.54.9,2.47,1.43.12,0,0,9.54-.12,0-2.46,1.44-8.92-2.33a.63.63,0,0,0-.32,1.22l7.7,2h0l-.78.46-.95.56-1.09.64-12.37-3.23a.63.63,0,0,0-.32,1.22l11.15,2.91-1.61.94-1.21.71h0l-8.92-2.33a.63.63,0,0,0-.32,1.22l7.7,2-.61.36-2.2,1.29h0l-5.47-1.43a.63.63,0,0,0-.32,1.22l4.25,1.11-6,3.49a.63.63,0,1,0,.64,1.09l6-3.49-1.11,4.25a.63.63,0,1,0,1.22.32l1.43-5.47h0l1-.57L432,414l1.73-1-2,7.7a.63.63,0,1,0,1.22.32l2.33-8.92,1.79-1.05,1-.6-2.91,11.15a.63.63,0,1,0,1.22.32l3.23-12.37,1.09-.64,1.72-1-2,7.7a.63.63,0,0,0,1.22.32L444,407l1.09-.64,1.37-.8a.63.63,0,0,0,.19-.17l8.08,4.64a.63.63,0,0,0,0,.24h0v2.85l-6.52,6.52a.63.63,0,0,0,.89.89l5.63-5.63v3.26l-9,9a.63.63,0,1,0,.89.89l8.15-8.15v3.26l-6.52,6.52a.63.63,0,0,0,.89.89l5.63-5.63v3.26h0l-4,4a.63.63,0,0,0,.89.89l3.1-3.1v6.9h0a.63.63,0,0,0,.63.63h0a.63.63,0,0,0,.63-.63h0V430l3.11,3.1a.63.63,0,1,0,.89-.89l-4-4h0V425l5.63,5.63a.63.63,0,1,0,.89-.89l-6.52-6.52v-3.26l8.15,8.15a.63.63,0,1,0,.89-.89l-9-9V414.9l5.63,5.63a.63.63,0,0,0,.89-.89l-6.52-6.52v-2.85h0a.61.61,0,0,0,0-.2l8.11-4.71a.63.63,0,0,0,.18.16l1.16.67.22.12,1.09.63h0l2.37,8.91a.63.63,0,0,0,1.22-.32l-2-7.69,1.41.82.32.18,1.09.63,3.28,12.36a.63.63,0,1,0,1.22-.32l-3-11.14,2.82,1.64,2.37,8.91a.63.63,0,0,0,1.22-.32l-2-7.69,1.87,1.08,1,.55,1.45,5.46a.63.63,0,1,0,1.22-.32l-1.13-4.24,6,3.46a.63.63,0,0,0,.86-.23A.62.62,0,0,0,488.07,418Zm-21.72-24.89h0Zm-36.83-8.44h0Zm25.75-14.83h0Zm0,16.92h0Zm0,42.62h0Zm0-20.48-8.16-4.68,0-9.4,8.13-4.72,8.16,4.68,0,9.4Zm11.07-2.84h0Z"/><path class="cls-25" d="M476.82,386.27l2-7.7a.63.63,0,0,0-1.22-.32l-2.33,8.92Z"/><path class="cls-25" d="M482.28,379.47a.63.63,0,1,0-1.22-.32l-1.43,5.47,1.54-.9Z"/></g><path class="cls-25" d="M591.93,570.28,582.79,565a1,1,0,0,0-1,0l-9.12,5.29a1,1,0,0,0-.5.88l0,10.55a1,1,0,0,0,.51.87l9.15,5.25a1,1,0,0,0,.5.13,1,1,0,0,0,.51-.14l9.12-5.29a1,1,0,0,0,.5-.88l0-10.55A1,1,0,0,0,591.93,570.28Zm-9.6,15.55-8.13-4.67,0-9.38,8.11-4.71,8.13,4.67,0,9.38Z"/><path class="cls-25" d="M548.79,570.47l14.28-3.8-2.47-1.44-12.33,3.28a1,1,0,1,0,.52,2Z"/><path class="cls-25" d="M533.33,556.83l8.76-2.33-2.47-1.44-6.8,1.81a1,1,0,1,0,.52,2Z"/><path class="cls-25" d="M546.3,542.52a1,1,0,1,0-2,.52l3.28,12.33,2.47,1.44Z"/><path class="cls-25" d="M559.06,549.92a1,1,0,0,0-.72,1.24l3.28,12.33,2.47,1.44-3.79-14.28A1,1,0,0,0,559.06,549.92Z"/><path class="cls-25" d="M634.85,606.13a1,1,0,0,0-.34-.36l-9.58-5.55h0l6.8-1.81a1,1,0,1,0-.52-2l-8.76,2.33-1.75-1-2.35-1.36-.42-.25-1.11-.64-.64-.37L616,595l2,1.14,12.33-3.27a1,1,0,1,0-.52-2l-14.28,3.8-1.75-1-.63-.36-2.15-1.25,17.86-4.75a1,1,0,0,0-.52-2l-19.81,5.27-.68-.39L604,588.1l-1.34-.78,1.24.72,12.33-3.27a1,1,0,1,0-.52-2l-14.28,3.8-1.75-1h0l-2.2-1.28-.11,0,0-15.34.11,0,2.2-1.29h0l.45-.27,1.29-.76h0l14.3,3.73a1,1,0,0,0,.51-2l-12.35-3.22,4.51-2.65,19.83,5.17a1,1,0,0,0,.51-2L610.86,561l2.47-1.45.29-.17.42-.25,1.32-.78,14.3,3.73a1,1,0,1,0,.51-2L617.84,557l2.77-1.62,1.75-1,8.77,2.29a1,1,0,1,0,.51-2l-6.81-1.78,9.55-5.6a1,1,0,1,0-1-1.75l-9.55,5.6-2.47,1.45-.66.39-1.09.64-4.51,2.64-1,.56-3,1.76-1.28.75,4.66-17.88a1,1,0,1,0-2-.51l-5.17,19.83-1.75,1-2.76,1.62L606.08,551a1,1,0,1,0-2-.51l-3.73,14.3-1.74,1h0l-2.2,1.29,0,0-13.15-7.55v0h0V555h0l10.45-10.45a1,1,0,1,0-1.43-1.43l-9,9v-5.23l14.49-14.5a1,1,0,1,0-1.43-1.43l-13.07,13.07v-5.23l10.45-10.45A1,1,0,1,0,592.3,527l-9,9v-5.23h0l6.41-6.41a1,1,0,1,0-1.43-1.43l-5,5V516.84h0a1,1,0,0,0-1-1h0a1,1,0,0,0-1,1h0v11.07l-5-5a1,1,0,1,0-1.43,1.43l6.41,6.4h0V536l-9-9a1,1,0,1,0-1.43,1.43l10.45,10.45v5.23L568.19,531a1,1,0,0,0-1.43,1.43l14.49,14.49h0v5.23l-9-9a1,1,0,1,0-1.43,1.43L581.26,555h0v4.57h0v0l-13.16,7.64-.06-.05-2.2-1.28h0l-1.4-.81-.35-.2h0l-2.47-1.43-1.66-1-1.12-.65-2.47-1.43,0,0-.15-.09.91.53-5.26-19.81a1,1,0,1,0-2,.52l4.74,17.86-3.13-1.81-1.8-1-2.07-1.2-2.74-1.59,0,0-1.75-1L540.78,544a1,1,0,1,0-2,.52l1.81,6.8-9.58-5.55a1,1,0,0,0-1.21.18,1,1,0,0,0-.17.19,1,1,0,0,0,.37,1.38l11.32,6.57h0l.72.42,4.52,2.62-12.33,3.28a1,1,0,1,0,.52,2l14.28-3.79,4.52,2.62h0l-17.86,4.75a1,1,0,0,0,.52,2l19.81-5.26.29.17,1.46.85,1.64,1,1.13.66,2.47,1.44,4,2.29a1,1,0,0,0,.19.06l0,15.29a1,1,0,0,0-.19.06l-3.94,2.31L548.82,583a1,1,0,0,0-.51,2l12.35,3.22h0l-1.25.73-1.52.89-1.74,1-19.83-5.17a1,1,0,0,0-.51,2l17.88,4.66-2.57,1.51-1.94,1.13h0l-14.3-3.73a1,1,0,0,0-.51,2l12.34,3.22-1,.57L542.19,599h0l-8.77-2.28a1,1,0,0,0-.51,2l6.81,1.78-9.55,5.6a1,1,0,0,0,1,1.74l9.55-5.6L539,609a1,1,0,1,0,2,.51l2.29-8.77h0l1.56-.91.18-.11,2.77-1.62-3.22,12.35a1,1,0,1,0,2,.51l3.73-14.3,2.87-1.68,1.64-1L550,611.86a1,1,0,1,0,2,.51l5.17-19.83,1.75-1,2.76-1.62-3.22,12.34a1,1,0,0,0,2,.51l3.73-14.3,1.75-1,2.2-1.29a1,1,0,0,0,.31-.28l12.95,7.43a1,1,0,0,0-.08.39h0v4.57l-10.45,10.45a1,1,0,1,0,1.43,1.43l9-9v5.23l-14.49,14.49a1,1,0,0,0,1.43,1.43l13.07-13.06v5.23l-10.45,10.45a1,1,0,1,0,1.43,1.43l9-9v5.23h0l-6.41,6.41a1,1,0,1,0,1.43,1.43l5-5v11.07h0a1,1,0,0,0,1,1h0a1,1,0,0,0,1-1h0V625.37l5,5a1,1,0,0,0,1.43-1.43l-6.41-6.41h0v-5.23l9,9a1,1,0,1,0,1.43-1.43l-10.45-10.45v-5.23l13.07,13.06a1,1,0,0,0,1.43-1.43l-14.49-14.49V601.1l9,9a1,1,0,1,0,1.43-1.43l-10.45-10.45v-4.57h0a1,1,0,0,0-.06-.32l13-7.55a1,1,0,0,0,.28.25l1.86,1.08.34.2,1.75,1h0l3.79,14.28a1,1,0,0,0,2-.52l-3.28-12.33,2.27,1.32.51.29,1.75,1,5.26,19.81a1,1,0,1,0,2-.52l-4.75-17.86,4.52,2.62,3.79,14.28a1,1,0,0,0,2-.52l-3.28-12.33,3,1.74,1.53.89,2.33,8.76a1,1,0,1,0,2-.52l-1.81-6.8,9.58,5.55a1,1,0,0,0,1.38-.37A1,1,0,0,0,634.85,606.13ZM600,566.22h0ZM541,552.7h0Zm41.27-23.77h0Zm0,27.12h0Zm0,68.31h0Zm.07-32.83L569.27,584l0-15.07,13-7.57,13.07,7.51,0,15.07ZM600.08,587h0Z"/><path class="cls-25" d="M616.82,555.21,620,542.87a1,1,0,0,0-2-.51l-3.73,14.3Z"/><path class="cls-25" d="M625.57,544.31a1,1,0,1,0-2-.51l-2.29,8.77,2.47-1.45Z"/><path class="cls-25" d="M165.54,445.81l-4.06-2.32a.45.45,0,0,0-.45,0l-4,2.35a.45.45,0,0,0-.22.39l0,4.67a.45.45,0,0,0,.23.39l4.06,2.32a.45.45,0,0,0,.22.06.45.45,0,0,0,.22-.06l4-2.35a.45.45,0,0,0,.22-.39l0-4.67A.45.45,0,0,0,165.54,445.81Zm-4.24,6.9-3.61-2.06,0-4.15,3.59-2.09,3.61,2.06,0,4.15Z"/><path class="cls-25" d="M146.43,445.94l6.32-1.69-1.1-.63-5.46,1.46a.45.45,0,1,0,.23.87Z"/><path class="cls-25" d="M139.57,439.9l3.88-1-1.1-.63-3,.81a.45.45,0,1,0,.23.87Z"/><path class="cls-25" d="M145.31,433.56a.45.45,0,1,0-.87.23l1.46,5.46,1.1.63Z"/><path class="cls-25" d="M151,436.82a.45.45,0,0,0-.32.55l1.46,5.46,1.1.63-1.69-6.32A.45.45,0,0,0,151,436.82Z"/><path class="cls-25" d="M184.58,461.66a.44.44,0,0,0-.15-.16L180.18,459h0l3-.81a.45.45,0,1,0-.23-.86l-3.88,1-.78-.45-1-.6-.19-.11-.49-.28-.28-.16-.1-.06.87.5,5.46-1.46a.45.45,0,1,0-.23-.87L176,456.62l-.78-.45-.28-.16-1-.55,7.91-2.12a.45.45,0,0,0-.23-.87l-8.77,2.35-.3-.17-1.66-1-.6-.34.55.32,5.46-1.46a.45.45,0,1,0-.23-.87L169.78,453l-.78-.45h0l-1-.56,0,0,0-6.8,0,0,1-.57h0l.2-.12.57-.34h0l6.34,1.64a.45.45,0,0,0,.22-.87l-5.47-1.41,2-1.18,8.79,2.27a.45.45,0,0,0,.22-.87l-7.92-2,1.09-.64.13-.08.19-.11.59-.34,6.34,1.64a.45.45,0,1,0,.22-.87L177,439.89l1.22-.72.77-.45,3.88,1a.45.45,0,1,0,.22-.87l-3-.78,4.22-2.49a.45.45,0,1,0-.45-.77l-4.23,2.49-1.09.64-.29.17-.48.28-2,1.18-.42.25-1.33.78-.57.33,2-7.92a.45.45,0,1,0-.87-.22l-2.27,8.79-.77.45-1.22.72,1.42-5.47a.45.45,0,1,0-.87-.22l-1.64,6.34-.77.45h0l-1,.57h0l-5.83-3.33h0v-2h0l4.62-4.64a.45.45,0,0,0-.63-.63l-4,4v-2.32l6.41-6.43a.45.45,0,1,0-.63-.63l-5.78,5.8V431.9l4.62-4.64a.45.45,0,1,0-.63-.63l-4,4v-2.32h0l2.83-2.84a.45.45,0,1,0-.63-.63l-2.2,2.21v-4.9h0a.45.45,0,0,0-.45-.45h0a.45.45,0,0,0-.45.45h0v4.9l-2.21-2.2a.45.45,0,1,0-.63.63l2.84,2.83h0v2.32l-4-4a.45.45,0,1,0-.63.63l4.64,4.62v2.32l-5.8-5.78a.45.45,0,1,0-.63.63l6.43,6.41h0v2.32l-4-4a.45.45,0,0,0-.63.63l4.64,4.62h0v2h0L155,444.5l0,0-1-.56h0l-.62-.36-.15-.09h0l-1.1-.63-.74-.42-.49-.29-1.1-.63h0l-.07,0,.4.23-2.35-8.77a.45.45,0,1,0-.87.23L149,441l-1.39-.8-.8-.46-.92-.53-1.22-.7h0l-.78-.45-1-3.88a.45.45,0,1,0-.87.23l.81,3L138.56,435a.44.44,0,0,0-.54.08.43.43,0,0,0-.08.09.45.45,0,0,0,.16.61l5,2.9h0l.32.19,2,1.16L140,441.49a.45.45,0,1,0,.23.87l6.32-1.69,2,1.16h0l-7.91,2.12a.45.45,0,0,0,.23.87l8.77-2.35.13.07.65.37.73.42.5.29,1.1.63,1.75,1,.08,0,0,6.77-.08,0-1.74,1-6.34-1.64a.45.45,0,0,0-.22.87l5.47,1.42h0l-.55.32-.67.4-.77.45-8.79-2.27a.45.45,0,0,0-.22.87l7.92,2-1.14.67-.86.5h0l-6.34-1.64a.45.45,0,0,0-.22.87l5.47,1.42-.43.25-1.56.92h0l-3.89-1a.45.45,0,0,0-.22.87l3,.78-4.22,2.49a.45.45,0,1,0,.45.77L142.9,460l-.78,3a.45.45,0,1,0,.87.22l1-3.88h0l.69-.41.08,0,1.22-.72-1.42,5.47a.45.45,0,1,0,.87.22l1.64-6.34,1.27-.75.72-.43-2,7.92a.45.45,0,1,0,.87.22l2.27-8.79.77-.45,1.22-.72L150.74,460a.45.45,0,0,0,.87.22l1.64-6.34.77-.45,1-.57a.44.44,0,0,0,.14-.12l5.74,3.28a.45.45,0,0,0,0,.17h0v2l-4.62,4.64a.45.45,0,1,0,.63.63l4-4v2.32l-6.41,6.43a.45.45,0,0,0,.63.63l5.78-5.8v2.32L156.23,470a.45.45,0,0,0,.63.63l4-4V469h0L158,471.8a.45.45,0,1,0,.63.63l2.2-2.21v4.9h0a.45.45,0,0,0,.45.45h0a.45.45,0,0,0,.45-.45h0v-4.9l2.21,2.2a.45.45,0,1,0,.63-.63L161.76,469h0v-2.32l4,4a.45.45,0,1,0,.63-.63l-4.64-4.62v-2.32l5.8,5.78a.45.45,0,1,0,.63-.63l-6.43-6.41v-2.32l4,4a.45.45,0,1,0,.63-.63l-4.64-4.62v-2h0a.43.43,0,0,0,0-.14l5.75-3.35a.45.45,0,0,0,.13.11l.82.48.15.09.78.45h0l1.69,6.32a.45.45,0,0,0,.87-.23l-1.46-5.46,1,.58.22.13.78.45,2.35,8.77a.45.45,0,1,0,.87-.23l-2.12-7.91,2,1.16,1.69,6.32a.45.45,0,0,0,.86-.23L176.63,458l1.33.77.68.39,1,3.88a.45.45,0,1,0,.86-.23l-.81-3,4.25,2.45a.45.45,0,0,0,.61-.16A.44.44,0,0,0,184.58,461.66ZM169.13,444h0ZM143,438.07h0Zm18.26-10.57h0Zm0,12h0Zm.06,30.26h0Zm0-14.54-5.8-3.31,0-6.68,5.77-3.36,5.8,3.31,0,6.68Zm7.85-2h0Z"/><path class="cls-25" d="M176.55,439.12l1.42-5.47a.45.45,0,0,0-.87-.22l-1.64,6.34Z"/><path class="cls-25" d="M180.42,434.28a.45.45,0,1,0-.87-.22l-1,3.89,1.09-.64Z"/><path class="cls-25" d="M336.78,559.36l-6.16-3.54a.68.68,0,0,0-.68,0l-6.14,3.56a.68.68,0,0,0-.34.59l0,7.1a.68.68,0,0,0,.34.59L330,571.2a.68.68,0,0,0,.34.09.69.69,0,0,0,.34-.09l6.14-3.56a.68.68,0,0,0,.34-.59l0-7.1A.68.68,0,0,0,336.78,559.36Zm-6.47,10.47-5.47-3.14v-6.31l5.46-3.17,5.47,3.14,0,6.31Z"/><path class="cls-25" d="M307.73,559.49l9.62-2.56-1.67-1-8.3,2.21a.68.68,0,1,0,.35,1.32Z"/><path class="cls-25" d="M297.32,550.3l5.89-1.57-1.66-1L297,549a.68.68,0,1,0,.35,1.32Z"/><path class="cls-25" d="M306.06,540.67a.68.68,0,1,0-1.32.35l2.21,8.3,1.66,1Z"/><path class="cls-25" d="M314.64,545.65a.68.68,0,0,0-.48.83l2.21,8.3,1.66,1-2.55-9.62A.68.68,0,0,0,314.64,545.65Z"/><path class="cls-25" d="M365.66,583.49a.67.67,0,0,0-.23-.24L359,579.51h0l4.58-1.22a.68.68,0,1,0-.35-1.31l-5.89,1.57-1.18-.68-1.58-.92-.29-.17-.75-.43-.43-.25L353,576l1.32.77,8.3-2.2a.68.68,0,1,0-.35-1.32l-9.62,2.56-1.18-.68-.42-.24-1.44-.84,12-3.19a.68.68,0,0,0-.35-1.32l-13.34,3.54-.46-.26-2.52-1.46-.9-.52.83.48,8.3-2.2a.68.68,0,1,0-.35-1.32l-9.61,2.56-1.18-.68h0l-1.48-.86-.08,0,0-10.33.07,0,1.48-.87h0l.31-.18.87-.51h0l9.63,2.51a.68.68,0,0,0,.34-1.32l-8.31-2.17,3-1.78,13.35,3.48a.68.68,0,0,0,.34-1.32l-12-3.14,1.66-1,.2-.12.28-.17.89-.52,9.63,2.51a.68.68,0,1,0,.34-1.32l-8.31-2.17,1.86-1.09,1.17-.69,5.9,1.54a.68.68,0,1,0,.34-1.32l-4.58-1.2,6.43-3.77a.68.68,0,1,0-.69-1.17l-6.43,3.77-1.66,1-.44.26-.73.43-3,1.78-.64.38-2,1.19-.86.5,3.14-12a.68.68,0,1,0-1.32-.34l-3.48,13.35-1.18.69-1.86,1.09,2.17-8.31a.68.68,0,1,0-1.32-.34l-2.51,9.63-1.17.69h0l-1.48.87,0,0-8.85-5.08h0V549.1h0l7-7a.68.68,0,0,0-1-1L331,547.17v-3.52l9.76-9.76a.68.68,0,0,0-1-1l-8.8,8.8v-3.52l7-7a.68.68,0,0,0-1-1L331,536.28v-3.52h0l4.31-4.31a.68.68,0,1,0-1-1L331,530.84v-7.45h0a.68.68,0,0,0-.68-.68h0a.68.68,0,0,0-.68.68h0v7.45l-3.35-3.35a.68.68,0,1,0-1,1l4.31,4.31h0v3.52l-6.07-6.07a.68.68,0,0,0-1,1l7,7v3.52l-8.8-8.8a.68.68,0,0,0-1,1l9.76,9.76h0v3.52l-6.07-6.07a.68.68,0,1,0-1,1l7,7h0v3.08h0l-8.86,5.14,0,0-1.48-.86h0l-.94-.55-.24-.14h0l-1.66-1-1.12-.65-.75-.44-1.66-1h0l-.1-.06.61.35-3.54-13.34a.68.68,0,1,0-1.32.35l3.19,12-2.1-1.22-1.21-.7-1.4-.81-1.85-1.07h0l-1.18-.68-1.57-5.89A.68.68,0,1,0,301,542l1.22,4.58-6.45-3.74a.67.67,0,0,0-.82.12.66.66,0,0,0-.11.13.68.68,0,0,0,.25.93l7.62,4.42h0l.49.28,3,1.77-8.3,2.21a.68.68,0,1,0,.35,1.32l9.62-2.55,3,1.77h0l-12,3.19a.68.68,0,0,0,.35,1.32l13.34-3.54.19.11,1,.57,1.11.64.76.44,1.67,1,2.66,1.54.13,0,0,10.29-.13,0-2.65,1.56-9.63-2.51a.68.68,0,0,0-.34,1.32l8.31,2.17h0l-.84.49-1,.6-1.17.69-13.35-3.48A.68.68,0,0,0,299,571l12,3.14-1.73,1-1.3.76h0l-9.63-2.51a.68.68,0,0,0-.34,1.32l8.31,2.17-.66.39-2.38,1.39h0l-5.9-1.54a.68.68,0,0,0-.34,1.32l4.59,1.2-6.43,3.77a.68.68,0,1,0,.69,1.17l6.43-3.77-1.2,4.58a.68.68,0,1,0,1.32.34l1.54-5.9h0l1-.62.12-.07,1.86-1.09-2.17,8.31a.68.68,0,1,0,1.32.34l2.51-9.63,1.93-1.13,1.1-.65-3.14,12a.68.68,0,1,0,1.32.34l3.48-13.35,1.18-.69,1.86-1.09-2.17,8.31a.68.68,0,0,0,1.32.34l2.51-9.63,1.17-.69,1.48-.87a.67.67,0,0,0,.21-.19l8.72,5a.68.68,0,0,0-.05.26h0v3.08l-7,7a.68.68,0,1,0,1,1l6.07-6.07v3.52l-9.76,9.76a.68.68,0,0,0,1,1l8.8-8.79v3.52l-7,7a.68.68,0,0,0,1,1l6.07-6.07v3.52h0l-4.31,4.31a.68.68,0,0,0,1,1l3.35-3.35v7.45h0a.68.68,0,0,0,.68.68h0a.68.68,0,0,0,.68-.68h0v-7.45l3.35,3.35a.68.68,0,1,0,1-1L331,594.52h0V591l6.07,6.07a.68.68,0,0,0,1-1l-7-7v-3.52l8.8,8.79a.68.68,0,0,0,1-1L331,583.63v-3.52l6.07,6.07a.68.68,0,1,0,1-1l-7-7v-3.08h0a.66.66,0,0,0,0-.21l8.75-5.08a.68.68,0,0,0,.19.17l1.25.73.23.13,1.18.68h0l2.55,9.62a.68.68,0,0,0,1.32-.35l-2.21-8.3,1.53.89.34.2,1.18.68,3.54,13.34a.68.68,0,1,0,1.32-.35l-3.19-12,3,1.77,2.55,9.62a.68.68,0,0,0,1.31-.35l-2.21-8.3,2,1.17,1,.6,1.57,5.89a.68.68,0,1,0,1.31-.35l-1.22-4.58,6.45,3.74a.68.68,0,0,0,.93-.25A.67.67,0,0,0,365.66,583.49Zm-23.43-26.86h0Zm-39.74-9.11h0Zm27.79-16h0Zm0,18.26h0Zm0,46h0Zm.05-22.1-8.8-5.05,0-10.15,8.78-5.1,8.8,5.05,0,10.15Zm11.94-3.07h0Z"/><path class="cls-25" d="M353.53,549.21l2.17-8.31a.68.68,0,0,0-1.32-.34l-2.51,9.63Z"/><path class="cls-25" d="M359.42,541.87a.68.68,0,1,0-1.32-.34l-1.54,5.9,1.66-1Z"/><path class="cls-25" d="M71.78,376.36l-6.16-3.54a.68.68,0,0,0-.68,0l-6.14,3.56a.68.68,0,0,0-.34.59l0,7.1a.68.68,0,0,0,.34.59L65,388.2a.68.68,0,0,0,.34.09.69.69,0,0,0,.34-.09l6.14-3.56a.68.68,0,0,0,.34-.59l0-7.1A.68.68,0,0,0,71.78,376.36Zm-6.47,10.47-5.47-3.14v-6.31l5.46-3.17,5.47,3.14,0,6.31Z"/><path class="cls-25" d="M42.73,376.49l9.62-2.56-1.67-1-8.3,2.21a.68.68,0,1,0,.35,1.32Z"/><path class="cls-25" d="M32.32,367.3l5.89-1.57-1.66-1L32,366a.68.68,0,1,0,.35,1.32Z"/><path class="cls-25" d="M41.06,357.67a.68.68,0,1,0-1.32.35l2.21,8.3,1.66,1Z"/><path class="cls-25" d="M49.64,362.65a.68.68,0,0,0-.48.83l2.21,8.3,1.66,1-2.55-9.62A.68.68,0,0,0,49.64,362.65Z"/><path class="cls-25" d="M100.66,400.49a.67.67,0,0,0-.23-.24L94,396.51h0l4.58-1.22a.68.68,0,1,0-.35-1.31l-5.89,1.57-1.18-.68-1.58-.92-.29-.17-.75-.43-.43-.25L88,393l1.32.77,8.3-2.2a.68.68,0,1,0-.35-1.32l-9.62,2.56-1.18-.68-.42-.24L84.57,391l12-3.19a.68.68,0,0,0-.35-1.32L82.9,390.08l-.46-.26-2.52-1.46-.9-.52.83.48,8.3-2.2a.68.68,0,1,0-.35-1.32l-9.61,2.56L77,386.67h0l-1.48-.86-.08,0,0-10.33.07,0,1.48-.87h0l.31-.18.87-.51h0l9.63,2.51a.68.68,0,0,0,.34-1.32l-8.31-2.17,3-1.78,13.35,3.48a.68.68,0,0,0,.34-1.32l-12-3.14,1.66-1,.2-.12.28-.17.89-.52,9.63,2.51a.68.68,0,1,0,.34-1.32l-8.31-2.17,1.86-1.09,1.17-.69,5.9,1.54a.68.68,0,1,0,.34-1.32l-4.58-1.2,6.43-3.77a.68.68,0,1,0-.69-1.17l-6.43,3.77-1.66,1-.44.26-.73.43-3,1.78-.64.38-2,1.19-.86.5,3.14-12a.68.68,0,1,0-1.32-.34l-3.48,13.35-1.18.69-1.86,1.09,2.17-8.31a.68.68,0,1,0-1.32-.34l-2.51,9.63-1.17.69h0l-1.48.87,0,0-8.85-5.08h0V366.1h0l7-7a.68.68,0,1,0-1-1L66,364.17v-3.52l9.76-9.76a.68.68,0,0,0-1-1l-8.8,8.8v-3.52l7-7a.68.68,0,1,0-1-1L66,353.28v-3.52h0l4.31-4.31a.68.68,0,1,0-1-1L66,347.84v-7.45h0a.68.68,0,0,0-.68-.68h0a.68.68,0,0,0-.68.68h0v7.45l-3.35-3.35a.68.68,0,1,0-1,1l4.31,4.31h0v3.52l-6.07-6.07a.68.68,0,1,0-1,1l7,7v3.52l-8.8-8.8a.68.68,0,0,0-1,1l9.76,9.76h0v3.52l-6.07-6.07a.68.68,0,0,0-1,1l7,7h0v3.08h0l-8.86,5.14,0,0-1.48-.86h0l-.94-.55-.24-.14h0l-1.66-1-1.12-.65-.75-.44-1.66-1h0l-.1-.06.61.35-3.54-13.34a.68.68,0,1,0-1.32.35l3.19,12-2.1-1.22-1.21-.7-1.4-.81-1.85-1.07h0l-1.18-.68-1.57-5.89A.68.68,0,1,0,36,359l1.22,4.58-6.45-3.74A.67.67,0,0,0,30,360a.66.66,0,0,0-.11.13.68.68,0,0,0,.25.93l7.62,4.42h0l.49.28,3,1.77L33,369.71a.68.68,0,1,0,.35,1.32l9.62-2.55,3,1.77h0l-12,3.19a.68.68,0,0,0,.35,1.32l13.34-3.54.19.11,1,.57,1.11.64.76.44,1.67,1L55,375.47l.13,0,0,10.29-.13,0-2.65,1.56-9.63-2.51a.68.68,0,0,0-.34,1.32l8.31,2.17h0l-.84.49-1,.6-1.17.69-13.35-3.48A.68.68,0,0,0,34,388l12,3.14-1.73,1-1.3.76h0l-9.63-2.51a.68.68,0,0,0-.34,1.32l8.31,2.17-.66.39-2.38,1.39h0l-5.9-1.54a.68.68,0,0,0-.34,1.32l4.59,1.2-6.43,3.77a.68.68,0,1,0,.69,1.17l6.43-3.77-1.2,4.58a.68.68,0,1,0,1.32.34l1.54-5.9h0l1-.62.12-.07L42,395.07l-2.17,8.31a.68.68,0,1,0,1.32.34l2.51-9.63L45.61,393l1.1-.65-3.14,12a.68.68,0,1,0,1.32.34l3.48-13.35,1.18-.69,1.86-1.09-2.17,8.31a.68.68,0,0,0,1.32.34l2.51-9.63,1.17-.69,1.48-.87a.67.67,0,0,0,.21-.19l8.72,5a.68.68,0,0,0-.05.26h0v3.08l-7,7a.68.68,0,1,0,1,1l6.07-6.07v3.52l-9.76,9.76a.68.68,0,0,0,1,1l8.8-8.79v3.52l-7,7a.68.68,0,1,0,1,1L64.59,408v3.52h0l-4.31,4.31a.68.68,0,0,0,1,1l3.35-3.35v7.45h0a.68.68,0,0,0,.68.68h0a.68.68,0,0,0,.68-.68h0v-7.45l3.35,3.35a.68.68,0,1,0,1-1L66,411.52h0V408L72,414.07a.68.68,0,1,0,1-1l-7-7v-3.52l8.8,8.79a.68.68,0,0,0,1-1L66,400.63v-3.52L72,403.18a.68.68,0,1,0,1-1l-7-7v-3.08h0a.66.66,0,0,0,0-.21l8.75-5.08a.68.68,0,0,0,.19.17l1.25.73.23.13,1.18.68h0l2.55,9.62a.68.68,0,0,0,1.32-.35l-2.21-8.3,1.53.89.34.2,1.18.68,3.54,13.34a.68.68,0,1,0,1.32-.35l-3.19-12,3,1.77,2.55,9.62a.68.68,0,0,0,1.31-.35L88.59,395l2,1.17,1,.6,1.57,5.89a.68.68,0,1,0,1.31-.35l-1.22-4.58,6.45,3.74a.68.68,0,0,0,.93-.25A.67.67,0,0,0,100.66,400.49ZM77.23,373.63h0Zm-39.74-9.11h0Zm27.79-16h0Zm0,18.26h0Zm0,46h0Zm.05-22.1-8.8-5.05,0-10.15,8.78-5.1,8.8,5.05,0,10.15Zm11.94-3.07h0Z"/><path class="cls-25" d="M88.53,366.21l2.17-8.31a.68.68,0,0,0-1.32-.34l-2.51,9.63Z"/><path class="cls-25" d="M94.42,358.87a.68.68,0,1,0-1.32-.34l-1.54,5.9,1.66-1Z"/><g class="cls-26"><path class="cls-25" d="M153.78,128.36l-6.16-3.54a.68.68,0,0,0-.68,0l-6.14,3.56a.68.68,0,0,0-.34.59l0,7.1a.68.68,0,0,0,.34.59L147,140.2a.68.68,0,0,0,.34.09.69.69,0,0,0,.34-.09l6.14-3.56a.68.68,0,0,0,.34-.59l0-7.1A.68.68,0,0,0,153.78,128.36Zm-6.47,10.47-5.47-3.14v-6.31l5.46-3.17,5.47,3.14,0,6.31Z"/><path class="cls-25" d="M124.73,128.49l9.62-2.56-1.67-1-8.3,2.21a.68.68,0,1,0,.35,1.32Z"/><path class="cls-25" d="M114.32,119.3l5.89-1.57-1.66-1L114,118a.68.68,0,1,0,.35,1.32Z"/><path class="cls-25" d="M123.06,109.67a.68.68,0,1,0-1.32.35l2.21,8.3,1.66,1Z"/><path class="cls-25" d="M131.64,114.65a.68.68,0,0,0-.48.83l2.21,8.3,1.66,1-2.55-9.62A.68.68,0,0,0,131.64,114.65Z"/><path class="cls-25" d="M182.66,152.49a.67.67,0,0,0-.23-.24L176,148.51h0l4.58-1.22a.68.68,0,1,0-.35-1.31l-5.89,1.57-1.18-.68-1.58-.92-.29-.17-.75-.43-.43-.25L170,145l1.32.77,8.3-2.2a.68.68,0,1,0-.35-1.32l-9.62,2.56-1.18-.68-.42-.24-1.44-.84,12-3.19a.68.68,0,0,0-.35-1.32l-13.34,3.54-.46-.26-2.52-1.46-.9-.52.83.48,8.3-2.2a.68.68,0,1,0-.35-1.32l-9.61,2.56-1.18-.68h0l-1.48-.86-.08,0,0-10.33.07,0,1.48-.87h0l.31-.18.87-.51h0l9.63,2.51a.68.68,0,0,0,.34-1.32l-8.31-2.17,3-1.78,13.35,3.48a.68.68,0,0,0,.34-1.32l-12-3.14,1.66-1,.2-.12.28-.17.89-.52,9.63,2.51a.68.68,0,1,0,.34-1.32l-8.31-2.17,1.86-1.09,1.17-.69,5.9,1.54a.68.68,0,1,0,.34-1.32l-4.58-1.2,6.43-3.77a.68.68,0,1,0-.69-1.17l-6.43,3.77-1.66,1-.44.26-.73.43-3,1.78-.64.38-2,1.19-.86.5,3.14-12a.68.68,0,1,0-1.32-.34l-3.48,13.35-1.18.69-1.86,1.09,2.17-8.31a.68.68,0,1,0-1.32-.34l-2.51,9.63-1.17.69h0l-1.48.87,0,0-8.85-5.08h0V118.1h0l7-7a.68.68,0,1,0-1-1L148,116.17v-3.52l9.76-9.76a.68.68,0,1,0-1-1l-8.8,8.8v-3.52l7-7a.68.68,0,1,0-1-1L148,105.28v-3.52h0l4.31-4.31a.68.68,0,0,0-1-1L148,99.84V92.39h0a.68.68,0,0,0-.68-.68h0a.68.68,0,0,0-.68.68h0v7.45l-3.35-3.35a.68.68,0,1,0-1,1l4.31,4.31h0v3.52l-6.07-6.07a.68.68,0,1,0-1,1l7,7v3.52l-8.8-8.8a.68.68,0,1,0-1,1l9.76,9.76h0v3.52l-6.07-6.07a.68.68,0,1,0-1,1l7,7h0v3.08h0l-8.86,5.14,0,0-1.48-.86h0l-.94-.55-.24-.14h0l-1.66-1-1.12-.65-.75-.44-1.66-1h0l-.1-.06.61.35-3.54-13.34a.68.68,0,1,0-1.32.35l3.19,12-2.1-1.22-1.21-.7-1.4-.81-1.85-1.07h0l-1.18-.68-1.57-5.89A.68.68,0,1,0,118,111l1.22,4.58-6.45-3.74a.67.67,0,0,0-.82.12.66.66,0,0,0-.11.13.68.68,0,0,0,.25.93l7.62,4.42h0l.49.28,3,1.77-8.3,2.21a.68.68,0,1,0,.35,1.32l9.62-2.55,3,1.77h0l-12,3.19a.68.68,0,0,0,.35,1.32l13.34-3.54.19.11,1,.57,1.11.64.76.44,1.67,1,2.66,1.54.13,0,0,10.29-.13,0-2.65,1.56-9.63-2.51a.68.68,0,0,0-.34,1.32l8.31,2.17h0l-.84.49-1,.6-1.17.69-13.35-3.48A.68.68,0,0,0,116,140l12,3.14-1.73,1-1.3.76h0l-9.63-2.51a.68.68,0,0,0-.34,1.32l8.31,2.17-.66.39-2.38,1.39h0l-5.9-1.54a.68.68,0,0,0-.34,1.32l4.59,1.2-6.43,3.77a.68.68,0,1,0,.69,1.17l6.43-3.77-1.2,4.58a.68.68,0,1,0,1.32.34l1.54-5.9h0l1-.62.12-.07,1.86-1.09-2.17,8.31a.68.68,0,1,0,1.32.34l2.51-9.63,1.93-1.13,1.1-.65-3.14,12a.68.68,0,1,0,1.32.34l3.48-13.35,1.18-.69,1.86-1.09-2.17,8.31a.68.68,0,0,0,1.32.34l2.51-9.63,1.17-.69,1.48-.87a.67.67,0,0,0,.21-.19l8.72,5a.68.68,0,0,0-.05.26h0v3.08l-7,7a.68.68,0,1,0,1,1l6.07-6.07v3.52l-9.76,9.76a.68.68,0,1,0,1,1l8.8-8.79v3.52l-7,7a.68.68,0,0,0,1,1l6.07-6.07v3.52h0l-4.31,4.31a.68.68,0,1,0,1,1l3.35-3.35v7.45h0a.68.68,0,0,0,.68.68h0a.68.68,0,0,0,.68-.68h0v-7.45l3.35,3.35a.68.68,0,1,0,1-1L148,163.52h0V160l6.07,6.07a.68.68,0,0,0,1-1l-7-7v-3.52l8.8,8.79a.68.68,0,1,0,1-1L148,152.63v-3.52l6.07,6.07a.68.68,0,1,0,1-1l-7-7v-3.08h0a.66.66,0,0,0,0-.21l8.75-5.08a.68.68,0,0,0,.19.17l1.25.73.23.13,1.18.68h0l2.55,9.62a.68.68,0,0,0,1.32-.35l-2.21-8.3,1.53.89.34.2,1.18.68,3.54,13.34a.68.68,0,1,0,1.32-.35l-3.19-12,3,1.77,2.55,9.62a.68.68,0,0,0,1.31-.35l-2.21-8.3,2,1.17,1,.6,1.57,5.89a.68.68,0,1,0,1.31-.35l-1.22-4.58,6.45,3.74a.68.68,0,0,0,.93-.25A.67.67,0,0,0,182.66,152.49Zm-23.43-26.86h0Zm-39.74-9.11h0Zm27.79-16h0Zm0,18.26h0Zm0,46h0Zm.05-22.1-8.8-5.05,0-10.15,8.78-5.1,8.8,5.05,0,10.15Zm11.94-3.07h0Z"/><path class="cls-25" d="M170.53,118.21l2.17-8.31a.68.68,0,0,0-1.32-.34l-2.51,9.63Z"/><path class="cls-25" d="M176.42,110.87a.68.68,0,1,0-1.32-.34l-1.54,5.9,1.66-1Z"/></g><path class="cls-25" d="M306.78,432.36l-6.16-3.54a.68.68,0,0,0-.68,0l-6.14,3.56a.68.68,0,0,0-.34.59l0,7.1a.68.68,0,0,0,.34.59L300,444.2a.68.68,0,0,0,.34.09.69.69,0,0,0,.34-.09l6.14-3.56a.68.68,0,0,0,.34-.59l0-7.1A.68.68,0,0,0,306.78,432.36Zm-6.47,10.47-5.47-3.14v-6.31l5.46-3.17,5.47,3.14,0,6.31Z"/><path class="cls-25" d="M277.73,432.49l9.62-2.56-1.67-1-8.3,2.21a.68.68,0,1,0,.35,1.32Z"/><path class="cls-25" d="M267.32,423.3l5.89-1.57-1.66-1L267,422a.68.68,0,1,0,.35,1.32Z"/><path class="cls-25" d="M276.06,413.67a.68.68,0,1,0-1.32.35l2.21,8.3,1.66,1Z"/><path class="cls-25" d="M284.64,418.65a.68.68,0,0,0-.48.83l2.21,8.3,1.66,1-2.55-9.62A.68.68,0,0,0,284.64,418.65Z"/><path class="cls-25" d="M335.66,456.49a.67.67,0,0,0-.23-.24L329,452.51h0l4.58-1.22a.68.68,0,1,0-.35-1.31l-5.89,1.57-1.18-.68-1.58-.92-.29-.17-.75-.43-.43-.25L323,449l1.32.77,8.3-2.2a.68.68,0,1,0-.35-1.32l-9.62,2.56-1.18-.68-.42-.24-1.44-.84,12-3.19a.68.68,0,0,0-.35-1.32l-13.34,3.54-.46-.26-2.52-1.46-.9-.52.83.48,8.3-2.2a.68.68,0,1,0-.35-1.32l-9.61,2.56-1.18-.68h0l-1.48-.86-.08,0,0-10.33.07,0,1.48-.87h0l.31-.18.87-.51h0l9.63,2.51a.68.68,0,0,0,.34-1.32l-8.31-2.17,3-1.78,13.35,3.48a.68.68,0,0,0,.34-1.32l-12-3.14,1.66-1,.2-.12.28-.17.89-.52,9.63,2.51a.68.68,0,1,0,.34-1.32l-8.31-2.17,1.86-1.09,1.17-.69,5.9,1.54a.68.68,0,1,0,.34-1.32l-4.58-1.2,6.43-3.77a.68.68,0,1,0-.69-1.17l-6.43,3.77-1.66,1-.44.26-.73.43-3,1.78-.64.38-2,1.19-.86.5,3.14-12a.68.68,0,1,0-1.32-.34l-3.48,13.35-1.18.69-1.86,1.09,2.17-8.31a.68.68,0,1,0-1.32-.34l-2.51,9.63-1.17.69h0l-1.48.87,0,0-8.85-5.08h0V422.1h0l7-7a.68.68,0,0,0-1-1L301,420.17v-3.52l9.76-9.76a.68.68,0,0,0-1-1l-8.8,8.8v-3.52l7-7a.68.68,0,1,0-1-1L301,409.28v-3.52h0l4.31-4.31a.68.68,0,1,0-1-1L301,403.84v-7.45h0a.68.68,0,0,0-.68-.68h0a.68.68,0,0,0-.68.68h0v7.45l-3.35-3.35a.68.68,0,1,0-1,1l4.31,4.31h0v3.52l-6.07-6.07a.68.68,0,1,0-1,1l7,7v3.52l-8.8-8.8a.68.68,0,0,0-1,1l9.76,9.76h0v3.52l-6.07-6.07a.68.68,0,1,0-1,1l7,7h0v3.08h0l-8.86,5.14,0,0-1.48-.86h0l-.94-.55-.24-.14h0l-1.66-1-1.12-.65-.75-.44-1.66-1h0l-.1-.06.61.35-3.54-13.34a.68.68,0,1,0-1.32.35l3.19,12-2.1-1.22-1.21-.7-1.4-.81-1.85-1.07h0l-1.18-.68-1.57-5.89A.68.68,0,1,0,271,415l1.22,4.58-6.45-3.74a.67.67,0,0,0-.82.12.66.66,0,0,0-.11.13.68.68,0,0,0,.25.93l7.62,4.42h0l.49.28,3,1.77-8.3,2.21a.68.68,0,1,0,.35,1.32l9.62-2.55,3,1.77h0l-12,3.19a.68.68,0,0,0,.35,1.32l13.34-3.54.19.11,1,.57,1.11.64.76.44,1.67,1,2.66,1.54.13,0,0,10.29-.13,0-2.65,1.56-9.63-2.51a.68.68,0,0,0-.34,1.32l8.31,2.17h0l-.84.49-1,.6-1.17.69-13.35-3.48A.68.68,0,0,0,269,444l12,3.14-1.73,1-1.3.76h0l-9.63-2.51a.68.68,0,0,0-.34,1.32l8.31,2.17-.66.39-2.38,1.39h0l-5.9-1.54a.68.68,0,0,0-.34,1.32l4.59,1.2-6.43,3.77a.68.68,0,1,0,.69,1.17l6.43-3.77-1.2,4.58a.68.68,0,1,0,1.32.34l1.54-5.9h0l1-.62.12-.07,1.86-1.09-2.17,8.31a.68.68,0,1,0,1.32.34l2.51-9.63,1.93-1.13,1.1-.65-3.14,12a.68.68,0,1,0,1.32.34l3.48-13.35,1.18-.69,1.86-1.09-2.17,8.31a.68.68,0,0,0,1.32.34l2.51-9.63,1.17-.69,1.48-.87a.67.67,0,0,0,.21-.19l8.72,5a.68.68,0,0,0-.05.26h0v3.08l-7,7a.68.68,0,1,0,1,1l6.07-6.07v3.52l-9.76,9.76a.68.68,0,0,0,1,1l8.8-8.79v3.52l-7,7a.68.68,0,1,0,1,1l6.07-6.07v3.52h0l-4.31,4.31a.68.68,0,0,0,1,1l3.35-3.35v7.45h0a.68.68,0,0,0,.68.68h0a.68.68,0,0,0,.68-.68h0v-7.45l3.35,3.35a.68.68,0,1,0,1-1L301,467.52h0V464l6.07,6.07a.68.68,0,1,0,1-1l-7-7v-3.52l8.8,8.79a.68.68,0,0,0,1-1L301,456.63v-3.52l6.07,6.07a.68.68,0,1,0,1-1l-7-7v-3.08h0a.66.66,0,0,0,0-.21l8.75-5.08a.68.68,0,0,0,.19.17l1.25.73.23.13,1.18.68h0l2.55,9.62a.68.68,0,0,0,1.32-.35l-2.21-8.3,1.53.89.34.2,1.18.68,3.54,13.34a.68.68,0,1,0,1.32-.35l-3.19-12,3,1.77,2.55,9.62a.68.68,0,0,0,1.31-.35l-2.21-8.3,2,1.17,1,.6,1.57,5.89a.68.68,0,1,0,1.31-.35l-1.22-4.58,6.45,3.74a.68.68,0,0,0,.93-.25A.67.67,0,0,0,335.66,456.49Zm-23.43-26.86h0Zm-39.74-9.11h0Zm27.79-16h0Zm0,18.26h0Zm0,46h0Zm.05-22.1-8.8-5.05,0-10.15,8.78-5.1,8.8,5.05,0,10.15Zm11.94-3.07h0Z"/><path class="cls-25" d="M323.53,422.21l2.17-8.31a.68.68,0,0,0-1.32-.34l-2.51,9.63Z"/><path class="cls-25" d="M329.42,414.87a.68.68,0,1,0-1.32-.34l-1.54,5.9,1.66-1Z"/><path class="cls-25" d="M79.78,546.36l-6.16-3.54a.68.68,0,0,0-.68,0l-6.14,3.56a.68.68,0,0,0-.34.59l0,7.1a.68.68,0,0,0,.34.59L73,558.2a.68.68,0,0,0,.34.09.69.69,0,0,0,.34-.09l6.14-3.56a.68.68,0,0,0,.34-.59l0-7.1A.68.68,0,0,0,79.78,546.36Zm-6.47,10.47-5.47-3.14v-6.31l5.46-3.17,5.47,3.14,0,6.31Z"/><path class="cls-25" d="M50.73,546.49l9.62-2.56-1.67-1-8.3,2.21a.68.68,0,1,0,.35,1.32Z"/><path class="cls-25" d="M40.32,537.3l5.89-1.57-1.66-1L40,536a.68.68,0,1,0,.35,1.32Z"/><path class="cls-25" d="M49.06,527.67a.68.68,0,1,0-1.32.35l2.21,8.3,1.66,1Z"/><path class="cls-25" d="M57.64,532.65a.68.68,0,0,0-.48.83l2.21,8.3,1.66,1-2.55-9.62A.68.68,0,0,0,57.64,532.65Z"/><path class="cls-25" d="M108.66,570.49a.67.67,0,0,0-.23-.24L102,566.51h0l4.58-1.22a.68.68,0,1,0-.35-1.31l-5.89,1.57-1.18-.68-1.58-.92-.29-.17-.75-.43-.43-.25L96,563l1.32.77,8.3-2.2a.68.68,0,1,0-.35-1.32l-9.62,2.56-1.18-.68-.42-.24L92.57,561l12-3.19a.68.68,0,0,0-.35-1.32L90.9,560.08l-.46-.26-2.52-1.46-.9-.52.83.48,8.3-2.2a.68.68,0,1,0-.35-1.32l-9.61,2.56L85,556.67h0l-1.48-.86-.08,0,0-10.33.07,0,1.48-.87h0l.31-.18.87-.51h0l9.63,2.51a.68.68,0,0,0,.34-1.32l-8.31-2.17,3-1.78,13.35,3.48a.68.68,0,0,0,.34-1.32l-12-3.14,1.66-1,.2-.12.28-.17.89-.52,9.63,2.51a.68.68,0,1,0,.34-1.32l-8.31-2.17,1.86-1.09,1.17-.69,5.9,1.54a.68.68,0,1,0,.34-1.32l-4.58-1.2,6.43-3.77a.68.68,0,1,0-.69-1.17l-6.43,3.77-1.66,1-.44.26-.73.43-3,1.78-.64.38-2,1.19-.86.5,3.14-12a.68.68,0,1,0-1.32-.34l-3.48,13.35-1.18.69-1.86,1.09,2.17-8.31a.68.68,0,1,0-1.32-.34l-2.51,9.63-1.17.69h0l-1.48.87,0,0-8.85-5.08h0V536.1h0l7-7a.68.68,0,1,0-1-1L74,534.17v-3.52l9.76-9.76a.68.68,0,0,0-1-1l-8.8,8.8v-3.52l7-7a.68.68,0,0,0-1-1L74,523.28v-3.52h0l4.31-4.31a.68.68,0,1,0-1-1L74,517.84v-7.45h0a.68.68,0,0,0-.68-.68h0a.68.68,0,0,0-.68.68h0v7.45l-3.35-3.35a.68.68,0,1,0-1,1l4.31,4.31h0v3.52l-6.07-6.07a.68.68,0,0,0-1,1l7,7v3.52l-8.8-8.8a.68.68,0,0,0-1,1l9.76,9.76h0v3.52l-6.07-6.07a.68.68,0,1,0-1,1l7,7h0v3.08h0l-8.86,5.14,0,0-1.48-.86h0l-.94-.55-.24-.14h0l-1.66-1-1.12-.65-.75-.44-1.66-1h0l-.1-.06.61.35-3.54-13.34a.68.68,0,1,0-1.32.35l3.19,12-2.1-1.22-1.21-.7-1.4-.81-1.85-1.07h0l-1.18-.68-1.57-5.89A.68.68,0,1,0,44,529l1.22,4.58-6.45-3.74A.67.67,0,0,0,38,530a.66.66,0,0,0-.11.13.68.68,0,0,0,.25.93l7.62,4.42h0l.49.28,3,1.77L41,539.71a.68.68,0,1,0,.35,1.32l9.62-2.55,3,1.77h0l-12,3.19a.68.68,0,0,0,.35,1.32l13.34-3.54.19.11,1,.57,1.11.64.76.44,1.67,1L63,545.47l.13,0,0,10.29-.13,0-2.65,1.56-9.63-2.51a.68.68,0,0,0-.34,1.32l8.31,2.17h0l-.84.49-1,.6-1.17.69-13.35-3.48A.68.68,0,0,0,42,558l12,3.14-1.73,1-1.3.76h0l-9.63-2.51a.68.68,0,0,0-.34,1.32l8.31,2.17-.66.39-2.38,1.39h0l-5.9-1.54a.68.68,0,0,0-.34,1.32l4.59,1.2-6.43,3.77a.68.68,0,1,0,.69,1.17l6.43-3.77-1.2,4.58a.68.68,0,1,0,1.32.34l1.54-5.9h0l1-.62.12-.07L50,565.07l-2.17,8.31a.68.68,0,1,0,1.32.34l2.51-9.63L53.61,563l1.1-.65-3.14,12a.68.68,0,1,0,1.32.34l3.48-13.35,1.18-.69,1.86-1.09-2.17,8.31a.68.68,0,0,0,1.32.34l2.51-9.63,1.17-.69,1.48-.87a.67.67,0,0,0,.21-.19l8.72,5a.68.68,0,0,0-.05.26h0v3.08l-7,7a.68.68,0,1,0,1,1l6.07-6.07v3.52l-9.76,9.76a.68.68,0,0,0,1,1l8.8-8.79v3.52l-7,7a.68.68,0,0,0,1,1L72.59,578v3.52h0l-4.31,4.31a.68.68,0,0,0,1,1l3.35-3.35v7.45h0a.68.68,0,0,0,.68.68h0a.68.68,0,0,0,.68-.68h0v-7.45l3.35,3.35a.68.68,0,1,0,1-1L74,581.52h0V578L80,584.07a.68.68,0,0,0,1-1l-7-7v-3.52l8.8,8.79a.68.68,0,0,0,1-1L74,570.63v-3.52L80,573.18a.68.68,0,1,0,1-1l-7-7v-3.08h0a.66.66,0,0,0,0-.21l8.75-5.08a.68.68,0,0,0,.19.17l1.25.73.23.13,1.18.68h0l2.55,9.62a.68.68,0,0,0,1.32-.35l-2.21-8.3,1.53.89.34.2,1.18.68,3.54,13.34a.68.68,0,1,0,1.32-.35l-3.19-12,3,1.77,2.55,9.62a.68.68,0,0,0,1.31-.35L96.59,565l2,1.17,1,.6,1.57,5.89a.68.68,0,1,0,1.31-.35l-1.22-4.58,6.45,3.74a.68.68,0,0,0,.93-.25A.67.67,0,0,0,108.66,570.49ZM85.23,543.63h0Zm-39.74-9.11h0Zm27.79-16h0Zm0,18.26h0Zm0,46h0Zm.05-22.1-8.8-5.05,0-10.15,8.78-5.1,8.8,5.05,0,10.15Zm11.94-3.07h0Z"/><path class="cls-25" d="M96.53,536.21l2.17-8.31a.68.68,0,0,0-1.32-.34l-2.51,9.63Z"/><path class="cls-25" d="M102.42,528.87a.68.68,0,1,0-1.32-.34l-1.54,5.9,1.66-1Z"/><path class="cls-25" d="M40.55,80.51l-5.94-3.41a.66.66,0,0,0-.66,0L28,80.54a.66.66,0,0,0-.33.57l0,6.85a.66.66,0,0,0,.33.57L34,91.94a.65.65,0,0,0,.33.09.67.67,0,0,0,.33-.09l5.93-3.44a.65.65,0,0,0,.33-.57l0-6.85A.66.66,0,0,0,40.55,80.51ZM34.31,90.61l-5.29-3V81.48l5.27-3.06,5.29,3,0,6.09Z"/><path class="cls-25" d="M12.51,80.63l9.28-2.47-1.61-.93-8,2.13a.66.66,0,1,0,.34,1.27Z"/><path class="cls-25" d="M2.47,71.76l5.69-1.51-1.61-.93L2.13,70.49a.66.66,0,1,0,.34,1.27Z"/><path class="cls-25" d="M10.9,62.47a.66.66,0,1,0-1.27.34l2.13,8,1.61.93Z"/><path class="cls-25" d="M19.19,67.28a.66.66,0,0,0-.47.8l2.13,8,1.61.93L20,67.74A.66.66,0,0,0,19.19,67.28Z"/><path class="cls-25" d="M68.44,103.8a.64.64,0,0,0-.22-.23L62,100h0l4.42-1.18a.66.66,0,1,0-.34-1.27L60.38,99l-1.14-.66-1.53-.89-.28-.16-.72-.42-.42-.24-.14-.08,1.28.74,8-2.13a.66.66,0,1,0-.34-1.27l-9.28,2.47-1.14-.66-.41-.24-1.39-.81L64.5,91.6a.66.66,0,0,0-.34-1.27L51.29,93.75l-.44-.26-2.43-1.41-.87-.51.8.47,8-2.13A.66.66,0,1,0,56,88.65l-9.28,2.47-1.14-.66h0l-1.43-.83-.07,0,0-10,.07,0,1.43-.84h0l.29-.17.84-.49h0L56,80.53a.66.66,0,0,0,.33-1.27l-8-2.09,2.93-1.72,12.89,3.36a.66.66,0,0,0,.33-1.27l-11.62-3,1.61-.94.19-.11.27-.16.86-.5,9.29,2.42a.66.66,0,1,0,.33-1.27l-8-2.09,1.8-1.05,1.13-.67L66,71.61a.66.66,0,1,0,.33-1.27l-4.43-1.15,6.2-3.64a.66.66,0,1,0-.66-1.13l-6.21,3.64-1.6.94-.43.25-.71.41-2.93,1.72-.62.36-2,1.14-.83.49,3-11.62a.66.66,0,1,0-1.27-.33L50.58,74.31,49.45,75,47.65,76l2.09-8a.66.66,0,1,0-1.27-.33L46,77l-1.13.66h0l-1.43.84,0,0-8.55-4.91h0v-3h0l6.79-6.79a.66.66,0,0,0-.93-.93l-5.86,5.86v-3.4l9.42-9.42a.66.66,0,1,0-.93-.93l-8.49,8.49v-3.4l6.79-6.79a.66.66,0,0,0-.93-.93l-5.86,5.86v-3.4h0l4.16-4.16a.66.66,0,0,0-.93-.93L34.93,53V45.78h0a.66.66,0,0,0-.66-.66h0a.66.66,0,0,0-.66.66h0V53l-3.23-3.23a.66.66,0,0,0-.93.93l4.16,4.16h0v3.4l-5.86-5.86a.66.66,0,0,0-.93.93l6.79,6.79v3.4L25.12,55a.66.66,0,0,0-.93.93l9.42,9.42h0v3.4l-5.86-5.86a.66.66,0,0,0-.93.93l6.79,6.79h0v3h0l-8.56,5,0,0-1.43-.83h0l-.91-.53L22.46,77h0l-1.61-.93-1.08-.63L19,75l-1.61-.93h0l-.1-.06.59.34L14.49,61.51a.66.66,0,1,0-1.27.34l3.08,11.6-2-1.18L13.1,71.6l-1.35-.78-1.78-1h0l-1.14-.66L7.3,63.42A.66.66,0,1,0,6,63.76l1.18,4.42L1,64.57a.65.65,0,0,0-.79.11.63.63,0,0,0-.11.13.66.66,0,0,0,.24.9L7.69,70h0l.47.27L11.1,72l-8,2.13a.66.66,0,1,0,.34,1.27l9.28-2.47,2.94,1.7h0L4,77.68a.66.66,0,0,0,.34,1.27l12.87-3.42.19.11,1,.55,1.07.62.74.43,1.61.93,2.57,1.49.12,0,0,9.94-.12,0-2.56,1.5-9.29-2.42A.66.66,0,0,0,12.2,90l8,2.09h0l-.81.48-1,.58-1.13.67L4.4,90.47a.66.66,0,0,0-.33,1.27l11.62,3-1.67,1-1.26.74h0L3.46,94.07a.66.66,0,0,0-.33,1.27l8,2.09-.63.37-2.3,1.35h0l-5.7-1.48a.66.66,0,0,0-.33,1.27l4.43,1.15L.42,103.73a.66.66,0,1,0,.66,1.13l6.21-3.64-1.15,4.42A.66.66,0,1,0,7.4,106l1.49-5.7h0l1-.59.12-.07,1.8-1.05-2.09,8a.66.66,0,1,0,1.27.33l2.42-9.29,1.87-1.09,1.06-.62-3,11.62a.66.66,0,1,0,1.27.33L18,95l1.13-.66,1.8-1.05-2.09,8a.66.66,0,0,0,1.27.33l2.42-9.29,1.13-.67,1.43-.84a.65.65,0,0,0,.2-.18l8.41,4.83a.65.65,0,0,0-.05.25h0v3l-6.79,6.79a.66.66,0,0,0,.93.93l5.86-5.86v3.4l-9.42,9.42a.66.66,0,0,0,.93.93l8.49-8.49v3.4L26.82,116a.66.66,0,0,0,.93.93l5.86-5.86v3.4h0l-4.16,4.16a.66.66,0,0,0,.93.93l3.23-3.23v7.19h0a.66.66,0,0,0,.66.66h0a.66.66,0,0,0,.66-.66h0v-7.19l3.23,3.23a.66.66,0,1,0,.93-.93l-4.16-4.16h0v-3.4l5.86,5.86a.66.66,0,0,0,.93-.93l-6.79-6.79v-3.4l8.49,8.49a.66.66,0,1,0,.93-.93l-9.42-9.42v-3.4l5.86,5.86a.66.66,0,0,0,.93-.93l-6.79-6.79v-3h0a.64.64,0,0,0,0-.21l8.45-4.9a.65.65,0,0,0,.18.16l1.21.7.22.13,1.14.66h0l2.47,9.28a.66.66,0,0,0,1.27-.34l-2.13-8,1.47.85.33.19,1.14.66,3.42,12.87a.66.66,0,1,0,1.27-.34l-3.08-11.6,2.94,1.71,2.47,9.28a.66.66,0,0,0,1.27-.34l-2.13-8,1.94,1.13,1,.58,1.51,5.69a.66.66,0,1,0,1.27-.34l-1.17-4.42,6.22,3.61a.66.66,0,0,0,.9-.24A.65.65,0,0,0,68.44,103.8ZM45.81,77.87h0ZM7.45,69.08h0ZM34.27,53.63h0Zm0,17.63h0Zm0,44.39h0Zm0-21.33-8.5-4.88,0-9.8,8.47-4.92,8.5,4.88,0,9.8Zm11.53-3h0Z"/><path class="cls-25" d="M56.72,70.71l2.09-8a.66.66,0,0,0-1.27-.33l-2.42,9.29Z"/><path class="cls-25" d="M62.41,63.63a.66.66,0,1,0-1.27-.33L59.65,69l1.6-.94Z"/><path class="cls-25" d="M666.57,346.52l-8.8-5.05a1,1,0,0,0-1,0L648,346.57a1,1,0,0,0-.48.84l0,10.15a1,1,0,0,0,.49.84l8.8,5.05a1,1,0,0,0,.48.13,1,1,0,0,0,.49-.13l8.77-5.09a1,1,0,0,0,.48-.84l0-10.15A1,1,0,0,0,666.57,346.52Zm-9.24,15L649.5,357l0-9,7.8-4.53,7.82,4.49,0,9Z"/><path class="cls-25" d="M625.06,346.7l13.74-3.65-2.38-1.38-11.86,3.15a1,1,0,1,0,.5,1.88Z"/><path class="cls-25" d="M610.19,333.58l8.42-2.24L616.23,330l-6.54,1.74a1,1,0,1,0,.5,1.88Z"/><path class="cls-25" d="M622.67,319.82a1,1,0,1,0-1.88.5l3.15,11.86,2.38,1.38Z"/><path class="cls-25" d="M634.94,326.94a1,1,0,0,0-.69,1.19L637.4,340l2.38,1.38-3.65-13.74A1,1,0,0,0,634.94,326.94Z"/><path class="cls-25" d="M707.85,381a1,1,0,0,0-.33-.34l-9.21-5.34h0l6.55-1.74a1,1,0,1,0-.5-1.88l-8.42,2.24-1.68-1L692,371.65l-.41-.24-1.06-.62-.62-.36-.21-.12,1.89,1.09,11.86-3.15a1,1,0,1,0-.5-1.88L689.2,370l-1.68-1-.6-.35-2.06-1.2L702,362.95a1,1,0,0,0-.5-1.88l-19.06,5.07-.65-.38-3.6-2.09-1.29-.75,1.19.69L690,360.46a1,1,0,1,0-.5-1.88l-13.74,3.65-1.68-1h0L671.94,360l-.11,0,0-14.76.11,0,2.11-1.24h0l.44-.26,1.24-.73h0l13.76,3.59a1,1,0,0,0,.49-1.88l-11.88-3.1,4.34-2.54,19.08,5a1,1,0,0,0,.49-1.88l-17.2-4.49,2.38-1.4.28-.16.41-.24,1.27-.75,13.76,3.59a1,1,0,1,0,.49-1.88l-11.88-3.1,2.66-1.56,1.68-1,8.43,2.2a1,1,0,1,0,.49-1.88l-6.55-1.71,9.19-5.39a1,1,0,1,0-1-1.68l-9.19,5.39-2.37,1.39-.63.37-1,.61L688.83,333l-.92.54L685,335.24l-1.23.72,4.48-17.2a1,1,0,1,0-1.88-.49l-5,19.08-1.68,1-2.66,1.56,3.1-11.88a1,1,0,1,0-1.88-.49l-3.59,13.76-1.68,1h0l-2.11,1.24,0,0-12.65-7.26v0h0v-4.4h0L668.3,321.8a1,1,0,1,0-1.37-1.37l-8.68,8.68v-5l13.94-13.95a1,1,0,1,0-1.37-1.37l-12.57,12.57v-5l10.05-10.06a1,1,0,1,0-1.37-1.37l-8.68,8.68v-5h0l6.16-6.16A1,1,0,1,0,663,301l-4.79,4.79V295.11h0a1,1,0,0,0-1-1h0a1,1,0,0,0-1,1h0v10.65L651.51,301a1,1,0,1,0-1.37,1.37l6.16,6.16h0v5l-8.68-8.68a1,1,0,0,0-1.38,1.37l10.05,10.06v5l-12.57-12.57a1,1,0,0,0-1.37,1.37l13.94,13.94h0v5l-8.68-8.68a1,1,0,0,0-1.38,1.37l10.05,10.06h0v4.4h0v0l-12.67,7.35-.06,0-2.12-1.23h0l-1.35-.78-.34-.19h0L637.4,340l-1.6-.93-1.07-.62-2.38-1.38,0,0-.14-.08.87.51L628,318.4a1,1,0,1,0-1.88.5l4.57,17.18-3-1.74-1.73-1-2-1.16-2.64-1.53,0,0-1.68-1-2.24-8.42a1,1,0,1,0-1.88.5l1.74,6.54L608,322.93a1,1,0,0,0-1.17.17.94.94,0,0,0-.16.19,1,1,0,0,0,.35,1.33l10.89,6.32h0l.7.4,4.35,2.52L611.1,337a1,1,0,1,0,.5,1.88l13.74-3.65,4.35,2.52h0l-17.18,4.57a1,1,0,0,0,.5,1.88l19.06-5.07.27.16,1.41.82,1.58.92,1.09.63,2.38,1.38,3.8,2.21a.93.93,0,0,0,.18.06l0,14.71a.92.92,0,0,0-.18.06l-3.79,2.22-13.76-3.59a1,1,0,0,0-.49,1.88l11.88,3.1h0l-1.2.7-1.46.86-1.68,1-19.08-5a1,1,0,0,0-.49,1.88l17.2,4.49-2.48,1.45-1.86,1.09h0l-13.76-3.59a1,1,0,0,0-.49,1.88l11.88,3.1-.94.55-3.4,2h0l-8.43-2.2a1,1,0,0,0-.49,1.88l6.55,1.71-9.19,5.39a1,1,0,0,0,1,1.68l9.19-5.39-1.71,6.55a1,1,0,1,0,1.88.49l2.2-8.43h0l1.5-.88.18-.1,2.66-1.56-3.1,11.88a1,1,0,1,0,1.88.49l3.59-13.76,2.76-1.62,1.58-.92-4.48,17.2a1,1,0,1,0,1.88.49l5-19.08,1.68-1,2.66-1.56-3.1,11.88a1,1,0,0,0,1.88.49L639.83,364l1.68-1,2.11-1.24a1,1,0,0,0,.29-.27l12.46,7.15a1,1,0,0,0-.08.38h0v4.4l-10.05,10.05a1,1,0,0,0,1.38,1.38l8.68-8.68v5l-13.94,13.94a1,1,0,0,0,1.37,1.38L656.3,384v5L646.24,399a1,1,0,0,0,1.38,1.37l8.68-8.68v5h0l-6.16,6.16a1,1,0,0,0,1.37,1.37l4.79-4.79v10.65h0a1,1,0,0,0,1,1h0a1,1,0,0,0,1-1h0V399.52l4.79,4.79a1,1,0,1,0,1.37-1.37l-6.16-6.16h0v-5l8.68,8.68A1,1,0,1,0,668.3,399L658.24,389v-5l12.57,12.57a1,1,0,0,0,1.37-1.38l-13.94-13.94v-5l8.68,8.68a1,1,0,1,0,1.37-1.38l-10.05-10.05V369h0a.94.94,0,0,0-.06-.3l12.51-7.26a1,1,0,0,0,.27.24l1.79,1,.33.19,1.68,1h0l3.65,13.74a1,1,0,0,0,1.88-.5l-3.15-11.86,2.18,1.27.49.28,1.68,1,5.06,19.06a1,1,0,1,0,1.88-.5l-4.57-17.18,4.35,2.52,3.65,13.74a1,1,0,0,0,1.88-.5L690.6,373.1l2.88,1.67,1.47.86,2.24,8.42a1,1,0,1,0,1.88-.5L697.33,377l9.21,5.34a1,1,0,0,0,1.33-.35A1,1,0,0,0,707.85,381Zm-33.49-38.39h0Zm-56.8-13h0Zm39.71-22.87h0Zm0,26.09h0Zm0,65.72h0Zm.07-31.58-12.58-7.22,0-14.5L657.27,338l12.58,7.22,0,14.5Zm17.07-4.38h0Z"/><path class="cls-25" d="M690.51,332l3.1-11.88a1,1,0,0,0-1.88-.49l-3.59,13.76Z"/><path class="cls-25" d="M698.93,321.53A1,1,0,1,0,697,321l-2.2,8.43,2.37-1.39Z"/><path class="cls-25" d="M442.54,253.81l-4.06-2.32a.45.45,0,0,0-.45,0l-4,2.35a.45.45,0,0,0-.22.39l0,4.67a.45.45,0,0,0,.23.39l4.06,2.32a.45.45,0,0,0,.22.06.45.45,0,0,0,.22-.06l4-2.35a.45.45,0,0,0,.22-.39l0-4.67A.45.45,0,0,0,442.54,253.81Zm-4.24,6.9-3.61-2.06,0-4.15,3.59-2.09,3.61,2.06,0,4.15Z"/><path class="cls-25" d="M423.43,253.94l6.32-1.69-1.1-.63-5.46,1.46a.45.45,0,1,0,.23.87Z"/><path class="cls-25" d="M416.57,247.9l3.88-1-1.1-.63-3,.81a.45.45,0,1,0,.23.87Z"/><path class="cls-25" d="M422.31,241.56a.45.45,0,1,0-.87.23l1.46,5.46,1.1.63Z"/><path class="cls-25" d="M428,244.82a.45.45,0,0,0-.32.55l1.46,5.46,1.1.63-1.69-6.32A.45.45,0,0,0,428,244.82Z"/><path class="cls-25" d="M461.58,269.66a.44.44,0,0,0-.15-.16L457.18,267h0l3-.81a.45.45,0,1,0-.23-.86l-3.88,1-.78-.45-1-.6-.19-.11-.49-.28-.28-.16-.1-.06.87.5,5.46-1.46a.45.45,0,1,0-.23-.87L453,264.62l-.78-.45-.28-.16-1-.55,7.91-2.12a.45.45,0,0,0-.23-.87l-8.77,2.35-.3-.17-1.66-1-.6-.34.55.32,5.46-1.46a.45.45,0,1,0-.23-.87L446.78,261l-.78-.45h0l-1-.56,0,0,0-6.8,0,0,1-.57h0l.2-.12.57-.34h0l6.34,1.64a.45.45,0,0,0,.22-.87l-5.47-1.41,2-1.18,8.79,2.27a.45.45,0,0,0,.22-.87l-7.92-2,1.09-.64.13-.08.19-.11.59-.34,6.34,1.64a.45.45,0,1,0,.22-.87L454,247.89l1.22-.72.77-.45,3.88,1a.45.45,0,1,0,.22-.87l-3-.78,4.22-2.49a.45.45,0,1,0-.45-.77l-4.23,2.49-1.09.64-.29.17-.48.28-2,1.18-.42.25-1.33.78-.57.33,2-7.92a.45.45,0,1,0-.87-.22l-2.27,8.79-.77.45-1.22.72,1.42-5.47a.45.45,0,1,0-.87-.22l-1.64,6.34-.77.45h0l-1,.57h0l-5.83-3.33h0v-2h0l4.62-4.64a.45.45,0,0,0-.63-.63l-4,4v-2.32l6.41-6.43a.45.45,0,1,0-.63-.63l-5.78,5.8V239.9l4.62-4.64a.45.45,0,1,0-.63-.63l-4,4v-2.32h0l2.83-2.84a.45.45,0,1,0-.63-.63l-2.2,2.21v-4.9h0a.45.45,0,0,0-.45-.45h0a.45.45,0,0,0-.45.45h0v4.9l-2.21-2.2a.45.45,0,1,0-.63.63l2.84,2.83h0v2.32l-4-4a.45.45,0,1,0-.63.63l4.64,4.62v2.32l-5.8-5.78a.45.45,0,1,0-.63.63l6.43,6.41h0v2.32l-4-4a.45.45,0,0,0-.63.63l4.64,4.62h0v2h0L432,252.5l0,0-1-.56h0l-.62-.36-.15-.09h0l-1.1-.63-.74-.42-.49-.29-1.1-.63h0l-.07,0,.4.23-2.35-8.77a.45.45,0,1,0-.87.23L426,249l-1.39-.8-.8-.46-.92-.53-1.22-.7h0l-.78-.45-1-3.88a.45.45,0,1,0-.87.23l.81,3L415.56,243a.44.44,0,0,0-.54.08.43.43,0,0,0-.08.09.45.45,0,0,0,.16.61l5,2.9h0l.32.19,2,1.16L417,249.49a.45.45,0,1,0,.23.87l6.32-1.69,2,1.16h0l-7.91,2.12a.45.45,0,0,0,.23.87l8.77-2.35.13.07.65.37.73.42.5.29,1.1.63,1.75,1,.08,0,0,6.77-.08,0-1.74,1-6.34-1.64a.45.45,0,0,0-.22.87l5.47,1.42h0l-.55.32-.67.4-.77.45-8.79-2.27a.45.45,0,0,0-.22.87l7.92,2-1.14.67-.86.5h0l-6.34-1.64a.45.45,0,0,0-.22.87l5.47,1.42-.43.25-1.56.92h0l-3.89-1a.45.45,0,0,0-.22.87l3,.78-4.22,2.49a.45.45,0,0,0,.45.77L419.9,268l-.78,3a.45.45,0,1,0,.87.22l1-3.88h0l.69-.41.08,0,1.22-.72-1.42,5.47a.45.45,0,1,0,.87.22l1.64-6.34,1.27-.75.72-.43-2,7.92a.45.45,0,1,0,.87.22l2.27-8.79.77-.45,1.22-.72L427.74,268a.45.45,0,0,0,.87.22l1.64-6.34.77-.45,1-.57a.44.44,0,0,0,.14-.12l5.74,3.28a.45.45,0,0,0,0,.17h0v2l-4.62,4.64a.45.45,0,1,0,.63.63l4-4v2.32l-6.41,6.43a.45.45,0,0,0,.63.63l5.78-5.8v2.32L433.23,278a.45.45,0,0,0,.63.63l4-4V277h0L435,279.8a.45.45,0,1,0,.63.63l2.2-2.21v4.9h0a.45.45,0,0,0,.45.45h0a.45.45,0,0,0,.45-.45h0v-4.9l2.21,2.2a.45.45,0,1,0,.63-.63L438.76,277h0v-2.32l4,4a.45.45,0,1,0,.63-.63l-4.64-4.62v-2.32l5.8,5.78a.45.45,0,1,0,.63-.63l-6.43-6.41v-2.32l4,4a.45.45,0,1,0,.63-.63l-4.64-4.62v-2h0a.43.43,0,0,0,0-.14l5.75-3.35a.45.45,0,0,0,.13.11l.82.48.15.09.78.45h0l1.69,6.32a.45.45,0,0,0,.87-.23l-1.46-5.46,1,.58.22.13.78.45,2.35,8.77a.45.45,0,1,0,.87-.23l-2.12-7.91,2,1.16,1.69,6.32a.45.45,0,0,0,.86-.23L453.63,266l1.33.77.68.39,1,3.88a.45.45,0,1,0,.86-.23l-.81-3,4.25,2.45a.45.45,0,0,0,.61-.16A.44.44,0,0,0,461.58,269.66ZM446.13,252h0ZM420,246.07h0Zm18.26-10.57h0Zm0,12h0Zm.06,30.26h0Zm0-14.54-5.8-3.31,0-6.68,5.77-3.36,5.8,3.31,0,6.68Zm7.85-2h0Z"/><path class="cls-25" d="M453.55,247.12l1.42-5.47a.45.45,0,0,0-.87-.22l-1.64,6.34Z"/><path class="cls-25" d="M457.42,242.28a.45.45,0,1,0-.87-.22l-1,3.89,1.09-.64Z"/><path class="cls-25" d="M703.54,221.81l-4.06-2.32a.45.45,0,0,0-.45,0l-4,2.35a.45.45,0,0,0-.22.39l0,4.67a.45.45,0,0,0,.23.39l4.06,2.32a.45.45,0,0,0,.22.06.45.45,0,0,0,.22-.06l4-2.35a.45.45,0,0,0,.22-.39l0-4.67A.45.45,0,0,0,703.54,221.81Zm-4.24,6.9-3.61-2.06,0-4.15,3.59-2.09,3.61,2.06,0,4.15Z"/><path class="cls-25" d="M684.43,221.94l6.32-1.69-1.1-.63-5.46,1.46a.45.45,0,1,0,.23.87Z"/><path class="cls-25" d="M677.57,215.9l3.88-1-1.1-.63-3,.81a.45.45,0,1,0,.23.87Z"/><path class="cls-25" d="M683.31,209.56a.45.45,0,1,0-.87.23l1.46,5.46,1.1.63Z"/><path class="cls-25" d="M689,212.82a.45.45,0,0,0-.32.55l1.46,5.46,1.1.63-1.69-6.32A.45.45,0,0,0,689,212.82Z"/><path class="cls-25" d="M722.58,237.66a.44.44,0,0,0-.15-.16L718.18,235h0l3-.81a.45.45,0,1,0-.23-.86l-3.88,1-.78-.45-1-.6-.19-.11-.49-.28-.28-.16-.1-.06.87.5,5.46-1.46a.45.45,0,1,0-.23-.87L714,232.62l-.78-.45-.28-.16-1-.55,7.91-2.12a.45.45,0,0,0-.23-.87l-8.77,2.35-.3-.17-1.66-1-.6-.34.55.32,5.46-1.46a.45.45,0,1,0-.23-.87L707.78,229l-.78-.45h0l-1-.56,0,0,0-6.8,0,0,1-.57h0l.2-.12.57-.34h0l6.34,1.64a.45.45,0,0,0,.22-.87l-5.47-1.41,2-1.18,8.79,2.27a.45.45,0,0,0,.22-.87l-7.92-2,1.09-.64.13-.08.19-.11.59-.34,6.34,1.64a.45.45,0,1,0,.22-.87L715,215.89l1.22-.72.77-.45,3.88,1a.45.45,0,1,0,.22-.87l-3-.78,4.22-2.49a.45.45,0,1,0-.45-.77l-4.23,2.49-1.09.64-.29.17-.48.28-2,1.18-.42.25-1.33.78-.57.33,2-7.92a.45.45,0,1,0-.87-.22l-2.27,8.79-.77.45-1.22.72,1.42-5.47a.45.45,0,1,0-.87-.22l-1.64,6.34-.77.45h0l-1,.57h0l-5.83-3.33h0v-2h0l4.62-4.64a.45.45,0,0,0-.63-.63l-4,4v-2.32l6.41-6.43a.45.45,0,1,0-.63-.63l-5.78,5.8V207.9l4.62-4.64a.45.45,0,1,0-.63-.63l-4,4v-2.32h0l2.83-2.84a.45.45,0,1,0-.63-.63l-2.2,2.21v-4.9h0a.45.45,0,0,0-.45-.45h0a.45.45,0,0,0-.45.45h0v4.9l-2.21-2.2a.45.45,0,1,0-.63.63l2.84,2.83h0v2.32l-4-4a.45.45,0,1,0-.63.63l4.64,4.62v2.32l-5.8-5.78a.45.45,0,1,0-.63.63l6.43,6.41h0v2.32l-4-4a.45.45,0,0,0-.63.63l4.64,4.62h0v2h0L693,220.5l0,0-1-.56h0l-.62-.36-.15-.09h0l-1.1-.63-.74-.42-.49-.29-1.1-.63h0l-.07,0,.4.23-2.35-8.77a.45.45,0,1,0-.87.23L687,217l-1.39-.8-.8-.46-.92-.53-1.22-.7h0l-.78-.45-1-3.88a.45.45,0,1,0-.87.23l.81,3L676.56,211a.44.44,0,0,0-.54.08.43.43,0,0,0-.08.09.45.45,0,0,0,.16.61l5,2.9h0l.32.19,2,1.16L678,217.49a.45.45,0,1,0,.23.87l6.32-1.69,2,1.16h0l-7.91,2.12a.45.45,0,0,0,.23.87l8.77-2.35.13.07.65.37.73.42.5.29,1.1.63,1.75,1,.08,0,0,6.77-.08,0-1.74,1-6.34-1.64a.45.45,0,0,0-.22.87l5.47,1.42h0l-.55.32-.67.4-.77.45-8.79-2.27a.45.45,0,0,0-.22.87l7.92,2-1.14.67-.86.5h0l-6.34-1.64a.45.45,0,0,0-.22.87l5.47,1.42-.43.25-1.56.92h0l-3.89-1a.45.45,0,0,0-.22.87l3,.78-4.22,2.49a.45.45,0,1,0,.45.77L680.9,236l-.78,3a.45.45,0,1,0,.87.22l1-3.88h0l.69-.41.08,0,1.22-.72-1.42,5.47a.45.45,0,1,0,.87.22l1.64-6.34,1.27-.75.72-.43-2,7.92a.45.45,0,1,0,.87.22l2.27-8.79.77-.45,1.22-.72L688.74,236a.45.45,0,0,0,.87.22l1.64-6.34.77-.45,1-.57a.44.44,0,0,0,.14-.12l5.74,3.28a.45.45,0,0,0,0,.17h0v2l-4.62,4.64a.45.45,0,1,0,.63.63l4-4v2.32l-6.41,6.43a.45.45,0,0,0,.63.63l5.78-5.8v2.32L694.23,246a.45.45,0,0,0,.63.63l4-4V245h0L696,247.8a.45.45,0,1,0,.63.63l2.2-2.21v4.9h0a.45.45,0,0,0,.45.45h0a.45.45,0,0,0,.45-.45h0v-4.9l2.21,2.2a.45.45,0,1,0,.63-.63L699.76,245h0v-2.32l4,4a.45.45,0,1,0,.63-.63l-4.64-4.62v-2.32l5.8,5.78a.45.45,0,1,0,.63-.63l-6.43-6.41v-2.32l4,4a.45.45,0,1,0,.63-.63l-4.64-4.62v-2h0a.43.43,0,0,0,0-.14l5.75-3.35a.45.45,0,0,0,.13.11l.82.48.15.09.78.45h0l1.69,6.32a.45.45,0,0,0,.87-.23l-1.46-5.46,1,.58.22.13.78.45,2.35,8.77a.45.45,0,1,0,.87-.23l-2.12-7.91,2,1.16,1.69,6.32a.45.45,0,0,0,.86-.23L714.63,234l1.33.77.68.39,1,3.88a.45.45,0,1,0,.86-.23l-.81-3,4.25,2.45a.45.45,0,0,0,.61-.16A.44.44,0,0,0,722.58,237.66ZM707.13,220h0ZM681,214.07h0Zm18.26-10.57h0Zm0,12h0Zm.06,30.26h0Zm0-14.54-5.8-3.31,0-6.68,5.77-3.36,5.8,3.31,0,6.68Zm7.85-2h0Z"/><path class="cls-25" d="M714.55,215.12l1.42-5.47a.45.45,0,0,0-.87-.22l-1.64,6.34Z"/><path class="cls-25" d="M718.42,210.28a.45.45,0,1,0-.87-.22l-1,3.89,1.09-.64Z"/></g></g></svg>