<svg xmlns="http://www.w3.org/2000/svg" viewBox="0 0 372 494.38"><defs><style>.cls-1{fill:#bebfc2;}.cls-2{fill:#cbcdd0;}.cls-3{fill:#e5e5e5;}.cls-4{fill:#f2f2f4;}.cls-5{fill:#e0e1e2;}.cls-6{fill:#edefef;}.cls-7{fill:#e7e7ec;}.cls-8{fill:#f5f4f2;}.cls-9{fill:#eaeaea;}.cls-10{fill:#ddd;}.cls-11{fill:#f4f4f4;}.cls-12{fill:#dadce0;}.cls-13{fill:#c6c8ce;}.cls-14{fill:#d9d9db;}.cls-15{fill:#afafb2;}.cls-16{fill:#e2e2e2;}.cls-17{fill:#ededed;}.cls-18{fill:#ccced1;}.cls-19{fill:#e3e3e5;}.cls-20{fill:#f2f2f2;}.cls-21{fill:#f5f5f7;}.cls-22{fill:#dce1e2;}.cls-23{fill:#efefef;}.cls-24{fill:#f9604b;}.cls-25{fill:#fd7257;}.cls-26{fill:#ff7f6e;}.cls-27{fill:#f96450;}.cls-28{fill:#fc7c6b;}.cls-29{fill:#060403;}</style></defs><title>snowman</title><g id="Layer_2" data-name="Layer 2"><g id="Layer_1-2" data-name="Layer 1"><polygon class="cls-1" points="287.1 156.43 270.6 87.84 271.19 178.8 287.1 156.43"/><polygon class="cls-2" points="270.6 87.84 202 0 271.19 178.8 270.6 87.84"/><polygon class="cls-3" points="264.67 367.87 337.94 408.11 333.47 454.68 211.36 491.32 264.67 367.87"/><polygon class="cls-4" points="0 451 73.06 264.52 18.71 234.78 0 451"/><polygon class="cls-5" points="21.14 290.9 0 451 18.71 234.78 21.14 290.9"/><polygon class="cls-6" points="7.32 250.8 21.14 290.9 18.71 234.78 7.32 250.8"/><polygon class="cls-7" points="18.71 234.78 7.32 250.8 32.3 169.21 18.71 234.78"/><polygon class="cls-8" points="73.06 264.52 103.47 194.19 57 216 18.71 234.78 73.06 264.52"/><polygon class="cls-9" points="103.47 194.19 72.57 167.69 57 216 103.47 194.19"/><polygon class="cls-6" points="72.57 167.69 66.2 130 32.3 169.21 72.57 167.69"/><polygon class="cls-10" points="103.47 194.19 66.2 130 72.57 167.69 103.47 194.19"/><polygon class="cls-11" points="18.71 234.78 57 216 72.57 167.69 32.3 169.21 18.71 234.78"/><polygon class="cls-12" points="73.06 264.52 107.11 288.72 94.8 494.16 0 451 73.06 264.52"/><polygon class="cls-13" points="107.11 288.72 122.23 284.4 122.55 494.38 94.8 494.16 107.11 288.72"/><polygon class="cls-14" points="103.47 194.19 120.14 240.71 122.23 284.4 107.11 288.72 73.06 264.52 103.47 194.19"/><polygon class="cls-7" points="202 0 156.06 124.7 271.19 178.8 202 0"/><polygon class="cls-15" points="271.19 178.8 287.1 156.43 263.59 267.62 271.19 178.8"/><polygon class="cls-16" points="156.06 124.7 103.47 194.19 271.19 178.8 156.06 124.7"/><polygon class="cls-17" points="103.47 194.19 156.75 259.95 271.4 178.21 103.47 194.19"/><polygon class="cls-1" points="156.75 259.95 150.22 283.2 263.59 267.62 156.75 259.95"/><polygon class="cls-18" points="271.4 178.21 156.74 259.19 156.75 259.95 263.59 267.62 271.4 178.21"/><polygon class="cls-19" points="156.06 124.7 108.51 90.89 129.89 13.45 202 0 156.06 124.7"/><polygon class="cls-20" points="108.51 90.89 75.1 97.23 83.65 31.1 129.89 13.45 108.51 90.89"/><polygon class="cls-21" points="103.47 194.19 66.2 130 75.1 97.23 108.51 90.89 156.06 124.7 103.47 194.19"/><polygon class="cls-7" points="173.49 486.41 188.63 343.67 150.22 283.2 173.49 486.41"/><polygon class="cls-2" points="148.89 494.17 173.49 486.41 150.22 283.2 148.89 494.17"/><polygon class="cls-6" points="122.55 494.38 148.89 494.17 150.22 283.2 122.55 494.38"/><polygon class="cls-7" points="122.23 284.4 122.55 494.38 150.22 283.2 120.14 240.71 122.23 284.4"/><polygon class="cls-22" points="120.14 240.71 150.22 283.2 156.74 259.19 103.47 194.19 120.14 240.71"/><polygon class="cls-2" points="188.63 343.67 263.59 267.62 150.22 283.2 188.63 343.67"/><polygon class="cls-23" points="188.63 343.67 264.67 367.87 211.36 491.32 173.49 486.41 188.63 343.67"/><polygon class="cls-16" points="263.59 267.62 335.84 364.42 337.94 408.11 264.67 367.87 188.63 343.67 263.59 267.62"/><line class="cls-7" x1="272.98" y1="115.72" x2="251.8" y2="101.45"/><polygon class="cls-24" points="356.14 199 270.95 158.74 276.74 174.65 356.14 199"/><polygon class="cls-25" points="270.95 158.74 251.67 129 276.74 174.65 270.95 158.74"/><polygon class="cls-26" points="251.67 129 215.36 133.65 276.94 174.82 251.67 129"/><polygon class="cls-24" points="215.36 133.65 201.94 126.6 202.98 145.8 215.36 133.65"/><polygon class="cls-25" points="276.94 174.82 215.67 133.78 215.36 133.65 202.98 145.8 276.94 174.82"/><polygon class="cls-25" points="270.95 158.74 293.15 149.93 372 197.4 356.14 199 270.95 158.74"/><polygon class="cls-27" points="293.15 149.93 335.64 154.5 364.07 173.01 372 197.4 293.15 149.93"/><polygon class="cls-28" points="251.67 129 284.53 129.15 335.64 154.5 293.15 149.93 270.95 158.74 251.67 129"/><polygon class="cls-28" points="229.67 125.6 201.94 126.6 215.67 133.78 251.67 129 229.67 125.6"/><circle class="cls-29" cx="143.5" cy="106.5" r="9.5"/><circle class="cls-29" cx="246.5" cy="96.5" r="9.5"/></g></g></svg>