<svg xmlns="http://www.w3.org/2000/svg" viewBox="0 0 346 504.05"><defs><style>.cls-1,.cls-2,.cls-3,.cls-4{fill:#16d880;}.cls-1{opacity:0.6;}.cls-2{opacity:0.4;}.cls-3{opacity:0.5;}.cls-4{opacity:0.7;}.cls-5{fill:#3bf296;opacity:0.53;}</style></defs><title>Asset 15</title><g id="Layer_2" data-name="Layer 2"><g id="Layer_1-2" data-name="Layer 1"><polygon class="cls-1" points="320 245.05 222 245.05 346 350.05 320 245.05"/><polygon class="cls-2" points="320 245.05 126.22 0 222 245.05 320 245.05"/><polygon class="cls-3" points="222 245.05 138.28 323.84 346 350.05 222 245.05"/><polygon class="cls-1" points="138.28 323.84 108 504.05 346 350.05 138.28 323.84"/><polygon class="cls-4" points="346 350.05 108 504.05 312 428.05 346 350.05"/><polygon class="cls-3" points="312 428.05 108 504.05 253.43 466.88 312 428.05"/><polygon class="cls-5" points="0 324.05 108 504.05 138.56 324.18 0 324.05"/><polygon class="cls-1" points="138.28 323.84 82 223.05 108 146.05 126 0.05 222 245.05 138.28 323.84"/><polygon class="cls-3" points="138.56 324.18 0 324.05 0 324.05 34 274.05 82 223.05 138.56 324.18"/><polyline class="cls-1" points="0 324.05 108 504.05 49.65 461.17 0 324.05"/><polygon class="cls-2" points="108 146.05 222 245.05 139 324.05 108 146.05"/></g></g></svg>